<svg xmlns="http://www.w3.org/2000/svg" xmlns:xlink="http://www.w3.org/1999/xlink" width="200" zoomAndPan="magnify" viewBox="0 0 150 149.999998" height="200" preserveAspectRatio="xMidYMid meet" version="1.2"><defs><clipPath id="c699427321"><path d="M 0 21 L 0 129 C 0 140.597656 9.402344 150 21 150 L 129 150 C 140.597656 150 150 140.597656 150 129 L 150 21 C 150 9.402344 140.597656 0 129 0 L 21 0 C 9.402344 0 0 9.402344 0 21 Z M 0 21 "/></clipPath></defs><g id="5f446d0a90"><g clip-rule="nonzero" clip-path="url(#c699427321)"><path style=" stroke:none;fill-rule:nonzero;fill:#006eff;fill-opacity:1;" d="M 109.652344 60.660156 L 150.003906 75.011719 L 109.652344 89.359375 L 128.039062 128.039062 L 89.359375 109.652344 L 75.007812 150.003906 L 60.660156 109.652344 L 21.980469 128.039062 L 40.367188 89.359375 L 0.015625 75.007812 L 40.367188 60.660156 L 21.980469 21.980469 L 60.660156 40.367188 L 75.011719 0.015625 L 89.359375 40.367188 L 128.039062 21.980469 Z M 109.652344 60.660156 "/></g><g style="fill:#ffffff;fill-opacity:1;"><g transform="translate(52.227328, 89.287848)"><path style="stroke:none" d="M 8.46875 -2.640625 C 6.988281 -2.140625 5.535156 -2.019531 4.109375 -2.28125 C 2.679688 -2.550781 1.421875 -3.171875 0.328125 -4.140625 C -0.765625 -5.117188 -1.570312 -6.367188 -2.09375 -7.890625 C -2.613281 -9.398438 -2.738281 -10.875 -2.46875 -12.3125 C -2.195312 -13.75 -1.578125 -15.015625 -0.609375 -16.109375 C 0.359375 -17.210938 1.582031 -18.019531 3.0625 -18.53125 C 4.28125 -18.945312 5.460938 -19.101562 6.609375 -19 C 7.765625 -18.894531 8.835938 -18.535156 9.828125 -17.921875 L 8.578125 -15.421875 C 7.128906 -16.265625 5.644531 -16.425781 4.125 -15.90625 C 3.15625 -15.570312 2.363281 -15.046875 1.75 -14.328125 C 1.132812 -13.617188 0.75 -12.785156 0.59375 -11.828125 C 0.4375 -10.878906 0.53125 -9.90625 0.875 -8.90625 C 1.21875 -7.882812 1.742188 -7.050781 2.453125 -6.40625 C 3.160156 -5.757812 3.976562 -5.335938 4.90625 -5.140625 C 5.832031 -4.953125 6.78125 -5.023438 7.75 -5.359375 C 9.269531 -5.878906 10.332031 -6.929688 10.9375 -8.515625 L 13.46875 -7.328125 C 13.082031 -6.234375 12.460938 -5.285156 11.609375 -4.484375 C 10.753906 -3.679688 9.707031 -3.066406 8.46875 -2.640625 Z M 8.46875 -2.640625 "/></g></g><g style="fill:#ffffff;fill-opacity:1;"><g transform="translate(66.802786, 84.288591)"><path style="stroke:none" d="M -1.328125 -17.78125 L 4.265625 -1.46875 L 1.40625 -0.484375 L -4.1875 -16.796875 Z M -1.328125 -17.78125 "/></g></g><g style="fill:#ffffff;fill-opacity:1;"><g transform="translate(72.49667, 82.335638)"><path style="stroke:none" d="M -1.828125 -14.59375 C -2.359375 -14.414062 -2.851562 -14.429688 -3.3125 -14.640625 C -3.78125 -14.847656 -4.097656 -15.195312 -4.265625 -15.6875 C -4.429688 -16.175781 -4.394531 -16.644531 -4.15625 -17.09375 C -3.925781 -17.550781 -3.546875 -17.867188 -3.015625 -18.046875 C -2.492188 -18.222656 -2.007812 -18.210938 -1.5625 -18.015625 C -1.113281 -17.816406 -0.804688 -17.472656 -0.640625 -16.984375 C -0.460938 -16.460938 -0.484375 -15.976562 -0.703125 -15.53125 C -0.929688 -15.082031 -1.304688 -14.769531 -1.828125 -14.59375 Z M 0.234375 -13.234375 L 4.265625 -1.46875 L 1.40625 -0.484375 L -2.625 -12.25 Z M 0.234375 -13.234375 "/></g></g><g style="fill:#ffffff;fill-opacity:1;"><g transform="translate(78.190553, 80.382685)"><path style="stroke:none" d="M 6.6875 -2.140625 C 5.507812 -1.734375 4.367188 -1.625 3.265625 -1.8125 C 2.160156 -2.007812 1.1875 -2.476562 0.34375 -3.21875 C -0.5 -3.957031 -1.117188 -4.90625 -1.515625 -6.0625 C -1.910156 -7.21875 -2.003906 -8.34375 -1.796875 -9.4375 C -1.585938 -10.539062 -1.101562 -11.503906 -0.34375 -12.328125 C 0.414062 -13.160156 1.382812 -13.78125 2.5625 -14.1875 C 3.6875 -14.570312 4.753906 -14.664062 5.765625 -14.46875 C 6.785156 -14.28125 7.660156 -13.796875 8.390625 -13.015625 L 6.625 -10.984375 C 5.625 -11.878906 4.539062 -12.125 3.375 -11.71875 C 2.4375 -11.40625 1.78125 -10.820312 1.40625 -9.96875 C 1.03125 -9.113281 1.03125 -8.144531 1.40625 -7.0625 C 1.78125 -5.957031 2.375 -5.1875 3.1875 -4.75 C 4.007812 -4.320312 4.890625 -4.265625 5.828125 -4.578125 C 6.992188 -4.984375 7.695312 -5.835938 7.9375 -7.140625 L 10.59375 -6.59375 C 10.46875 -5.550781 10.0625 -4.640625 9.375 -3.859375 C 8.695312 -3.085938 7.800781 -2.515625 6.6875 -2.140625 Z M 6.6875 -2.140625 "/></g></g><g style="fill:#ffffff;fill-opacity:1;"><g transform="translate(89.952045, 76.348594)"><path style="stroke:none" d="M 3.203125 -4.578125 L 4.265625 -1.46875 L 1.40625 -0.484375 L -4.1875 -16.796875 L -1.328125 -17.78125 L 1.984375 -8.109375 L 5.390625 -15 L 8.828125 -16.171875 L 5.8125 -9.609375 L 13.28125 -4.5625 L 9.828125 -3.375 L 4.390625 -7 Z M 3.203125 -4.578125 "/></g></g></g></svg>