<svg xmlns="http://www.w3.org/2000/svg" xmlns:xlink="http://www.w3.org/1999/xlink" width="200" zoomAndPan="magnify" viewBox="0 0 150 149.999998" height="200" preserveAspectRatio="xMidYMid meet" version="1.2"><defs/><g id="a0bf2e4b9a"><path style=" stroke:none;fill-rule:nonzero;fill:#ffcf00;fill-opacity:1;" d="M 45.601562 141.121094 C 45.046875 141.457031 44.46875 141.734375 43.859375 141.960938 C 43.253906 142.183594 42.628906 142.351562 41.992188 142.457031 C 41.355469 142.566406 40.710938 142.609375 40.0625 142.597656 C 39.417969 142.582031 38.777344 142.507812 38.144531 142.375 C 37.511719 142.238281 36.894531 142.046875 36.296875 141.792969 C 35.703125 141.542969 35.132812 141.238281 34.59375 140.882812 C 34.054688 140.523438 33.554688 140.117188 33.089844 139.664062 C 32.628906 139.210938 32.210938 138.71875 31.84375 138.191406 C 30.835938 136.242188 29.910156 134.253906 29.070312 132.226562 C 28.226562 130.199219 27.472656 128.140625 26.804688 126.050781 C 26.132812 123.960938 25.554688 121.847656 25.0625 119.710938 C 24.570312 117.570312 24.167969 115.417969 23.855469 113.246094 C 23.542969 111.074219 23.320312 108.890625 23.191406 106.699219 C 23.0625 104.511719 23.023438 102.320312 23.078125 100.125 C 23.132812 97.929688 23.277344 95.742188 23.511719 93.5625 C 23.75 91.382812 24.078125 89.214844 24.492188 87.058594 C 24.910156 84.90625 25.417969 82.773438 26.015625 80.660156 C 26.609375 78.550781 27.292969 76.464844 28.0625 74.410156 C 28.835938 72.355469 29.6875 70.339844 30.628906 68.355469 C 31.566406 66.371094 32.585938 64.429688 33.6875 62.535156 C 34.789062 60.636719 35.96875 58.789062 37.222656 56.988281 C 38.480469 55.1875 39.808594 53.445312 41.210938 51.757812 C 42.613281 50.070312 44.082031 48.441406 45.621094 46.878906 C 47.15625 45.3125 48.757812 43.8125 50.421875 42.382812 C 52.085938 40.949219 53.804688 39.589844 55.582031 38.304688 C 57.355469 37.015625 59.183594 35.804688 61.0625 34.671875 C 62.941406 33.535156 64.863281 32.480469 66.828125 31.507812 C 68.796875 30.53125 70.796875 29.640625 72.839844 28.835938 C 74.878906 28.027344 76.949219 27.308594 79.050781 26.675781 C 81.152344 26.042969 83.273438 25.496094 85.421875 25.042969 C 87.566406 24.585938 89.730469 24.21875 91.90625 23.945312 C 94.082031 23.671875 96.269531 23.488281 98.460938 23.394531 C 100.652344 23.300781 102.84375 23.300781 105.035156 23.390625 C 107.230469 23.484375 109.414062 23.664062 111.589844 23.9375 C 113.769531 24.210938 115.929688 24.574219 118.078125 25.03125 C 120.222656 25.484375 122.347656 26.027344 124.449219 26.660156 C 126.550781 27.292969 128.621094 28.011719 130.660156 28.816406 C 132.703125 29.621094 134.707031 30.507812 136.675781 31.480469 C 138.640625 32.453125 140.5625 33.507812 142.441406 34.640625 C 144.320312 35.773438 146.148438 36.984375 147.925781 38.269531 C 148.398438 38.714844 148.820312 39.203125 149.199219 39.726562 C 149.578125 40.25 149.90625 40.808594 150.179688 41.394531 C 150.453125 41.980469 150.667969 42.585938 150.828125 43.214844 C 150.988281 43.84375 151.085938 44.480469 151.125 45.125 C 151.164062 45.769531 151.144531 46.414062 151.0625 47.058594 C 150.980469 47.699219 150.835938 48.328125 150.636719 48.945312 C 150.433594 49.558594 150.179688 50.148438 149.867188 50.71875 C 149.554688 51.285156 149.191406 51.816406 148.777344 52.316406 L 134.636719 67.277344 C 134.210938 67.875 133.722656 68.421875 133.179688 68.914062 C 132.636719 69.40625 132.046875 69.835938 131.414062 70.203125 C 130.777344 70.570312 130.109375 70.867188 129.414062 71.09375 C 128.714844 71.316406 128 71.464844 127.269531 71.539062 C 126.539062 71.609375 125.808594 71.601562 125.082031 71.519531 C 124.351562 71.433594 123.640625 71.273438 122.945312 71.039062 C 122.25 70.800781 121.589844 70.496094 120.960938 70.117188 C 120.332031 69.738281 119.75 69.296875 119.214844 68.796875 C 117.558594 67.925781 115.84375 67.1875 114.078125 66.574219 C 112.308594 65.960938 110.507812 65.484375 108.667969 65.140625 C 106.828125 64.796875 104.972656 64.589844 103.105469 64.523438 C 101.234375 64.457031 99.371094 64.53125 97.511719 64.746094 C 95.652344 64.957031 93.820312 65.304688 92.011719 65.792969 C 90.207031 66.28125 88.445312 66.898438 86.730469 67.648438 C 85.019531 68.398438 83.371094 69.269531 81.785156 70.265625 C 80.203125 71.261719 78.703125 72.371094 77.285156 73.589844 C 75.867188 74.8125 74.546875 76.128906 73.324219 77.546875 C 72.105469 78.964844 70.996094 80.464844 70 82.050781 C 69.003906 83.632812 68.128906 85.28125 67.378906 86.996094 C 66.628906 88.710938 66.011719 90.46875 65.523438 92.277344 C 65.039062 94.082031 64.6875 95.914062 64.476562 97.773438 C 64.261719 99.632812 64.1875 101.496094 64.253906 103.367188 C 64.320312 105.234375 64.523438 107.089844 64.867188 108.929688 C 65.210938 110.769531 65.6875 112.570312 66.300781 114.339844 C 66.71875 114.945312 67.066406 115.585938 67.347656 116.261719 C 67.625 116.941406 67.832031 117.640625 67.960938 118.363281 C 68.09375 119.085938 68.144531 119.8125 68.121094 120.546875 C 68.09375 121.28125 67.992188 122.003906 67.8125 122.714844 C 67.632812 123.425781 67.378906 124.109375 67.054688 124.765625 C 66.726562 125.425781 66.335938 126.039062 65.878906 126.613281 C 65.417969 127.1875 64.90625 127.707031 64.339844 128.167969 C 63.769531 128.632812 63.15625 129.03125 62.503906 129.363281 Z M 45.601562 141.121094 "/><g style="fill:#000000;fill-opacity:1;"><g transform="translate(54.101986, 126.18933)"><path style="stroke:none" d="M -17 -19.453125 L -15.78125 -14.515625 C -17.894531 -13.359375 -18.582031 -11.269531 -17.84375 -8.25 C -17.394531 -6.425781 -16.519531 -5.117188 -15.21875 -4.328125 C -13.925781 -3.535156 -12.375 -3.363281 -10.5625 -3.8125 C -8.738281 -4.257812 -7.441406 -5.132812 -6.671875 -6.4375 C -5.898438 -7.738281 -5.738281 -9.300781 -6.1875 -11.125 C -6.570312 -12.726562 -7.21875 -13.914062 -8.125 -14.6875 C -9.039062 -15.46875 -10.109375 -15.789062 -11.328125 -15.65625 L -12.546875 -20.625 C -11.023438 -20.84375 -9.585938 -20.640625 -8.234375 -20.015625 C -6.878906 -19.398438 -5.703125 -18.414062 -4.703125 -17.0625 C -3.703125 -15.707031 -2.957031 -14.03125 -2.46875 -12.03125 C -1.914062 -9.820312 -1.832031 -7.800781 -2.21875 -5.96875 C -2.601562 -4.144531 -3.398438 -2.613281 -4.609375 -1.375 C -5.828125 -0.144531 -7.398438 0.707031 -9.328125 1.1875 C -11.234375 1.65625 -13.015625 1.625 -14.671875 1.09375 C -16.328125 0.5625 -17.75 -0.421875 -18.9375 -1.859375 C -20.125 -3.304688 -20.992188 -5.132812 -21.546875 -7.34375 C -22.035156 -9.34375 -22.15625 -11.164062 -21.90625 -12.8125 C -21.664062 -14.46875 -21.117188 -15.863281 -20.265625 -17 C -19.410156 -18.144531 -18.320312 -18.960938 -17 -19.453125 Z M -17 -19.453125 "/></g></g><g style="fill:#000000;fill-opacity:1;"><g transform="translate(48.369855, 104.944405)"><path style="stroke:none" d="M -16.71875 -15.46875 C -16.3125 -17.71875 -15.554688 -19.59375 -14.453125 -21.09375 C -13.359375 -22.59375 -12.003906 -23.660156 -10.390625 -24.296875 C -8.785156 -24.929688 -7.015625 -25.070312 -5.078125 -24.71875 C -3.128906 -24.375 -1.503906 -23.625 -0.203125 -22.46875 C 1.085938 -21.3125 1.984375 -19.84375 2.484375 -18.0625 C 2.992188 -16.28125 3.046875 -14.265625 2.640625 -12.015625 C 2.242188 -9.765625 1.492188 -7.878906 0.390625 -6.359375 C -0.703125 -4.847656 -2.054688 -3.773438 -3.671875 -3.140625 C -5.285156 -2.503906 -7.066406 -2.359375 -9.015625 -2.703125 C -10.953125 -3.054688 -12.566406 -3.8125 -13.859375 -4.96875 C -15.148438 -6.125 -16.046875 -7.597656 -16.546875 -9.390625 C -17.054688 -11.191406 -17.113281 -13.21875 -16.71875 -15.46875 Z M -12.953125 -14.796875 C -13.273438 -12.953125 -13.003906 -11.40625 -12.140625 -10.15625 C -11.285156 -8.90625 -9.941406 -8.113281 -8.109375 -7.78125 C -6.253906 -7.457031 -4.707031 -7.734375 -3.46875 -8.609375 C -2.238281 -9.484375 -1.460938 -10.84375 -1.140625 -12.6875 C -0.804688 -14.519531 -1.066406 -16.054688 -1.921875 -17.296875 C -2.773438 -18.546875 -4.128906 -19.332031 -5.984375 -19.65625 C -7.835938 -19.988281 -9.378906 -19.71875 -10.609375 -18.84375 C -11.835938 -17.976562 -12.617188 -16.628906 -12.953125 -14.796875 Z M -12.953125 -14.796875 "/></g></g><g style="fill:#000000;fill-opacity:1;"><g transform="translate(51.951985, 82.834613)"><path style="stroke:none" d="M -14.34375 -12.15625 L -11.125 -16.9375 L 5.03125 -17.328125 L -5.90625 -24.6875 L -3.390625 -28.421875 L 12.109375 -17.984375 L 8.9375 -13.265625 L -7.359375 -12.90625 L 3.6875 -5.46875 L 1.15625 -1.71875 Z M -14.34375 -12.15625 "/></g></g><g style="fill:#000000;fill-opacity:1;"><g transform="translate(64.312362, 64.889695)"><path style="stroke:none" d="M -11.078125 -15.046875 L 3.109375 -25.296875 L 5.359375 -22.1875 L 0.15625 -18.4375 L 8.859375 -6.40625 L 5.0625 -3.65625 L -3.640625 -15.6875 L -8.828125 -11.9375 Z M -11.078125 -15.046875 "/></g></g><g style="fill:#000000;fill-opacity:1;"><g transform="translate(76.493867, 55.361401)"><path style="stroke:none" d="M -0.5 0.15625 L 2.46875 -20.3125 L 6.75 -21.640625 L 20.375 -6.28125 L 15.421875 -4.75 L 12.625 -8.046875 L 4.75 -5.625 L 4.328125 -1.328125 Z M 5.171875 -9.703125 L 9.890625 -11.15625 L 5.8125 -15.9375 Z M 5.171875 -9.703125 "/></g></g><g style="fill:#000000;fill-opacity:1;"><g transform="translate(94.312655, 49.131193)"><path style="stroke:none" d="M 23.890625 -9.8125 L 18.828125 -10.25 C 18.421875 -12.613281 16.671875 -13.929688 13.578125 -14.203125 C 11.710938 -14.367188 10.191406 -13.96875 9.015625 -13 C 7.847656 -12.03125 7.179688 -10.617188 7.015625 -8.765625 C 6.847656 -6.890625 7.257812 -5.375 8.25 -4.21875 C 9.238281 -3.070312 10.664062 -2.414062 12.53125 -2.25 C 14.164062 -2.113281 15.5 -2.347656 16.53125 -2.953125 C 17.5625 -3.566406 18.210938 -4.46875 18.484375 -5.65625 L 23.578125 -5.203125 C 23.285156 -3.710938 22.625 -2.425781 21.59375 -1.34375 C 20.570312 -0.257812 19.257812 0.535156 17.65625 1.046875 C 16.050781 1.566406 14.226562 1.738281 12.1875 1.5625 C 9.914062 1.351562 7.976562 0.769531 6.375 -0.1875 C 4.769531 -1.144531 3.578125 -2.394531 2.796875 -3.9375 C 2.023438 -5.476562 1.722656 -7.238281 1.890625 -9.21875 C 2.066406 -11.175781 2.671875 -12.851562 3.703125 -14.25 C 4.734375 -15.644531 6.125 -16.671875 7.875 -17.328125 C 9.625 -17.992188 11.632812 -18.222656 13.90625 -18.015625 C 15.945312 -17.835938 17.707031 -17.363281 19.1875 -16.59375 C 20.675781 -15.832031 21.820312 -14.863281 22.625 -13.6875 C 23.4375 -12.519531 23.859375 -11.226562 23.890625 -9.8125 Z M 23.890625 -9.8125 "/></g></g><g style="fill:#000000;fill-opacity:1;"><g transform="translate(116.310391, 51.320896)"><path style="stroke:none" d="M 7.859375 -16.953125 L 23.671875 -9.46875 L 22.03125 -5.984375 L 16.25 -8.71875 L 9.890625 4.6875 L 5.640625 2.671875 L 12 -10.734375 L 6.21875 -13.46875 Z M 7.859375 -16.953125 "/></g></g></g></svg>