<svg xmlns="http://www.w3.org/2000/svg" xmlns:xlink="http://www.w3.org/1999/xlink" width="200" zoomAndPan="magnify" viewBox="0 0 150 74.999997" height="100" preserveAspectRatio="xMidYMid meet" version="1.2"><defs><clipPath id="5d8406a627"><path d="M 19 2 L 136 2 L 136 73 L 19 73 Z M 19 2 "/></clipPath><clipPath id="65b5fc64b5"><path d="M 19.199219 11.273438 L 130.785156 2.246094 L 135.777344 63.953125 L 24.191406 72.980469 Z M 19.199219 11.273438 "/></clipPath><clipPath id="34f1c46582"><path d="M 19 2 L 136 2 L 136 73 L 19 73 Z M 19 2 "/></clipPath><clipPath id="64f79bd665"><path d="M 19.199219 11.273438 L 130.585938 2.265625 L 135.605469 64.3125 L 24.21875 73.324219 Z M 19.199219 11.273438 "/></clipPath><clipPath id="da8197b912"><path d="M 19.207031 11.273438 L 130.578125 2.265625 L 135.5625 63.851562 L 24.1875 72.863281 Z M 19.207031 11.273438 "/></clipPath><clipPath id="3adf5e623c"><path d="M 19 3 L 134 3 L 134 70 L 19 70 Z M 19 3 "/></clipPath><clipPath id="a39893ea43"><path d="M 19.199219 7.421875 L 131.066406 3.050781 L 133.484375 64.910156 L 21.617188 69.28125 Z M 19.199219 7.421875 "/></clipPath><clipPath id="bbdd28775a"><path d="M 19 3 L 134 3 L 134 70 L 19 70 Z M 19 3 "/></clipPath><clipPath id="dec14233a3"><path d="M 19.199219 7.421875 L 130.863281 3.058594 L 133.296875 65.261719 L 21.632812 69.625 Z M 19.199219 7.421875 "/></clipPath><clipPath id="3728f62b9a"><path d="M 19.207031 7.421875 L 130.859375 3.058594 L 133.273438 64.796875 L 21.621094 69.164062 Z M 19.207031 7.421875 "/></clipPath><clipPath id="6e3e433633"><path d="M 19.199219 2.019531 L 131.148438 2.019531 L 131.148438 63.925781 L 19.199219 63.925781 Z M 19.199219 2.019531 "/></clipPath><clipPath id="389c5695c1"><path d="M 19.207031 2.019531 L 130.945312 2.019531 L 130.945312 63.808594 L 19.207031 63.808594 Z M 19.207031 2.019531 "/></clipPath></defs><g id="a97c7f7dd6"><g clip-rule="nonzero" clip-path="url(#5d8406a627)"><g clip-rule="nonzero" clip-path="url(#65b5fc64b5)"><path style=" stroke:none;fill-rule:nonzero;fill:#ffffff;fill-opacity:1;" d="M 19.199219 11.273438 L 130.796875 2.246094 L 135.789062 63.953125 L 24.191406 72.980469 Z M 19.199219 11.273438 "/></g></g><g clip-rule="nonzero" clip-path="url(#34f1c46582)"><g clip-rule="nonzero" clip-path="url(#64f79bd665)"><g clip-rule="nonzero" clip-path="url(#da8197b912)"><path style="fill:none;stroke-width:4;stroke-linecap:butt;stroke-linejoin:miter;stroke:#000000;stroke-opacity:1;stroke-miterlimit:4;" d="M 0.000426883 -0.00141685 L 149.245733 0.00117204 L 149.248614 82.531124 L -0.00231395 82.533315 Z M 0.000426883 -0.00141685 " transform="matrix(0.746227,-0.0603687,0.0603687,0.746227,19.206798,11.274521)"/></g></g></g><g clip-rule="nonzero" clip-path="url(#3adf5e623c)"><g clip-rule="nonzero" clip-path="url(#a39893ea43)"><path style=" stroke:none;fill-rule:nonzero;fill:#ffffff;fill-opacity:1;" d="M 19.199219 7.421875 L 131.078125 3.050781 L 133.496094 64.90625 L 21.617188 69.28125 Z M 19.199219 7.421875 "/></g></g><g clip-rule="nonzero" clip-path="url(#bbdd28775a)"><g clip-rule="nonzero" clip-path="url(#dec14233a3)"><g clip-rule="nonzero" clip-path="url(#3728f62b9a)"><path style="fill:none;stroke-width:4;stroke-linecap:butt;stroke-linejoin:miter;stroke:#000000;stroke-opacity:1;stroke-miterlimit:4;" d="M 0.000514756 -0.000382546 L 149.24956 0.00131959 L 149.250462 82.528809 L 0.00121367 82.53232 Z M 0.000514756 -0.000382546 " transform="matrix(0.748094,-0.0292434,0.0292434,0.748094,19.206657,7.422176)"/></g></g></g><g clip-rule="nonzero" clip-path="url(#6e3e433633)"><path style=" stroke:none;fill-rule:nonzero;fill:#ffffff;fill-opacity:1;" d="M 19.199219 2.019531 L 131.164062 2.019531 L 131.164062 63.925781 L 19.199219 63.925781 Z M 19.199219 2.019531 "/></g><g clip-rule="nonzero" clip-path="url(#389c5695c1)"><path style="fill:none;stroke-width:4;stroke-linecap:butt;stroke-linejoin:miter;stroke:#000000;stroke-opacity:1;stroke-miterlimit:4;" d="M 0.000695289 -0.00106183 L 149.250695 -0.00106183 L 149.250695 82.53124 L 0.000695289 82.53124 Z M 0.000695289 -0.00106183 " transform="matrix(0.748665,0,0,0.748665,19.206511,2.020326)"/></g><g style="fill:#000000;fill-opacity:1;"><g transform="translate(48.066299, 34.394942)"><path style="stroke:none" d="M -0.0625 -3.484375 L -0.0625 -4.1875 L 3.328125 -4.1875 L 3.328125 -3.484375 L 2.03125 -3.484375 L 2.03125 0 L 1.234375 0 L 1.234375 -3.484375 Z M -0.0625 -3.484375 "/></g></g><g style="fill:#000000;fill-opacity:1;"><g transform="translate(51.332507, 34.394942)"><path style="stroke:none" d="M 3.28125 -1.59375 C 3.28125 -1.582031 3.273438 -1.507812 3.265625 -1.375 L 0.921875 -1.375 C 0.953125 -1.132812 1.050781 -0.945312 1.21875 -0.8125 C 1.394531 -0.675781 1.609375 -0.609375 1.859375 -0.609375 C 2.179688 -0.609375 2.445312 -0.722656 2.65625 -0.953125 L 3.078125 -0.484375 C 2.785156 -0.128906 2.375 0.046875 1.84375 0.046875 C 1.507812 0.046875 1.210938 -0.0195312 0.953125 -0.15625 C 0.691406 -0.300781 0.488281 -0.5 0.34375 -0.75 C 0.207031 -1 0.140625 -1.28125 0.140625 -1.59375 C 0.140625 -1.914062 0.207031 -2.195312 0.34375 -2.4375 C 0.476562 -2.6875 0.664062 -2.878906 0.90625 -3.015625 C 1.15625 -3.160156 1.425781 -3.234375 1.71875 -3.234375 C 2.019531 -3.234375 2.285156 -3.164062 2.515625 -3.03125 C 2.753906 -2.894531 2.941406 -2.703125 3.078125 -2.453125 C 3.210938 -2.210938 3.28125 -1.925781 3.28125 -1.59375 Z M 1.734375 -2.625 C 1.515625 -2.625 1.328125 -2.550781 1.171875 -2.40625 C 1.023438 -2.269531 0.9375 -2.085938 0.90625 -1.859375 L 2.5625 -1.859375 C 2.53125 -2.085938 2.4375 -2.269531 2.28125 -2.40625 C 2.132812 -2.550781 1.953125 -2.625 1.734375 -2.625 Z M 1.734375 -2.625 "/></g></g><g style="fill:#000000;fill-opacity:1;"><g transform="translate(54.753963, 34.394942)"><path style="stroke:none" d="M 1.15625 -4.4375 L 1.15625 0 L 0.375 0 L 0.375 -4.4375 Z M 1.15625 -4.4375 "/></g></g><g style="fill:#000000;fill-opacity:1;"><g transform="translate(56.300484, 34.394942)"><path style="stroke:none" d=""/></g></g><g style="fill:#000000;fill-opacity:1;"><g transform="translate(57.482767, 34.394942)"><path style="stroke:none" d="M 0.75 0.046875 C 0.601562 0.046875 0.476562 0 0.375 -0.09375 C 0.28125 -0.195312 0.234375 -0.328125 0.234375 -0.484375 C 0.234375 -0.628906 0.28125 -0.75 0.375 -0.84375 C 0.476562 -0.9375 0.601562 -0.984375 0.75 -0.984375 C 0.894531 -0.984375 1.015625 -0.9375 1.109375 -0.84375 C 1.210938 -0.75 1.265625 -0.628906 1.265625 -0.484375 C 1.265625 -0.328125 1.210938 -0.195312 1.109375 -0.09375 C 1.015625 0 0.894531 0.046875 0.75 0.046875 Z M 0.75 0.046875 "/></g></g><g style="fill:#000000;fill-opacity:1;"><g transform="translate(58.975549, 34.394942)"><path style="stroke:none" d=""/></g></g><g style="fill:#000000;fill-opacity:1;"><g transform="translate(60.157832, 34.394942)"><path style="stroke:none" d="M 1.796875 0.0625 C 1.453125 0.0625 1.144531 -0.0195312 0.875 -0.1875 C 0.613281 -0.363281 0.40625 -0.613281 0.25 -0.9375 C 0.101562 -1.257812 0.03125 -1.644531 0.03125 -2.09375 C 0.03125 -2.539062 0.101562 -2.925781 0.25 -3.25 C 0.40625 -3.570312 0.613281 -3.816406 0.875 -3.984375 C 1.144531 -4.160156 1.453125 -4.25 1.796875 -4.25 C 2.140625 -4.25 2.441406 -4.160156 2.703125 -3.984375 C 2.972656 -3.816406 3.179688 -3.570312 3.328125 -3.25 C 3.472656 -2.925781 3.546875 -2.539062 3.546875 -2.09375 C 3.546875 -1.644531 3.472656 -1.257812 3.328125 -0.9375 C 3.179688 -0.613281 2.972656 -0.363281 2.703125 -0.1875 C 2.441406 -0.0195312 2.140625 0.0625 1.796875 0.0625 Z M 1.796875 -0.65625 C 2.078125 -0.65625 2.300781 -0.773438 2.46875 -1.015625 C 2.632812 -1.253906 2.71875 -1.613281 2.71875 -2.09375 C 2.71875 -2.570312 2.632812 -2.929688 2.46875 -3.171875 C 2.300781 -3.410156 2.078125 -3.53125 1.796875 -3.53125 C 1.515625 -3.53125 1.289062 -3.410156 1.125 -3.171875 C 0.96875 -2.929688 0.890625 -2.570312 0.890625 -2.09375 C 0.890625 -1.613281 0.96875 -1.253906 1.125 -1.015625 C 1.289062 -0.773438 1.515625 -0.65625 1.796875 -0.65625 Z M 1.796875 -0.65625 "/></g></g><g style="fill:#000000;fill-opacity:1;"><g transform="translate(63.740507, 34.394942)"><path style="stroke:none" d="M 2.40625 0 L 1.5625 0 L 1.5625 -3.5 L 0.6875 -3.5 L 0.6875 -4.1875 L 2.40625 -4.1875 Z M 2.40625 0 "/></g></g><g style="fill:#000000;fill-opacity:1;"><g transform="translate(67.323183, 34.394942)"><path style="stroke:none" d="M 1.796875 0.0625 C 1.453125 0.0625 1.144531 -0.0195312 0.875 -0.1875 C 0.613281 -0.363281 0.40625 -0.613281 0.25 -0.9375 C 0.101562 -1.257812 0.03125 -1.644531 0.03125 -2.09375 C 0.03125 -2.539062 0.101562 -2.925781 0.25 -3.25 C 0.40625 -3.570312 0.613281 -3.816406 0.875 -3.984375 C 1.144531 -4.160156 1.453125 -4.25 1.796875 -4.25 C 2.140625 -4.25 2.441406 -4.160156 2.703125 -3.984375 C 2.972656 -3.816406 3.179688 -3.570312 3.328125 -3.25 C 3.472656 -2.925781 3.546875 -2.539062 3.546875 -2.09375 C 3.546875 -1.644531 3.472656 -1.257812 3.328125 -0.9375 C 3.179688 -0.613281 2.972656 -0.363281 2.703125 -0.1875 C 2.441406 -0.0195312 2.140625 0.0625 1.796875 0.0625 Z M 1.796875 -0.65625 C 2.078125 -0.65625 2.300781 -0.773438 2.46875 -1.015625 C 2.632812 -1.253906 2.71875 -1.613281 2.71875 -2.09375 C 2.71875 -2.570312 2.632812 -2.929688 2.46875 -3.171875 C 2.300781 -3.410156 2.078125 -3.53125 1.796875 -3.53125 C 1.515625 -3.53125 1.289062 -3.410156 1.125 -3.171875 C 0.96875 -2.929688 0.890625 -2.570312 0.890625 -2.09375 C 0.890625 -1.613281 0.96875 -1.253906 1.125 -1.015625 C 1.289062 -0.773438 1.515625 -0.65625 1.796875 -0.65625 Z M 1.796875 -0.65625 "/></g></g><g style="fill:#000000;fill-opacity:1;"><g transform="translate(70.905859, 34.394942)"><path style="stroke:none" d=""/></g></g><g style="fill:#000000;fill-opacity:1;"><g transform="translate(72.088141, 34.394942)"><path style="stroke:none" d="M 1.640625 -2.578125 C 2.234375 -2.578125 2.671875 -2.460938 2.953125 -2.234375 C 3.234375 -2.003906 3.375 -1.691406 3.375 -1.296875 C 3.375 -1.035156 3.3125 -0.800781 3.1875 -0.59375 C 3.0625 -0.394531 2.875 -0.234375 2.625 -0.109375 C 2.375 0.00390625 2.0625 0.0625 1.6875 0.0625 C 1.394531 0.0625 1.109375 0.0195312 0.828125 -0.0625 C 0.546875 -0.144531 0.304688 -0.257812 0.109375 -0.40625 L 0.453125 -1.046875 C 0.609375 -0.921875 0.789062 -0.820312 1 -0.75 C 1.207031 -0.6875 1.429688 -0.65625 1.671875 -0.65625 C 1.941406 -0.65625 2.148438 -0.707031 2.296875 -0.8125 C 2.441406 -0.925781 2.515625 -1.078125 2.515625 -1.265625 C 2.515625 -1.472656 2.4375 -1.628906 2.28125 -1.734375 C 2.125 -1.835938 1.847656 -1.890625 1.453125 -1.890625 L 0.421875 -1.890625 L 0.640625 -4.1875 L 3.125 -4.1875 L 3.125 -3.5 L 1.34375 -3.5 L 1.25 -2.578125 Z M 1.640625 -2.578125 "/></g></g><g style="fill:#000000;fill-opacity:1;"><g transform="translate(75.670817, 34.394942)"><path style="stroke:none" d="M 1.640625 -2.578125 C 2.234375 -2.578125 2.671875 -2.460938 2.953125 -2.234375 C 3.234375 -2.003906 3.375 -1.691406 3.375 -1.296875 C 3.375 -1.035156 3.3125 -0.800781 3.1875 -0.59375 C 3.0625 -0.394531 2.875 -0.234375 2.625 -0.109375 C 2.375 0.00390625 2.0625 0.0625 1.6875 0.0625 C 1.394531 0.0625 1.109375 0.0195312 0.828125 -0.0625 C 0.546875 -0.144531 0.304688 -0.257812 0.109375 -0.40625 L 0.453125 -1.046875 C 0.609375 -0.921875 0.789062 -0.820312 1 -0.75 C 1.207031 -0.6875 1.429688 -0.65625 1.671875 -0.65625 C 1.941406 -0.65625 2.148438 -0.707031 2.296875 -0.8125 C 2.441406 -0.925781 2.515625 -1.078125 2.515625 -1.265625 C 2.515625 -1.472656 2.4375 -1.628906 2.28125 -1.734375 C 2.125 -1.835938 1.847656 -1.890625 1.453125 -1.890625 L 0.421875 -1.890625 L 0.640625 -4.1875 L 3.125 -4.1875 L 3.125 -3.5 L 1.34375 -3.5 L 1.25 -2.578125 Z M 1.640625 -2.578125 "/></g></g><g style="fill:#000000;fill-opacity:1;"><g transform="translate(79.253493, 34.394942)"><path style="stroke:none" d="M 3.359375 0 L 0.25 0 L 0.25 -0.546875 L 1.890625 -2.125 C 2.078125 -2.300781 2.203125 -2.453125 2.265625 -2.578125 C 2.328125 -2.703125 2.359375 -2.828125 2.359375 -2.953125 C 2.359375 -3.128906 2.296875 -3.269531 2.171875 -3.375 C 2.046875 -3.476562 1.863281 -3.53125 1.625 -3.53125 C 1.21875 -3.53125 0.90625 -3.382812 0.6875 -3.09375 L 0.078125 -3.5 C 0.242188 -3.738281 0.460938 -3.921875 0.734375 -4.046875 C 1.015625 -4.179688 1.335938 -4.25 1.703125 -4.25 C 2.003906 -4.25 2.265625 -4.195312 2.484375 -4.09375 C 2.710938 -4 2.890625 -3.859375 3.015625 -3.671875 C 3.140625 -3.492188 3.203125 -3.28125 3.203125 -3.03125 C 3.203125 -2.8125 3.15625 -2.601562 3.0625 -2.40625 C 2.96875 -2.207031 2.785156 -1.976562 2.515625 -1.71875 L 1.4375 -0.6875 L 3.359375 -0.6875 Z M 3.359375 0 "/></g></g><g style="fill:#000000;fill-opacity:1;"><g transform="translate(82.836169, 34.394942)"><path style="stroke:none" d="M 2.828125 -2.203125 C 3.054688 -2.097656 3.226562 -1.960938 3.34375 -1.796875 C 3.46875 -1.628906 3.53125 -1.429688 3.53125 -1.203125 C 3.53125 -0.941406 3.457031 -0.71875 3.3125 -0.53125 C 3.164062 -0.34375 2.960938 -0.195312 2.703125 -0.09375 C 2.441406 0.0078125 2.132812 0.0625 1.78125 0.0625 C 1.4375 0.0625 1.132812 0.0078125 0.875 -0.09375 C 0.613281 -0.195312 0.410156 -0.34375 0.265625 -0.53125 C 0.128906 -0.71875 0.0625 -0.941406 0.0625 -1.203125 C 0.0625 -1.429688 0.117188 -1.628906 0.234375 -1.796875 C 0.359375 -1.960938 0.53125 -2.097656 0.75 -2.203125 C 0.570312 -2.285156 0.4375 -2.398438 0.34375 -2.546875 C 0.257812 -2.703125 0.21875 -2.875 0.21875 -3.0625 C 0.21875 -3.300781 0.28125 -3.507812 0.40625 -3.6875 C 0.539062 -3.863281 0.722656 -4 0.953125 -4.09375 C 1.191406 -4.195312 1.46875 -4.25 1.78125 -4.25 C 2.09375 -4.25 2.367188 -4.195312 2.609375 -4.09375 C 2.847656 -4 3.035156 -3.863281 3.171875 -3.6875 C 3.304688 -3.507812 3.375 -3.300781 3.375 -3.0625 C 3.375 -2.875 3.328125 -2.703125 3.234375 -2.546875 C 3.140625 -2.398438 3.003906 -2.285156 2.828125 -2.203125 Z M 1.78125 -3.625 C 1.550781 -3.625 1.367188 -3.570312 1.234375 -3.46875 C 1.109375 -3.363281 1.046875 -3.21875 1.046875 -3.03125 C 1.046875 -2.851562 1.109375 -2.710938 1.234375 -2.609375 C 1.367188 -2.515625 1.550781 -2.46875 1.78125 -2.46875 C 2.007812 -2.46875 2.191406 -2.515625 2.328125 -2.609375 C 2.460938 -2.710938 2.53125 -2.851562 2.53125 -3.03125 C 2.53125 -3.207031 2.460938 -3.347656 2.328125 -3.453125 C 2.191406 -3.566406 2.007812 -3.625 1.78125 -3.625 Z M 1.78125 -0.5625 C 2.0625 -0.5625 2.28125 -0.617188 2.4375 -0.734375 C 2.59375 -0.859375 2.671875 -1.019531 2.671875 -1.21875 C 2.671875 -1.425781 2.59375 -1.585938 2.4375 -1.703125 C 2.28125 -1.816406 2.0625 -1.875 1.78125 -1.875 C 1.507812 -1.875 1.296875 -1.816406 1.140625 -1.703125 C 0.984375 -1.585938 0.90625 -1.425781 0.90625 -1.21875 C 0.90625 -1.019531 0.984375 -0.859375 1.140625 -0.734375 C 1.304688 -0.617188 1.519531 -0.5625 1.78125 -0.5625 Z M 1.78125 -0.5625 "/></g></g><g style="fill:#000000;fill-opacity:1;"><g transform="translate(86.418845, 34.394942)"><path style="stroke:none" d=""/></g></g><g style="fill:#000000;fill-opacity:1;"><g transform="translate(87.601127, 34.394942)"><path style="stroke:none" d="M 3.359375 0 L 0.25 0 L 0.25 -0.546875 L 1.890625 -2.125 C 2.078125 -2.300781 2.203125 -2.453125 2.265625 -2.578125 C 2.328125 -2.703125 2.359375 -2.828125 2.359375 -2.953125 C 2.359375 -3.128906 2.296875 -3.269531 2.171875 -3.375 C 2.046875 -3.476562 1.863281 -3.53125 1.625 -3.53125 C 1.21875 -3.53125 0.90625 -3.382812 0.6875 -3.09375 L 0.078125 -3.5 C 0.242188 -3.738281 0.460938 -3.921875 0.734375 -4.046875 C 1.015625 -4.179688 1.335938 -4.25 1.703125 -4.25 C 2.003906 -4.25 2.265625 -4.195312 2.484375 -4.09375 C 2.710938 -4 2.890625 -3.859375 3.015625 -3.671875 C 3.140625 -3.492188 3.203125 -3.28125 3.203125 -3.03125 C 3.203125 -2.8125 3.15625 -2.601562 3.0625 -2.40625 C 2.96875 -2.207031 2.785156 -1.976562 2.515625 -1.71875 L 1.4375 -0.6875 L 3.359375 -0.6875 Z M 3.359375 0 "/></g></g><g style="fill:#000000;fill-opacity:1;"><g transform="translate(91.183803, 34.394942)"><path style="stroke:none" d="M 1.625 -4.25 C 2.207031 -4.25 2.660156 -4.066406 2.984375 -3.703125 C 3.304688 -3.347656 3.46875 -2.835938 3.46875 -2.171875 C 3.46875 -1.703125 3.378906 -1.296875 3.203125 -0.953125 C 3.023438 -0.617188 2.78125 -0.363281 2.46875 -0.1875 C 2.15625 -0.0195312 1.789062 0.0625 1.375 0.0625 C 1.164062 0.0625 0.960938 0.0390625 0.765625 0 C 0.578125 -0.0507812 0.410156 -0.117188 0.265625 -0.203125 L 0.578125 -0.84375 C 0.773438 -0.695312 1.039062 -0.625 1.375 -0.625 C 1.695312 -0.625 1.960938 -0.707031 2.171875 -0.875 C 2.378906 -1.050781 2.507812 -1.304688 2.5625 -1.640625 C 2.59375 -1.796875 2.609375 -1.9375 2.609375 -2.0625 C 2.492188 -1.90625 2.34375 -1.785156 2.15625 -1.703125 C 1.96875 -1.628906 1.753906 -1.59375 1.515625 -1.59375 C 1.242188 -1.59375 1 -1.644531 0.78125 -1.75 C 0.5625 -1.851562 0.390625 -2.003906 0.265625 -2.203125 C 0.140625 -2.398438 0.078125 -2.625 0.078125 -2.875 C 0.078125 -3.144531 0.144531 -3.382812 0.28125 -3.59375 C 0.414062 -3.800781 0.597656 -3.960938 0.828125 -4.078125 C 1.066406 -4.191406 1.332031 -4.25 1.625 -4.25 Z M 1.703125 -2.21875 C 1.929688 -2.21875 2.117188 -2.28125 2.265625 -2.40625 C 2.421875 -2.539062 2.5 -2.710938 2.5 -2.921875 C 2.5 -3.117188 2.425781 -3.28125 2.28125 -3.40625 C 2.132812 -3.539062 1.929688 -3.609375 1.671875 -3.609375 C 1.441406 -3.609375 1.253906 -3.546875 1.109375 -3.421875 C 0.972656 -3.296875 0.90625 -3.128906 0.90625 -2.921875 C 0.90625 -2.710938 0.972656 -2.539062 1.109375 -2.40625 C 1.253906 -2.28125 1.453125 -2.21875 1.703125 -2.21875 Z M 1.703125 -2.21875 "/></g></g><g style="fill:#000000;fill-opacity:1;"><g transform="translate(94.766479, 34.394942)"><path style="stroke:none" d="M 3.359375 0 L 0.25 0 L 0.25 -0.546875 L 1.890625 -2.125 C 2.078125 -2.300781 2.203125 -2.453125 2.265625 -2.578125 C 2.328125 -2.703125 2.359375 -2.828125 2.359375 -2.953125 C 2.359375 -3.128906 2.296875 -3.269531 2.171875 -3.375 C 2.046875 -3.476562 1.863281 -3.53125 1.625 -3.53125 C 1.21875 -3.53125 0.90625 -3.382812 0.6875 -3.09375 L 0.078125 -3.5 C 0.242188 -3.738281 0.460938 -3.921875 0.734375 -4.046875 C 1.015625 -4.179688 1.335938 -4.25 1.703125 -4.25 C 2.003906 -4.25 2.265625 -4.195312 2.484375 -4.09375 C 2.710938 -4 2.890625 -3.859375 3.015625 -3.671875 C 3.140625 -3.492188 3.203125 -3.28125 3.203125 -3.03125 C 3.203125 -2.8125 3.15625 -2.601562 3.0625 -2.40625 C 2.96875 -2.207031 2.785156 -1.976562 2.515625 -1.71875 L 1.4375 -0.6875 L 3.359375 -0.6875 Z M 3.359375 0 "/></g></g><g style="fill:#000000;fill-opacity:1;"><g transform="translate(98.349155, 34.394942)"><path style="stroke:none" d="M 3.046875 -0.9375 L 3.046875 0 L 2.234375 0 L 2.234375 -0.9375 L -0.046875 -0.9375 L -0.046875 -1.5 L 1.984375 -4.1875 L 2.875 -4.1875 L 0.96875 -1.625 L 2.25 -1.625 L 2.25 -2.453125 L 3.046875 -2.453125 L 3.046875 -1.625 L 3.78125 -1.625 L 3.78125 -0.9375 Z M 3.046875 -0.9375 "/></g></g><g style="fill:#000000;fill-opacity:1;"><g transform="translate(57.472409, 17.974275)"><path style="stroke:none" d="M 3.984375 0 L 3.328125 0 L 1.21875 -2.75 L 1.21875 0 L 0.421875 0 L 0.421875 -4.1875 L 1.078125 -4.1875 L 3.203125 -1.4375 L 3.203125 -4.1875 L 3.984375 -4.1875 Z M 3.984375 0 "/></g></g><g style="fill:#000000;fill-opacity:1;"><g transform="translate(61.885073, 17.974275)"><path style="stroke:none" d="M 1.578125 -3.234375 C 2.023438 -3.234375 2.367188 -3.117188 2.609375 -2.890625 C 2.859375 -2.660156 2.984375 -2.316406 2.984375 -1.859375 L 2.984375 0 L 2.25 0 L 2.25 -0.4375 C 2.164062 -0.28125 2.039062 -0.160156 1.875 -0.078125 C 1.71875 0.00390625 1.523438 0.046875 1.296875 0.046875 C 0.953125 0.046875 0.675781 -0.0390625 0.46875 -0.21875 C 0.269531 -0.394531 0.171875 -0.625 0.171875 -0.90625 C 0.171875 -1.195312 0.273438 -1.425781 0.484375 -1.59375 C 0.691406 -1.769531 1.007812 -1.859375 1.4375 -1.859375 L 2.203125 -1.859375 C 2.203125 -1.992188 2.1875 -2.101562 2.15625 -2.1875 C 2.0625 -2.457031 1.832031 -2.59375 1.46875 -2.59375 C 1.300781 -2.59375 1.132812 -2.5625 0.96875 -2.5 C 0.8125 -2.445312 0.675781 -2.367188 0.5625 -2.265625 L 0.28125 -2.84375 C 0.445312 -2.96875 0.644531 -3.0625 0.875 -3.125 C 1.101562 -3.195312 1.335938 -3.234375 1.578125 -3.234375 Z M 1.484375 -0.515625 C 1.660156 -0.515625 1.8125 -0.554688 1.9375 -0.640625 C 2.0625 -0.722656 2.148438 -0.84375 2.203125 -1 L 2.203125 -1.375 L 1.53125 -1.375 C 1.125 -1.375 0.921875 -1.234375 0.921875 -0.953125 C 0.921875 -0.816406 0.96875 -0.707031 1.0625 -0.625 C 1.164062 -0.550781 1.304688 -0.515625 1.484375 -0.515625 Z M 1.484375 -0.515625 "/></g></g><g style="fill:#000000;fill-opacity:1;"><g transform="translate(65.228903, 17.974275)"><path style="stroke:none" d="M 4.234375 -3.234375 C 4.617188 -3.234375 4.921875 -3.113281 5.140625 -2.875 C 5.359375 -2.644531 5.46875 -2.300781 5.46875 -1.84375 L 5.46875 0 L 4.703125 0 L 4.703125 -1.71875 C 4.703125 -1.988281 4.644531 -2.191406 4.53125 -2.328125 C 4.414062 -2.460938 4.257812 -2.53125 4.0625 -2.53125 C 3.820312 -2.53125 3.632812 -2.453125 3.5 -2.296875 C 3.363281 -2.140625 3.296875 -1.914062 3.296875 -1.625 L 3.296875 0 L 2.53125 0 L 2.53125 -1.71875 C 2.53125 -1.988281 2.472656 -2.191406 2.359375 -2.328125 C 2.253906 -2.460938 2.097656 -2.53125 1.890625 -2.53125 C 1.660156 -2.53125 1.476562 -2.453125 1.34375 -2.296875 C 1.207031 -2.140625 1.140625 -1.914062 1.140625 -1.625 L 1.140625 0 L 0.375 0 L 0.375 -3.1875 L 1.109375 -3.1875 L 1.109375 -2.765625 C 1.210938 -2.910156 1.347656 -3.023438 1.515625 -3.109375 C 1.691406 -3.191406 1.890625 -3.234375 2.109375 -3.234375 C 2.328125 -3.234375 2.523438 -3.179688 2.703125 -3.078125 C 2.878906 -2.984375 3.019531 -2.84375 3.125 -2.65625 C 3.238281 -2.84375 3.390625 -2.984375 3.578125 -3.078125 C 3.773438 -3.179688 3.992188 -3.234375 4.234375 -3.234375 Z M 4.234375 -3.234375 "/></g></g><g style="fill:#000000;fill-opacity:1;"><g transform="translate(71.056724, 17.974275)"><path style="stroke:none" d="M 3.28125 -1.59375 C 3.28125 -1.582031 3.273438 -1.507812 3.265625 -1.375 L 0.921875 -1.375 C 0.953125 -1.132812 1.050781 -0.945312 1.21875 -0.8125 C 1.394531 -0.675781 1.609375 -0.609375 1.859375 -0.609375 C 2.179688 -0.609375 2.445312 -0.722656 2.65625 -0.953125 L 3.078125 -0.484375 C 2.785156 -0.128906 2.375 0.046875 1.84375 0.046875 C 1.507812 0.046875 1.210938 -0.0195312 0.953125 -0.15625 C 0.691406 -0.300781 0.488281 -0.5 0.34375 -0.75 C 0.207031 -1 0.140625 -1.28125 0.140625 -1.59375 C 0.140625 -1.914062 0.207031 -2.195312 0.34375 -2.4375 C 0.476562 -2.6875 0.664062 -2.878906 0.90625 -3.015625 C 1.15625 -3.160156 1.425781 -3.234375 1.71875 -3.234375 C 2.019531 -3.234375 2.285156 -3.164062 2.515625 -3.03125 C 2.753906 -2.894531 2.941406 -2.703125 3.078125 -2.453125 C 3.210938 -2.210938 3.28125 -1.925781 3.28125 -1.59375 Z M 1.734375 -2.625 C 1.515625 -2.625 1.328125 -2.550781 1.171875 -2.40625 C 1.023438 -2.269531 0.9375 -2.085938 0.90625 -1.859375 L 2.5625 -1.859375 C 2.53125 -2.085938 2.4375 -2.269531 2.28125 -2.40625 C 2.132812 -2.550781 1.953125 -2.625 1.734375 -2.625 Z M 1.734375 -2.625 "/></g></g><g style="fill:#000000;fill-opacity:1;"><g transform="translate(74.47818, 17.974275)"><path style="stroke:none" d=""/></g></g><g style="fill:#000000;fill-opacity:1;"><g transform="translate(75.660463, 17.974275)"><path style="stroke:none" d="M 0.75 0.046875 C 0.601562 0.046875 0.476562 0 0.375 -0.09375 C 0.28125 -0.195312 0.234375 -0.328125 0.234375 -0.484375 C 0.234375 -0.628906 0.28125 -0.75 0.375 -0.84375 C 0.476562 -0.9375 0.601562 -0.984375 0.75 -0.984375 C 0.894531 -0.984375 1.015625 -0.9375 1.109375 -0.84375 C 1.210938 -0.75 1.265625 -0.628906 1.265625 -0.484375 C 1.265625 -0.328125 1.210938 -0.195312 1.109375 -0.09375 C 1.015625 0 0.894531 0.046875 0.75 0.046875 Z M 0.75 0.046875 "/></g></g><g style="fill:#000000;fill-opacity:1;"><g transform="translate(77.153245, 17.974275)"><path style="stroke:none" d=""/></g></g><g style="fill:#000000;fill-opacity:1;"><g transform="translate(78.335528, 17.974275)"><path style="stroke:none" d="M 4.765625 -2.65625 L 4.21875 -2.65625 L 4.21875 -0.984375 L 3.46875 -0.984375 L 3.46875 -4.390625 L 4.21875 -4.390625 L 4.21875 -3.421875 L 4.765625 -3.421875 Z M 2.921875 -3 C 2.921875 -2.726562 2.863281 -2.488281 2.75 -2.28125 C 2.632812 -2.082031 2.46875 -1.925781 2.25 -1.8125 C 2.039062 -1.695312 1.796875 -1.640625 1.515625 -1.640625 C 1.242188 -1.640625 1 -1.695312 0.78125 -1.8125 C 0.570312 -1.925781 0.410156 -2.082031 0.296875 -2.28125 C 0.179688 -2.488281 0.125 -2.726562 0.125 -3 C 0.125 -3.269531 0.179688 -3.507812 0.296875 -3.71875 C 0.410156 -3.925781 0.570312 -4.082031 0.78125 -4.1875 C 1 -4.300781 1.242188 -4.359375 1.515625 -4.359375 C 1.796875 -4.359375 2.039062 -4.300781 2.25 -4.1875 C 2.46875 -4.082031 2.632812 -3.925781 2.75 -3.71875 C 2.863281 -3.507812 2.921875 -3.269531 2.921875 -3 Z M 0.875 -3 C 0.875 -2.78125 0.929688 -2.609375 1.046875 -2.484375 C 1.171875 -2.367188 1.328125 -2.3125 1.515625 -2.3125 C 1.710938 -2.3125 1.867188 -2.367188 1.984375 -2.484375 C 2.109375 -2.609375 2.171875 -2.78125 2.171875 -3 C 2.171875 -3.21875 2.109375 -3.390625 1.984375 -3.515625 C 1.867188 -3.640625 1.710938 -3.703125 1.515625 -3.703125 C 1.328125 -3.703125 1.171875 -3.640625 1.046875 -3.515625 C 0.929688 -3.390625 0.875 -3.21875 0.875 -3 Z M 4.296875 -0.53125 L 4.296875 0.1875 L 0.484375 0.1875 L 0.484375 -1.390625 L 1.25 -1.390625 L 1.25 -0.53125 Z M 4.296875 -0.53125 "/></g></g><g style="fill:#000000;fill-opacity:1;"><g transform="translate(83.06466, 17.974275)"><path style="stroke:none" d="M 3.578125 0.203125 L 3.578125 -4.390625 L 4.34375 -4.390625 L 4.34375 0.203125 Z M 0.375 -0.03125 L 0.375 -4.265625 L 2.9375 -4.265625 L 2.9375 -0.03125 Z M 2.171875 -3.515625 L 1.125 -3.515625 L 1.125 -0.765625 L 2.171875 -0.765625 Z M 2.171875 -3.515625 "/></g></g><g style="fill:#000000;fill-opacity:1;"><g transform="translate(87.793792, 17.974275)"><path style="stroke:none" d="M 4.21875 -1.890625 L 4.21875 0.203125 L 3.46875 0.203125 L 3.46875 -4.390625 L 4.21875 -4.390625 L 4.21875 -2.65625 L 4.765625 -2.65625 L 4.765625 -1.890625 Z M 2.078125 -0.765625 C 2.285156 -0.765625 2.492188 -0.78125 2.703125 -0.8125 C 2.910156 -0.84375 3.078125 -0.894531 3.203125 -0.96875 L 3.203125 -0.25 C 3.078125 -0.175781 2.910156 -0.117188 2.703125 -0.078125 C 2.492188 -0.046875 2.273438 -0.03125 2.046875 -0.03125 L 0.328125 -0.03125 L 0.328125 -4.28125 L 1.109375 -4.28125 L 1.109375 -0.765625 Z M 2.078125 -0.765625 "/></g></g><g style="fill:#000000;fill-opacity:1;"><g transform="translate(34.946092, 50.815609)"><path style="stroke:none" d="M 3.40625 0 L 0.40625 0 L 0.40625 -4.1875 L 3.328125 -4.1875 L 3.328125 -3.5 L 1.1875 -3.5 L 1.1875 -2.453125 L 3.09375 -2.453125 L 3.09375 -1.796875 L 1.1875 -1.796875 L 1.1875 -0.6875 L 3.40625 -0.6875 Z M 3.40625 0 "/></g></g><g style="fill:#000000;fill-opacity:1;"><g transform="translate(38.540709, 50.815609)"><path style="stroke:none" d=""/></g></g><g style="fill:#000000;fill-opacity:1;"><g transform="translate(39.722992, 50.815609)"><path style="stroke:none" d="M 1.984375 -2.421875 L 1.984375 -1.765625 L 0.328125 -1.765625 L 0.328125 -2.421875 Z M 1.984375 -2.421875 "/></g></g><g style="fill:#000000;fill-opacity:1;"><g transform="translate(42.021875, 50.815609)"><path style="stroke:none" d=""/></g></g><g style="fill:#000000;fill-opacity:1;"><g transform="translate(43.204158, 50.815609)"><path style="stroke:none" d="M 4.234375 -3.234375 C 4.617188 -3.234375 4.921875 -3.113281 5.140625 -2.875 C 5.359375 -2.644531 5.46875 -2.300781 5.46875 -1.84375 L 5.46875 0 L 4.703125 0 L 4.703125 -1.71875 C 4.703125 -1.988281 4.644531 -2.191406 4.53125 -2.328125 C 4.414062 -2.460938 4.257812 -2.53125 4.0625 -2.53125 C 3.820312 -2.53125 3.632812 -2.453125 3.5 -2.296875 C 3.363281 -2.140625 3.296875 -1.914062 3.296875 -1.625 L 3.296875 0 L 2.53125 0 L 2.53125 -1.71875 C 2.53125 -1.988281 2.472656 -2.191406 2.359375 -2.328125 C 2.253906 -2.460938 2.097656 -2.53125 1.890625 -2.53125 C 1.660156 -2.53125 1.476562 -2.453125 1.34375 -2.296875 C 1.207031 -2.140625 1.140625 -1.914062 1.140625 -1.625 L 1.140625 0 L 0.375 0 L 0.375 -3.1875 L 1.109375 -3.1875 L 1.109375 -2.765625 C 1.210938 -2.910156 1.347656 -3.023438 1.515625 -3.109375 C 1.691406 -3.191406 1.890625 -3.234375 2.109375 -3.234375 C 2.328125 -3.234375 2.523438 -3.179688 2.703125 -3.078125 C 2.878906 -2.984375 3.019531 -2.84375 3.125 -2.65625 C 3.238281 -2.84375 3.390625 -2.984375 3.578125 -3.078125 C 3.773438 -3.179688 3.992188 -3.234375 4.234375 -3.234375 Z M 4.234375 -3.234375 "/></g></g><g style="fill:#000000;fill-opacity:1;"><g transform="translate(49.031979, 50.815609)"><path style="stroke:none" d="M 1.578125 -3.234375 C 2.023438 -3.234375 2.367188 -3.117188 2.609375 -2.890625 C 2.859375 -2.660156 2.984375 -2.316406 2.984375 -1.859375 L 2.984375 0 L 2.25 0 L 2.25 -0.4375 C 2.164062 -0.28125 2.039062 -0.160156 1.875 -0.078125 C 1.71875 0.00390625 1.523438 0.046875 1.296875 0.046875 C 0.953125 0.046875 0.675781 -0.0390625 0.46875 -0.21875 C 0.269531 -0.394531 0.171875 -0.625 0.171875 -0.90625 C 0.171875 -1.195312 0.273438 -1.425781 0.484375 -1.59375 C 0.691406 -1.769531 1.007812 -1.859375 1.4375 -1.859375 L 2.203125 -1.859375 C 2.203125 -1.992188 2.1875 -2.101562 2.15625 -2.1875 C 2.0625 -2.457031 1.832031 -2.59375 1.46875 -2.59375 C 1.300781 -2.59375 1.132812 -2.5625 0.96875 -2.5 C 0.8125 -2.445312 0.675781 -2.367188 0.5625 -2.265625 L 0.28125 -2.84375 C 0.445312 -2.96875 0.644531 -3.0625 0.875 -3.125 C 1.101562 -3.195312 1.335938 -3.234375 1.578125 -3.234375 Z M 1.484375 -0.515625 C 1.660156 -0.515625 1.8125 -0.554688 1.9375 -0.640625 C 2.0625 -0.722656 2.148438 -0.84375 2.203125 -1 L 2.203125 -1.375 L 1.53125 -1.375 C 1.125 -1.375 0.921875 -1.234375 0.921875 -0.953125 C 0.921875 -0.816406 0.96875 -0.707031 1.0625 -0.625 C 1.164062 -0.550781 1.304688 -0.515625 1.484375 -0.515625 Z M 1.484375 -0.515625 "/></g></g><g style="fill:#000000;fill-opacity:1;"><g transform="translate(52.375809, 50.815609)"><path style="stroke:none" d="M 0.765625 -3.703125 C 0.628906 -3.703125 0.515625 -3.742188 0.421875 -3.828125 C 0.328125 -3.921875 0.28125 -4.035156 0.28125 -4.171875 C 0.28125 -4.296875 0.328125 -4.40625 0.421875 -4.5 C 0.515625 -4.59375 0.628906 -4.640625 0.765625 -4.640625 C 0.910156 -4.640625 1.03125 -4.59375 1.125 -4.5 C 1.21875 -4.414062 1.265625 -4.3125 1.265625 -4.1875 C 1.265625 -4.039062 1.21875 -3.921875 1.125 -3.828125 C 1.03125 -3.742188 0.910156 -3.703125 0.765625 -3.703125 Z M 1.15625 -3.1875 L 1.15625 0 L 0.375 0 L 0.375 -3.1875 Z M 1.15625 -3.1875 "/></g></g><g style="fill:#000000;fill-opacity:1;"><g transform="translate(53.92233, 50.815609)"><path style="stroke:none" d="M 1.15625 -4.4375 L 1.15625 0 L 0.375 0 L 0.375 -4.4375 Z M 1.15625 -4.4375 "/></g></g><g style="fill:#000000;fill-opacity:1;"><g transform="translate(55.468852, 50.815609)"><path style="stroke:none" d=""/></g></g><g style="fill:#000000;fill-opacity:1;"><g transform="translate(56.651134, 50.815609)"><path style="stroke:none" d="M 0.75 0.046875 C 0.601562 0.046875 0.476562 0 0.375 -0.09375 C 0.28125 -0.195312 0.234375 -0.328125 0.234375 -0.484375 C 0.234375 -0.628906 0.28125 -0.75 0.375 -0.84375 C 0.476562 -0.9375 0.601562 -0.984375 0.75 -0.984375 C 0.894531 -0.984375 1.015625 -0.9375 1.109375 -0.84375 C 1.210938 -0.75 1.265625 -0.628906 1.265625 -0.484375 C 1.265625 -0.328125 1.210938 -0.195312 1.109375 -0.09375 C 1.015625 0 0.894531 0.046875 0.75 0.046875 Z M 0.75 0.046875 "/></g></g><g style="fill:#000000;fill-opacity:1;"><g transform="translate(58.143917, 50.815609)"><path style="stroke:none" d=""/></g></g><g style="fill:#000000;fill-opacity:1;"><g transform="translate(59.326199, 50.815609)"><path style="stroke:none" d="M 2.125 -3.234375 C 2.414062 -3.234375 2.675781 -3.164062 2.90625 -3.03125 C 3.132812 -2.894531 3.3125 -2.703125 3.4375 -2.453125 C 3.570312 -2.203125 3.640625 -1.914062 3.640625 -1.59375 C 3.640625 -1.269531 3.570312 -0.984375 3.4375 -0.734375 C 3.3125 -0.484375 3.132812 -0.289062 2.90625 -0.15625 C 2.675781 -0.0195312 2.414062 0.046875 2.125 0.046875 C 1.925781 0.046875 1.742188 0.0078125 1.578125 -0.0625 C 1.410156 -0.144531 1.269531 -0.265625 1.15625 -0.421875 L 1.15625 1.15625 L 0.375 1.15625 L 0.375 -3.1875 L 1.125 -3.1875 L 1.125 -2.75 C 1.238281 -2.90625 1.378906 -3.023438 1.546875 -3.109375 C 1.710938 -3.191406 1.90625 -3.234375 2.125 -3.234375 Z M 2 -0.625 C 2.25 -0.625 2.453125 -0.710938 2.609375 -0.890625 C 2.773438 -1.066406 2.859375 -1.300781 2.859375 -1.59375 C 2.859375 -1.894531 2.773438 -2.128906 2.609375 -2.296875 C 2.453125 -2.472656 2.25 -2.5625 2 -2.5625 C 1.75 -2.5625 1.539062 -2.472656 1.375 -2.296875 C 1.21875 -2.128906 1.140625 -1.894531 1.140625 -1.59375 C 1.140625 -1.300781 1.21875 -1.066406 1.375 -0.890625 C 1.539062 -0.710938 1.75 -0.625 2 -0.625 Z M 2 -0.625 "/></g></g><g style="fill:#000000;fill-opacity:1;"><g transform="translate(63.105923, 50.815609)"><path style="stroke:none" d="M 2.125 -3.234375 C 2.414062 -3.234375 2.675781 -3.164062 2.90625 -3.03125 C 3.132812 -2.894531 3.3125 -2.703125 3.4375 -2.453125 C 3.570312 -2.203125 3.640625 -1.914062 3.640625 -1.59375 C 3.640625 -1.269531 3.570312 -0.984375 3.4375 -0.734375 C 3.3125 -0.484375 3.132812 -0.289062 2.90625 -0.15625 C 2.675781 -0.0195312 2.414062 0.046875 2.125 0.046875 C 1.925781 0.046875 1.742188 0.0078125 1.578125 -0.0625 C 1.410156 -0.144531 1.269531 -0.265625 1.15625 -0.421875 L 1.15625 1.15625 L 0.375 1.15625 L 0.375 -3.1875 L 1.125 -3.1875 L 1.125 -2.75 C 1.238281 -2.90625 1.378906 -3.023438 1.546875 -3.109375 C 1.710938 -3.191406 1.90625 -3.234375 2.125 -3.234375 Z M 2 -0.625 C 2.25 -0.625 2.453125 -0.710938 2.609375 -0.890625 C 2.773438 -1.066406 2.859375 -1.300781 2.859375 -1.59375 C 2.859375 -1.894531 2.773438 -2.128906 2.609375 -2.296875 C 2.453125 -2.472656 2.25 -2.5625 2 -2.5625 C 1.75 -2.5625 1.539062 -2.472656 1.375 -2.296875 C 1.21875 -2.128906 1.140625 -1.894531 1.140625 -1.59375 C 1.140625 -1.300781 1.21875 -1.066406 1.375 -0.890625 C 1.539062 -0.710938 1.75 -0.625 2 -0.625 Z M 2 -0.625 "/></g></g><g style="fill:#000000;fill-opacity:1;"><g transform="translate(66.885648, 50.815609)"><path style="stroke:none" d="M 1.15625 -4.4375 L 1.15625 0 L 0.375 0 L 0.375 -4.4375 Z M 1.15625 -4.4375 "/></g></g><g style="fill:#000000;fill-opacity:1;"><g transform="translate(68.432169, 50.815609)"><path style="stroke:none" d="M 2.25 -0.171875 C 2.164062 -0.0976562 2.0625 -0.0390625 1.9375 0 C 1.820312 0.03125 1.695312 0.046875 1.5625 0.046875 C 1.21875 0.046875 0.953125 -0.046875 0.765625 -0.234375 C 0.578125 -0.421875 0.484375 -0.691406 0.484375 -1.046875 L 0.484375 -2.515625 L 0 -2.515625 L 0 -3.140625 L 0.484375 -3.140625 L 0.484375 -3.90625 L 1.25 -3.90625 L 1.25 -3.140625 L 2.046875 -3.140625 L 2.046875 -2.515625 L 1.25 -2.515625 L 1.25 -1.0625 C 1.25 -0.914062 1.285156 -0.800781 1.359375 -0.71875 C 1.429688 -0.644531 1.535156 -0.609375 1.671875 -0.609375 C 1.816406 -0.609375 1.941406 -0.648438 2.046875 -0.734375 Z M 2.25 -0.171875 "/></g></g><g style="fill:#000000;fill-opacity:1;"><g transform="translate(70.737024, 50.815609)"><path style="stroke:none" d="M 1.796875 0.0625 C 1.453125 0.0625 1.144531 -0.0195312 0.875 -0.1875 C 0.613281 -0.363281 0.40625 -0.613281 0.25 -0.9375 C 0.101562 -1.257812 0.03125 -1.644531 0.03125 -2.09375 C 0.03125 -2.539062 0.101562 -2.925781 0.25 -3.25 C 0.40625 -3.570312 0.613281 -3.816406 0.875 -3.984375 C 1.144531 -4.160156 1.453125 -4.25 1.796875 -4.25 C 2.140625 -4.25 2.441406 -4.160156 2.703125 -3.984375 C 2.972656 -3.816406 3.179688 -3.570312 3.328125 -3.25 C 3.472656 -2.925781 3.546875 -2.539062 3.546875 -2.09375 C 3.546875 -1.644531 3.472656 -1.257812 3.328125 -0.9375 C 3.179688 -0.613281 2.972656 -0.363281 2.703125 -0.1875 C 2.441406 -0.0195312 2.140625 0.0625 1.796875 0.0625 Z M 1.796875 -0.65625 C 2.078125 -0.65625 2.300781 -0.773438 2.46875 -1.015625 C 2.632812 -1.253906 2.71875 -1.613281 2.71875 -2.09375 C 2.71875 -2.570312 2.632812 -2.929688 2.46875 -3.171875 C 2.300781 -3.410156 2.078125 -3.53125 1.796875 -3.53125 C 1.515625 -3.53125 1.289062 -3.410156 1.125 -3.171875 C 0.96875 -2.929688 0.890625 -2.570312 0.890625 -2.09375 C 0.890625 -1.613281 0.96875 -1.253906 1.125 -1.015625 C 1.289062 -0.773438 1.515625 -0.65625 1.796875 -0.65625 Z M 1.796875 -0.65625 "/></g></g><g style="fill:#000000;fill-opacity:1;"><g transform="translate(74.3197, 50.815609)"><path style="stroke:none" d="M 1.796875 0.0625 C 1.453125 0.0625 1.144531 -0.0195312 0.875 -0.1875 C 0.613281 -0.363281 0.40625 -0.613281 0.25 -0.9375 C 0.101562 -1.257812 0.03125 -1.644531 0.03125 -2.09375 C 0.03125 -2.539062 0.101562 -2.925781 0.25 -3.25 C 0.40625 -3.570312 0.613281 -3.816406 0.875 -3.984375 C 1.144531 -4.160156 1.453125 -4.25 1.796875 -4.25 C 2.140625 -4.25 2.441406 -4.160156 2.703125 -3.984375 C 2.972656 -3.816406 3.179688 -3.570312 3.328125 -3.25 C 3.472656 -2.925781 3.546875 -2.539062 3.546875 -2.09375 C 3.546875 -1.644531 3.472656 -1.257812 3.328125 -0.9375 C 3.179688 -0.613281 2.972656 -0.363281 2.703125 -0.1875 C 2.441406 -0.0195312 2.140625 0.0625 1.796875 0.0625 Z M 1.796875 -0.65625 C 2.078125 -0.65625 2.300781 -0.773438 2.46875 -1.015625 C 2.632812 -1.253906 2.71875 -1.613281 2.71875 -2.09375 C 2.71875 -2.570312 2.632812 -2.929688 2.46875 -3.171875 C 2.300781 -3.410156 2.078125 -3.53125 1.796875 -3.53125 C 1.515625 -3.53125 1.289062 -3.410156 1.125 -3.171875 C 0.96875 -2.929688 0.890625 -2.570312 0.890625 -2.09375 C 0.890625 -1.613281 0.96875 -1.253906 1.125 -1.015625 C 1.289062 -0.773438 1.515625 -0.65625 1.796875 -0.65625 Z M 1.796875 -0.65625 "/></g></g><g style="fill:#000000;fill-opacity:1;"><g transform="translate(77.902376, 50.815609)"><path style="stroke:none" d="M 2.40625 0 L 1.5625 0 L 1.5625 -3.5 L 0.6875 -3.5 L 0.6875 -4.1875 L 2.40625 -4.1875 Z M 2.40625 0 "/></g></g><g style="fill:#000000;fill-opacity:1;"><g transform="translate(81.485052, 50.815609)"><path style="stroke:none" d="M 3.125 -4.234375 C 3.664062 -4.234375 4.148438 -4.117188 4.578125 -3.890625 C 5.003906 -3.671875 5.335938 -3.363281 5.578125 -2.96875 C 5.816406 -2.570312 5.9375 -2.125 5.9375 -1.625 C 5.9375 -1.28125 5.882812 -0.984375 5.78125 -0.734375 C 5.6875 -0.484375 5.550781 -0.289062 5.375 -0.15625 C 5.195312 -0.03125 4.992188 0.03125 4.765625 0.03125 C 4.578125 0.03125 4.421875 -0.00390625 4.296875 -0.078125 C 4.171875 -0.160156 4.078125 -0.273438 4.015625 -0.421875 L 3.984375 -0.53125 C 3.878906 -0.351562 3.734375 -0.210938 3.546875 -0.109375 C 3.359375 -0.015625 3.144531 0.03125 2.90625 0.03125 C 2.644531 0.03125 2.40625 -0.03125 2.1875 -0.15625 C 1.976562 -0.28125 1.8125 -0.457031 1.6875 -0.6875 C 1.570312 -0.925781 1.515625 -1.191406 1.515625 -1.484375 C 1.515625 -1.773438 1.570312 -2.035156 1.6875 -2.265625 C 1.8125 -2.492188 1.976562 -2.671875 2.1875 -2.796875 C 2.40625 -2.929688 2.644531 -3 2.90625 -3 C 3.125 -3 3.316406 -2.957031 3.484375 -2.875 C 3.648438 -2.789062 3.789062 -2.675781 3.90625 -2.53125 L 3.90625 -2.953125 L 4.609375 -2.953125 L 4.609375 -0.9375 C 4.609375 -0.675781 4.710938 -0.546875 4.921875 -0.546875 C 5.066406 -0.546875 5.179688 -0.632812 5.265625 -0.8125 C 5.359375 -1 5.40625 -1.265625 5.40625 -1.609375 C 5.40625 -2.023438 5.304688 -2.394531 5.109375 -2.71875 C 4.921875 -3.039062 4.648438 -3.289062 4.296875 -3.46875 C 3.953125 -3.644531 3.5625 -3.734375 3.125 -3.734375 C 2.675781 -3.734375 2.273438 -3.640625 1.921875 -3.453125 C 1.578125 -3.265625 1.3125 -3 1.125 -2.65625 C 0.9375 -2.320312 0.84375 -1.941406 0.84375 -1.515625 C 0.84375 -1.078125 0.929688 -0.691406 1.109375 -0.359375 C 1.296875 -0.0234375 1.5625 0.234375 1.90625 0.421875 C 2.25 0.609375 2.644531 0.703125 3.09375 0.703125 C 3.289062 0.703125 3.488281 0.679688 3.6875 0.640625 C 3.894531 0.597656 4.085938 0.535156 4.265625 0.453125 L 4.4375 0.9375 C 4.257812 1.03125 4.050781 1.097656 3.8125 1.140625 C 3.570312 1.191406 3.332031 1.21875 3.09375 1.21875 C 2.53125 1.21875 2.035156 1.097656 1.609375 0.859375 C 1.179688 0.628906 0.847656 0.304688 0.609375 -0.109375 C 0.367188 -0.523438 0.25 -0.992188 0.25 -1.515625 C 0.25 -2.035156 0.367188 -2.5 0.609375 -2.90625 C 0.847656 -3.320312 1.1875 -3.644531 1.625 -3.875 C 2.0625 -4.113281 2.5625 -4.234375 3.125 -4.234375 Z M 3.0625 -0.5625 C 3.3125 -0.5625 3.515625 -0.644531 3.671875 -0.8125 C 3.828125 -0.976562 3.90625 -1.203125 3.90625 -1.484375 C 3.90625 -1.765625 3.828125 -1.984375 3.671875 -2.140625 C 3.515625 -2.304688 3.3125 -2.390625 3.0625 -2.390625 C 2.820312 -2.390625 2.625 -2.304688 2.46875 -2.140625 C 2.3125 -1.984375 2.234375 -1.765625 2.234375 -1.484375 C 2.234375 -1.203125 2.3125 -0.976562 2.46875 -0.8125 C 2.625 -0.644531 2.820312 -0.5625 3.0625 -0.5625 Z M 3.0625 -0.5625 "/></g></g><g style="fill:#000000;fill-opacity:1;"><g transform="translate(87.66517, 50.815609)"><path style="stroke:none" d="M 2.15625 -3.234375 C 2.53125 -3.234375 2.832031 -3.113281 3.0625 -2.875 C 3.289062 -2.644531 3.40625 -2.300781 3.40625 -1.84375 L 3.40625 0 L 2.640625 0 L 2.640625 -1.71875 C 2.640625 -1.988281 2.578125 -2.191406 2.453125 -2.328125 C 2.335938 -2.460938 2.171875 -2.53125 1.953125 -2.53125 C 1.703125 -2.53125 1.503906 -2.445312 1.359375 -2.28125 C 1.210938 -2.125 1.140625 -1.898438 1.140625 -1.609375 L 1.140625 0 L 0.375 0 L 0.375 -3.1875 L 1.109375 -3.1875 L 1.109375 -2.765625 C 1.222656 -2.910156 1.367188 -3.023438 1.546875 -3.109375 C 1.734375 -3.191406 1.9375 -3.234375 2.15625 -3.234375 Z M 2.15625 -3.234375 "/></g></g><g style="fill:#000000;fill-opacity:1;"><g transform="translate(91.421007, 50.815609)"><path style="stroke:none" d="M 1.578125 -3.234375 C 2.023438 -3.234375 2.367188 -3.117188 2.609375 -2.890625 C 2.859375 -2.660156 2.984375 -2.316406 2.984375 -1.859375 L 2.984375 0 L 2.25 0 L 2.25 -0.4375 C 2.164062 -0.28125 2.039062 -0.160156 1.875 -0.078125 C 1.71875 0.00390625 1.523438 0.046875 1.296875 0.046875 C 0.953125 0.046875 0.675781 -0.0390625 0.46875 -0.21875 C 0.269531 -0.394531 0.171875 -0.625 0.171875 -0.90625 C 0.171875 -1.195312 0.273438 -1.425781 0.484375 -1.59375 C 0.691406 -1.769531 1.007812 -1.859375 1.4375 -1.859375 L 2.203125 -1.859375 C 2.203125 -1.992188 2.1875 -2.101562 2.15625 -2.1875 C 2.0625 -2.457031 1.832031 -2.59375 1.46875 -2.59375 C 1.300781 -2.59375 1.132812 -2.5625 0.96875 -2.5 C 0.8125 -2.445312 0.675781 -2.367188 0.5625 -2.265625 L 0.28125 -2.84375 C 0.445312 -2.96875 0.644531 -3.0625 0.875 -3.125 C 1.101562 -3.195312 1.335938 -3.234375 1.578125 -3.234375 Z M 1.484375 -0.515625 C 1.660156 -0.515625 1.8125 -0.554688 1.9375 -0.640625 C 2.0625 -0.722656 2.148438 -0.84375 2.203125 -1 L 2.203125 -1.375 L 1.53125 -1.375 C 1.125 -1.375 0.921875 -1.234375 0.921875 -0.953125 C 0.921875 -0.816406 0.96875 -0.707031 1.0625 -0.625 C 1.164062 -0.550781 1.304688 -0.515625 1.484375 -0.515625 Z M 1.484375 -0.515625 "/></g></g><g style="fill:#000000;fill-opacity:1;"><g transform="translate(94.764837, 50.815609)"><path style="stroke:none" d="M 2 0 L 1.203125 0 L -0.09375 -3.1875 L 0.703125 -3.1875 L 1.609375 -0.890625 L 2.546875 -3.1875 L 3.296875 -3.1875 Z M 2 0 "/></g></g><g style="fill:#000000;fill-opacity:1;"><g transform="translate(97.95939, 50.815609)"><path style="stroke:none" d="M 3.28125 -1.59375 C 3.28125 -1.582031 3.273438 -1.507812 3.265625 -1.375 L 0.921875 -1.375 C 0.953125 -1.132812 1.050781 -0.945312 1.21875 -0.8125 C 1.394531 -0.675781 1.609375 -0.609375 1.859375 -0.609375 C 2.179688 -0.609375 2.445312 -0.722656 2.65625 -0.953125 L 3.078125 -0.484375 C 2.785156 -0.128906 2.375 0.046875 1.84375 0.046875 C 1.507812 0.046875 1.210938 -0.0195312 0.953125 -0.15625 C 0.691406 -0.300781 0.488281 -0.5 0.34375 -0.75 C 0.207031 -1 0.140625 -1.28125 0.140625 -1.59375 C 0.140625 -1.914062 0.207031 -2.195312 0.34375 -2.4375 C 0.476562 -2.6875 0.664062 -2.878906 0.90625 -3.015625 C 1.15625 -3.160156 1.425781 -3.234375 1.71875 -3.234375 C 2.019531 -3.234375 2.285156 -3.164062 2.515625 -3.03125 C 2.753906 -2.894531 2.941406 -2.703125 3.078125 -2.453125 C 3.210938 -2.210938 3.28125 -1.925781 3.28125 -1.59375 Z M 1.734375 -2.625 C 1.515625 -2.625 1.328125 -2.550781 1.171875 -2.40625 C 1.023438 -2.269531 0.9375 -2.085938 0.90625 -1.859375 L 2.5625 -1.859375 C 2.53125 -2.085938 2.4375 -2.269531 2.28125 -2.40625 C 2.132812 -2.550781 1.953125 -2.625 1.734375 -2.625 Z M 1.734375 -2.625 "/></g></g><g style="fill:#000000;fill-opacity:1;"><g transform="translate(101.380846, 50.815609)"><path style="stroke:none" d="M 1.125 -2.71875 C 1.226562 -2.894531 1.367188 -3.023438 1.546875 -3.109375 C 1.734375 -3.203125 1.945312 -3.242188 2.1875 -3.234375 L 2.1875 -2.484375 L 2.015625 -2.5 C 1.742188 -2.5 1.53125 -2.414062 1.375 -2.25 C 1.226562 -2.09375 1.15625 -1.859375 1.15625 -1.546875 L 1.15625 0 L 0.375 0 L 0.375 -3.1875 L 1.125 -3.1875 Z M 1.125 -2.71875 "/></g></g><g style="fill:#000000;fill-opacity:1;"><g transform="translate(103.661817, 50.815609)"><path style="stroke:none" d="M 0.75 0.046875 C 0.601562 0.046875 0.476562 0 0.375 -0.09375 C 0.28125 -0.195312 0.234375 -0.328125 0.234375 -0.484375 C 0.234375 -0.628906 0.28125 -0.75 0.375 -0.84375 C 0.476562 -0.9375 0.601562 -0.984375 0.75 -0.984375 C 0.894531 -0.984375 1.015625 -0.9375 1.109375 -0.84375 C 1.210938 -0.75 1.265625 -0.628906 1.265625 -0.484375 C 1.265625 -0.328125 1.210938 -0.195312 1.109375 -0.09375 C 1.015625 0 0.894531 0.046875 0.75 0.046875 Z M 0.75 0.046875 "/></g></g><g style="fill:#000000;fill-opacity:1;"><g transform="translate(105.1546, 50.815609)"><path style="stroke:none" d="M 1.796875 0.046875 C 1.484375 0.046875 1.195312 -0.0195312 0.9375 -0.15625 C 0.6875 -0.300781 0.488281 -0.5 0.34375 -0.75 C 0.207031 -1 0.140625 -1.28125 0.140625 -1.59375 C 0.140625 -1.914062 0.207031 -2.195312 0.34375 -2.4375 C 0.488281 -2.6875 0.6875 -2.878906 0.9375 -3.015625 C 1.195312 -3.160156 1.484375 -3.234375 1.796875 -3.234375 C 2.109375 -3.234375 2.378906 -3.164062 2.609375 -3.03125 C 2.835938 -2.90625 3.007812 -2.71875 3.125 -2.46875 L 2.53125 -2.125 C 2.363281 -2.414062 2.117188 -2.5625 1.796875 -2.5625 C 1.546875 -2.5625 1.335938 -2.472656 1.171875 -2.296875 C 1.003906 -2.128906 0.921875 -1.894531 0.921875 -1.59375 C 0.921875 -1.300781 1.003906 -1.066406 1.171875 -0.890625 C 1.335938 -0.710938 1.546875 -0.625 1.796875 -0.625 C 2.117188 -0.625 2.363281 -0.773438 2.53125 -1.078125 L 3.125 -0.71875 C 3.007812 -0.476562 2.832031 -0.289062 2.59375 -0.15625 C 2.363281 -0.0195312 2.097656 0.046875 1.796875 0.046875 Z M 1.796875 0.046875 "/></g></g><g style="fill:#000000;fill-opacity:1;"><g transform="translate(108.349152, 50.815609)"><path style="stroke:none" d="M 1.78125 0.046875 C 1.46875 0.046875 1.1875 -0.0195312 0.9375 -0.15625 C 0.6875 -0.300781 0.488281 -0.5 0.34375 -0.75 C 0.207031 -1 0.140625 -1.28125 0.140625 -1.59375 C 0.140625 -1.914062 0.207031 -2.195312 0.34375 -2.4375 C 0.488281 -2.6875 0.6875 -2.878906 0.9375 -3.015625 C 1.1875 -3.160156 1.46875 -3.234375 1.78125 -3.234375 C 2.09375 -3.234375 2.375 -3.160156 2.625 -3.015625 C 2.875 -2.878906 3.066406 -2.6875 3.203125 -2.4375 C 3.347656 -2.195312 3.421875 -1.914062 3.421875 -1.59375 C 3.421875 -1.28125 3.347656 -1 3.203125 -0.75 C 3.066406 -0.5 2.875 -0.300781 2.625 -0.15625 C 2.375 -0.0195312 2.09375 0.046875 1.78125 0.046875 Z M 1.78125 -0.625 C 2.03125 -0.625 2.234375 -0.710938 2.390625 -0.890625 C 2.554688 -1.066406 2.640625 -1.300781 2.640625 -1.59375 C 2.640625 -1.894531 2.554688 -2.128906 2.390625 -2.296875 C 2.234375 -2.472656 2.03125 -2.5625 1.78125 -2.5625 C 1.53125 -2.5625 1.320312 -2.472656 1.15625 -2.296875 C 1 -2.128906 0.921875 -1.894531 0.921875 -1.59375 C 0.921875 -1.300781 1 -1.066406 1.15625 -0.890625 C 1.320312 -0.710938 1.53125 -0.625 1.78125 -0.625 Z M 1.78125 -0.625 "/></g></g><g style="fill:#000000;fill-opacity:1;"><g transform="translate(111.907944, 50.815609)"><path style="stroke:none" d="M 4.234375 -3.234375 C 4.617188 -3.234375 4.921875 -3.113281 5.140625 -2.875 C 5.359375 -2.644531 5.46875 -2.300781 5.46875 -1.84375 L 5.46875 0 L 4.703125 0 L 4.703125 -1.71875 C 4.703125 -1.988281 4.644531 -2.191406 4.53125 -2.328125 C 4.414062 -2.460938 4.257812 -2.53125 4.0625 -2.53125 C 3.820312 -2.53125 3.632812 -2.453125 3.5 -2.296875 C 3.363281 -2.140625 3.296875 -1.914062 3.296875 -1.625 L 3.296875 0 L 2.53125 0 L 2.53125 -1.71875 C 2.53125 -1.988281 2.472656 -2.191406 2.359375 -2.328125 C 2.253906 -2.460938 2.097656 -2.53125 1.890625 -2.53125 C 1.660156 -2.53125 1.476562 -2.453125 1.34375 -2.296875 C 1.207031 -2.140625 1.140625 -1.914062 1.140625 -1.625 L 1.140625 0 L 0.375 0 L 0.375 -3.1875 L 1.109375 -3.1875 L 1.109375 -2.765625 C 1.210938 -2.910156 1.347656 -3.023438 1.515625 -3.109375 C 1.691406 -3.191406 1.890625 -3.234375 2.109375 -3.234375 C 2.328125 -3.234375 2.523438 -3.179688 2.703125 -3.078125 C 2.878906 -2.984375 3.019531 -2.84375 3.125 -2.65625 C 3.238281 -2.84375 3.390625 -2.984375 3.578125 -3.078125 C 3.773438 -3.179688 3.992188 -3.234375 4.234375 -3.234375 Z M 4.234375 -3.234375 "/></g></g></g></svg>