<svg xmlns="http://www.w3.org/2000/svg" xmlns:xlink="http://www.w3.org/1999/xlink" width="200" zoomAndPan="magnify" viewBox="0 0 150 74.999997" height="100" preserveAspectRatio="xMidYMid meet" version="1.2"><defs><clipPath id="193169b549"><path d="M 18 1 L 135 1 L 135 73 L 18 73 Z M 18 1 "/></clipPath><clipPath id="782693a475"><path d="M 18.300781 10.726562 L 129.886719 1.699219 L 134.878906 63.402344 L 23.292969 72.429688 Z M 18.300781 10.726562 "/></clipPath><clipPath id="fcf929fc3e"><path d="M 18 1 L 135 1 L 135 73 L 18 73 Z M 18 1 "/></clipPath><clipPath id="b9ba00d21c"><path d="M 18.300781 10.726562 L 129.824219 1.703125 L 134.816406 63.394531 L 23.289062 72.417969 Z M 18.300781 10.726562 "/></clipPath><clipPath id="dad9fec225"><path d="M 18.300781 10.726562 L 129.828125 1.703125 L 134.816406 63.375 L 23.289062 72.398438 Z M 18.300781 10.726562 "/></clipPath><clipPath id="89a9e0e1b4"><path d="M 18 2 L 133 2 L 133 69 L 18 69 Z M 18 2 "/></clipPath><clipPath id="358733c7e3"><path d="M 18.300781 6.875 L 130.164062 2.5 L 132.582031 64.359375 L 20.71875 68.730469 Z M 18.300781 6.875 "/></clipPath><clipPath id="a605a4a5ad"><path d="M 18 2 L 133 2 L 133 69 L 18 69 Z M 18 2 "/></clipPath><clipPath id="3156a448f7"><path d="M 18.300781 6.875 L 130.105469 2.503906 L 132.523438 64.347656 L 20.71875 68.71875 Z M 18.300781 6.875 "/></clipPath><clipPath id="2be43a1561"><path d="M 18.300781 6.875 L 130.105469 2.503906 L 132.523438 64.328125 L 20.71875 68.699219 Z M 18.300781 6.875 "/></clipPath><clipPath id="0ba0853995"><path d="M 18.300781 1.472656 L 130.25 1.472656 L 130.25 63.378906 L 18.300781 63.378906 Z M 18.300781 1.472656 "/></clipPath><clipPath id="f5cc6fefa4"><path d="M 18.300781 1.472656 L 130.191406 1.472656 L 130.191406 63.34375 L 18.300781 63.34375 Z M 18.300781 1.472656 "/></clipPath></defs><g id="0bb337a46b"><g clip-rule="nonzero" clip-path="url(#193169b549)"><g clip-rule="nonzero" clip-path="url(#782693a475)"><path style=" stroke:none;fill-rule:nonzero;fill:#ffffff;fill-opacity:1;" d="M 18.300781 10.726562 L 129.898438 1.699219 L 134.890625 63.402344 L 23.292969 72.429688 Z M 18.300781 10.726562 "/></g></g><g clip-rule="nonzero" clip-path="url(#fcf929fc3e)"><g clip-rule="nonzero" clip-path="url(#b9ba00d21c)"><g clip-rule="nonzero" clip-path="url(#dad9fec225)"><path style="fill:none;stroke-width:14.88062;stroke-linecap:butt;stroke-linejoin:miter;stroke:#000000;stroke-opacity:1;stroke-miterlimit:4;" d="M 0.00349573 0.00105621 L 555.291213 -0.00407803 L 555.286842 307.055774 L -0.000874818 307.060908 Z M 0.00349573 0.00105621 " transform="matrix(0.200846,-0.0162482,0.0162482,0.200846,18.300062,10.726407)"/></g></g></g><g clip-rule="nonzero" clip-path="url(#89a9e0e1b4)"><g clip-rule="nonzero" clip-path="url(#358733c7e3)"><path style=" stroke:none;fill-rule:nonzero;fill:#ffffff;fill-opacity:1;" d="M 18.300781 6.875 L 130.175781 2.5 L 132.597656 64.359375 L 20.71875 68.730469 Z M 18.300781 6.875 "/></g></g><g clip-rule="nonzero" clip-path="url(#a605a4a5ad)"><g clip-rule="nonzero" clip-path="url(#3156a448f7)"><g clip-rule="nonzero" clip-path="url(#2be43a1561)"><path style="fill:none;stroke-width:14.88062;stroke-linecap:butt;stroke-linejoin:miter;stroke:#000000;stroke-opacity:1;stroke-miterlimit:4;" d="M 0.00348454 0.00596353 L 555.282766 0.00307594 L 555.288833 307.053953 L 0.00955141 307.05684 Z M 0.00348454 0.00596353 " transform="matrix(0.201349,-0.00787084,0.00787084,0.201349,18.300033,6.873827)"/></g></g></g><g clip-rule="nonzero" clip-path="url(#0ba0853995)"><path style=" stroke:none;fill-rule:nonzero;fill:#ffffff;fill-opacity:1;" d="M 18.300781 1.472656 L 130.261719 1.472656 L 130.261719 63.378906 L 18.300781 63.378906 Z M 18.300781 1.472656 "/></g><g clip-rule="nonzero" clip-path="url(#f5cc6fefa4)"><path style="fill:none;stroke-width:14.88062;stroke-linecap:butt;stroke-linejoin:miter;stroke:#000000;stroke-opacity:1;stroke-miterlimit:4;" d="M 0.00386965 0.00445177 L 555.285752 0.00445177 L 555.285752 307.053388 L 0.00386965 307.053388 Z M 0.00386965 0.00445177 " transform="matrix(0.201502,0,0,0.201502,18.300002,1.471759)"/></g><g style="fill:#000000;fill-opacity:1;"><g transform="translate(47.34137, 17.875383)"><path style="stroke:none" d="M -0.0625 -3.484375 L -0.0625 -4.1875 L 3.328125 -4.1875 L 3.328125 -3.484375 L 2.03125 -3.484375 L 2.03125 0 L 1.234375 0 L 1.234375 -3.484375 Z M -0.0625 -3.484375 "/></g></g><g style="fill:#000000;fill-opacity:1;"><g transform="translate(50.607578, 17.875383)"><path style="stroke:none" d="M 3.28125 -1.59375 C 3.28125 -1.582031 3.273438 -1.507812 3.265625 -1.375 L 0.921875 -1.375 C 0.953125 -1.132812 1.050781 -0.945312 1.21875 -0.8125 C 1.394531 -0.675781 1.609375 -0.609375 1.859375 -0.609375 C 2.179688 -0.609375 2.445312 -0.722656 2.65625 -0.953125 L 3.078125 -0.484375 C 2.785156 -0.128906 2.375 0.046875 1.84375 0.046875 C 1.507812 0.046875 1.210938 -0.0195312 0.953125 -0.15625 C 0.691406 -0.300781 0.488281 -0.5 0.34375 -0.75 C 0.207031 -1 0.140625 -1.28125 0.140625 -1.59375 C 0.140625 -1.914062 0.207031 -2.195312 0.34375 -2.4375 C 0.476562 -2.6875 0.664062 -2.878906 0.90625 -3.015625 C 1.15625 -3.160156 1.425781 -3.234375 1.71875 -3.234375 C 2.019531 -3.234375 2.285156 -3.164062 2.515625 -3.03125 C 2.753906 -2.894531 2.941406 -2.703125 3.078125 -2.453125 C 3.210938 -2.210938 3.28125 -1.925781 3.28125 -1.59375 Z M 1.734375 -2.625 C 1.515625 -2.625 1.328125 -2.550781 1.171875 -2.40625 C 1.023438 -2.269531 0.9375 -2.085938 0.90625 -1.859375 L 2.5625 -1.859375 C 2.53125 -2.085938 2.4375 -2.269531 2.28125 -2.40625 C 2.132812 -2.550781 1.953125 -2.625 1.734375 -2.625 Z M 1.734375 -2.625 "/></g></g><g style="fill:#000000;fill-opacity:1;"><g transform="translate(54.029034, 17.875383)"><path style="stroke:none" d="M 1.15625 -4.4375 L 1.15625 0 L 0.375 0 L 0.375 -4.4375 Z M 1.15625 -4.4375 "/></g></g><g style="fill:#000000;fill-opacity:1;"><g transform="translate(55.575555, 17.875383)"><path style="stroke:none" d=""/></g></g><g style="fill:#000000;fill-opacity:1;"><g transform="translate(56.757838, 17.875383)"><path style="stroke:none" d="M 0.75 0.046875 C 0.601562 0.046875 0.476562 0 0.375 -0.09375 C 0.28125 -0.195312 0.234375 -0.328125 0.234375 -0.484375 C 0.234375 -0.628906 0.28125 -0.75 0.375 -0.84375 C 0.476562 -0.9375 0.601562 -0.984375 0.75 -0.984375 C 0.894531 -0.984375 1.015625 -0.9375 1.109375 -0.84375 C 1.210938 -0.75 1.265625 -0.628906 1.265625 -0.484375 C 1.265625 -0.328125 1.210938 -0.195312 1.109375 -0.09375 C 1.015625 0 0.894531 0.046875 0.75 0.046875 Z M 0.75 0.046875 "/></g></g><g style="fill:#000000;fill-opacity:1;"><g transform="translate(58.25062, 17.875383)"><path style="stroke:none" d=""/></g></g><g style="fill:#000000;fill-opacity:1;"><g transform="translate(59.432903, 17.875383)"><path style="stroke:none" d="M 1.796875 0.0625 C 1.453125 0.0625 1.144531 -0.0195312 0.875 -0.1875 C 0.613281 -0.363281 0.40625 -0.613281 0.25 -0.9375 C 0.101562 -1.257812 0.03125 -1.644531 0.03125 -2.09375 C 0.03125 -2.539062 0.101562 -2.925781 0.25 -3.25 C 0.40625 -3.570312 0.613281 -3.816406 0.875 -3.984375 C 1.144531 -4.160156 1.453125 -4.25 1.796875 -4.25 C 2.140625 -4.25 2.441406 -4.160156 2.703125 -3.984375 C 2.972656 -3.816406 3.179688 -3.570312 3.328125 -3.25 C 3.472656 -2.925781 3.546875 -2.539062 3.546875 -2.09375 C 3.546875 -1.644531 3.472656 -1.257812 3.328125 -0.9375 C 3.179688 -0.613281 2.972656 -0.363281 2.703125 -0.1875 C 2.441406 -0.0195312 2.140625 0.0625 1.796875 0.0625 Z M 1.796875 -0.65625 C 2.078125 -0.65625 2.300781 -0.773438 2.46875 -1.015625 C 2.632812 -1.253906 2.71875 -1.613281 2.71875 -2.09375 C 2.71875 -2.570312 2.632812 -2.929688 2.46875 -3.171875 C 2.300781 -3.410156 2.078125 -3.53125 1.796875 -3.53125 C 1.515625 -3.53125 1.289062 -3.410156 1.125 -3.171875 C 0.96875 -2.929688 0.890625 -2.570312 0.890625 -2.09375 C 0.890625 -1.613281 0.96875 -1.253906 1.125 -1.015625 C 1.289062 -0.773438 1.515625 -0.65625 1.796875 -0.65625 Z M 1.796875 -0.65625 "/></g></g><g style="fill:#000000;fill-opacity:1;"><g transform="translate(63.015578, 17.875383)"><path style="stroke:none" d="M 2.40625 0 L 1.5625 0 L 1.5625 -3.5 L 0.6875 -3.5 L 0.6875 -4.1875 L 2.40625 -4.1875 Z M 2.40625 0 "/></g></g><g style="fill:#000000;fill-opacity:1;"><g transform="translate(66.598254, 17.875383)"><path style="stroke:none" d="M 1.796875 0.0625 C 1.453125 0.0625 1.144531 -0.0195312 0.875 -0.1875 C 0.613281 -0.363281 0.40625 -0.613281 0.25 -0.9375 C 0.101562 -1.257812 0.03125 -1.644531 0.03125 -2.09375 C 0.03125 -2.539062 0.101562 -2.925781 0.25 -3.25 C 0.40625 -3.570312 0.613281 -3.816406 0.875 -3.984375 C 1.144531 -4.160156 1.453125 -4.25 1.796875 -4.25 C 2.140625 -4.25 2.441406 -4.160156 2.703125 -3.984375 C 2.972656 -3.816406 3.179688 -3.570312 3.328125 -3.25 C 3.472656 -2.925781 3.546875 -2.539062 3.546875 -2.09375 C 3.546875 -1.644531 3.472656 -1.257812 3.328125 -0.9375 C 3.179688 -0.613281 2.972656 -0.363281 2.703125 -0.1875 C 2.441406 -0.0195312 2.140625 0.0625 1.796875 0.0625 Z M 1.796875 -0.65625 C 2.078125 -0.65625 2.300781 -0.773438 2.46875 -1.015625 C 2.632812 -1.253906 2.71875 -1.613281 2.71875 -2.09375 C 2.71875 -2.570312 2.632812 -2.929688 2.46875 -3.171875 C 2.300781 -3.410156 2.078125 -3.53125 1.796875 -3.53125 C 1.515625 -3.53125 1.289062 -3.410156 1.125 -3.171875 C 0.96875 -2.929688 0.890625 -2.570312 0.890625 -2.09375 C 0.890625 -1.613281 0.96875 -1.253906 1.125 -1.015625 C 1.289062 -0.773438 1.515625 -0.65625 1.796875 -0.65625 Z M 1.796875 -0.65625 "/></g></g><g style="fill:#000000;fill-opacity:1;"><g transform="translate(70.18093, 17.875383)"><path style="stroke:none" d=""/></g></g><g style="fill:#000000;fill-opacity:1;"><g transform="translate(71.363212, 17.875383)"><path style="stroke:none" d="M 1.640625 -2.578125 C 2.234375 -2.578125 2.671875 -2.460938 2.953125 -2.234375 C 3.234375 -2.003906 3.375 -1.691406 3.375 -1.296875 C 3.375 -1.035156 3.3125 -0.800781 3.1875 -0.59375 C 3.0625 -0.394531 2.875 -0.234375 2.625 -0.109375 C 2.375 0.00390625 2.0625 0.0625 1.6875 0.0625 C 1.394531 0.0625 1.109375 0.0195312 0.828125 -0.0625 C 0.546875 -0.144531 0.304688 -0.257812 0.109375 -0.40625 L 0.453125 -1.046875 C 0.609375 -0.921875 0.789062 -0.820312 1 -0.75 C 1.207031 -0.6875 1.429688 -0.65625 1.671875 -0.65625 C 1.941406 -0.65625 2.148438 -0.707031 2.296875 -0.8125 C 2.441406 -0.925781 2.515625 -1.078125 2.515625 -1.265625 C 2.515625 -1.472656 2.4375 -1.628906 2.28125 -1.734375 C 2.125 -1.835938 1.847656 -1.890625 1.453125 -1.890625 L 0.421875 -1.890625 L 0.640625 -4.1875 L 3.125 -4.1875 L 3.125 -3.5 L 1.34375 -3.5 L 1.25 -2.578125 Z M 1.640625 -2.578125 "/></g></g><g style="fill:#000000;fill-opacity:1;"><g transform="translate(74.945888, 17.875383)"><path style="stroke:none" d="M 1.640625 -2.578125 C 2.234375 -2.578125 2.671875 -2.460938 2.953125 -2.234375 C 3.234375 -2.003906 3.375 -1.691406 3.375 -1.296875 C 3.375 -1.035156 3.3125 -0.800781 3.1875 -0.59375 C 3.0625 -0.394531 2.875 -0.234375 2.625 -0.109375 C 2.375 0.00390625 2.0625 0.0625 1.6875 0.0625 C 1.394531 0.0625 1.109375 0.0195312 0.828125 -0.0625 C 0.546875 -0.144531 0.304688 -0.257812 0.109375 -0.40625 L 0.453125 -1.046875 C 0.609375 -0.921875 0.789062 -0.820312 1 -0.75 C 1.207031 -0.6875 1.429688 -0.65625 1.671875 -0.65625 C 1.941406 -0.65625 2.148438 -0.707031 2.296875 -0.8125 C 2.441406 -0.925781 2.515625 -1.078125 2.515625 -1.265625 C 2.515625 -1.472656 2.4375 -1.628906 2.28125 -1.734375 C 2.125 -1.835938 1.847656 -1.890625 1.453125 -1.890625 L 0.421875 -1.890625 L 0.640625 -4.1875 L 3.125 -4.1875 L 3.125 -3.5 L 1.34375 -3.5 L 1.25 -2.578125 Z M 1.640625 -2.578125 "/></g></g><g style="fill:#000000;fill-opacity:1;"><g transform="translate(78.528564, 17.875383)"><path style="stroke:none" d="M 3.359375 0 L 0.25 0 L 0.25 -0.546875 L 1.890625 -2.125 C 2.078125 -2.300781 2.203125 -2.453125 2.265625 -2.578125 C 2.328125 -2.703125 2.359375 -2.828125 2.359375 -2.953125 C 2.359375 -3.128906 2.296875 -3.269531 2.171875 -3.375 C 2.046875 -3.476562 1.863281 -3.53125 1.625 -3.53125 C 1.21875 -3.53125 0.90625 -3.382812 0.6875 -3.09375 L 0.078125 -3.5 C 0.242188 -3.738281 0.460938 -3.921875 0.734375 -4.046875 C 1.015625 -4.179688 1.335938 -4.25 1.703125 -4.25 C 2.003906 -4.25 2.265625 -4.195312 2.484375 -4.09375 C 2.710938 -4 2.890625 -3.859375 3.015625 -3.671875 C 3.140625 -3.492188 3.203125 -3.28125 3.203125 -3.03125 C 3.203125 -2.8125 3.15625 -2.601562 3.0625 -2.40625 C 2.96875 -2.207031 2.785156 -1.976562 2.515625 -1.71875 L 1.4375 -0.6875 L 3.359375 -0.6875 Z M 3.359375 0 "/></g></g><g style="fill:#000000;fill-opacity:1;"><g transform="translate(82.11124, 17.875383)"><path style="stroke:none" d="M 2.828125 -2.203125 C 3.054688 -2.097656 3.226562 -1.960938 3.34375 -1.796875 C 3.46875 -1.628906 3.53125 -1.429688 3.53125 -1.203125 C 3.53125 -0.941406 3.457031 -0.71875 3.3125 -0.53125 C 3.164062 -0.34375 2.960938 -0.195312 2.703125 -0.09375 C 2.441406 0.0078125 2.132812 0.0625 1.78125 0.0625 C 1.4375 0.0625 1.132812 0.0078125 0.875 -0.09375 C 0.613281 -0.195312 0.410156 -0.34375 0.265625 -0.53125 C 0.128906 -0.71875 0.0625 -0.941406 0.0625 -1.203125 C 0.0625 -1.429688 0.117188 -1.628906 0.234375 -1.796875 C 0.359375 -1.960938 0.53125 -2.097656 0.75 -2.203125 C 0.570312 -2.285156 0.4375 -2.398438 0.34375 -2.546875 C 0.257812 -2.703125 0.21875 -2.875 0.21875 -3.0625 C 0.21875 -3.300781 0.28125 -3.507812 0.40625 -3.6875 C 0.539062 -3.863281 0.722656 -4 0.953125 -4.09375 C 1.191406 -4.195312 1.46875 -4.25 1.78125 -4.25 C 2.09375 -4.25 2.367188 -4.195312 2.609375 -4.09375 C 2.847656 -4 3.035156 -3.863281 3.171875 -3.6875 C 3.304688 -3.507812 3.375 -3.300781 3.375 -3.0625 C 3.375 -2.875 3.328125 -2.703125 3.234375 -2.546875 C 3.140625 -2.398438 3.003906 -2.285156 2.828125 -2.203125 Z M 1.78125 -3.625 C 1.550781 -3.625 1.367188 -3.570312 1.234375 -3.46875 C 1.109375 -3.363281 1.046875 -3.21875 1.046875 -3.03125 C 1.046875 -2.851562 1.109375 -2.710938 1.234375 -2.609375 C 1.367188 -2.515625 1.550781 -2.46875 1.78125 -2.46875 C 2.007812 -2.46875 2.191406 -2.515625 2.328125 -2.609375 C 2.460938 -2.710938 2.53125 -2.851562 2.53125 -3.03125 C 2.53125 -3.207031 2.460938 -3.347656 2.328125 -3.453125 C 2.191406 -3.566406 2.007812 -3.625 1.78125 -3.625 Z M 1.78125 -0.5625 C 2.0625 -0.5625 2.28125 -0.617188 2.4375 -0.734375 C 2.59375 -0.859375 2.671875 -1.019531 2.671875 -1.21875 C 2.671875 -1.425781 2.59375 -1.585938 2.4375 -1.703125 C 2.28125 -1.816406 2.0625 -1.875 1.78125 -1.875 C 1.507812 -1.875 1.296875 -1.816406 1.140625 -1.703125 C 0.984375 -1.585938 0.90625 -1.425781 0.90625 -1.21875 C 0.90625 -1.019531 0.984375 -0.859375 1.140625 -0.734375 C 1.304688 -0.617188 1.519531 -0.5625 1.78125 -0.5625 Z M 1.78125 -0.5625 "/></g></g><g style="fill:#000000;fill-opacity:1;"><g transform="translate(85.693916, 17.875383)"><path style="stroke:none" d=""/></g></g><g style="fill:#000000;fill-opacity:1;"><g transform="translate(86.876198, 17.875383)"><path style="stroke:none" d="M 3.359375 0 L 0.25 0 L 0.25 -0.546875 L 1.890625 -2.125 C 2.078125 -2.300781 2.203125 -2.453125 2.265625 -2.578125 C 2.328125 -2.703125 2.359375 -2.828125 2.359375 -2.953125 C 2.359375 -3.128906 2.296875 -3.269531 2.171875 -3.375 C 2.046875 -3.476562 1.863281 -3.53125 1.625 -3.53125 C 1.21875 -3.53125 0.90625 -3.382812 0.6875 -3.09375 L 0.078125 -3.5 C 0.242188 -3.738281 0.460938 -3.921875 0.734375 -4.046875 C 1.015625 -4.179688 1.335938 -4.25 1.703125 -4.25 C 2.003906 -4.25 2.265625 -4.195312 2.484375 -4.09375 C 2.710938 -4 2.890625 -3.859375 3.015625 -3.671875 C 3.140625 -3.492188 3.203125 -3.28125 3.203125 -3.03125 C 3.203125 -2.8125 3.15625 -2.601562 3.0625 -2.40625 C 2.96875 -2.207031 2.785156 -1.976562 2.515625 -1.71875 L 1.4375 -0.6875 L 3.359375 -0.6875 Z M 3.359375 0 "/></g></g><g style="fill:#000000;fill-opacity:1;"><g transform="translate(90.458874, 17.875383)"><path style="stroke:none" d="M 1.625 -4.25 C 2.207031 -4.25 2.660156 -4.066406 2.984375 -3.703125 C 3.304688 -3.347656 3.46875 -2.835938 3.46875 -2.171875 C 3.46875 -1.703125 3.378906 -1.296875 3.203125 -0.953125 C 3.023438 -0.617188 2.78125 -0.363281 2.46875 -0.1875 C 2.15625 -0.0195312 1.789062 0.0625 1.375 0.0625 C 1.164062 0.0625 0.960938 0.0390625 0.765625 0 C 0.578125 -0.0507812 0.410156 -0.117188 0.265625 -0.203125 L 0.578125 -0.84375 C 0.773438 -0.695312 1.039062 -0.625 1.375 -0.625 C 1.695312 -0.625 1.960938 -0.707031 2.171875 -0.875 C 2.378906 -1.050781 2.507812 -1.304688 2.5625 -1.640625 C 2.59375 -1.796875 2.609375 -1.9375 2.609375 -2.0625 C 2.492188 -1.90625 2.34375 -1.785156 2.15625 -1.703125 C 1.96875 -1.628906 1.753906 -1.59375 1.515625 -1.59375 C 1.242188 -1.59375 1 -1.644531 0.78125 -1.75 C 0.5625 -1.851562 0.390625 -2.003906 0.265625 -2.203125 C 0.140625 -2.398438 0.078125 -2.625 0.078125 -2.875 C 0.078125 -3.144531 0.144531 -3.382812 0.28125 -3.59375 C 0.414062 -3.800781 0.597656 -3.960938 0.828125 -4.078125 C 1.066406 -4.191406 1.332031 -4.25 1.625 -4.25 Z M 1.703125 -2.21875 C 1.929688 -2.21875 2.117188 -2.28125 2.265625 -2.40625 C 2.421875 -2.539062 2.5 -2.710938 2.5 -2.921875 C 2.5 -3.117188 2.425781 -3.28125 2.28125 -3.40625 C 2.132812 -3.539062 1.929688 -3.609375 1.671875 -3.609375 C 1.441406 -3.609375 1.253906 -3.546875 1.109375 -3.421875 C 0.972656 -3.296875 0.90625 -3.128906 0.90625 -2.921875 C 0.90625 -2.710938 0.972656 -2.539062 1.109375 -2.40625 C 1.253906 -2.28125 1.453125 -2.21875 1.703125 -2.21875 Z M 1.703125 -2.21875 "/></g></g><g style="fill:#000000;fill-opacity:1;"><g transform="translate(94.04155, 17.875383)"><path style="stroke:none" d="M 3.359375 0 L 0.25 0 L 0.25 -0.546875 L 1.890625 -2.125 C 2.078125 -2.300781 2.203125 -2.453125 2.265625 -2.578125 C 2.328125 -2.703125 2.359375 -2.828125 2.359375 -2.953125 C 2.359375 -3.128906 2.296875 -3.269531 2.171875 -3.375 C 2.046875 -3.476562 1.863281 -3.53125 1.625 -3.53125 C 1.21875 -3.53125 0.90625 -3.382812 0.6875 -3.09375 L 0.078125 -3.5 C 0.242188 -3.738281 0.460938 -3.921875 0.734375 -4.046875 C 1.015625 -4.179688 1.335938 -4.25 1.703125 -4.25 C 2.003906 -4.25 2.265625 -4.195312 2.484375 -4.09375 C 2.710938 -4 2.890625 -3.859375 3.015625 -3.671875 C 3.140625 -3.492188 3.203125 -3.28125 3.203125 -3.03125 C 3.203125 -2.8125 3.15625 -2.601562 3.0625 -2.40625 C 2.96875 -2.207031 2.785156 -1.976562 2.515625 -1.71875 L 1.4375 -0.6875 L 3.359375 -0.6875 Z M 3.359375 0 "/></g></g><g style="fill:#000000;fill-opacity:1;"><g transform="translate(97.624225, 17.875383)"><path style="stroke:none" d="M 3.046875 -0.9375 L 3.046875 0 L 2.234375 0 L 2.234375 -0.9375 L -0.046875 -0.9375 L -0.046875 -1.5 L 1.984375 -4.1875 L 2.875 -4.1875 L 0.96875 -1.625 L 2.25 -1.625 L 2.25 -2.453125 L 3.046875 -2.453125 L 3.046875 -1.625 L 3.78125 -1.625 L 3.78125 -0.9375 Z M 3.046875 -0.9375 "/></g></g><g style="fill:#000000;fill-opacity:1;"><g transform="translate(31.499908, 33.331735)"><path style="stroke:none" d="M 3.40625 0 L 0.40625 0 L 0.40625 -4.1875 L 3.328125 -4.1875 L 3.328125 -3.5 L 1.1875 -3.5 L 1.1875 -2.453125 L 3.09375 -2.453125 L 3.09375 -1.796875 L 1.1875 -1.796875 L 1.1875 -0.6875 L 3.40625 -0.6875 Z M 3.40625 0 "/></g></g><g style="fill:#000000;fill-opacity:1;"><g transform="translate(35.094526, 33.331735)"><path style="stroke:none" d=""/></g></g><g style="fill:#000000;fill-opacity:1;"><g transform="translate(36.276808, 33.331735)"><path style="stroke:none" d="M 1.984375 -2.421875 L 1.984375 -1.765625 L 0.328125 -1.765625 L 0.328125 -2.421875 Z M 1.984375 -2.421875 "/></g></g><g style="fill:#000000;fill-opacity:1;"><g transform="translate(38.575692, 33.331735)"><path style="stroke:none" d=""/></g></g><g style="fill:#000000;fill-opacity:1;"><g transform="translate(39.757974, 33.331735)"><path style="stroke:none" d="M 4.234375 -3.234375 C 4.617188 -3.234375 4.921875 -3.113281 5.140625 -2.875 C 5.359375 -2.644531 5.46875 -2.300781 5.46875 -1.84375 L 5.46875 0 L 4.703125 0 L 4.703125 -1.71875 C 4.703125 -1.988281 4.644531 -2.191406 4.53125 -2.328125 C 4.414062 -2.460938 4.257812 -2.53125 4.0625 -2.53125 C 3.820312 -2.53125 3.632812 -2.453125 3.5 -2.296875 C 3.363281 -2.140625 3.296875 -1.914062 3.296875 -1.625 L 3.296875 0 L 2.53125 0 L 2.53125 -1.71875 C 2.53125 -1.988281 2.472656 -2.191406 2.359375 -2.328125 C 2.253906 -2.460938 2.097656 -2.53125 1.890625 -2.53125 C 1.660156 -2.53125 1.476562 -2.453125 1.34375 -2.296875 C 1.207031 -2.140625 1.140625 -1.914062 1.140625 -1.625 L 1.140625 0 L 0.375 0 L 0.375 -3.1875 L 1.109375 -3.1875 L 1.109375 -2.765625 C 1.210938 -2.910156 1.347656 -3.023438 1.515625 -3.109375 C 1.691406 -3.191406 1.890625 -3.234375 2.109375 -3.234375 C 2.328125 -3.234375 2.523438 -3.179688 2.703125 -3.078125 C 2.878906 -2.984375 3.019531 -2.84375 3.125 -2.65625 C 3.238281 -2.84375 3.390625 -2.984375 3.578125 -3.078125 C 3.773438 -3.179688 3.992188 -3.234375 4.234375 -3.234375 Z M 4.234375 -3.234375 "/></g></g><g style="fill:#000000;fill-opacity:1;"><g transform="translate(45.585795, 33.331735)"><path style="stroke:none" d="M 1.578125 -3.234375 C 2.023438 -3.234375 2.367188 -3.117188 2.609375 -2.890625 C 2.859375 -2.660156 2.984375 -2.316406 2.984375 -1.859375 L 2.984375 0 L 2.25 0 L 2.25 -0.4375 C 2.164062 -0.28125 2.039062 -0.160156 1.875 -0.078125 C 1.71875 0.00390625 1.523438 0.046875 1.296875 0.046875 C 0.953125 0.046875 0.675781 -0.0390625 0.46875 -0.21875 C 0.269531 -0.394531 0.171875 -0.625 0.171875 -0.90625 C 0.171875 -1.195312 0.273438 -1.425781 0.484375 -1.59375 C 0.691406 -1.769531 1.007812 -1.859375 1.4375 -1.859375 L 2.203125 -1.859375 C 2.203125 -1.992188 2.1875 -2.101562 2.15625 -2.1875 C 2.0625 -2.457031 1.832031 -2.59375 1.46875 -2.59375 C 1.300781 -2.59375 1.132812 -2.5625 0.96875 -2.5 C 0.8125 -2.445312 0.675781 -2.367188 0.5625 -2.265625 L 0.28125 -2.84375 C 0.445312 -2.96875 0.644531 -3.0625 0.875 -3.125 C 1.101562 -3.195312 1.335938 -3.234375 1.578125 -3.234375 Z M 1.484375 -0.515625 C 1.660156 -0.515625 1.8125 -0.554688 1.9375 -0.640625 C 2.0625 -0.722656 2.148438 -0.84375 2.203125 -1 L 2.203125 -1.375 L 1.53125 -1.375 C 1.125 -1.375 0.921875 -1.234375 0.921875 -0.953125 C 0.921875 -0.816406 0.96875 -0.707031 1.0625 -0.625 C 1.164062 -0.550781 1.304688 -0.515625 1.484375 -0.515625 Z M 1.484375 -0.515625 "/></g></g><g style="fill:#000000;fill-opacity:1;"><g transform="translate(48.929625, 33.331735)"><path style="stroke:none" d="M 0.765625 -3.703125 C 0.628906 -3.703125 0.515625 -3.742188 0.421875 -3.828125 C 0.328125 -3.921875 0.28125 -4.035156 0.28125 -4.171875 C 0.28125 -4.296875 0.328125 -4.40625 0.421875 -4.5 C 0.515625 -4.59375 0.628906 -4.640625 0.765625 -4.640625 C 0.910156 -4.640625 1.03125 -4.59375 1.125 -4.5 C 1.21875 -4.414062 1.265625 -4.3125 1.265625 -4.1875 C 1.265625 -4.039062 1.21875 -3.921875 1.125 -3.828125 C 1.03125 -3.742188 0.910156 -3.703125 0.765625 -3.703125 Z M 1.15625 -3.1875 L 1.15625 0 L 0.375 0 L 0.375 -3.1875 Z M 1.15625 -3.1875 "/></g></g><g style="fill:#000000;fill-opacity:1;"><g transform="translate(50.476147, 33.331735)"><path style="stroke:none" d="M 1.15625 -4.4375 L 1.15625 0 L 0.375 0 L 0.375 -4.4375 Z M 1.15625 -4.4375 "/></g></g><g style="fill:#000000;fill-opacity:1;"><g transform="translate(52.022668, 33.331735)"><path style="stroke:none" d=""/></g></g><g style="fill:#000000;fill-opacity:1;"><g transform="translate(53.20495, 33.331735)"><path style="stroke:none" d="M 1.15625 -4.4375 L 1.15625 0 L 0.375 0 L 0.375 -4.4375 Z M 1.15625 -4.4375 "/></g></g><g style="fill:#000000;fill-opacity:1;"><g transform="translate(54.751472, 33.331735)"><path style="stroke:none" d="M 1.15625 -4.4375 L 1.15625 0 L 0.375 0 L 0.375 -4.4375 Z M 1.15625 -4.4375 "/></g></g><g style="fill:#000000;fill-opacity:1;"><g transform="translate(56.297993, 33.331735)"><path style="stroke:none" d="M 1.578125 -3.234375 C 2.023438 -3.234375 2.367188 -3.117188 2.609375 -2.890625 C 2.859375 -2.660156 2.984375 -2.316406 2.984375 -1.859375 L 2.984375 0 L 2.25 0 L 2.25 -0.4375 C 2.164062 -0.28125 2.039062 -0.160156 1.875 -0.078125 C 1.71875 0.00390625 1.523438 0.046875 1.296875 0.046875 C 0.953125 0.046875 0.675781 -0.0390625 0.46875 -0.21875 C 0.269531 -0.394531 0.171875 -0.625 0.171875 -0.90625 C 0.171875 -1.195312 0.273438 -1.425781 0.484375 -1.59375 C 0.691406 -1.769531 1.007812 -1.859375 1.4375 -1.859375 L 2.203125 -1.859375 C 2.203125 -1.992188 2.1875 -2.101562 2.15625 -2.1875 C 2.0625 -2.457031 1.832031 -2.59375 1.46875 -2.59375 C 1.300781 -2.59375 1.132812 -2.5625 0.96875 -2.5 C 0.8125 -2.445312 0.675781 -2.367188 0.5625 -2.265625 L 0.28125 -2.84375 C 0.445312 -2.96875 0.644531 -3.0625 0.875 -3.125 C 1.101562 -3.195312 1.335938 -3.234375 1.578125 -3.234375 Z M 1.484375 -0.515625 C 1.660156 -0.515625 1.8125 -0.554688 1.9375 -0.640625 C 2.0625 -0.722656 2.148438 -0.84375 2.203125 -1 L 2.203125 -1.375 L 1.53125 -1.375 C 1.125 -1.375 0.921875 -1.234375 0.921875 -0.953125 C 0.921875 -0.816406 0.96875 -0.707031 1.0625 -0.625 C 1.164062 -0.550781 1.304688 -0.515625 1.484375 -0.515625 Z M 1.484375 -0.515625 "/></g></g><g style="fill:#000000;fill-opacity:1;"><g transform="translate(59.641824, 33.331735)"><path style="stroke:none" d="M 2.15625 -3.234375 C 2.53125 -3.234375 2.832031 -3.113281 3.0625 -2.875 C 3.289062 -2.644531 3.40625 -2.300781 3.40625 -1.84375 L 3.40625 0 L 2.640625 0 L 2.640625 -1.71875 C 2.640625 -1.988281 2.578125 -2.191406 2.453125 -2.328125 C 2.335938 -2.460938 2.171875 -2.53125 1.953125 -2.53125 C 1.703125 -2.53125 1.503906 -2.445312 1.359375 -2.28125 C 1.210938 -2.125 1.140625 -1.898438 1.140625 -1.609375 L 1.140625 0 L 0.375 0 L 0.375 -3.1875 L 1.109375 -3.1875 L 1.109375 -2.765625 C 1.222656 -2.910156 1.367188 -3.023438 1.546875 -3.109375 C 1.734375 -3.191406 1.9375 -3.234375 2.15625 -3.234375 Z M 2.15625 -3.234375 "/></g></g><g style="fill:#000000;fill-opacity:1;"><g transform="translate(63.397661, 33.331735)"><path style="stroke:none" d="M 4.234375 -3.234375 C 4.617188 -3.234375 4.921875 -3.113281 5.140625 -2.875 C 5.359375 -2.644531 5.46875 -2.300781 5.46875 -1.84375 L 5.46875 0 L 4.703125 0 L 4.703125 -1.71875 C 4.703125 -1.988281 4.644531 -2.191406 4.53125 -2.328125 C 4.414062 -2.460938 4.257812 -2.53125 4.0625 -2.53125 C 3.820312 -2.53125 3.632812 -2.453125 3.5 -2.296875 C 3.363281 -2.140625 3.296875 -1.914062 3.296875 -1.625 L 3.296875 0 L 2.53125 0 L 2.53125 -1.71875 C 2.53125 -1.988281 2.472656 -2.191406 2.359375 -2.328125 C 2.253906 -2.460938 2.097656 -2.53125 1.890625 -2.53125 C 1.660156 -2.53125 1.476562 -2.453125 1.34375 -2.296875 C 1.207031 -2.140625 1.140625 -1.914062 1.140625 -1.625 L 1.140625 0 L 0.375 0 L 0.375 -3.1875 L 1.109375 -3.1875 L 1.109375 -2.765625 C 1.210938 -2.910156 1.347656 -3.023438 1.515625 -3.109375 C 1.691406 -3.191406 1.890625 -3.234375 2.109375 -3.234375 C 2.328125 -3.234375 2.523438 -3.179688 2.703125 -3.078125 C 2.878906 -2.984375 3.019531 -2.84375 3.125 -2.65625 C 3.238281 -2.84375 3.390625 -2.984375 3.578125 -3.078125 C 3.773438 -3.179688 3.992188 -3.234375 4.234375 -3.234375 Z M 4.234375 -3.234375 "/></g></g><g style="fill:#000000;fill-opacity:1;"><g transform="translate(69.225482, 33.331735)"><path style="stroke:none" d="M 0.765625 -3.703125 C 0.628906 -3.703125 0.515625 -3.742188 0.421875 -3.828125 C 0.328125 -3.921875 0.28125 -4.035156 0.28125 -4.171875 C 0.28125 -4.296875 0.328125 -4.40625 0.421875 -4.5 C 0.515625 -4.59375 0.628906 -4.640625 0.765625 -4.640625 C 0.910156 -4.640625 1.03125 -4.59375 1.125 -4.5 C 1.21875 -4.414062 1.265625 -4.3125 1.265625 -4.1875 C 1.265625 -4.039062 1.21875 -3.921875 1.125 -3.828125 C 1.03125 -3.742188 0.910156 -3.703125 0.765625 -3.703125 Z M 1.15625 -3.1875 L 1.15625 0 L 0.375 0 L 0.375 -3.1875 Z M 1.15625 -3.1875 "/></g></g><g style="fill:#000000;fill-opacity:1;"><g transform="translate(70.772003, 33.331735)"><path style="stroke:none" d="M 2.15625 -3.234375 C 2.53125 -3.234375 2.832031 -3.113281 3.0625 -2.875 C 3.289062 -2.644531 3.40625 -2.300781 3.40625 -1.84375 L 3.40625 0 L 2.640625 0 L 2.640625 -1.71875 C 2.640625 -1.988281 2.578125 -2.191406 2.453125 -2.328125 C 2.335938 -2.460938 2.171875 -2.53125 1.953125 -2.53125 C 1.703125 -2.53125 1.503906 -2.445312 1.359375 -2.28125 C 1.210938 -2.125 1.140625 -1.898438 1.140625 -1.609375 L 1.140625 0 L 0.375 0 L 0.375 -3.1875 L 1.109375 -3.1875 L 1.109375 -2.765625 C 1.222656 -2.910156 1.367188 -3.023438 1.546875 -3.109375 C 1.734375 -3.191406 1.9375 -3.234375 2.15625 -3.234375 Z M 2.15625 -3.234375 "/></g></g><g style="fill:#000000;fill-opacity:1;"><g transform="translate(74.527841, 33.331735)"><path style="stroke:none" d="M 1.578125 -3.234375 C 2.023438 -3.234375 2.367188 -3.117188 2.609375 -2.890625 C 2.859375 -2.660156 2.984375 -2.316406 2.984375 -1.859375 L 2.984375 0 L 2.25 0 L 2.25 -0.4375 C 2.164062 -0.28125 2.039062 -0.160156 1.875 -0.078125 C 1.71875 0.00390625 1.523438 0.046875 1.296875 0.046875 C 0.953125 0.046875 0.675781 -0.0390625 0.46875 -0.21875 C 0.269531 -0.394531 0.171875 -0.625 0.171875 -0.90625 C 0.171875 -1.195312 0.273438 -1.425781 0.484375 -1.59375 C 0.691406 -1.769531 1.007812 -1.859375 1.4375 -1.859375 L 2.203125 -1.859375 C 2.203125 -1.992188 2.1875 -2.101562 2.15625 -2.1875 C 2.0625 -2.457031 1.832031 -2.59375 1.46875 -2.59375 C 1.300781 -2.59375 1.132812 -2.5625 0.96875 -2.5 C 0.8125 -2.445312 0.675781 -2.367188 0.5625 -2.265625 L 0.28125 -2.84375 C 0.445312 -2.96875 0.644531 -3.0625 0.875 -3.125 C 1.101562 -3.195312 1.335938 -3.234375 1.578125 -3.234375 Z M 1.484375 -0.515625 C 1.660156 -0.515625 1.8125 -0.554688 1.9375 -0.640625 C 2.0625 -0.722656 2.148438 -0.84375 2.203125 -1 L 2.203125 -1.375 L 1.53125 -1.375 C 1.125 -1.375 0.921875 -1.234375 0.921875 -0.953125 C 0.921875 -0.816406 0.96875 -0.707031 1.0625 -0.625 C 1.164062 -0.550781 1.304688 -0.515625 1.484375 -0.515625 Z M 1.484375 -0.515625 "/></g></g><g style="fill:#000000;fill-opacity:1;"><g transform="translate(77.871671, 33.331735)"><path style="stroke:none" d="M 1.15625 -4.4375 L 1.15625 0 L 0.375 0 L 0.375 -4.4375 Z M 1.15625 -4.4375 "/></g></g><g style="fill:#000000;fill-opacity:1;"><g transform="translate(79.418192, 33.331735)"><path style="stroke:none" d="M 1.15625 -4.4375 L 1.15625 0 L 0.375 0 L 0.375 -4.4375 Z M 1.15625 -4.4375 "/></g></g><g style="fill:#000000;fill-opacity:1;"><g transform="translate(80.964714, 33.331735)"><path style="stroke:none" d="M 3.125 -4.234375 C 3.664062 -4.234375 4.148438 -4.117188 4.578125 -3.890625 C 5.003906 -3.671875 5.335938 -3.363281 5.578125 -2.96875 C 5.816406 -2.570312 5.9375 -2.125 5.9375 -1.625 C 5.9375 -1.28125 5.882812 -0.984375 5.78125 -0.734375 C 5.6875 -0.484375 5.550781 -0.289062 5.375 -0.15625 C 5.195312 -0.03125 4.992188 0.03125 4.765625 0.03125 C 4.578125 0.03125 4.421875 -0.00390625 4.296875 -0.078125 C 4.171875 -0.160156 4.078125 -0.273438 4.015625 -0.421875 L 3.984375 -0.53125 C 3.878906 -0.351562 3.734375 -0.210938 3.546875 -0.109375 C 3.359375 -0.015625 3.144531 0.03125 2.90625 0.03125 C 2.644531 0.03125 2.40625 -0.03125 2.1875 -0.15625 C 1.976562 -0.28125 1.8125 -0.457031 1.6875 -0.6875 C 1.570312 -0.925781 1.515625 -1.191406 1.515625 -1.484375 C 1.515625 -1.773438 1.570312 -2.035156 1.6875 -2.265625 C 1.8125 -2.492188 1.976562 -2.671875 2.1875 -2.796875 C 2.40625 -2.929688 2.644531 -3 2.90625 -3 C 3.125 -3 3.316406 -2.957031 3.484375 -2.875 C 3.648438 -2.789062 3.789062 -2.675781 3.90625 -2.53125 L 3.90625 -2.953125 L 4.609375 -2.953125 L 4.609375 -0.9375 C 4.609375 -0.675781 4.710938 -0.546875 4.921875 -0.546875 C 5.066406 -0.546875 5.179688 -0.632812 5.265625 -0.8125 C 5.359375 -1 5.40625 -1.265625 5.40625 -1.609375 C 5.40625 -2.023438 5.304688 -2.394531 5.109375 -2.71875 C 4.921875 -3.039062 4.648438 -3.289062 4.296875 -3.46875 C 3.953125 -3.644531 3.5625 -3.734375 3.125 -3.734375 C 2.675781 -3.734375 2.273438 -3.640625 1.921875 -3.453125 C 1.578125 -3.265625 1.3125 -3 1.125 -2.65625 C 0.9375 -2.320312 0.84375 -1.941406 0.84375 -1.515625 C 0.84375 -1.078125 0.929688 -0.691406 1.109375 -0.359375 C 1.296875 -0.0234375 1.5625 0.234375 1.90625 0.421875 C 2.25 0.609375 2.644531 0.703125 3.09375 0.703125 C 3.289062 0.703125 3.488281 0.679688 3.6875 0.640625 C 3.894531 0.597656 4.085938 0.535156 4.265625 0.453125 L 4.4375 0.9375 C 4.257812 1.03125 4.050781 1.097656 3.8125 1.140625 C 3.570312 1.191406 3.332031 1.21875 3.09375 1.21875 C 2.53125 1.21875 2.035156 1.097656 1.609375 0.859375 C 1.179688 0.628906 0.847656 0.304688 0.609375 -0.109375 C 0.367188 -0.523438 0.25 -0.992188 0.25 -1.515625 C 0.25 -2.035156 0.367188 -2.5 0.609375 -2.90625 C 0.847656 -3.320312 1.1875 -3.644531 1.625 -3.875 C 2.0625 -4.113281 2.5625 -4.234375 3.125 -4.234375 Z M 3.0625 -0.5625 C 3.3125 -0.5625 3.515625 -0.644531 3.671875 -0.8125 C 3.828125 -0.976562 3.90625 -1.203125 3.90625 -1.484375 C 3.90625 -1.765625 3.828125 -1.984375 3.671875 -2.140625 C 3.515625 -2.304688 3.3125 -2.390625 3.0625 -2.390625 C 2.820312 -2.390625 2.625 -2.304688 2.46875 -2.140625 C 2.3125 -1.984375 2.234375 -1.765625 2.234375 -1.484375 C 2.234375 -1.203125 2.3125 -0.976562 2.46875 -0.8125 C 2.625 -0.644531 2.820312 -0.5625 3.0625 -0.5625 Z M 3.0625 -0.5625 "/></g></g><g style="fill:#000000;fill-opacity:1;"><g transform="translate(87.144829, 33.331735)"><path style="stroke:none" d="M 2.15625 -3.234375 C 2.539062 -3.234375 2.847656 -3.113281 3.078125 -2.875 C 3.304688 -2.644531 3.421875 -2.300781 3.421875 -1.84375 L 3.421875 0 L 2.640625 0 L 2.640625 -1.71875 C 2.640625 -1.988281 2.582031 -2.191406 2.46875 -2.328125 C 2.351562 -2.460938 2.179688 -2.53125 1.953125 -2.53125 C 1.710938 -2.53125 1.519531 -2.445312 1.375 -2.28125 C 1.226562 -2.125 1.15625 -1.898438 1.15625 -1.609375 L 1.15625 0 L 0.375 0 L 0.375 -4.4375 L 1.15625 -4.4375 L 1.15625 -2.796875 C 1.269531 -2.941406 1.410156 -3.050781 1.578125 -3.125 C 1.753906 -3.195312 1.945312 -3.234375 2.15625 -3.234375 Z M 2.15625 -3.234375 "/></g></g><g style="fill:#000000;fill-opacity:1;"><g transform="translate(90.924556, 33.331735)"><path style="stroke:none" d="M 1.578125 -3.234375 C 2.023438 -3.234375 2.367188 -3.117188 2.609375 -2.890625 C 2.859375 -2.660156 2.984375 -2.316406 2.984375 -1.859375 L 2.984375 0 L 2.25 0 L 2.25 -0.4375 C 2.164062 -0.28125 2.039062 -0.160156 1.875 -0.078125 C 1.71875 0.00390625 1.523438 0.046875 1.296875 0.046875 C 0.953125 0.046875 0.675781 -0.0390625 0.46875 -0.21875 C 0.269531 -0.394531 0.171875 -0.625 0.171875 -0.90625 C 0.171875 -1.195312 0.273438 -1.425781 0.484375 -1.59375 C 0.691406 -1.769531 1.007812 -1.859375 1.4375 -1.859375 L 2.203125 -1.859375 C 2.203125 -1.992188 2.1875 -2.101562 2.15625 -2.1875 C 2.0625 -2.457031 1.832031 -2.59375 1.46875 -2.59375 C 1.300781 -2.59375 1.132812 -2.5625 0.96875 -2.5 C 0.8125 -2.445312 0.675781 -2.367188 0.5625 -2.265625 L 0.28125 -2.84375 C 0.445312 -2.96875 0.644531 -3.0625 0.875 -3.125 C 1.101562 -3.195312 1.335938 -3.234375 1.578125 -3.234375 Z M 1.484375 -0.515625 C 1.660156 -0.515625 1.8125 -0.554688 1.9375 -0.640625 C 2.0625 -0.722656 2.148438 -0.84375 2.203125 -1 L 2.203125 -1.375 L 1.53125 -1.375 C 1.125 -1.375 0.921875 -1.234375 0.921875 -0.953125 C 0.921875 -0.816406 0.96875 -0.707031 1.0625 -0.625 C 1.164062 -0.550781 1.304688 -0.515625 1.484375 -0.515625 Z M 1.484375 -0.515625 "/></g></g><g style="fill:#000000;fill-opacity:1;"><g transform="translate(94.268387, 33.331735)"><path style="stroke:none" d="M 2.15625 -3.234375 C 2.53125 -3.234375 2.832031 -3.113281 3.0625 -2.875 C 3.289062 -2.644531 3.40625 -2.300781 3.40625 -1.84375 L 3.40625 0 L 2.640625 0 L 2.640625 -1.71875 C 2.640625 -1.988281 2.578125 -2.191406 2.453125 -2.328125 C 2.335938 -2.460938 2.171875 -2.53125 1.953125 -2.53125 C 1.703125 -2.53125 1.503906 -2.445312 1.359375 -2.28125 C 1.210938 -2.125 1.140625 -1.898438 1.140625 -1.609375 L 1.140625 0 L 0.375 0 L 0.375 -3.1875 L 1.109375 -3.1875 L 1.109375 -2.765625 C 1.222656 -2.910156 1.367188 -3.023438 1.546875 -3.109375 C 1.734375 -3.191406 1.9375 -3.234375 2.15625 -3.234375 Z M 2.15625 -3.234375 "/></g></g><g style="fill:#000000;fill-opacity:1;"><g transform="translate(98.024224, 33.331735)"><path style="stroke:none" d="M 4.234375 -3.234375 C 4.617188 -3.234375 4.921875 -3.113281 5.140625 -2.875 C 5.359375 -2.644531 5.46875 -2.300781 5.46875 -1.84375 L 5.46875 0 L 4.703125 0 L 4.703125 -1.71875 C 4.703125 -1.988281 4.644531 -2.191406 4.53125 -2.328125 C 4.414062 -2.460938 4.257812 -2.53125 4.0625 -2.53125 C 3.820312 -2.53125 3.632812 -2.453125 3.5 -2.296875 C 3.363281 -2.140625 3.296875 -1.914062 3.296875 -1.625 L 3.296875 0 L 2.53125 0 L 2.53125 -1.71875 C 2.53125 -1.988281 2.472656 -2.191406 2.359375 -2.328125 C 2.253906 -2.460938 2.097656 -2.53125 1.890625 -2.53125 C 1.660156 -2.53125 1.476562 -2.453125 1.34375 -2.296875 C 1.207031 -2.140625 1.140625 -1.914062 1.140625 -1.625 L 1.140625 0 L 0.375 0 L 0.375 -3.1875 L 1.109375 -3.1875 L 1.109375 -2.765625 C 1.210938 -2.910156 1.347656 -3.023438 1.515625 -3.109375 C 1.691406 -3.191406 1.890625 -3.234375 2.109375 -3.234375 C 2.328125 -3.234375 2.523438 -3.179688 2.703125 -3.078125 C 2.878906 -2.984375 3.019531 -2.84375 3.125 -2.65625 C 3.238281 -2.84375 3.390625 -2.984375 3.578125 -3.078125 C 3.773438 -3.179688 3.992188 -3.234375 4.234375 -3.234375 Z M 4.234375 -3.234375 "/></g></g><g style="fill:#000000;fill-opacity:1;"><g transform="translate(103.852045, 33.331735)"><path style="stroke:none" d="M 1.578125 -3.234375 C 2.023438 -3.234375 2.367188 -3.117188 2.609375 -2.890625 C 2.859375 -2.660156 2.984375 -2.316406 2.984375 -1.859375 L 2.984375 0 L 2.25 0 L 2.25 -0.4375 C 2.164062 -0.28125 2.039062 -0.160156 1.875 -0.078125 C 1.71875 0.00390625 1.523438 0.046875 1.296875 0.046875 C 0.953125 0.046875 0.675781 -0.0390625 0.46875 -0.21875 C 0.269531 -0.394531 0.171875 -0.625 0.171875 -0.90625 C 0.171875 -1.195312 0.273438 -1.425781 0.484375 -1.59375 C 0.691406 -1.769531 1.007812 -1.859375 1.4375 -1.859375 L 2.203125 -1.859375 C 2.203125 -1.992188 2.1875 -2.101562 2.15625 -2.1875 C 2.0625 -2.457031 1.832031 -2.59375 1.46875 -2.59375 C 1.300781 -2.59375 1.132812 -2.5625 0.96875 -2.5 C 0.8125 -2.445312 0.675781 -2.367188 0.5625 -2.265625 L 0.28125 -2.84375 C 0.445312 -2.96875 0.644531 -3.0625 0.875 -3.125 C 1.101562 -3.195312 1.335938 -3.234375 1.578125 -3.234375 Z M 1.484375 -0.515625 C 1.660156 -0.515625 1.8125 -0.554688 1.9375 -0.640625 C 2.0625 -0.722656 2.148438 -0.84375 2.203125 -1 L 2.203125 -1.375 L 1.53125 -1.375 C 1.125 -1.375 0.921875 -1.234375 0.921875 -0.953125 C 0.921875 -0.816406 0.96875 -0.707031 1.0625 -0.625 C 1.164062 -0.550781 1.304688 -0.515625 1.484375 -0.515625 Z M 1.484375 -0.515625 "/></g></g><g style="fill:#000000;fill-opacity:1;"><g transform="translate(107.195875, 33.331735)"><path style="stroke:none" d="M 0.765625 -3.703125 C 0.628906 -3.703125 0.515625 -3.742188 0.421875 -3.828125 C 0.328125 -3.921875 0.28125 -4.035156 0.28125 -4.171875 C 0.28125 -4.296875 0.328125 -4.40625 0.421875 -4.5 C 0.515625 -4.59375 0.628906 -4.640625 0.765625 -4.640625 C 0.910156 -4.640625 1.03125 -4.59375 1.125 -4.5 C 1.21875 -4.414062 1.265625 -4.3125 1.265625 -4.1875 C 1.265625 -4.039062 1.21875 -3.921875 1.125 -3.828125 C 1.03125 -3.742188 0.910156 -3.703125 0.765625 -3.703125 Z M 1.15625 -3.1875 L 1.15625 0 L 0.375 0 L 0.375 -3.1875 Z M 1.15625 -3.1875 "/></g></g><g style="fill:#000000;fill-opacity:1;"><g transform="translate(108.7424, 33.331735)"><path style="stroke:none" d="M 1.15625 -4.4375 L 1.15625 0 L 0.375 0 L 0.375 -4.4375 Z M 1.15625 -4.4375 "/></g></g><g style="fill:#000000;fill-opacity:1;"><g transform="translate(110.288918, 33.331735)"><path style="stroke:none" d="M 0.75 0.046875 C 0.601562 0.046875 0.476562 0 0.375 -0.09375 C 0.28125 -0.195312 0.234375 -0.328125 0.234375 -0.484375 C 0.234375 -0.628906 0.28125 -0.75 0.375 -0.84375 C 0.476562 -0.9375 0.601562 -0.984375 0.75 -0.984375 C 0.894531 -0.984375 1.015625 -0.9375 1.109375 -0.84375 C 1.210938 -0.75 1.265625 -0.628906 1.265625 -0.484375 C 1.265625 -0.328125 1.210938 -0.195312 1.109375 -0.09375 C 1.015625 0 0.894531 0.046875 0.75 0.046875 Z M 0.75 0.046875 "/></g></g><g style="fill:#000000;fill-opacity:1;"><g transform="translate(111.781701, 33.331735)"><path style="stroke:none" d="M 2.15625 -3.234375 C 2.53125 -3.234375 2.832031 -3.113281 3.0625 -2.875 C 3.289062 -2.644531 3.40625 -2.300781 3.40625 -1.84375 L 3.40625 0 L 2.640625 0 L 2.640625 -1.71875 C 2.640625 -1.988281 2.578125 -2.191406 2.453125 -2.328125 C 2.335938 -2.460938 2.171875 -2.53125 1.953125 -2.53125 C 1.703125 -2.53125 1.503906 -2.445312 1.359375 -2.28125 C 1.210938 -2.125 1.140625 -1.898438 1.140625 -1.609375 L 1.140625 0 L 0.375 0 L 0.375 -3.1875 L 1.109375 -3.1875 L 1.109375 -2.765625 C 1.222656 -2.910156 1.367188 -3.023438 1.546875 -3.109375 C 1.734375 -3.191406 1.9375 -3.234375 2.15625 -3.234375 Z M 2.15625 -3.234375 "/></g></g><g style="fill:#000000;fill-opacity:1;"><g transform="translate(115.537538, 33.331735)"><path style="stroke:none" d="M 3.28125 -1.59375 C 3.28125 -1.582031 3.273438 -1.507812 3.265625 -1.375 L 0.921875 -1.375 C 0.953125 -1.132812 1.050781 -0.945312 1.21875 -0.8125 C 1.394531 -0.675781 1.609375 -0.609375 1.859375 -0.609375 C 2.179688 -0.609375 2.445312 -0.722656 2.65625 -0.953125 L 3.078125 -0.484375 C 2.785156 -0.128906 2.375 0.046875 1.84375 0.046875 C 1.507812 0.046875 1.210938 -0.0195312 0.953125 -0.15625 C 0.691406 -0.300781 0.488281 -0.5 0.34375 -0.75 C 0.207031 -1 0.140625 -1.28125 0.140625 -1.59375 C 0.140625 -1.914062 0.207031 -2.195312 0.34375 -2.4375 C 0.476562 -2.6875 0.664062 -2.878906 0.90625 -3.015625 C 1.15625 -3.160156 1.425781 -3.234375 1.71875 -3.234375 C 2.019531 -3.234375 2.285156 -3.164062 2.515625 -3.03125 C 2.753906 -2.894531 2.941406 -2.703125 3.078125 -2.453125 C 3.210938 -2.210938 3.28125 -1.925781 3.28125 -1.59375 Z M 1.734375 -2.625 C 1.515625 -2.625 1.328125 -2.550781 1.171875 -2.40625 C 1.023438 -2.269531 0.9375 -2.085938 0.90625 -1.859375 L 2.5625 -1.859375 C 2.53125 -2.085938 2.4375 -2.269531 2.28125 -2.40625 C 2.132812 -2.550781 1.953125 -2.625 1.734375 -2.625 Z M 1.734375 -2.625 "/></g></g><g style="fill:#000000;fill-opacity:1;"><g transform="translate(118.958994, 33.331735)"><path style="stroke:none" d="M 2.25 -0.171875 C 2.164062 -0.0976562 2.0625 -0.0390625 1.9375 0 C 1.820312 0.03125 1.695312 0.046875 1.5625 0.046875 C 1.21875 0.046875 0.953125 -0.046875 0.765625 -0.234375 C 0.578125 -0.421875 0.484375 -0.691406 0.484375 -1.046875 L 0.484375 -2.515625 L 0 -2.515625 L 0 -3.140625 L 0.484375 -3.140625 L 0.484375 -3.90625 L 1.25 -3.90625 L 1.25 -3.140625 L 2.046875 -3.140625 L 2.046875 -2.515625 L 1.25 -2.515625 L 1.25 -1.0625 C 1.25 -0.914062 1.285156 -0.800781 1.359375 -0.71875 C 1.429688 -0.644531 1.535156 -0.609375 1.671875 -0.609375 C 1.816406 -0.609375 1.941406 -0.648438 2.046875 -0.734375 Z M 2.25 -0.171875 "/></g></g><g style="fill:#000000;fill-opacity:1;"><g transform="translate(39.674907, 47.706393)"><path style="stroke:none" d="M 4.046875 0 L 3.3125 0 L 2.5625 -2.125 L 1.796875 0 L 1.0625 0 L -0.046875 -3.1875 L 0.6875 -3.1875 L 1.453125 -0.90625 L 2.25 -3.1875 L 2.90625 -3.1875 L 3.6875 -0.90625 L 4.46875 -3.1875 L 5.15625 -3.1875 Z M 4.046875 0 "/></g></g><g style="fill:#000000;fill-opacity:1;"><g transform="translate(44.786192, 47.706393)"><path style="stroke:none" d="M 4.046875 0 L 3.3125 0 L 2.5625 -2.125 L 1.796875 0 L 1.0625 0 L -0.046875 -3.1875 L 0.6875 -3.1875 L 1.453125 -0.90625 L 2.25 -3.1875 L 2.90625 -3.1875 L 3.6875 -0.90625 L 4.46875 -3.1875 L 5.15625 -3.1875 Z M 4.046875 0 "/></g></g><g style="fill:#000000;fill-opacity:1;"><g transform="translate(49.897476, 47.706393)"><path style="stroke:none" d="M 4.046875 0 L 3.3125 0 L 2.5625 -2.125 L 1.796875 0 L 1.0625 0 L -0.046875 -3.1875 L 0.6875 -3.1875 L 1.453125 -0.90625 L 2.25 -3.1875 L 2.90625 -3.1875 L 3.6875 -0.90625 L 4.46875 -3.1875 L 5.15625 -3.1875 Z M 4.046875 0 "/></g></g><g style="fill:#000000;fill-opacity:1;"><g transform="translate(55.00876, 47.706393)"><path style="stroke:none" d="M 0.75 0.046875 C 0.601562 0.046875 0.476562 0 0.375 -0.09375 C 0.28125 -0.195312 0.234375 -0.328125 0.234375 -0.484375 C 0.234375 -0.628906 0.28125 -0.75 0.375 -0.84375 C 0.476562 -0.9375 0.601562 -0.984375 0.75 -0.984375 C 0.894531 -0.984375 1.015625 -0.9375 1.109375 -0.84375 C 1.210938 -0.75 1.265625 -0.628906 1.265625 -0.484375 C 1.265625 -0.328125 1.210938 -0.195312 1.109375 -0.09375 C 1.015625 0 0.894531 0.046875 0.75 0.046875 Z M 0.75 0.046875 "/></g></g><g style="fill:#000000;fill-opacity:1;"><g transform="translate(56.501543, 47.706393)"><path style="stroke:none" d="M 1.125 -2.71875 C 1.226562 -2.894531 1.367188 -3.023438 1.546875 -3.109375 C 1.734375 -3.203125 1.945312 -3.242188 2.1875 -3.234375 L 2.1875 -2.484375 L 2.015625 -2.5 C 1.742188 -2.5 1.53125 -2.414062 1.375 -2.25 C 1.226562 -2.09375 1.15625 -1.859375 1.15625 -1.546875 L 1.15625 0 L 0.375 0 L 0.375 -3.1875 L 1.125 -3.1875 Z M 1.125 -2.71875 "/></g></g><g style="fill:#000000;fill-opacity:1;"><g transform="translate(58.782514, 47.706393)"><path style="stroke:none" d="M 3.28125 -1.59375 C 3.28125 -1.582031 3.273438 -1.507812 3.265625 -1.375 L 0.921875 -1.375 C 0.953125 -1.132812 1.050781 -0.945312 1.21875 -0.8125 C 1.394531 -0.675781 1.609375 -0.609375 1.859375 -0.609375 C 2.179688 -0.609375 2.445312 -0.722656 2.65625 -0.953125 L 3.078125 -0.484375 C 2.785156 -0.128906 2.375 0.046875 1.84375 0.046875 C 1.507812 0.046875 1.210938 -0.0195312 0.953125 -0.15625 C 0.691406 -0.300781 0.488281 -0.5 0.34375 -0.75 C 0.207031 -1 0.140625 -1.28125 0.140625 -1.59375 C 0.140625 -1.914062 0.207031 -2.195312 0.34375 -2.4375 C 0.476562 -2.6875 0.664062 -2.878906 0.90625 -3.015625 C 1.15625 -3.160156 1.425781 -3.234375 1.71875 -3.234375 C 2.019531 -3.234375 2.285156 -3.164062 2.515625 -3.03125 C 2.753906 -2.894531 2.941406 -2.703125 3.078125 -2.453125 C 3.210938 -2.210938 3.28125 -1.925781 3.28125 -1.59375 Z M 1.734375 -2.625 C 1.515625 -2.625 1.328125 -2.550781 1.171875 -2.40625 C 1.023438 -2.269531 0.9375 -2.085938 0.90625 -1.859375 L 2.5625 -1.859375 C 2.53125 -2.085938 2.4375 -2.269531 2.28125 -2.40625 C 2.132812 -2.550781 1.953125 -2.625 1.734375 -2.625 Z M 1.734375 -2.625 "/></g></g><g style="fill:#000000;fill-opacity:1;"><g transform="translate(62.20397, 47.706393)"><path style="stroke:none" d="M 1.578125 -3.234375 C 2.023438 -3.234375 2.367188 -3.117188 2.609375 -2.890625 C 2.859375 -2.660156 2.984375 -2.316406 2.984375 -1.859375 L 2.984375 0 L 2.25 0 L 2.25 -0.4375 C 2.164062 -0.28125 2.039062 -0.160156 1.875 -0.078125 C 1.71875 0.00390625 1.523438 0.046875 1.296875 0.046875 C 0.953125 0.046875 0.675781 -0.0390625 0.46875 -0.21875 C 0.269531 -0.394531 0.171875 -0.625 0.171875 -0.90625 C 0.171875 -1.195312 0.273438 -1.425781 0.484375 -1.59375 C 0.691406 -1.769531 1.007812 -1.859375 1.4375 -1.859375 L 2.203125 -1.859375 C 2.203125 -1.992188 2.1875 -2.101562 2.15625 -2.1875 C 2.0625 -2.457031 1.832031 -2.59375 1.46875 -2.59375 C 1.300781 -2.59375 1.132812 -2.5625 0.96875 -2.5 C 0.8125 -2.445312 0.675781 -2.367188 0.5625 -2.265625 L 0.28125 -2.84375 C 0.445312 -2.96875 0.644531 -3.0625 0.875 -3.125 C 1.101562 -3.195312 1.335938 -3.234375 1.578125 -3.234375 Z M 1.484375 -0.515625 C 1.660156 -0.515625 1.8125 -0.554688 1.9375 -0.640625 C 2.0625 -0.722656 2.148438 -0.84375 2.203125 -1 L 2.203125 -1.375 L 1.53125 -1.375 C 1.125 -1.375 0.921875 -1.234375 0.921875 -0.953125 C 0.921875 -0.816406 0.96875 -0.707031 1.0625 -0.625 C 1.164062 -0.550781 1.304688 -0.515625 1.484375 -0.515625 Z M 1.484375 -0.515625 "/></g></g><g style="fill:#000000;fill-opacity:1;"><g transform="translate(65.5478, 47.706393)"><path style="stroke:none" d="M 1.15625 -4.4375 L 1.15625 0 L 0.375 0 L 0.375 -4.4375 Z M 1.15625 -4.4375 "/></g></g><g style="fill:#000000;fill-opacity:1;"><g transform="translate(67.094322, 47.706393)"><path style="stroke:none" d="M 1.15625 -4.4375 L 1.15625 0 L 0.375 0 L 0.375 -4.4375 Z M 1.15625 -4.4375 "/></g></g><g style="fill:#000000;fill-opacity:1;"><g transform="translate(68.640843, 47.706393)"><path style="stroke:none" d="M 1.890625 0.234375 C 1.753906 0.585938 1.585938 0.835938 1.390625 0.984375 C 1.191406 1.128906 0.957031 1.203125 0.6875 1.203125 C 0.53125 1.203125 0.378906 1.175781 0.234375 1.125 C 0.0859375 1.070312 -0.03125 1 -0.125 0.90625 L 0.15625 0.328125 C 0.21875 0.398438 0.296875 0.453125 0.390625 0.484375 C 0.484375 0.515625 0.570312 0.53125 0.65625 0.53125 C 0.789062 0.53125 0.898438 0.492188 0.984375 0.421875 C 1.066406 0.347656 1.148438 0.210938 1.234375 0.015625 L -0.09375 -3.1875 L 0.703125 -3.1875 L 1.625 -0.90625 L 2.546875 -3.1875 L 3.296875 -3.1875 Z M 1.890625 0.234375 "/></g></g><g style="fill:#000000;fill-opacity:1;"><g transform="translate(71.835396, 47.706393)"><path style="stroke:none" d="M 3.453125 -0.5 C 3.453125 0.632812 2.894531 1.203125 1.78125 1.203125 C 1.488281 1.203125 1.210938 1.160156 0.953125 1.078125 C 0.691406 1.003906 0.476562 0.894531 0.3125 0.75 L 0.625 0.15625 C 0.757812 0.269531 0.925781 0.363281 1.125 0.4375 C 1.320312 0.507812 1.519531 0.546875 1.71875 0.546875 C 2.050781 0.546875 2.289062 0.46875 2.4375 0.3125 C 2.59375 0.15625 2.671875 -0.078125 2.671875 -0.390625 L 2.671875 -0.609375 C 2.554688 -0.460938 2.410156 -0.347656 2.234375 -0.265625 C 2.066406 -0.191406 1.875 -0.15625 1.65625 -0.15625 C 1.375 -0.15625 1.117188 -0.21875 0.890625 -0.34375 C 0.660156 -0.46875 0.476562 -0.648438 0.34375 -0.890625 C 0.207031 -1.128906 0.140625 -1.398438 0.140625 -1.703125 C 0.140625 -2.003906 0.207031 -2.269531 0.34375 -2.5 C 0.476562 -2.726562 0.660156 -2.90625 0.890625 -3.03125 C 1.117188 -3.164062 1.375 -3.234375 1.65625 -3.234375 C 1.882812 -3.234375 2.085938 -3.1875 2.265625 -3.09375 C 2.441406 -3.007812 2.59375 -2.882812 2.71875 -2.71875 L 2.71875 -3.1875 L 3.453125 -3.1875 Z M 1.796875 -0.8125 C 2.054688 -0.8125 2.269531 -0.894531 2.4375 -1.0625 C 2.601562 -1.226562 2.6875 -1.441406 2.6875 -1.703125 C 2.6875 -1.953125 2.601562 -2.15625 2.4375 -2.3125 C 2.269531 -2.476562 2.054688 -2.5625 1.796875 -2.5625 C 1.546875 -2.5625 1.335938 -2.476562 1.171875 -2.3125 C 1.003906 -2.15625 0.921875 -1.953125 0.921875 -1.703125 C 0.921875 -1.441406 1.003906 -1.226562 1.171875 -1.0625 C 1.335938 -0.894531 1.546875 -0.8125 1.796875 -0.8125 Z M 1.796875 -0.8125 "/></g></g><g style="fill:#000000;fill-opacity:1;"><g transform="translate(75.668859, 47.706393)"><path style="stroke:none" d="M 1.125 -2.71875 C 1.226562 -2.894531 1.367188 -3.023438 1.546875 -3.109375 C 1.734375 -3.203125 1.945312 -3.242188 2.1875 -3.234375 L 2.1875 -2.484375 L 2.015625 -2.5 C 1.742188 -2.5 1.53125 -2.414062 1.375 -2.25 C 1.226562 -2.09375 1.15625 -1.859375 1.15625 -1.546875 L 1.15625 0 L 0.375 0 L 0.375 -3.1875 L 1.125 -3.1875 Z M 1.125 -2.71875 "/></g></g><g style="fill:#000000;fill-opacity:1;"><g transform="translate(77.94983, 47.706393)"><path style="stroke:none" d="M 3.28125 -1.59375 C 3.28125 -1.582031 3.273438 -1.507812 3.265625 -1.375 L 0.921875 -1.375 C 0.953125 -1.132812 1.050781 -0.945312 1.21875 -0.8125 C 1.394531 -0.675781 1.609375 -0.609375 1.859375 -0.609375 C 2.179688 -0.609375 2.445312 -0.722656 2.65625 -0.953125 L 3.078125 -0.484375 C 2.785156 -0.128906 2.375 0.046875 1.84375 0.046875 C 1.507812 0.046875 1.210938 -0.0195312 0.953125 -0.15625 C 0.691406 -0.300781 0.488281 -0.5 0.34375 -0.75 C 0.207031 -1 0.140625 -1.28125 0.140625 -1.59375 C 0.140625 -1.914062 0.207031 -2.195312 0.34375 -2.4375 C 0.476562 -2.6875 0.664062 -2.878906 0.90625 -3.015625 C 1.15625 -3.160156 1.425781 -3.234375 1.71875 -3.234375 C 2.019531 -3.234375 2.285156 -3.164062 2.515625 -3.03125 C 2.753906 -2.894531 2.941406 -2.703125 3.078125 -2.453125 C 3.210938 -2.210938 3.28125 -1.925781 3.28125 -1.59375 Z M 1.734375 -2.625 C 1.515625 -2.625 1.328125 -2.550781 1.171875 -2.40625 C 1.023438 -2.269531 0.9375 -2.085938 0.90625 -1.859375 L 2.5625 -1.859375 C 2.53125 -2.085938 2.4375 -2.269531 2.28125 -2.40625 C 2.132812 -2.550781 1.953125 -2.625 1.734375 -2.625 Z M 1.734375 -2.625 "/></g></g><g style="fill:#000000;fill-opacity:1;"><g transform="translate(81.371286, 47.706393)"><path style="stroke:none" d="M 1.578125 -3.234375 C 2.023438 -3.234375 2.367188 -3.117188 2.609375 -2.890625 C 2.859375 -2.660156 2.984375 -2.316406 2.984375 -1.859375 L 2.984375 0 L 2.25 0 L 2.25 -0.4375 C 2.164062 -0.28125 2.039062 -0.160156 1.875 -0.078125 C 1.71875 0.00390625 1.523438 0.046875 1.296875 0.046875 C 0.953125 0.046875 0.675781 -0.0390625 0.46875 -0.21875 C 0.269531 -0.394531 0.171875 -0.625 0.171875 -0.90625 C 0.171875 -1.195312 0.273438 -1.425781 0.484375 -1.59375 C 0.691406 -1.769531 1.007812 -1.859375 1.4375 -1.859375 L 2.203125 -1.859375 C 2.203125 -1.992188 2.1875 -2.101562 2.15625 -2.1875 C 2.0625 -2.457031 1.832031 -2.59375 1.46875 -2.59375 C 1.300781 -2.59375 1.132812 -2.5625 0.96875 -2.5 C 0.8125 -2.445312 0.675781 -2.367188 0.5625 -2.265625 L 0.28125 -2.84375 C 0.445312 -2.96875 0.644531 -3.0625 0.875 -3.125 C 1.101562 -3.195312 1.335938 -3.234375 1.578125 -3.234375 Z M 1.484375 -0.515625 C 1.660156 -0.515625 1.8125 -0.554688 1.9375 -0.640625 C 2.0625 -0.722656 2.148438 -0.84375 2.203125 -1 L 2.203125 -1.375 L 1.53125 -1.375 C 1.125 -1.375 0.921875 -1.234375 0.921875 -0.953125 C 0.921875 -0.816406 0.96875 -0.707031 1.0625 -0.625 C 1.164062 -0.550781 1.304688 -0.515625 1.484375 -0.515625 Z M 1.484375 -0.515625 "/></g></g><g style="fill:#000000;fill-opacity:1;"><g transform="translate(84.715116, 47.706393)"><path style="stroke:none" d="M 2.25 -0.171875 C 2.164062 -0.0976562 2.0625 -0.0390625 1.9375 0 C 1.820312 0.03125 1.695312 0.046875 1.5625 0.046875 C 1.21875 0.046875 0.953125 -0.046875 0.765625 -0.234375 C 0.578125 -0.421875 0.484375 -0.691406 0.484375 -1.046875 L 0.484375 -2.515625 L 0 -2.515625 L 0 -3.140625 L 0.484375 -3.140625 L 0.484375 -3.90625 L 1.25 -3.90625 L 1.25 -3.140625 L 2.046875 -3.140625 L 2.046875 -2.515625 L 1.25 -2.515625 L 1.25 -1.0625 C 1.25 -0.914062 1.285156 -0.800781 1.359375 -0.71875 C 1.429688 -0.644531 1.535156 -0.609375 1.671875 -0.609375 C 1.816406 -0.609375 1.941406 -0.648438 2.046875 -0.734375 Z M 2.25 -0.171875 "/></g></g><g style="fill:#000000;fill-opacity:1;"><g transform="translate(87.019971, 47.706393)"><path style="stroke:none" d="M 1.359375 0.046875 C 1.109375 0.046875 0.863281 0.015625 0.625 -0.046875 C 0.394531 -0.117188 0.207031 -0.207031 0.0625 -0.3125 L 0.328125 -0.90625 C 0.460938 -0.8125 0.625 -0.734375 0.8125 -0.671875 C 1 -0.609375 1.191406 -0.578125 1.390625 -0.578125 C 1.804688 -0.578125 2.015625 -0.691406 2.015625 -0.921875 C 2.015625 -1.035156 1.957031 -1.113281 1.84375 -1.15625 C 1.738281 -1.195312 1.570312 -1.238281 1.34375 -1.28125 C 1.09375 -1.320312 0.882812 -1.367188 0.71875 -1.421875 C 0.5625 -1.472656 0.425781 -1.5625 0.3125 -1.6875 C 0.195312 -1.820312 0.140625 -2.003906 0.140625 -2.234375 C 0.140625 -2.429688 0.191406 -2.601562 0.296875 -2.75 C 0.410156 -2.90625 0.566406 -3.023438 0.765625 -3.109375 C 0.972656 -3.191406 1.21875 -3.234375 1.5 -3.234375 C 1.707031 -3.234375 1.914062 -3.207031 2.125 -3.15625 C 2.332031 -3.113281 2.503906 -3.046875 2.640625 -2.953125 L 2.390625 -2.375 C 2.117188 -2.539062 1.820312 -2.625 1.5 -2.625 C 1.289062 -2.625 1.132812 -2.585938 1.03125 -2.515625 C 0.9375 -2.453125 0.890625 -2.367188 0.890625 -2.265625 C 0.890625 -2.148438 0.941406 -2.066406 1.046875 -2.015625 C 1.160156 -1.972656 1.335938 -1.929688 1.578125 -1.890625 C 1.828125 -1.847656 2.023438 -1.800781 2.171875 -1.75 C 2.328125 -1.695312 2.460938 -1.601562 2.578125 -1.46875 C 2.691406 -1.34375 2.75 -1.164062 2.75 -0.9375 C 2.75 -0.644531 2.625 -0.40625 2.375 -0.21875 C 2.132812 -0.0390625 1.796875 0.046875 1.359375 0.046875 Z M 1.359375 0.046875 "/></g></g><g style="fill:#000000;fill-opacity:1;"><g transform="translate(89.856256, 47.706393)"><path style="stroke:none" d="M 0.765625 -3.703125 C 0.628906 -3.703125 0.515625 -3.742188 0.421875 -3.828125 C 0.328125 -3.921875 0.28125 -4.035156 0.28125 -4.171875 C 0.28125 -4.296875 0.328125 -4.40625 0.421875 -4.5 C 0.515625 -4.59375 0.628906 -4.640625 0.765625 -4.640625 C 0.910156 -4.640625 1.03125 -4.59375 1.125 -4.5 C 1.21875 -4.414062 1.265625 -4.3125 1.265625 -4.1875 C 1.265625 -4.039062 1.21875 -3.921875 1.125 -3.828125 C 1.03125 -3.742188 0.910156 -3.703125 0.765625 -3.703125 Z M 1.15625 -3.1875 L 1.15625 0 L 0.375 0 L 0.375 -3.1875 Z M 1.15625 -3.1875 "/></g></g><g style="fill:#000000;fill-opacity:1;"><g transform="translate(91.402777, 47.706393)"><path style="stroke:none" d="M 2.25 -0.171875 C 2.164062 -0.0976562 2.0625 -0.0390625 1.9375 0 C 1.820312 0.03125 1.695312 0.046875 1.5625 0.046875 C 1.21875 0.046875 0.953125 -0.046875 0.765625 -0.234375 C 0.578125 -0.421875 0.484375 -0.691406 0.484375 -1.046875 L 0.484375 -2.515625 L 0 -2.515625 L 0 -3.140625 L 0.484375 -3.140625 L 0.484375 -3.90625 L 1.25 -3.90625 L 1.25 -3.140625 L 2.046875 -3.140625 L 2.046875 -2.515625 L 1.25 -2.515625 L 1.25 -1.0625 C 1.25 -0.914062 1.285156 -0.800781 1.359375 -0.71875 C 1.429688 -0.644531 1.535156 -0.609375 1.671875 -0.609375 C 1.816406 -0.609375 1.941406 -0.648438 2.046875 -0.734375 Z M 2.25 -0.171875 "/></g></g><g style="fill:#000000;fill-opacity:1;"><g transform="translate(93.707632, 47.706393)"><path style="stroke:none" d="M 3.28125 -1.59375 C 3.28125 -1.582031 3.273438 -1.507812 3.265625 -1.375 L 0.921875 -1.375 C 0.953125 -1.132812 1.050781 -0.945312 1.21875 -0.8125 C 1.394531 -0.675781 1.609375 -0.609375 1.859375 -0.609375 C 2.179688 -0.609375 2.445312 -0.722656 2.65625 -0.953125 L 3.078125 -0.484375 C 2.785156 -0.128906 2.375 0.046875 1.84375 0.046875 C 1.507812 0.046875 1.210938 -0.0195312 0.953125 -0.15625 C 0.691406 -0.300781 0.488281 -0.5 0.34375 -0.75 C 0.207031 -1 0.140625 -1.28125 0.140625 -1.59375 C 0.140625 -1.914062 0.207031 -2.195312 0.34375 -2.4375 C 0.476562 -2.6875 0.664062 -2.878906 0.90625 -3.015625 C 1.15625 -3.160156 1.425781 -3.234375 1.71875 -3.234375 C 2.019531 -3.234375 2.285156 -3.164062 2.515625 -3.03125 C 2.753906 -2.894531 2.941406 -2.703125 3.078125 -2.453125 C 3.210938 -2.210938 3.28125 -1.925781 3.28125 -1.59375 Z M 1.734375 -2.625 C 1.515625 -2.625 1.328125 -2.550781 1.171875 -2.40625 C 1.023438 -2.269531 0.9375 -2.085938 0.90625 -1.859375 L 2.5625 -1.859375 C 2.53125 -2.085938 2.4375 -2.269531 2.28125 -2.40625 C 2.132812 -2.550781 1.953125 -2.625 1.734375 -2.625 Z M 1.734375 -2.625 "/></g></g><g style="fill:#000000;fill-opacity:1;"><g transform="translate(97.129088, 47.706393)"><path style="stroke:none" d="M 0.75 0.046875 C 0.601562 0.046875 0.476562 0 0.375 -0.09375 C 0.28125 -0.195312 0.234375 -0.328125 0.234375 -0.484375 C 0.234375 -0.628906 0.28125 -0.75 0.375 -0.84375 C 0.476562 -0.9375 0.601562 -0.984375 0.75 -0.984375 C 0.894531 -0.984375 1.015625 -0.9375 1.109375 -0.84375 C 1.210938 -0.75 1.265625 -0.628906 1.265625 -0.484375 C 1.265625 -0.328125 1.210938 -0.195312 1.109375 -0.09375 C 1.015625 0 0.894531 0.046875 0.75 0.046875 Z M 0.75 0.046875 "/></g></g><g style="fill:#000000;fill-opacity:1;"><g transform="translate(98.621871, 47.706393)"><path style="stroke:none" d="M 1.796875 0.046875 C 1.484375 0.046875 1.195312 -0.0195312 0.9375 -0.15625 C 0.6875 -0.300781 0.488281 -0.5 0.34375 -0.75 C 0.207031 -1 0.140625 -1.28125 0.140625 -1.59375 C 0.140625 -1.914062 0.207031 -2.195312 0.34375 -2.4375 C 0.488281 -2.6875 0.6875 -2.878906 0.9375 -3.015625 C 1.195312 -3.160156 1.484375 -3.234375 1.796875 -3.234375 C 2.109375 -3.234375 2.378906 -3.164062 2.609375 -3.03125 C 2.835938 -2.90625 3.007812 -2.71875 3.125 -2.46875 L 2.53125 -2.125 C 2.363281 -2.414062 2.117188 -2.5625 1.796875 -2.5625 C 1.546875 -2.5625 1.335938 -2.472656 1.171875 -2.296875 C 1.003906 -2.128906 0.921875 -1.894531 0.921875 -1.59375 C 0.921875 -1.300781 1.003906 -1.066406 1.171875 -0.890625 C 1.335938 -0.710938 1.546875 -0.625 1.796875 -0.625 C 2.117188 -0.625 2.363281 -0.773438 2.53125 -1.078125 L 3.125 -0.71875 C 3.007812 -0.476562 2.832031 -0.289062 2.59375 -0.15625 C 2.363281 -0.0195312 2.097656 0.046875 1.796875 0.046875 Z M 1.796875 0.046875 "/></g></g><g style="fill:#000000;fill-opacity:1;"><g transform="translate(101.816423, 47.706393)"><path style="stroke:none" d="M 1.78125 0.046875 C 1.46875 0.046875 1.1875 -0.0195312 0.9375 -0.15625 C 0.6875 -0.300781 0.488281 -0.5 0.34375 -0.75 C 0.207031 -1 0.140625 -1.28125 0.140625 -1.59375 C 0.140625 -1.914062 0.207031 -2.195312 0.34375 -2.4375 C 0.488281 -2.6875 0.6875 -2.878906 0.9375 -3.015625 C 1.1875 -3.160156 1.46875 -3.234375 1.78125 -3.234375 C 2.09375 -3.234375 2.375 -3.160156 2.625 -3.015625 C 2.875 -2.878906 3.066406 -2.6875 3.203125 -2.4375 C 3.347656 -2.195312 3.421875 -1.914062 3.421875 -1.59375 C 3.421875 -1.28125 3.347656 -1 3.203125 -0.75 C 3.066406 -0.5 2.875 -0.300781 2.625 -0.15625 C 2.375 -0.0195312 2.09375 0.046875 1.78125 0.046875 Z M 1.78125 -0.625 C 2.03125 -0.625 2.234375 -0.710938 2.390625 -0.890625 C 2.554688 -1.066406 2.640625 -1.300781 2.640625 -1.59375 C 2.640625 -1.894531 2.554688 -2.128906 2.390625 -2.296875 C 2.234375 -2.472656 2.03125 -2.5625 1.78125 -2.5625 C 1.53125 -2.5625 1.320312 -2.472656 1.15625 -2.296875 C 1 -2.128906 0.921875 -1.894531 0.921875 -1.59375 C 0.921875 -1.300781 1 -1.066406 1.15625 -0.890625 C 1.320312 -0.710938 1.53125 -0.625 1.78125 -0.625 Z M 1.78125 -0.625 "/></g></g><g style="fill:#000000;fill-opacity:1;"><g transform="translate(105.375215, 47.706393)"><path style="stroke:none" d="M 4.234375 -3.234375 C 4.617188 -3.234375 4.921875 -3.113281 5.140625 -2.875 C 5.359375 -2.644531 5.46875 -2.300781 5.46875 -1.84375 L 5.46875 0 L 4.703125 0 L 4.703125 -1.71875 C 4.703125 -1.988281 4.644531 -2.191406 4.53125 -2.328125 C 4.414062 -2.460938 4.257812 -2.53125 4.0625 -2.53125 C 3.820312 -2.53125 3.632812 -2.453125 3.5 -2.296875 C 3.363281 -2.140625 3.296875 -1.914062 3.296875 -1.625 L 3.296875 0 L 2.53125 0 L 2.53125 -1.71875 C 2.53125 -1.988281 2.472656 -2.191406 2.359375 -2.328125 C 2.253906 -2.460938 2.097656 -2.53125 1.890625 -2.53125 C 1.660156 -2.53125 1.476562 -2.453125 1.34375 -2.296875 C 1.207031 -2.140625 1.140625 -1.914062 1.140625 -1.625 L 1.140625 0 L 0.375 0 L 0.375 -3.1875 L 1.109375 -3.1875 L 1.109375 -2.765625 C 1.210938 -2.910156 1.347656 -3.023438 1.515625 -3.109375 C 1.691406 -3.191406 1.890625 -3.234375 2.109375 -3.234375 C 2.328125 -3.234375 2.523438 -3.179688 2.703125 -3.078125 C 2.878906 -2.984375 3.019531 -2.84375 3.125 -2.65625 C 3.238281 -2.84375 3.390625 -2.984375 3.578125 -3.078125 C 3.773438 -3.179688 3.992188 -3.234375 4.234375 -3.234375 Z M 4.234375 -3.234375 "/></g></g></g></svg>