<svg xmlns="http://www.w3.org/2000/svg" xmlns:xlink="http://www.w3.org/1999/xlink" width="200" zoomAndPan="magnify" viewBox="0 0 150 149.999998" height="200" preserveAspectRatio="xMidYMid meet" version="1.2"><defs><clipPath id="9a126a852d"><path d="M 8 3 L 144 3 L 144 138 L 8 138 Z M 8 3 "/></clipPath><clipPath id="d91701eec5"><path d="M -19.101562 48.660156 L 97.695312 -24.847656 L 171.199219 91.949219 L 54.40625 165.453125 Z M -19.101562 48.660156 "/></clipPath><clipPath id="3935e88d4b"><path d="M -19.101562 48.660156 L 97.695312 -24.847656 L 171.199219 91.949219 L 54.40625 165.453125 Z M -19.101562 48.660156 "/></clipPath></defs><g id="7327dd5c0e"><g clip-rule="nonzero" clip-path="url(#9a126a852d)"><g clip-rule="nonzero" clip-path="url(#d91701eec5)"><g clip-rule="nonzero" clip-path="url(#3935e88d4b)"><path style=" stroke:none;fill-rule:nonzero;fill:#ff7783;fill-opacity:1;" d="M 96.003906 42.15625 L 134.453125 33.558594 L 110.066406 64.503906 L 143.335938 85.609375 L 104.210938 90.25 L 112.808594 128.699219 L 81.863281 104.3125 L 60.757812 137.582031 L 56.121094 98.457031 L 17.667969 107.054688 L 42.054688 76.109375 L 8.785156 55.003906 L 47.910156 50.367188 L 39.3125 11.914062 L 70.257812 36.300781 L 91.363281 3.03125 Z M 96.003906 42.15625 "/></g></g></g><g style="fill:#ffffff;fill-opacity:1;"><g transform="translate(47.623469, 75.74652)"><path style="stroke:none" d="M 15.625 0 L 12.46875 0 L 12.46875 -6.953125 L 4.75 -6.953125 L 4.75 0 L 1.59375 0 L 1.59375 -16.4375 L 4.75 -16.4375 L 4.75 -9.765625 L 12.46875 -9.765625 L 12.46875 -16.4375 L 15.625 -16.4375 Z M 15.625 0 "/></g></g><g style="fill:#ffffff;fill-opacity:1;"><g transform="translate(64.866373, 75.74652)"><path style="stroke:none" d="M 12.921875 -6.265625 C 12.921875 -6.203125 12.894531 -5.914062 12.84375 -5.40625 L 3.625 -5.40625 C 3.757812 -4.476562 4.160156 -3.75 4.828125 -3.21875 C 5.492188 -2.6875 6.328125 -2.421875 7.328125 -2.421875 C 8.597656 -2.421875 9.644531 -2.859375 10.46875 -3.734375 L 12.09375 -1.875 C 10.945312 -0.507812 9.328125 0.171875 7.234375 0.171875 C 5.921875 0.171875 4.753906 -0.101562 3.734375 -0.65625 C 2.710938 -1.21875 1.925781 -1.988281 1.375 -2.96875 C 0.820312 -3.945312 0.546875 -5.054688 0.546875 -6.296875 C 0.546875 -7.535156 0.8125 -8.644531 1.34375 -9.625 C 1.882812 -10.601562 2.632812 -11.363281 3.59375 -11.90625 C 4.550781 -12.457031 5.613281 -12.734375 6.78125 -12.734375 C 7.945312 -12.734375 8.992188 -12.46875 9.921875 -11.9375 C 10.859375 -11.40625 11.59375 -10.648438 12.125 -9.671875 C 12.65625 -8.703125 12.921875 -7.566406 12.921875 -6.265625 Z M 6.8125 -10.3125 C 5.945312 -10.3125 5.222656 -10.035156 4.640625 -9.484375 C 4.054688 -8.941406 3.703125 -8.21875 3.578125 -7.3125 L 10.046875 -7.3125 C 9.921875 -8.195312 9.566406 -8.914062 8.984375 -9.46875 C 8.398438 -10.03125 7.675781 -10.3125 6.8125 -10.3125 Z M 6.8125 -10.3125 "/></g></g><g style="fill:#ffffff;fill-opacity:1;"><g transform="translate(78.327116, 75.74652)"><path style="stroke:none" d="M 4.5625 -17.421875 L 4.5625 0 L 1.5 0 L 1.5 -17.421875 Z M 4.5625 -17.421875 "/></g></g><g style="fill:#ffffff;fill-opacity:1;"><g transform="translate(84.411466, 75.74652)"><path style="stroke:none" d="M 4.5625 -17.421875 L 4.5625 0 L 1.5 0 L 1.5 -17.421875 Z M 4.5625 -17.421875 "/></g></g><g style="fill:#ffffff;fill-opacity:1;"><g transform="translate(90.495815, 75.74652)"><path style="stroke:none" d="M 7.015625 0.171875 C 5.785156 0.171875 4.675781 -0.101562 3.6875 -0.65625 C 2.695312 -1.207031 1.925781 -1.972656 1.375 -2.953125 C 0.820312 -3.941406 0.546875 -5.054688 0.546875 -6.296875 C 0.546875 -7.535156 0.820312 -8.644531 1.375 -9.625 C 1.925781 -10.601562 2.695312 -11.363281 3.6875 -11.90625 C 4.675781 -12.457031 5.785156 -12.734375 7.015625 -12.734375 C 8.242188 -12.734375 9.347656 -12.457031 10.328125 -11.90625 C 11.304688 -11.363281 12.070312 -10.601562 12.625 -9.625 C 13.175781 -8.644531 13.453125 -7.535156 13.453125 -6.296875 C 13.453125 -5.054688 13.175781 -3.941406 12.625 -2.953125 C 12.070312 -1.972656 11.304688 -1.207031 10.328125 -0.65625 C 9.347656 -0.101562 8.242188 0.171875 7.015625 0.171875 Z M 7.015625 -2.46875 C 7.992188 -2.46875 8.796875 -2.816406 9.421875 -3.515625 C 10.054688 -4.210938 10.375 -5.140625 10.375 -6.296875 C 10.375 -7.453125 10.054688 -8.375 9.421875 -9.0625 C 8.796875 -9.75 7.992188 -10.09375 7.015625 -10.09375 C 6.035156 -10.09375 5.226562 -9.75 4.59375 -9.0625 C 3.957031 -8.375 3.640625 -7.453125 3.640625 -6.296875 C 3.640625 -5.140625 3.957031 -4.210938 4.59375 -3.515625 C 5.226562 -2.816406 6.035156 -2.46875 7.015625 -2.46875 Z M 7.015625 -2.46875 "/></g></g></g></svg>