<svg xmlns="http://www.w3.org/2000/svg" xmlns:xlink="http://www.w3.org/1999/xlink" width="450" zoomAndPan="magnify" viewBox="0 0 337.5 89.999999" height="120" preserveAspectRatio="xMidYMid meet" version="1.2"><defs/><g id="e527ad0830"><path style=" stroke:none;fill-rule:nonzero;fill:#ff4d00;fill-opacity:1;" d="M 45.542969 18.402344 L 291.28125 18.402344 C 293.234375 18.402344 295.113281 19.179688 296.496094 20.5625 C 297.878906 21.945312 298.65625 23.824219 298.65625 25.777344 L 298.65625 61.898438 C 298.65625 63.855469 297.878906 65.730469 296.496094 67.113281 C 295.113281 68.496094 293.234375 69.273438 291.28125 69.273438 L 45.542969 69.273438 C 43.585938 69.273438 41.710938 68.496094 40.328125 67.113281 C 38.945312 65.730469 38.167969 63.855469 38.167969 61.898438 L 38.167969 25.777344 C 38.167969 23.824219 38.945312 21.945312 40.328125 20.5625 C 41.710938 19.179688 43.585938 18.402344 45.542969 18.402344 Z M 45.542969 18.402344 "/><g style="fill:#ffffff;fill-opacity:1;"><g transform="translate(49.197516, 52.509821)"><path style="stroke:none" d="M 7.484375 3.265625 L 1.5 3.265625 L 1.5 -22.046875 L 7.484375 -22.046875 Z M 7.484375 3.265625 "/></g></g><g style="fill:#ffffff;fill-opacity:1;"><g transform="translate(58.172047, 52.509821)"><path style="stroke:none" d="M 1.5 -22.046875 L 7.484375 -22.046875 L 7.484375 -1.015625 C 8.398438 -1.035156 9.332031 -1.078125 10.28125 -1.140625 C 11.226562 -1.210938 12.160156 -1.320312 13.078125 -1.46875 C 13.992188 -1.625 14.867188 -1.8125 15.703125 -2.03125 C 16.546875 -2.25 17.328125 -2.53125 18.046875 -2.875 L 18.046875 3.265625 L 1.5 3.265625 Z M 1.5 -22.046875 "/></g></g><g style="fill:#ffffff;fill-opacity:1;"><g transform="translate(76.510008, 52.509821)"><path style="stroke:none" d="M 1.5 -22.046875 L 7.484375 -22.046875 L 7.484375 -1.015625 C 8.398438 -1.035156 9.332031 -1.078125 10.28125 -1.140625 C 11.226562 -1.210938 12.160156 -1.320312 13.078125 -1.46875 C 13.992188 -1.625 14.867188 -1.8125 15.703125 -2.03125 C 16.546875 -2.25 17.328125 -2.53125 18.046875 -2.875 L 18.046875 3.265625 L 1.5 3.265625 Z M 1.5 -22.046875 "/></g></g><g style="fill:#ffffff;fill-opacity:1;"><g transform="translate(94.847968, 52.509821)"><path style="stroke:none" d="M 22.140625 -22.046875 L 22.140625 -6.828125 C 22.140625 -5.367188 21.910156 -4.003906 21.453125 -2.734375 C 20.992188 -1.472656 20.320312 -0.367188 19.4375 0.578125 C 18.5625 1.523438 17.472656 2.273438 16.171875 2.828125 C 14.867188 3.378906 13.367188 3.65625 11.671875 3.65625 C 9.972656 3.65625 8.46875 3.378906 7.15625 2.828125 C 5.851562 2.273438 4.765625 1.523438 3.890625 0.578125 C 3.015625 -0.367188 2.347656 -1.472656 1.890625 -2.734375 C 1.429688 -4.003906 1.203125 -5.367188 1.203125 -6.828125 L 1.203125 -22.046875 L 7.1875 -22.046875 L 7.1875 -6.828125 C 7.1875 -5.023438 7.570312 -3.625 8.34375 -2.625 C 9.125 -1.632812 10.234375 -1.140625 11.671875 -1.140625 C 13.109375 -1.140625 14.210938 -1.632812 14.984375 -2.625 C 15.765625 -3.625 16.15625 -5.023438 16.15625 -6.828125 L 16.15625 -22.046875 Z M 22.140625 -22.046875 "/></g></g><g style="fill:#ffffff;fill-opacity:1;"><g transform="translate(118.181753, 52.509821)"><path style="stroke:none" d="M 11.015625 3.65625 C 9.515625 3.65625 8.125 3.460938 6.84375 3.078125 C 5.570312 2.703125 4.472656 2.15625 3.546875 1.4375 C 2.617188 0.71875 1.894531 -0.148438 1.375 -1.171875 C 0.851562 -2.203125 0.59375 -3.367188 0.59375 -4.671875 L 6.671875 -4.671875 C 6.671875 -4.171875 6.785156 -3.707031 7.015625 -3.28125 C 7.242188 -2.863281 7.554688 -2.503906 7.953125 -2.203125 C 8.359375 -1.910156 8.828125 -1.679688 9.359375 -1.515625 C 9.898438 -1.359375 10.472656 -1.28125 11.078125 -1.28125 C 11.585938 -1.28125 12.0625 -1.347656 12.5 -1.484375 C 12.945312 -1.628906 13.332031 -1.816406 13.65625 -2.046875 C 13.988281 -2.273438 14.242188 -2.539062 14.421875 -2.84375 C 14.597656 -3.144531 14.6875 -3.460938 14.6875 -3.796875 C 14.6875 -4.078125 14.601562 -4.335938 14.4375 -4.578125 C 14.269531 -4.816406 14.054688 -5.039062 13.796875 -5.25 C 13.535156 -5.457031 13.238281 -5.644531 12.90625 -5.8125 C 12.582031 -5.988281 12.269531 -6.132812 11.96875 -6.25 L 5.8125 -8.796875 C 4.488281 -9.359375 3.4375 -10.125 2.65625 -11.09375 C 1.882812 -12.070312 1.5 -13.410156 1.5 -15.109375 C 1.5 -16.222656 1.742188 -17.226562 2.234375 -18.125 C 2.722656 -19.03125 3.390625 -19.800781 4.234375 -20.4375 C 5.078125 -21.070312 6.082031 -21.5625 7.25 -21.90625 C 8.414062 -22.257812 9.691406 -22.4375 11.078125 -22.4375 C 12.304688 -22.4375 13.46875 -22.25 14.5625 -21.875 C 15.664062 -21.507812 16.625 -20.992188 17.4375 -20.328125 C 18.257812 -19.660156 18.90625 -18.859375 19.375 -17.921875 C 19.84375 -16.984375 20.078125 -15.945312 20.078125 -14.8125 L 14.453125 -14.8125 C 14.453125 -15.1875 14.359375 -15.539062 14.171875 -15.875 C 13.984375 -16.207031 13.734375 -16.492188 13.421875 -16.734375 C 13.109375 -16.984375 12.75 -17.175781 12.34375 -17.3125 C 11.9375 -17.457031 11.515625 -17.53125 11.078125 -17.53125 C 10.648438 -17.53125 10.25 -17.476562 9.875 -17.375 C 9.5 -17.28125 9.164062 -17.140625 8.875 -16.953125 C 8.582031 -16.765625 8.347656 -16.535156 8.171875 -16.265625 C 7.992188 -15.992188 7.90625 -15.695312 7.90625 -15.375 C 7.90625 -15.082031 7.960938 -14.820312 8.078125 -14.59375 C 8.203125 -14.375 8.378906 -14.175781 8.609375 -14 C 8.847656 -13.820312 9.144531 -13.644531 9.5 -13.46875 C 9.863281 -13.300781 10.285156 -13.117188 10.765625 -12.921875 L 16.84375 -10.40625 C 17.46875 -10.15625 18.03125 -9.847656 18.53125 -9.484375 C 19.039062 -9.128906 19.484375 -8.707031 19.859375 -8.21875 C 20.242188 -7.726562 20.539062 -7.164062 20.75 -6.53125 C 20.957031 -5.90625 21.0625 -5.195312 21.0625 -4.40625 C 21.0625 -3.40625 20.820312 -2.421875 20.34375 -1.453125 C 19.863281 -0.484375 19.191406 0.378906 18.328125 1.140625 C 17.460938 1.898438 16.40625 2.507812 15.15625 2.96875 C 13.90625 3.425781 12.523438 3.65625 11.015625 3.65625 Z M 11.015625 3.65625 "/></g></g><g style="fill:#ffffff;fill-opacity:1;"><g transform="translate(139.989863, 52.509821)"><path style="stroke:none" d="M 13.671875 3.265625 L 7.6875 3.265625 L 7.6875 -17.265625 L 0.296875 -17.265625 L 0.296875 -22.046875 L 21.0625 -22.046875 L 21.0625 -17.265625 L 13.671875 -17.265625 Z M 13.671875 3.265625 "/></g></g><g style="fill:#ffffff;fill-opacity:1;"><g transform="translate(161.349245, 52.509821)"><path style="stroke:none" d="M 1.5 3.265625 L 1.5 -22.046875 L 12.71875 -22.046875 C 14.09375 -22.046875 15.34375 -21.84375 16.46875 -21.4375 C 17.59375 -21.03125 18.554688 -20.445312 19.359375 -19.6875 C 20.160156 -18.925781 20.78125 -18.003906 21.21875 -16.921875 C 21.65625 -15.847656 21.875 -14.644531 21.875 -13.3125 C 21.875 -11.519531 21.460938 -9.992188 20.640625 -8.734375 C 19.828125 -7.484375 18.734375 -6.523438 17.359375 -5.859375 L 22.921875 3.265625 L 16.34375 3.265625 L 11.34375 -4.90625 L 7.484375 -4.90625 L 7.484375 3.265625 Z M 11.578125 -21.09375 C 11.578125 -20 11.34375 -18.992188 10.875 -18.078125 C 10.40625 -17.160156 9.789062 -16.363281 9.03125 -15.6875 C 8.28125 -15.019531 7.429688 -14.492188 6.484375 -14.109375 C 5.535156 -13.734375 4.570312 -13.53125 3.59375 -13.5 C 4.570312 -13.457031 5.535156 -13.222656 6.484375 -12.796875 C 7.429688 -12.378906 8.28125 -11.832031 9.03125 -11.15625 C 9.789062 -10.476562 10.40625 -9.6875 10.875 -8.78125 C 11.34375 -7.875 11.578125 -6.910156 11.578125 -5.890625 C 11.578125 -6.910156 11.8125 -7.875 12.28125 -8.78125 C 12.75 -9.6875 13.363281 -10.484375 14.125 -11.171875 C 14.882812 -11.859375 15.738281 -12.410156 16.6875 -12.828125 C 17.632812 -13.253906 18.59375 -13.488281 19.5625 -13.53125 C 18.59375 -13.5625 17.632812 -13.765625 16.6875 -14.140625 C 15.738281 -14.523438 14.882812 -15.046875 14.125 -15.703125 C 13.363281 -16.367188 12.75 -17.160156 12.28125 -18.078125 C 11.8125 -18.992188 11.578125 -20 11.578125 -21.09375 Z M 11.578125 -21.09375 "/></g></g><g style="fill:#ffffff;fill-opacity:1;"><g transform="translate(184.264215, 52.509821)"><path style="stroke:none" d="M 16.609375 -1.46875 L 8.109375 -1.46875 L 6.40625 3.265625 L 0 3.265625 L 9.390625 -22.046875 L 15.34375 -22.046875 L 24.71875 3.265625 L 18.3125 3.265625 Z M 17.828125 -11.09375 C 16.796875 -11.09375 15.9375 -11.3125 15.25 -11.75 C 14.5625 -12.195312 14 -12.796875 13.5625 -13.546875 C 13.132812 -14.304688 12.832031 -15.179688 12.65625 -16.171875 C 12.476562 -17.160156 12.378906 -18.210938 12.359375 -19.328125 C 12.335938 -18.210938 12.234375 -17.160156 12.046875 -16.171875 C 11.859375 -15.179688 11.550781 -14.304688 11.125 -13.546875 C 10.707031 -12.796875 10.148438 -12.195312 9.453125 -11.75 C 8.753906 -11.3125 7.894531 -11.09375 6.875 -11.09375 C 7.9375 -11.09375 8.816406 -10.847656 9.515625 -10.359375 C 10.210938 -9.878906 10.769531 -9.234375 11.1875 -8.421875 C 11.601562 -7.617188 11.898438 -6.703125 12.078125 -5.671875 C 12.265625 -4.640625 12.359375 -3.585938 12.359375 -2.515625 C 12.359375 -3.585938 12.445312 -4.640625 12.625 -5.671875 C 12.800781 -6.703125 13.097656 -7.617188 13.515625 -8.421875 C 13.941406 -9.234375 14.503906 -9.878906 15.203125 -10.359375 C 15.898438 -10.847656 16.773438 -11.09375 17.828125 -11.09375 Z M 17.828125 -11.09375 "/></g></g><g style="fill:#ffffff;fill-opacity:1;"><g transform="translate(208.974087, 52.509821)"><path style="stroke:none" d="M 13.671875 3.265625 L 7.6875 3.265625 L 7.6875 -17.265625 L 0.296875 -17.265625 L 0.296875 -22.046875 L 21.0625 -22.046875 L 21.0625 -17.265625 L 13.671875 -17.265625 Z M 13.671875 3.265625 "/></g></g><g style="fill:#ffffff;fill-opacity:1;"><g transform="translate(230.333475, 52.509821)"><path style="stroke:none" d="M 7.484375 3.265625 L 1.5 3.265625 L 1.5 -22.046875 L 7.484375 -22.046875 Z M 7.484375 3.265625 "/></g></g><g style="fill:#ffffff;fill-opacity:1;"><g transform="translate(239.308006, 52.509821)"><path style="stroke:none" d="M 12.265625 -22.40625 C 13.960938 -22.40625 15.503906 -22.1875 16.890625 -21.75 C 18.273438 -21.3125 19.457031 -20.6875 20.4375 -19.875 C 21.414062 -19.070312 22.164062 -18.101562 22.6875 -16.96875 C 23.21875 -15.832031 23.484375 -14.554688 23.484375 -13.140625 L 23.484375 -5.625 C 23.484375 -4.207031 23.21875 -2.929688 22.6875 -1.796875 C 22.164062 -0.660156 21.414062 0.304688 20.4375 1.109375 C 19.457031 1.921875 18.273438 2.546875 16.890625 2.984375 C 15.503906 3.429688 13.960938 3.65625 12.265625 3.65625 C 10.566406 3.65625 9.023438 3.429688 7.640625 2.984375 C 6.253906 2.546875 5.070312 1.921875 4.09375 1.109375 C 3.125 0.304688 2.375 -0.660156 1.84375 -1.796875 C 1.3125 -2.929688 1.046875 -4.207031 1.046875 -5.625 L 1.046875 -13.140625 C 1.046875 -14.554688 1.3125 -15.832031 1.84375 -16.96875 C 2.375 -18.101562 3.125 -19.070312 4.09375 -19.875 C 5.070312 -20.6875 6.253906 -21.3125 7.640625 -21.75 C 9.023438 -22.1875 10.566406 -22.40625 12.265625 -22.40625 Z M 1.890625 -9.390625 C 2.742188 -9.390625 3.59375 -9.238281 4.4375 -8.9375 C 5.289062 -8.644531 6.097656 -8.222656 6.859375 -7.671875 C 7.628906 -7.128906 8.34375 -6.476562 9 -5.71875 C 9.664062 -4.957031 10.238281 -4.117188 10.71875 -3.203125 C 11.207031 -2.285156 11.585938 -1.304688 11.859375 -0.265625 C 12.128906 0.765625 12.265625 1.832031 12.265625 2.9375 C 12.265625 1.28125 12.5625 -0.296875 13.15625 -1.796875 C 13.757812 -3.296875 14.546875 -4.609375 15.515625 -5.734375 C 16.484375 -6.859375 17.585938 -7.753906 18.828125 -8.421875 C 20.078125 -9.085938 21.351562 -9.421875 22.65625 -9.421875 C 21.351562 -9.421875 20.078125 -9.753906 18.828125 -10.421875 C 17.585938 -11.097656 16.484375 -12 15.515625 -13.125 C 14.546875 -14.25 13.757812 -15.554688 13.15625 -17.046875 C 12.5625 -18.546875 12.265625 -20.125 12.265625 -21.78125 C 12.265625 -20.125 11.960938 -18.546875 11.359375 -17.046875 C 10.765625 -15.554688 9.984375 -14.242188 9.015625 -13.109375 C 8.046875 -11.972656 6.9375 -11.066406 5.6875 -10.390625 C 4.445312 -9.722656 3.179688 -9.390625 1.890625 -9.390625 Z M 1.890625 -9.390625 "/></g></g><g style="fill:#ffffff;fill-opacity:1;"><g transform="translate(263.838401, 52.509821)"><path style="stroke:none" d="M 16.546875 3.265625 L 9.09375 -9.21875 C 8.78125 -9.738281 8.488281 -10.21875 8.21875 -10.65625 C 7.945312 -11.09375 7.617188 -11.570312 7.234375 -12.09375 C 7.359375 -10.675781 7.421875 -9.316406 7.421875 -8.015625 L 7.421875 3.265625 L 1.5 3.265625 L 1.5 -22.046875 L 7.421875 -22.046875 L 14.6875 -10.171875 C 15.070312 -9.554688 15.4375 -8.914062 15.78125 -8.25 C 16.132812 -7.59375 16.445312 -6.894531 16.71875 -6.15625 C 16.625 -6.863281 16.570312 -7.570312 16.5625 -8.28125 C 16.550781 -9 16.546875 -9.707031 16.546875 -10.40625 L 16.546875 -22.046875 L 22.46875 -22.046875 L 22.46875 3.265625 Z M 16.546875 3.265625 "/></g></g></g></svg>