<svg xmlns="http://www.w3.org/2000/svg" xmlns:xlink="http://www.w3.org/1999/xlink" width="200" zoomAndPan="magnify" viewBox="0 0 150 149.999998" height="200" preserveAspectRatio="xMidYMid meet" version="1.2"><defs><clipPath id="b8ed88353f"><path d="M 9 3 L 145 3 L 145 139 L 9 139 Z M 9 3 "/></clipPath><clipPath id="94b1424fb8"><path d="M -13.679688 26.71875 L 121.253906 -19.097656 L 167.070312 115.835938 L 32.132812 161.652344 Z M -13.679688 26.71875 "/></clipPath><clipPath id="48994a5bcf"><path d="M -13.679688 26.71875 L 121.253906 -19.097656 L 167.070312 115.835938 L 32.132812 161.652344 Z M -13.679688 26.71875 "/></clipPath></defs><g id="251cde2114"><g clip-rule="nonzero" clip-path="url(#b8ed88353f)"><g clip-rule="nonzero" clip-path="url(#94b1424fb8)"><g clip-rule="nonzero" clip-path="url(#48994a5bcf)"><path style=" stroke:none;fill-rule:nonzero;fill:#6edbb0;fill-opacity:1;" d="M 103.484375 47.792969 L 144.167969 48.378906 L 112.25 73.609375 L 140.601562 102.789062 L 100.195312 98.0625 L 99.609375 138.746094 L 74.375 106.828125 L 45.199219 135.183594 L 49.925781 94.773438 L 9.242188 94.1875 L 41.15625 68.957031 L 12.804688 39.777344 L 53.214844 44.503906 L 53.800781 3.820312 L 79.03125 35.738281 L 108.210938 7.382812 Z M 103.484375 47.792969 "/></g></g></g></g></svg>