<svg xmlns="http://www.w3.org/2000/svg" xmlns:xlink="http://www.w3.org/1999/xlink" width="450" zoomAndPan="magnify" viewBox="0 0 337.5 89.999999" height="120" preserveAspectRatio="xMidYMid meet" version="1.2"><defs/><g id="ac060b9bd3"><path style=" stroke:none;fill-rule:nonzero;fill:#ff7783;fill-opacity:1;" d="M 37.25 3.785156 L 299.671875 3.785156 C 302.679688 3.785156 305.5625 4.980469 307.691406 7.105469 C 309.816406 9.234375 311.011719 12.117188 311.011719 15.125 L 311.011719 70.664062 C 311.011719 73.671875 309.816406 76.558594 307.691406 78.6875 C 305.5625 80.8125 302.679688 82.007812 299.671875 82.007812 L 37.25 82.007812 C 34.242188 82.007812 31.359375 80.8125 29.230469 78.6875 C 27.101562 76.558594 25.910156 73.671875 25.910156 70.664062 L 25.910156 15.125 C 25.910156 12.117188 27.101562 9.234375 29.230469 7.105469 C 31.359375 4.980469 34.242188 3.785156 37.25 3.785156 Z M 37.25 3.785156 "/><g style="fill:#ffffff;fill-opacity:1;"><g transform="translate(42.84099, 56.21831)"><path style="stroke:none" d="M 2.296875 5.015625 L 2.296875 -33.90625 L 19.546875 -33.90625 C 21.660156 -33.90625 23.59375 -33.566406 25.34375 -32.890625 C 27.09375 -32.210938 28.578125 -31.257812 29.796875 -30.03125 C 31.023438 -28.8125 31.976562 -27.347656 32.65625 -25.640625 C 33.332031 -23.941406 33.671875 -22.066406 33.671875 -20.015625 C 33.671875 -17.984375 33.3125 -16.140625 32.59375 -14.484375 C 31.875 -12.828125 30.882812 -11.414062 29.625 -10.25 C 28.363281 -9.09375 26.875 -8.195312 25.15625 -7.5625 C 23.445312 -6.9375 21.578125 -6.625 19.546875 -6.625 L 11.5 -6.625 L 11.5 5.015625 Z M 17.796875 -32.4375 C 17.796875 -30.75 17.4375 -29.175781 16.71875 -27.71875 C 16 -26.257812 15.054688 -24.984375 13.890625 -23.890625 C 12.722656 -22.804688 11.410156 -21.945312 9.953125 -21.3125 C 8.503906 -20.6875 7.023438 -20.34375 5.515625 -20.28125 C 7.023438 -20.21875 8.503906 -19.84375 9.953125 -19.15625 C 11.410156 -18.46875 12.722656 -17.570312 13.890625 -16.46875 C 15.054688 -15.363281 16 -14.085938 16.71875 -12.640625 C 17.4375 -11.203125 17.796875 -9.703125 17.796875 -8.140625 C 17.796875 -9.703125 18.15625 -11.203125 18.875 -12.640625 C 19.601562 -14.085938 20.546875 -15.367188 21.703125 -16.484375 C 22.867188 -17.609375 24.179688 -18.515625 25.640625 -19.203125 C 27.097656 -19.890625 28.578125 -20.265625 30.078125 -20.328125 C 28.578125 -20.390625 27.097656 -20.734375 25.640625 -21.359375 C 24.179688 -21.992188 22.867188 -22.847656 21.703125 -23.921875 C 20.546875 -24.992188 19.601562 -26.257812 18.875 -27.71875 C 18.15625 -29.175781 17.796875 -30.75 17.796875 -32.4375 Z M 17.796875 -32.4375 "/></g></g><g style="fill:#ffffff;fill-opacity:1;"><g transform="translate(77.422513, 56.21831)"><path style="stroke:none" d="M 25.109375 5.015625 L 25.109375 -10.953125 L 11.5 -10.953125 L 11.5 5.015625 L 2.296875 5.015625 L 2.296875 -33.90625 L 11.5 -33.90625 L 11.5 -18.3125 L 25.109375 -18.3125 L 25.109375 -33.90625 L 34.3125 -33.90625 L 34.3125 5.015625 Z M 25.109375 5.015625 "/></g></g><g style="fill:#ffffff;fill-opacity:1;"><g transform="translate(114.027423, 56.21831)"><path style="stroke:none" d="M 18.859375 -34.453125 C 21.460938 -34.453125 23.828125 -34.113281 25.953125 -33.4375 C 28.085938 -32.769531 29.90625 -31.8125 31.40625 -30.5625 C 32.914062 -29.320312 34.078125 -27.828125 34.890625 -26.078125 C 35.703125 -24.328125 36.109375 -22.363281 36.109375 -20.1875 L 36.109375 -8.640625 C 36.109375 -6.460938 35.703125 -4.5 34.890625 -2.75 C 34.078125 -1.007812 32.914062 0.476562 31.40625 1.71875 C 29.90625 2.96875 28.085938 3.925781 25.953125 4.59375 C 23.828125 5.269531 21.460938 5.609375 18.859375 5.609375 C 16.253906 5.609375 13.882812 5.269531 11.75 4.59375 C 9.625 3.925781 7.804688 2.96875 6.296875 1.71875 C 4.796875 0.476562 3.640625 -1.007812 2.828125 -2.75 C 2.015625 -4.5 1.609375 -6.460938 1.609375 -8.640625 L 1.609375 -20.1875 C 1.609375 -22.363281 2.015625 -24.328125 2.828125 -26.078125 C 3.640625 -27.828125 4.796875 -29.320312 6.296875 -30.5625 C 7.804688 -31.8125 9.625 -32.769531 11.75 -33.4375 C 13.882812 -34.113281 16.253906 -34.453125 18.859375 -34.453125 Z M 2.890625 -14.4375 C 4.210938 -14.4375 5.523438 -14.207031 6.828125 -13.75 C 8.128906 -13.289062 9.367188 -12.640625 10.546875 -11.796875 C 11.734375 -10.953125 12.832031 -9.945312 13.84375 -8.78125 C 14.851562 -7.613281 15.734375 -6.328125 16.484375 -4.921875 C 17.242188 -3.515625 17.828125 -2.007812 18.234375 -0.40625 C 18.648438 1.1875 18.859375 2.828125 18.859375 4.515625 C 18.859375 1.960938 19.316406 -0.457031 20.234375 -2.75 C 21.160156 -5.050781 22.363281 -7.066406 23.84375 -8.796875 C 25.332031 -10.535156 27.035156 -11.914062 28.953125 -12.9375 C 30.867188 -13.96875 32.828125 -14.484375 34.828125 -14.484375 C 32.828125 -14.484375 30.867188 -15 28.953125 -16.03125 C 27.035156 -17.0625 25.332031 -18.441406 23.84375 -20.171875 C 22.363281 -21.898438 21.160156 -23.914062 20.234375 -26.21875 C 19.316406 -28.519531 18.859375 -30.941406 18.859375 -33.484375 C 18.859375 -30.941406 18.394531 -28.519531 17.46875 -26.21875 C 16.550781 -23.914062 15.347656 -21.890625 13.859375 -20.140625 C 12.378906 -18.398438 10.679688 -17.015625 8.765625 -15.984375 C 6.847656 -14.953125 4.890625 -14.4375 2.890625 -14.4375 Z M 2.890625 -14.4375 "/></g></g><g style="fill:#ffffff;fill-opacity:1;"><g transform="translate(151.735997, 56.21831)"><path style="stroke:none" d="M 16.921875 5.609375 C 14.628906 5.609375 12.5 5.316406 10.53125 4.734375 C 8.570312 4.148438 6.878906 3.304688 5.453125 2.203125 C 4.023438 1.097656 2.910156 -0.238281 2.109375 -1.8125 C 1.316406 -3.394531 0.921875 -5.179688 0.921875 -7.171875 L 10.265625 -7.171875 C 10.265625 -6.410156 10.4375 -5.707031 10.78125 -5.0625 C 11.132812 -4.414062 11.617188 -3.863281 12.234375 -3.40625 C 12.847656 -2.945312 13.566406 -2.59375 14.390625 -2.34375 C 15.222656 -2.101562 16.097656 -1.984375 17.015625 -1.984375 C 17.816406 -1.984375 18.550781 -2.085938 19.21875 -2.296875 C 19.894531 -2.515625 20.488281 -2.800781 21 -3.15625 C 21.507812 -3.507812 21.898438 -3.914062 22.171875 -4.375 C 22.453125 -4.832031 22.59375 -5.320312 22.59375 -5.84375 C 22.59375 -6.269531 22.457031 -6.664062 22.1875 -7.03125 C 21.925781 -7.40625 21.597656 -7.753906 21.203125 -8.078125 C 20.804688 -8.398438 20.351562 -8.691406 19.84375 -8.953125 C 19.34375 -9.210938 18.863281 -9.429688 18.40625 -9.609375 L 8.921875 -13.53125 C 6.898438 -14.382812 5.289062 -15.5625 4.09375 -17.0625 C 2.894531 -18.5625 2.296875 -20.617188 2.296875 -23.234375 C 2.296875 -24.953125 2.671875 -26.5 3.421875 -27.875 C 4.171875 -29.257812 5.195312 -30.441406 6.5 -31.421875 C 7.8125 -32.398438 9.363281 -33.15625 11.15625 -33.6875 C 12.945312 -34.226562 14.898438 -34.5 17.015625 -34.5 C 18.921875 -34.5 20.71875 -34.210938 22.40625 -33.640625 C 24.09375 -33.078125 25.5625 -32.28125 26.8125 -31.25 C 28.070312 -30.226562 29.0625 -28.992188 29.78125 -27.546875 C 30.5 -26.109375 30.859375 -24.515625 30.859375 -22.765625 L 22.21875 -22.765625 C 22.21875 -23.347656 22.070312 -23.890625 21.78125 -24.390625 C 21.488281 -24.898438 21.101562 -25.347656 20.625 -25.734375 C 20.15625 -26.117188 19.601562 -26.414062 18.96875 -26.625 C 18.34375 -26.84375 17.691406 -26.953125 17.015625 -26.953125 C 16.367188 -26.953125 15.753906 -26.875 15.171875 -26.71875 C 14.597656 -26.570312 14.085938 -26.351562 13.640625 -26.0625 C 13.191406 -25.769531 12.828125 -25.414062 12.546875 -25 C 12.273438 -24.582031 12.140625 -24.128906 12.140625 -23.640625 C 12.140625 -23.179688 12.234375 -22.78125 12.421875 -22.4375 C 12.609375 -22.101562 12.882812 -21.796875 13.25 -21.515625 C 13.613281 -21.242188 14.070312 -20.976562 14.625 -20.71875 C 15.175781 -20.457031 15.820312 -20.175781 16.5625 -19.875 L 25.890625 -16.015625 C 26.847656 -15.609375 27.71875 -15.128906 28.5 -14.578125 C 29.28125 -14.023438 29.960938 -13.375 30.546875 -12.625 C 31.128906 -11.875 31.582031 -11.015625 31.90625 -10.046875 C 32.226562 -9.085938 32.390625 -7.992188 32.390625 -6.765625 C 32.390625 -5.234375 32.019531 -3.722656 31.28125 -2.234375 C 30.539062 -0.742188 29.503906 0.582031 28.171875 1.75 C 26.835938 2.914062 25.210938 3.847656 23.296875 4.546875 C 21.378906 5.253906 19.253906 5.609375 16.921875 5.609375 Z M 16.921875 5.609375 "/></g></g><g style="fill:#ffffff;fill-opacity:1;"><g transform="translate(185.259841, 56.21831)"><path style="stroke:none" d="M 25.109375 5.015625 L 25.109375 -10.953125 L 11.5 -10.953125 L 11.5 5.015625 L 2.296875 5.015625 L 2.296875 -33.90625 L 11.5 -33.90625 L 11.5 -18.3125 L 25.109375 -18.3125 L 25.109375 -33.90625 L 34.3125 -33.90625 L 34.3125 5.015625 Z M 25.109375 5.015625 "/></g></g><g style="fill:#ffffff;fill-opacity:1;"><g transform="translate(221.86476, 56.21831)"><path style="stroke:none" d="M 18.859375 -34.453125 C 21.460938 -34.453125 23.828125 -34.113281 25.953125 -33.4375 C 28.085938 -32.769531 29.90625 -31.8125 31.40625 -30.5625 C 32.914062 -29.320312 34.078125 -27.828125 34.890625 -26.078125 C 35.703125 -24.328125 36.109375 -22.363281 36.109375 -20.1875 L 36.109375 -8.640625 C 36.109375 -6.460938 35.703125 -4.5 34.890625 -2.75 C 34.078125 -1.007812 32.914062 0.476562 31.40625 1.71875 C 29.90625 2.96875 28.085938 3.925781 25.953125 4.59375 C 23.828125 5.269531 21.460938 5.609375 18.859375 5.609375 C 16.253906 5.609375 13.882812 5.269531 11.75 4.59375 C 9.625 3.925781 7.804688 2.96875 6.296875 1.71875 C 4.796875 0.476562 3.640625 -1.007812 2.828125 -2.75 C 2.015625 -4.5 1.609375 -6.460938 1.609375 -8.640625 L 1.609375 -20.1875 C 1.609375 -22.363281 2.015625 -24.328125 2.828125 -26.078125 C 3.640625 -27.828125 4.796875 -29.320312 6.296875 -30.5625 C 7.804688 -31.8125 9.625 -32.769531 11.75 -33.4375 C 13.882812 -34.113281 16.253906 -34.453125 18.859375 -34.453125 Z M 2.890625 -14.4375 C 4.210938 -14.4375 5.523438 -14.207031 6.828125 -13.75 C 8.128906 -13.289062 9.367188 -12.640625 10.546875 -11.796875 C 11.734375 -10.953125 12.832031 -9.945312 13.84375 -8.78125 C 14.851562 -7.613281 15.734375 -6.328125 16.484375 -4.921875 C 17.242188 -3.515625 17.828125 -2.007812 18.234375 -0.40625 C 18.648438 1.1875 18.859375 2.828125 18.859375 4.515625 C 18.859375 1.960938 19.316406 -0.457031 20.234375 -2.75 C 21.160156 -5.050781 22.363281 -7.066406 23.84375 -8.796875 C 25.332031 -10.535156 27.035156 -11.914062 28.953125 -12.9375 C 30.867188 -13.96875 32.828125 -14.484375 34.828125 -14.484375 C 32.828125 -14.484375 30.867188 -15 28.953125 -16.03125 C 27.035156 -17.0625 25.332031 -18.441406 23.84375 -20.171875 C 22.363281 -21.898438 21.160156 -23.914062 20.234375 -26.21875 C 19.316406 -28.519531 18.859375 -30.941406 18.859375 -33.484375 C 18.859375 -30.941406 18.394531 -28.519531 17.46875 -26.21875 C 16.550781 -23.914062 15.347656 -21.890625 13.859375 -20.140625 C 12.378906 -18.398438 10.679688 -17.015625 8.765625 -15.984375 C 6.847656 -14.953125 4.890625 -14.4375 2.890625 -14.4375 Z M 2.890625 -14.4375 "/></g></g><g style="fill:#ffffff;fill-opacity:1;"><g transform="translate(259.573315, 56.21831)"><path style="stroke:none" d="M 2.296875 5.015625 L 2.296875 -33.90625 L 19.546875 -33.90625 C 21.660156 -33.90625 23.59375 -33.566406 25.34375 -32.890625 C 27.09375 -32.210938 28.578125 -31.257812 29.796875 -30.03125 C 31.023438 -28.8125 31.976562 -27.347656 32.65625 -25.640625 C 33.332031 -23.941406 33.671875 -22.066406 33.671875 -20.015625 C 33.671875 -17.984375 33.3125 -16.140625 32.59375 -14.484375 C 31.875 -12.828125 30.882812 -11.414062 29.625 -10.25 C 28.363281 -9.09375 26.875 -8.195312 25.15625 -7.5625 C 23.445312 -6.9375 21.578125 -6.625 19.546875 -6.625 L 11.5 -6.625 L 11.5 5.015625 Z M 17.796875 -32.4375 C 17.796875 -30.75 17.4375 -29.175781 16.71875 -27.71875 C 16 -26.257812 15.054688 -24.984375 13.890625 -23.890625 C 12.722656 -22.804688 11.410156 -21.945312 9.953125 -21.3125 C 8.503906 -20.6875 7.023438 -20.34375 5.515625 -20.28125 C 7.023438 -20.21875 8.503906 -19.84375 9.953125 -19.15625 C 11.410156 -18.46875 12.722656 -17.570312 13.890625 -16.46875 C 15.054688 -15.363281 16 -14.085938 16.71875 -12.640625 C 17.4375 -11.203125 17.796875 -9.703125 17.796875 -8.140625 C 17.796875 -9.703125 18.15625 -11.203125 18.875 -12.640625 C 19.601562 -14.085938 20.546875 -15.367188 21.703125 -16.484375 C 22.867188 -17.609375 24.179688 -18.515625 25.640625 -19.203125 C 27.097656 -19.890625 28.578125 -20.265625 30.078125 -20.328125 C 28.578125 -20.390625 27.097656 -20.734375 25.640625 -21.359375 C 24.179688 -21.992188 22.867188 -22.847656 21.703125 -23.921875 C 20.546875 -24.992188 19.601562 -26.257812 18.875 -27.71875 C 18.15625 -29.175781 17.796875 -30.75 17.796875 -32.4375 Z M 17.796875 -32.4375 "/></g></g></g></svg>