<svg xmlns="http://www.w3.org/2000/svg" xmlns:xlink="http://www.w3.org/1999/xlink" width="450" zoomAndPan="magnify" viewBox="0 0 337.5 89.999999" height="120" preserveAspectRatio="xMidYMid meet" version="1.2"><defs/><g id="c814b5f5db"><path style=" stroke:none;fill-rule:nonzero;fill:#ff7783;fill-opacity:1;" d="M 15.347656 5.433594 L 321.578125 5.433594 C 324.414062 5.433594 327.132812 6.558594 329.140625 8.566406 C 331.144531 10.570312 332.273438 13.292969 332.273438 16.128906 L 332.273438 68.496094 C 332.273438 71.332031 331.144531 74.054688 329.140625 76.058594 C 327.132812 78.066406 324.414062 79.191406 321.578125 79.191406 L 15.347656 79.191406 C 12.511719 79.191406 9.792969 78.066406 7.785156 76.058594 C 5.78125 74.054688 4.65625 71.332031 4.65625 68.496094 L 4.65625 16.128906 C 4.65625 13.292969 5.78125 10.570312 7.785156 8.566406 C 9.792969 6.558594 12.511719 5.433594 15.347656 5.433594 Z M 15.347656 5.433594 "/><g style="fill:#ffffff;fill-opacity:1;"><g transform="translate(20.613697, 54.874281)"><path style="stroke:none" d="M 38.546875 4.71875 L 26.921875 4.71875 L 23.546875 -15.09375 L 23.15625 -17.390625 C 23.09375 -17.015625 23.03125 -16.640625 22.96875 -16.265625 C 22.914062 -15.890625 22.863281 -15.5 22.8125 -15.09375 L 19.421875 4.71875 L 7.796875 4.71875 L 0.4375 -31.953125 L 9.453125 -31.953125 L 12.875 -12.875 C 13.132812 -11.40625 13.378906 -9.960938 13.609375 -8.546875 C 13.847656 -7.128906 14.082031 -5.679688 14.3125 -4.203125 C 14.507812 -5.648438 14.722656 -7.085938 14.953125 -8.515625 C 15.191406 -9.953125 15.425781 -11.390625 15.65625 -12.828125 L 18.953125 -31.953125 L 27.40625 -31.953125 L 30.703125 -12.828125 C 30.929688 -11.390625 31.160156 -9.953125 31.390625 -8.515625 C 31.617188 -7.085938 31.835938 -5.648438 32.046875 -4.203125 C 32.273438 -5.679688 32.503906 -7.128906 32.734375 -8.546875 C 32.960938 -9.960938 33.207031 -11.40625 33.46875 -12.875 L 36.90625 -31.953125 L 45.921875 -31.953125 Z M 38.546875 4.71875 "/></g></g><g style="fill:#ffffff;fill-opacity:1;"><g transform="translate(66.966719, 54.874281)"><path style="stroke:none" d="M 2.171875 4.71875 L 2.171875 -31.953125 L 27.265625 -31.953125 L 27.265625 -25.015625 L 10.84375 -25.015625 L 10.84375 -17.4375 L 26.84375 -17.4375 L 26.84375 -10.40625 L 10.84375 -10.40625 L 10.84375 -1.34375 C 12.425781 -1.34375 13.929688 -1.390625 15.359375 -1.484375 C 16.796875 -1.585938 18.171875 -1.738281 19.484375 -1.9375 C 20.804688 -2.144531 22.109375 -2.414062 23.390625 -2.75 C 24.679688 -3.082031 25.972656 -3.484375 27.265625 -3.953125 L 27.265625 4.71875 Z M 2.171875 4.71875 "/></g></g><g style="fill:#ffffff;fill-opacity:1;"><g transform="translate(95.541688, 54.874281)"><path style="stroke:none" d="M 18.390625 -31.953125 C 20.066406 -31.953125 21.632812 -31.769531 23.09375 -31.40625 C 24.550781 -31.050781 25.8125 -30.492188 26.875 -29.734375 C 27.945312 -28.984375 28.785156 -28.035156 29.390625 -26.890625 C 30.003906 -25.753906 30.3125 -24.421875 30.3125 -22.890625 C 30.3125 -22.140625 30.191406 -21.390625 29.953125 -20.640625 C 29.722656 -19.890625 29.410156 -19.179688 29.015625 -18.515625 C 28.628906 -17.847656 28.171875 -17.234375 27.640625 -16.671875 C 27.109375 -16.109375 26.535156 -15.65625 25.921875 -15.3125 C 26.796875 -15.070312 27.609375 -14.660156 28.359375 -14.078125 C 29.109375 -13.503906 29.765625 -12.828125 30.328125 -12.046875 C 30.890625 -11.273438 31.335938 -10.414062 31.671875 -9.46875 C 32.003906 -8.53125 32.171875 -7.585938 32.171875 -6.640625 C 32.171875 -4.816406 31.851562 -3.195312 31.21875 -1.78125 C 30.582031 -0.363281 29.6875 0.816406 28.53125 1.765625 C 27.375 2.722656 25.972656 3.453125 24.328125 3.953125 C 22.679688 4.460938 20.859375 4.71875 18.859375 4.71875 L 2.171875 4.71875 L 2.171875 -31.953125 Z M 16.5625 -30.78125 C 16.5 -29.539062 16.148438 -28.457031 15.515625 -27.53125 C 14.878906 -26.601562 14.054688 -25.820312 13.046875 -25.1875 C 12.035156 -24.550781 10.882812 -24.066406 9.59375 -23.734375 C 8.3125 -23.398438 6.992188 -23.222656 5.640625 -23.203125 C 6.992188 -23.171875 8.3125 -23.003906 9.59375 -22.703125 C 10.882812 -22.398438 12.035156 -21.941406 13.046875 -21.328125 C 14.054688 -20.722656 14.878906 -19.953125 15.515625 -19.015625 C 16.148438 -18.078125 16.5 -16.957031 16.5625 -15.65625 C 16.625 -16.957031 16.972656 -18.078125 17.609375 -19.015625 C 18.242188 -19.953125 19.066406 -20.722656 20.078125 -21.328125 C 21.085938 -21.941406 22.234375 -22.398438 23.515625 -22.703125 C 24.804688 -23.003906 26.128906 -23.171875 27.484375 -23.203125 C 26.128906 -23.222656 24.804688 -23.398438 23.515625 -23.734375 C 22.234375 -24.066406 21.085938 -24.550781 20.078125 -25.1875 C 19.066406 -25.820312 18.242188 -26.601562 17.609375 -27.53125 C 16.972656 -28.457031 16.625 -29.539062 16.5625 -30.78125 Z M 16.5625 -15.171875 C 16.5625 -13.671875 16.210938 -12.34375 15.515625 -11.1875 C 14.828125 -10.03125 13.914062 -9.050781 12.78125 -8.25 C 11.65625 -7.457031 10.390625 -6.84375 8.984375 -6.40625 C 7.585938 -5.976562 6.179688 -5.75 4.765625 -5.71875 C 6.179688 -5.664062 7.585938 -5.441406 8.984375 -5.046875 C 10.390625 -4.660156 11.65625 -4.078125 12.78125 -3.296875 C 13.914062 -2.515625 14.828125 -1.535156 15.515625 -0.359375 C 16.210938 0.804688 16.5625 2.179688 16.5625 3.765625 C 16.5625 2.179688 16.90625 0.804688 17.59375 -0.359375 C 18.289062 -1.535156 19.203125 -2.503906 20.328125 -3.265625 C 21.460938 -4.035156 22.726562 -4.613281 24.125 -5 C 25.53125 -5.394531 26.941406 -5.625 28.359375 -5.6875 C 26.941406 -5.707031 25.53125 -5.9375 24.125 -6.375 C 22.726562 -6.8125 21.460938 -7.429688 20.328125 -8.234375 C 19.203125 -9.046875 18.289062 -10.03125 17.59375 -11.1875 C 16.90625 -12.34375 16.5625 -13.671875 16.5625 -15.171875 Z M 16.5625 -15.171875 "/></g></g><g style="fill:#ffffff;fill-opacity:1;"><g transform="translate(129.016461, 54.874281)"><path style="stroke:none" d=""/></g></g><g style="fill:#ffffff;fill-opacity:1;"><g transform="translate(138.946156, 54.874281)"><path style="stroke:none" d="M 2.171875 -31.953125 L 17.953125 -31.953125 C 20.296875 -31.953125 22.40625 -31.519531 24.28125 -30.65625 C 26.15625 -29.789062 27.742188 -28.554688 29.046875 -26.953125 C 30.347656 -25.347656 31.34375 -23.414062 32.03125 -21.15625 C 32.726562 -18.90625 33.078125 -16.390625 33.078125 -13.609375 C 33.078125 -10.835938 32.726562 -8.320312 32.03125 -6.0625 C 31.34375 -3.8125 30.347656 -1.882812 29.046875 -0.28125 C 27.742188 1.320312 26.15625 2.554688 24.28125 3.421875 C 22.40625 4.285156 20.296875 4.71875 17.953125 4.71875 L 2.171875 4.71875 Z M 2.953125 -13.828125 C 4.828125 -13.828125 6.640625 -13.359375 8.390625 -12.421875 C 10.140625 -11.484375 11.691406 -10.210938 13.046875 -8.609375 C 14.410156 -7.003906 15.503906 -5.128906 16.328125 -2.984375 C 17.148438 -0.847656 17.5625 1.414062 17.5625 3.8125 C 17.5625 1.414062 17.972656 -0.847656 18.796875 -2.984375 C 19.617188 -5.128906 20.707031 -7.007812 22.0625 -8.625 C 23.425781 -10.25 24.984375 -11.53125 26.734375 -12.46875 C 28.484375 -13.40625 30.296875 -13.875 32.171875 -13.875 C 30.296875 -13.875 28.484375 -14.347656 26.734375 -15.296875 C 24.984375 -16.253906 23.425781 -17.539062 22.0625 -19.15625 C 20.707031 -20.78125 19.617188 -22.660156 18.796875 -24.796875 C 17.972656 -26.941406 17.5625 -29.210938 17.5625 -31.609375 C 17.5625 -29.210938 17.148438 -26.9375 16.328125 -24.78125 C 15.503906 -22.625 14.410156 -20.734375 13.046875 -19.109375 C 11.691406 -17.492188 10.140625 -16.207031 8.390625 -15.25 C 6.640625 -14.300781 4.828125 -13.828125 2.953125 -13.828125 Z M 2.953125 -13.828125 "/></g></g><g style="fill:#ffffff;fill-opacity:1;"><g transform="translate(173.114718, 54.874281)"><path style="stroke:none" d="M 2.171875 4.71875 L 2.171875 -31.953125 L 27.265625 -31.953125 L 27.265625 -25.015625 L 10.84375 -25.015625 L 10.84375 -17.4375 L 26.84375 -17.4375 L 26.84375 -10.40625 L 10.84375 -10.40625 L 10.84375 -1.34375 C 12.425781 -1.34375 13.929688 -1.390625 15.359375 -1.484375 C 16.796875 -1.585938 18.171875 -1.738281 19.484375 -1.9375 C 20.804688 -2.144531 22.109375 -2.414062 23.390625 -2.75 C 24.679688 -3.082031 25.972656 -3.484375 27.265625 -3.953125 L 27.265625 4.71875 Z M 2.171875 4.71875 "/></g></g><g style="fill:#ffffff;fill-opacity:1;"><g transform="translate(201.689679, 54.874281)"><path style="stroke:none" d="M 15.953125 5.296875 C 13.785156 5.296875 11.773438 5.019531 9.921875 4.46875 C 8.078125 3.914062 6.484375 3.117188 5.140625 2.078125 C 3.796875 1.035156 2.742188 -0.226562 1.984375 -1.71875 C 1.234375 -3.207031 0.859375 -4.890625 0.859375 -6.765625 L 9.671875 -6.765625 C 9.671875 -6.046875 9.835938 -5.378906 10.171875 -4.765625 C 10.503906 -4.160156 10.957031 -3.640625 11.53125 -3.203125 C 12.113281 -2.773438 12.789062 -2.441406 13.5625 -2.203125 C 14.34375 -1.972656 15.171875 -1.859375 16.046875 -1.859375 C 16.796875 -1.859375 17.488281 -1.957031 18.125 -2.15625 C 18.757812 -2.363281 19.316406 -2.632812 19.796875 -2.96875 C 20.273438 -3.300781 20.644531 -3.679688 20.90625 -4.109375 C 21.164062 -4.546875 21.296875 -5.007812 21.296875 -5.5 C 21.296875 -5.90625 21.171875 -6.28125 20.921875 -6.625 C 20.671875 -6.976562 20.359375 -7.304688 19.984375 -7.609375 C 19.609375 -7.910156 19.179688 -8.179688 18.703125 -8.421875 C 18.234375 -8.671875 17.78125 -8.882812 17.34375 -9.0625 L 8.40625 -12.75 C 6.5 -13.5625 4.984375 -14.671875 3.859375 -16.078125 C 2.734375 -17.492188 2.171875 -19.429688 2.171875 -21.890625 C 2.171875 -23.515625 2.523438 -24.976562 3.234375 -26.28125 C 3.941406 -27.582031 4.910156 -28.691406 6.140625 -29.609375 C 7.367188 -30.535156 8.828125 -31.25 10.515625 -31.75 C 12.203125 -32.257812 14.046875 -32.515625 16.046875 -32.515625 C 17.835938 -32.515625 19.523438 -32.25 21.109375 -31.71875 C 22.703125 -31.1875 24.09375 -30.4375 25.28125 -29.46875 C 26.46875 -28.5 27.398438 -27.332031 28.078125 -25.96875 C 28.753906 -24.613281 29.09375 -23.113281 29.09375 -21.46875 L 20.9375 -21.46875 C 20.9375 -22.007812 20.800781 -22.519531 20.53125 -23 C 20.257812 -23.476562 19.898438 -23.894531 19.453125 -24.25 C 19.003906 -24.613281 18.484375 -24.894531 17.890625 -25.09375 C 17.296875 -25.300781 16.679688 -25.40625 16.046875 -25.40625 C 15.429688 -25.40625 14.847656 -25.332031 14.296875 -25.1875 C 13.753906 -25.039062 13.273438 -24.832031 12.859375 -24.5625 C 12.441406 -24.289062 12.101562 -23.957031 11.84375 -23.5625 C 11.582031 -23.175781 11.453125 -22.75 11.453125 -22.28125 C 11.453125 -21.851562 11.535156 -21.476562 11.703125 -21.15625 C 11.878906 -20.84375 12.140625 -20.554688 12.484375 -20.296875 C 12.828125 -20.035156 13.257812 -19.78125 13.78125 -19.53125 C 14.300781 -19.289062 14.910156 -19.023438 15.609375 -18.734375 L 24.40625 -15.09375 C 25.300781 -14.71875 26.117188 -14.269531 26.859375 -13.75 C 27.597656 -13.226562 28.238281 -12.613281 28.78125 -11.90625 C 29.332031 -11.195312 29.757812 -10.382812 30.0625 -9.46875 C 30.375 -8.5625 30.53125 -7.53125 30.53125 -6.375 C 30.53125 -4.925781 30.179688 -3.5 29.484375 -2.09375 C 28.785156 -0.695312 27.804688 0.546875 26.546875 1.640625 C 25.296875 2.742188 23.765625 3.628906 21.953125 4.296875 C 20.148438 4.960938 18.148438 5.296875 15.953125 5.296875 Z M 15.953125 5.296875 "/></g></g><g style="fill:#ffffff;fill-opacity:1;"><g transform="translate(233.299923, 54.874281)"><path style="stroke:none" d="M 10.84375 4.71875 L 2.171875 4.71875 L 2.171875 -31.953125 L 10.84375 -31.953125 Z M 10.84375 4.71875 "/></g></g><g style="fill:#ffffff;fill-opacity:1;"><g transform="translate(246.308255, 54.874281)"><path style="stroke:none" d="M 34.03125 -7.28125 C 34.03125 -5.34375 33.644531 -3.59375 32.875 -2.03125 C 32.113281 -0.476562 31.023438 0.835938 29.609375 1.921875 C 28.191406 3.015625 26.476562 3.847656 24.46875 4.421875 C 22.46875 5.003906 20.238281 5.296875 17.78125 5.296875 C 15.4375 5.296875 13.265625 4.972656 11.265625 4.328125 C 9.273438 3.691406 7.554688 2.789062 6.109375 1.625 C 4.671875 0.457031 3.546875 -0.945312 2.734375 -2.59375 C 1.921875 -4.25 1.515625 -6.101562 1.515625 -8.15625 L 1.515625 -19.03125 C 1.515625 -21.082031 1.921875 -22.929688 2.734375 -24.578125 C 3.546875 -26.234375 4.671875 -27.644531 6.109375 -28.8125 C 7.554688 -29.976562 9.273438 -30.878906 11.265625 -31.515625 C 13.265625 -32.148438 15.4375 -32.46875 17.78125 -32.46875 C 20.125 -32.46875 22.253906 -32.1875 24.171875 -31.625 C 26.097656 -31.0625 27.742188 -30.253906 29.109375 -29.203125 C 30.484375 -28.148438 31.539062 -26.867188 32.28125 -25.359375 C 33.019531 -23.859375 33.390625 -22.179688 33.390625 -20.328125 L 33.390625 -18.59375 L 24.71875 -18.59375 L 24.71875 -19.90625 C 24.71875 -21.726562 24.125 -23.117188 22.9375 -24.078125 C 21.75 -25.046875 20.03125 -25.53125 17.78125 -25.53125 C 15.519531 -25.53125 13.6875 -24.9375 12.28125 -23.75 C 10.882812 -22.570312 10.1875 -20.851562 10.1875 -18.59375 L 10.1875 -8.578125 C 10.1875 -6.328125 10.882812 -4.609375 12.28125 -3.421875 C 13.6875 -2.234375 15.519531 -1.640625 17.78125 -1.640625 C 20.238281 -1.640625 22.175781 -2.144531 23.59375 -3.15625 C 25.007812 -4.175781 25.71875 -5.695312 25.71875 -7.71875 L 25.71875 -8.5 L 17.25 -8.5 L 17.25 -15 L 34.03125 -15 Z M 34.03125 -7.28125 "/></g></g><g style="fill:#ffffff;fill-opacity:1;"><g transform="translate(281.647555, 54.874281)"><path style="stroke:none" d="M 23.984375 4.71875 L 13.1875 -13.359375 C 12.71875 -14.109375 12.285156 -14.800781 11.890625 -15.4375 C 11.503906 -16.070312 11.039062 -16.765625 10.5 -17.515625 C 10.664062 -15.460938 10.75 -13.5 10.75 -11.625 L 10.75 4.71875 L 2.171875 4.71875 L 2.171875 -31.953125 L 10.75 -31.953125 L 21.296875 -14.734375 C 21.835938 -13.835938 22.359375 -12.910156 22.859375 -11.953125 C 23.367188 -11.003906 23.828125 -10 24.234375 -8.9375 C 24.085938 -9.945312 24.007812 -10.972656 24 -12.015625 C 23.988281 -13.054688 23.984375 -14.082031 23.984375 -15.09375 L 23.984375 -31.953125 L 32.5625 -31.953125 L 32.5625 4.71875 Z M 23.984375 4.71875 "/></g></g></g></svg>