<svg xmlns="http://www.w3.org/2000/svg" xmlns:xlink="http://www.w3.org/1999/xlink" width="450" zoomAndPan="magnify" viewBox="0 0 337.5 89.999999" height="120" preserveAspectRatio="xMidYMid meet" version="1.2"><defs/><g id="c6f367e8af"><path style=" stroke:none;fill-rule:nonzero;fill:#006eff;fill-opacity:1;" d="M 54.328125 19.335938 L 286.824219 19.335938 C 290.902344 19.335938 294.207031 22.640625 294.207031 26.71875 L 294.207031 62.863281 C 294.207031 66.941406 290.902344 70.246094 286.824219 70.246094 L 54.328125 70.246094 C 52.371094 70.246094 50.492188 69.46875 49.109375 68.085938 C 47.722656 66.699219 46.945312 64.824219 46.945312 62.863281 L 46.945312 26.71875 C 46.945312 24.761719 47.722656 22.882812 49.109375 21.5 C 50.492188 20.113281 52.371094 19.335938 54.328125 19.335938 Z M 54.328125 19.335938 "/><g style="fill:#ffffff;fill-opacity:1;"><g transform="translate(59.52281, 53.505771)"><path style="stroke:none" d="M 18.9375 -22.09375 L 26.15625 -22.09375 L 26.15625 3.265625 L 20.5625 3.265625 L 20.5625 -7.1875 C 20.5625 -7.570312 20.578125 -8.019531 20.609375 -8.53125 C 20.640625 -9.050781 20.671875 -9.585938 20.703125 -10.140625 C 20.742188 -10.691406 20.789062 -11.242188 20.84375 -11.796875 C 20.894531 -12.359375 20.941406 -12.875 20.984375 -13.34375 L 16.0625 2.671875 L 11.59375 2.671875 L 6.6875 -13.34375 C 6.726562 -12.875 6.769531 -12.359375 6.8125 -11.796875 C 6.863281 -11.242188 6.910156 -10.691406 6.953125 -10.140625 C 6.992188 -9.585938 7.03125 -9.050781 7.0625 -8.53125 C 7.09375 -8.019531 7.109375 -7.570312 7.109375 -7.1875 L 7.109375 3.265625 L 1.5 3.265625 L 1.5 -22.09375 L 8.71875 -22.09375 L 12.96875 -8.625 C 13.15625 -7.925781 13.316406 -7.242188 13.453125 -6.578125 C 13.597656 -5.910156 13.71875 -5.238281 13.8125 -4.5625 C 13.9375 -5.238281 14.0625 -5.910156 14.1875 -6.578125 C 14.320312 -7.242188 14.488281 -7.925781 14.6875 -8.625 Z M 18.9375 -22.09375 "/></g></g><g style="fill:#ffffff;fill-opacity:1;"><g transform="translate(90.275712, 53.505771)"><path style="stroke:none" d="M 8.984375 3.265625 L 8.984375 -6.59375 L 0 -22.09375 L 6.765625 -22.09375 L 11.984375 -12.34375 L 17.203125 -22.09375 L 23.96875 -22.09375 L 14.984375 -6.59375 L 14.984375 3.265625 Z M 8.984375 3.265625 "/></g></g><g style="fill:#ffffff;fill-opacity:1;"><g transform="translate(117.341932, 53.505771)"><path style="stroke:none" d=""/></g></g><g style="fill:#ffffff;fill-opacity:1;"><g transform="translate(127.293539, 53.505771)"><path style="stroke:none" d="M 1.5 3.265625 L 1.5 -22.09375 L 12.734375 -22.09375 C 14.109375 -22.09375 15.363281 -21.867188 16.5 -21.421875 C 17.644531 -20.984375 18.617188 -20.363281 19.421875 -19.5625 C 20.222656 -18.769531 20.84375 -17.816406 21.28125 -16.703125 C 21.71875 -15.597656 21.9375 -14.375 21.9375 -13.03125 C 21.9375 -11.71875 21.703125 -10.519531 21.234375 -9.4375 C 20.765625 -8.363281 20.117188 -7.445312 19.296875 -6.6875 C 18.484375 -5.925781 17.515625 -5.335938 16.390625 -4.921875 C 15.273438 -4.515625 14.054688 -4.3125 12.734375 -4.3125 L 7.484375 -4.3125 L 7.484375 3.265625 Z M 11.59375 -21.125 C 11.59375 -20.03125 11.359375 -19.003906 10.890625 -18.046875 C 10.421875 -17.097656 9.804688 -16.269531 9.046875 -15.5625 C 8.285156 -14.851562 7.429688 -14.296875 6.484375 -13.890625 C 5.535156 -13.484375 4.570312 -13.257812 3.59375 -13.21875 C 4.570312 -13.175781 5.535156 -12.929688 6.484375 -12.484375 C 7.429688 -12.035156 8.285156 -11.453125 9.046875 -10.734375 C 9.804688 -10.015625 10.421875 -9.179688 10.890625 -8.234375 C 11.359375 -7.296875 11.59375 -6.316406 11.59375 -5.296875 C 11.59375 -6.316406 11.828125 -7.296875 12.296875 -8.234375 C 12.765625 -9.179688 13.378906 -10.019531 14.140625 -10.75 C 14.898438 -11.476562 15.753906 -12.066406 16.703125 -12.515625 C 17.648438 -12.960938 18.613281 -13.207031 19.59375 -13.25 C 18.613281 -13.289062 17.648438 -13.515625 16.703125 -13.921875 C 15.753906 -14.328125 14.898438 -14.878906 14.140625 -15.578125 C 13.378906 -16.273438 12.765625 -17.097656 12.296875 -18.046875 C 11.828125 -19.003906 11.59375 -20.03125 11.59375 -21.125 Z M 11.59375 -21.125 "/></g></g><g style="fill:#ffffff;fill-opacity:1;"><g transform="translate(152.921049, 53.505771)"><path style="stroke:none" d="M 1.5 3.265625 L 1.5 -22.09375 L 12.734375 -22.09375 C 14.109375 -22.09375 15.359375 -21.882812 16.484375 -21.46875 C 17.617188 -21.0625 18.585938 -20.476562 19.390625 -19.71875 C 20.191406 -18.957031 20.8125 -18.035156 21.25 -16.953125 C 21.6875 -15.878906 21.90625 -14.675781 21.90625 -13.34375 C 21.90625 -11.539062 21.492188 -10.007812 20.671875 -8.75 C 19.859375 -7.488281 18.757812 -6.53125 17.375 -5.875 L 22.953125 3.265625 L 16.359375 3.265625 L 11.359375 -4.921875 L 7.484375 -4.921875 L 7.484375 3.265625 Z M 11.59375 -21.125 C 11.59375 -20.03125 11.359375 -19.019531 10.890625 -18.09375 C 10.421875 -17.175781 9.804688 -16.382812 9.046875 -15.71875 C 8.285156 -15.050781 7.429688 -14.523438 6.484375 -14.140625 C 5.535156 -13.765625 4.570312 -13.554688 3.59375 -13.515625 C 4.570312 -13.472656 5.535156 -13.242188 6.484375 -12.828125 C 7.429688 -12.410156 8.285156 -11.859375 9.046875 -11.171875 C 9.804688 -10.492188 10.421875 -9.703125 10.890625 -8.796875 C 11.359375 -7.890625 11.59375 -6.925781 11.59375 -5.90625 C 11.59375 -6.925781 11.828125 -7.890625 12.296875 -8.796875 C 12.765625 -9.703125 13.378906 -10.5 14.140625 -11.1875 C 14.898438 -11.882812 15.753906 -12.441406 16.703125 -12.859375 C 17.648438 -13.273438 18.613281 -13.503906 19.59375 -13.546875 C 18.613281 -13.585938 17.648438 -13.796875 16.703125 -14.171875 C 15.753906 -14.554688 14.898438 -15.078125 14.140625 -15.734375 C 13.378906 -16.390625 12.765625 -17.175781 12.296875 -18.09375 C 11.828125 -19.019531 11.59375 -20.03125 11.59375 -21.125 Z M 11.59375 -21.125 "/></g></g><g style="fill:#ffffff;fill-opacity:1;"><g transform="translate(178.968181, 53.505771)"><path style="stroke:none" d="M 12.28125 -22.453125 C 13.976562 -22.453125 15.519531 -22.226562 16.90625 -21.78125 C 18.300781 -21.34375 19.488281 -20.71875 20.46875 -19.90625 C 21.445312 -19.101562 22.203125 -18.128906 22.734375 -16.984375 C 23.265625 -15.847656 23.53125 -14.570312 23.53125 -13.15625 L 23.53125 -5.640625 C 23.53125 -4.210938 23.265625 -2.929688 22.734375 -1.796875 C 22.203125 -0.660156 21.445312 0.3125 20.46875 1.125 C 19.488281 1.9375 18.300781 2.5625 16.90625 3 C 15.519531 3.4375 13.976562 3.65625 12.28125 3.65625 C 10.582031 3.65625 9.039062 3.4375 7.65625 3 C 6.269531 2.5625 5.085938 1.9375 4.109375 1.125 C 3.128906 0.3125 2.375 -0.660156 1.84375 -1.796875 C 1.3125 -2.929688 1.046875 -4.210938 1.046875 -5.640625 L 1.046875 -13.15625 C 1.046875 -14.570312 1.3125 -15.847656 1.84375 -16.984375 C 2.375 -18.128906 3.128906 -19.101562 4.109375 -19.90625 C 5.085938 -20.71875 6.269531 -21.34375 7.65625 -21.78125 C 9.039062 -22.226562 10.582031 -22.453125 12.28125 -22.453125 Z M 1.890625 -9.40625 C 2.742188 -9.40625 3.59375 -9.253906 4.4375 -8.953125 C 5.289062 -8.660156 6.101562 -8.238281 6.875 -7.6875 C 7.644531 -7.132812 8.359375 -6.476562 9.015625 -5.71875 C 9.679688 -4.957031 10.257812 -4.117188 10.75 -3.203125 C 11.238281 -2.285156 11.613281 -1.304688 11.875 -0.265625 C 12.144531 0.765625 12.28125 1.832031 12.28125 2.9375 C 12.28125 1.28125 12.578125 -0.296875 13.171875 -1.796875 C 13.773438 -3.296875 14.5625 -4.609375 15.53125 -5.734375 C 16.507812 -6.867188 17.617188 -7.769531 18.859375 -8.4375 C 20.109375 -9.101562 21.382812 -9.4375 22.6875 -9.4375 C 21.382812 -9.4375 20.109375 -9.769531 18.859375 -10.4375 C 17.617188 -11.113281 16.507812 -12.015625 15.53125 -13.140625 C 14.5625 -14.265625 13.773438 -15.578125 13.171875 -17.078125 C 12.578125 -18.578125 12.28125 -20.15625 12.28125 -21.8125 C 12.28125 -20.15625 11.976562 -18.578125 11.375 -17.078125 C 10.78125 -15.578125 10 -14.257812 9.03125 -13.125 C 8.0625 -11.988281 6.953125 -11.082031 5.703125 -10.40625 C 4.460938 -9.738281 3.191406 -9.40625 1.890625 -9.40625 Z M 1.890625 -9.40625 "/></g></g><g style="fill:#ffffff;fill-opacity:1;"><g transform="translate(206.633857, 53.505771)"><path style="stroke:none" d="M 18.3125 -17.296875 L 7.484375 -17.296875 L 7.484375 -10.875 L 17.5625 -10.875 L 17.5625 -5.9375 L 7.484375 -5.9375 L 7.484375 3.265625 L 1.5 3.265625 L 1.5 -22.09375 L 18.3125 -22.09375 Z M 18.3125 -17.296875 "/></g></g><g style="fill:#ffffff;fill-opacity:1;"><g transform="translate(228.334896, 53.505771)"><path style="stroke:none" d="M 7.484375 3.265625 L 1.5 3.265625 L 1.5 -22.09375 L 7.484375 -22.09375 Z M 7.484375 3.265625 "/></g></g><g style="fill:#ffffff;fill-opacity:1;"><g transform="translate(240.414589, 53.505771)"><path style="stroke:none" d="M 1.5 -22.09375 L 7.484375 -22.09375 L 7.484375 -1.015625 C 8.410156 -1.035156 9.347656 -1.082031 10.296875 -1.15625 C 11.242188 -1.226562 12.175781 -1.335938 13.09375 -1.484375 C 14.007812 -1.628906 14.890625 -1.8125 15.734375 -2.03125 C 16.578125 -2.257812 17.359375 -2.539062 18.078125 -2.875 L 18.078125 3.265625 L 1.5 3.265625 Z M 1.5 -22.09375 "/></g></g><g style="fill:#ffffff;fill-opacity:1;"><g transform="translate(261.875856, 53.505771)"><path style="stroke:none" d="M 1.5 3.265625 L 1.5 -22.09375 L 18.84375 -22.09375 L 18.84375 -17.296875 L 7.484375 -17.296875 L 7.484375 -12.046875 L 18.546875 -12.046875 L 18.546875 -7.1875 L 7.484375 -7.1875 L 7.484375 -0.921875 C 8.585938 -0.921875 9.632812 -0.957031 10.625 -1.03125 C 11.613281 -1.101562 12.5625 -1.207031 13.46875 -1.34375 C 14.375 -1.488281 15.269531 -1.675781 16.15625 -1.90625 C 17.050781 -2.132812 17.945312 -2.410156 18.84375 -2.734375 L 18.84375 3.265625 Z M 1.5 3.265625 "/></g></g></g></svg>