<svg xmlns="http://www.w3.org/2000/svg" xmlns:xlink="http://www.w3.org/1999/xlink" width="450" zoomAndPan="magnify" viewBox="0 0 337.5 89.999999" height="120" preserveAspectRatio="xMidYMid meet" version="1.2"><defs/><g id="e03899a99d"><path style=" stroke:none;fill-rule:nonzero;fill:#006eff;fill-opacity:1;" d="M 69.988281 13.945312 L 266.890625 13.945312 C 271.863281 13.945312 275.894531 17.976562 275.894531 22.949219 L 275.894531 67.039062 C 275.894531 72.011719 271.863281 76.042969 266.890625 76.042969 L 69.988281 76.042969 C 65.015625 76.042969 60.984375 72.011719 60.984375 67.039062 L 60.984375 22.949219 C 60.984375 17.976562 65.015625 13.945312 69.988281 13.945312 Z M 69.988281 13.945312 "/><g style="fill:#ffffff;fill-opacity:1;"><g transform="translate(74.431543, 55.573799)"><path style="stroke:none" d="M 1.828125 3.984375 L 1.828125 -26.890625 L 15.5 -26.890625 C 17.175781 -26.890625 18.707031 -26.617188 20.09375 -26.078125 C 21.488281 -25.546875 22.671875 -24.789062 23.640625 -23.8125 C 24.609375 -22.84375 25.359375 -21.679688 25.890625 -20.328125 C 26.429688 -18.984375 26.703125 -17.5 26.703125 -15.875 C 26.703125 -14.269531 26.414062 -12.804688 25.84375 -11.484375 C 25.269531 -10.171875 24.484375 -9.050781 23.484375 -8.125 C 22.492188 -7.207031 21.316406 -6.5 19.953125 -6 C 18.585938 -5.5 17.101562 -5.25 15.5 -5.25 L 9.125 -5.25 L 9.125 3.984375 Z M 14.125 -25.71875 C 14.125 -24.382812 13.835938 -23.140625 13.265625 -21.984375 C 12.691406 -20.828125 11.941406 -19.816406 11.015625 -18.953125 C 10.085938 -18.085938 9.046875 -17.40625 7.890625 -16.90625 C 6.742188 -16.40625 5.570312 -16.132812 4.375 -16.09375 C 5.570312 -16.039062 6.742188 -15.738281 7.890625 -15.1875 C 9.046875 -14.644531 10.085938 -13.9375 11.015625 -13.0625 C 11.941406 -12.1875 12.691406 -11.175781 13.265625 -10.03125 C 13.835938 -8.882812 14.125 -7.691406 14.125 -6.453125 C 14.125 -7.691406 14.40625 -8.882812 14.96875 -10.03125 C 15.539062 -11.175781 16.289062 -12.191406 17.21875 -13.078125 C 18.144531 -13.960938 19.1875 -14.675781 20.34375 -15.21875 C 21.5 -15.769531 22.671875 -16.070312 23.859375 -16.125 C 22.671875 -16.175781 21.5 -16.445312 20.34375 -16.9375 C 19.1875 -17.4375 18.144531 -18.113281 17.21875 -18.96875 C 16.289062 -19.820312 15.539062 -20.828125 14.96875 -21.984375 C 14.40625 -23.140625 14.125 -24.382812 14.125 -25.71875 Z M 14.125 -25.71875 "/></g></g><g style="fill:#ffffff;fill-opacity:1;"><g transform="translate(101.868835, 55.573799)"><path style="stroke:none" d="M 1.828125 3.984375 L 1.828125 -26.890625 L 15.5 -26.890625 C 17.175781 -26.890625 18.703125 -26.640625 20.078125 -26.140625 C 21.453125 -25.640625 22.625 -24.925781 23.59375 -24 C 24.570312 -23.082031 25.328125 -21.96875 25.859375 -20.65625 C 26.398438 -19.34375 26.671875 -17.867188 26.671875 -16.234375 C 26.671875 -14.046875 26.171875 -12.1875 25.171875 -10.65625 C 24.171875 -9.125 22.832031 -7.957031 21.15625 -7.15625 L 27.953125 3.984375 L 19.921875 3.984375 L 13.828125 -5.984375 L 9.125 -5.984375 L 9.125 3.984375 Z M 14.125 -25.71875 C 14.125 -24.382812 13.835938 -23.15625 13.265625 -22.03125 C 12.691406 -20.914062 11.941406 -19.945312 11.015625 -19.125 C 10.085938 -18.3125 9.046875 -17.675781 7.890625 -17.21875 C 6.742188 -16.757812 5.570312 -16.503906 4.375 -16.453125 C 5.570312 -16.398438 6.742188 -16.117188 7.890625 -15.609375 C 9.046875 -15.097656 10.085938 -14.429688 11.015625 -13.609375 C 11.941406 -12.785156 12.691406 -11.816406 13.265625 -10.703125 C 13.835938 -9.597656 14.125 -8.425781 14.125 -7.1875 C 14.125 -8.425781 14.40625 -9.597656 14.96875 -10.703125 C 15.539062 -11.816406 16.289062 -12.789062 17.21875 -13.625 C 18.144531 -14.46875 19.1875 -15.144531 20.34375 -15.65625 C 21.5 -16.164062 22.671875 -16.441406 23.859375 -16.484375 C 22.671875 -16.535156 21.5 -16.789062 20.34375 -17.25 C 19.1875 -17.71875 18.144531 -18.351562 17.21875 -19.15625 C 16.289062 -19.957031 15.539062 -20.914062 14.96875 -22.03125 C 14.40625 -23.15625 14.125 -24.382812 14.125 -25.71875 Z M 14.125 -25.71875 "/></g></g><g style="fill:#ffffff;fill-opacity:1;"><g transform="translate(129.816925, 55.573799)"><path style="stroke:none" d="M 14.953125 -27.328125 C 17.023438 -27.328125 18.90625 -27.054688 20.59375 -26.515625 C 22.28125 -25.984375 23.71875 -25.222656 24.90625 -24.234375 C 26.101562 -23.253906 27.023438 -22.070312 27.671875 -20.6875 C 28.316406 -19.300781 28.640625 -17.742188 28.640625 -16.015625 L 28.640625 -6.859375 C 28.640625 -5.128906 28.316406 -3.570312 27.671875 -2.1875 C 27.023438 -0.800781 26.101562 0.378906 24.90625 1.359375 C 23.71875 2.347656 22.28125 3.109375 20.59375 3.640625 C 18.90625 4.179688 17.023438 4.453125 14.953125 4.453125 C 12.890625 4.453125 11.007812 4.179688 9.3125 3.640625 C 7.625 3.109375 6.179688 2.347656 4.984375 1.359375 C 3.796875 0.378906 2.878906 -0.800781 2.234375 -2.1875 C 1.597656 -3.570312 1.28125 -5.128906 1.28125 -6.859375 L 1.28125 -16.015625 C 1.28125 -17.742188 1.597656 -19.300781 2.234375 -20.6875 C 2.878906 -22.070312 3.796875 -23.253906 4.984375 -24.234375 C 6.179688 -25.222656 7.625 -25.984375 9.3125 -26.515625 C 11.007812 -27.054688 12.890625 -27.328125 14.953125 -27.328125 Z M 2.296875 -11.453125 C 3.347656 -11.453125 4.390625 -11.269531 5.421875 -10.90625 C 6.453125 -10.539062 7.4375 -10.023438 8.375 -9.359375 C 9.3125 -8.691406 10.179688 -7.894531 10.984375 -6.96875 C 11.785156 -6.039062 12.484375 -5.015625 13.078125 -3.890625 C 13.671875 -2.773438 14.128906 -1.585938 14.453125 -0.328125 C 14.785156 0.929688 14.953125 2.234375 14.953125 3.578125 C 14.953125 1.554688 15.316406 -0.363281 16.046875 -2.1875 C 16.773438 -4.007812 17.726562 -5.609375 18.90625 -6.984375 C 20.09375 -8.359375 21.445312 -9.453125 22.96875 -10.265625 C 24.488281 -11.085938 26.039062 -11.5 27.625 -11.5 C 26.039062 -11.5 24.488281 -11.90625 22.96875 -12.71875 C 21.445312 -13.53125 20.09375 -14.625 18.90625 -16 C 17.726562 -17.375 16.773438 -18.972656 16.046875 -20.796875 C 15.316406 -22.617188 14.953125 -24.539062 14.953125 -26.5625 C 14.953125 -24.539062 14.585938 -22.617188 13.859375 -20.796875 C 13.128906 -18.972656 12.175781 -17.367188 11 -15.984375 C 9.820312 -14.597656 8.472656 -13.492188 6.953125 -12.671875 C 5.429688 -11.859375 3.878906 -11.453125 2.296875 -11.453125 Z M 2.296875 -11.453125 "/></g></g><g style="fill:#ffffff;fill-opacity:1;"><g transform="translate(159.73525, 55.573799)"><path style="stroke:none" d="M 7.296875 -5.25 C 7.296875 -4.082031 7.628906 -3.238281 8.296875 -2.71875 C 8.960938 -2.195312 9.847656 -1.9375 10.953125 -1.9375 C 12.140625 -1.9375 13.039062 -2.273438 13.65625 -2.953125 C 14.28125 -3.640625 14.59375 -4.566406 14.59375 -5.734375 L 14.59375 -26.890625 L 21.890625 -26.890625 L 21.890625 -5.953125 C 21.890625 -4.566406 21.644531 -3.242188 21.15625 -1.984375 C 20.675781 -0.734375 19.96875 0.363281 19.03125 1.3125 C 18.09375 2.257812 16.941406 3.019531 15.578125 3.59375 C 14.210938 4.164062 12.671875 4.453125 10.953125 4.453125 C 9.222656 4.453125 7.691406 4.195312 6.359375 3.6875 C 5.035156 3.175781 3.929688 2.484375 3.046875 1.609375 C 2.160156 0.734375 1.488281 -0.289062 1.03125 -1.46875 C 0.582031 -2.65625 0.359375 -3.914062 0.359375 -5.25 Z M 7.296875 -5.25 "/></g></g><g style="fill:#ffffff;fill-opacity:1;"><g transform="translate(183.450996, 55.573799)"><path style="stroke:none" d="M 1.828125 3.984375 L 1.828125 -26.890625 L 22.953125 -26.890625 L 22.953125 -21.046875 L 9.125 -21.046875 L 9.125 -14.671875 L 22.578125 -14.671875 L 22.578125 -8.75 L 9.125 -8.75 L 9.125 -1.125 C 10.457031 -1.125 11.722656 -1.164062 12.921875 -1.25 C 14.128906 -1.34375 15.285156 -1.472656 16.390625 -1.640625 C 17.503906 -1.804688 18.601562 -2.03125 19.6875 -2.3125 C 20.769531 -2.59375 21.859375 -2.925781 22.953125 -3.3125 L 22.953125 3.984375 Z M 1.828125 3.984375 "/></g></g><g style="fill:#ffffff;fill-opacity:1;"><g transform="translate(207.495109, 55.573799)"><path style="stroke:none" d="M 27.90625 -7.953125 L 27.90625 -6.125 C 27.90625 -4.5 27.582031 -3.03125 26.9375 -1.71875 C 26.300781 -0.40625 25.394531 0.703125 24.21875 1.609375 C 23.050781 2.523438 21.644531 3.226562 20 3.71875 C 18.363281 4.207031 16.5625 4.453125 14.59375 4.453125 C 12.625 4.453125 10.816406 4.179688 9.171875 3.640625 C 7.535156 3.109375 6.128906 2.347656 4.953125 1.359375 C 3.785156 0.378906 2.878906 -0.800781 2.234375 -2.1875 C 1.597656 -3.570312 1.28125 -5.128906 1.28125 -6.859375 L 1.28125 -16.015625 C 1.28125 -17.742188 1.597656 -19.300781 2.234375 -20.6875 C 2.878906 -22.070312 3.785156 -23.253906 4.953125 -24.234375 C 6.128906 -25.222656 7.535156 -25.984375 9.171875 -26.515625 C 10.816406 -27.054688 12.625 -27.328125 14.59375 -27.328125 C 16.5625 -27.328125 18.363281 -27.082031 20 -26.59375 C 21.644531 -26.113281 23.050781 -25.414062 24.21875 -24.5 C 25.394531 -23.582031 26.300781 -22.46875 26.9375 -21.15625 C 27.582031 -19.84375 27.90625 -18.375 27.90625 -16.75 L 27.90625 -15.28125 L 20.609375 -15.28125 L 20.609375 -16.375 C 20.609375 -18.082031 20.078125 -19.359375 19.015625 -20.203125 C 17.960938 -21.054688 16.488281 -21.484375 14.59375 -21.484375 C 12.695312 -21.484375 11.21875 -20.984375 10.15625 -19.984375 C 9.101562 -18.992188 8.578125 -17.550781 8.578125 -15.65625 L 8.578125 -7.21875 C 8.578125 -5.320312 9.101562 -3.875 10.15625 -2.875 C 11.21875 -1.882812 12.695312 -1.390625 14.59375 -1.390625 C 16.488281 -1.390625 17.960938 -1.8125 19.015625 -2.65625 C 20.078125 -3.507812 20.609375 -4.789062 20.609375 -6.5 L 20.609375 -7.953125 Z M 27.90625 -7.953125 "/></g></g><g style="fill:#ffffff;fill-opacity:1;"><g transform="translate(236.501281, 55.573799)"><path style="stroke:none" d="M 16.671875 3.984375 L 9.375 3.984375 L 9.375 -21.046875 L 0.359375 -21.046875 L 0.359375 -26.890625 L 25.6875 -26.890625 L 25.6875 -21.046875 L 16.671875 -21.046875 Z M 16.671875 3.984375 "/></g></g></g></svg>