<svg xmlns="http://www.w3.org/2000/svg" xmlns:xlink="http://www.w3.org/1999/xlink" width="200" zoomAndPan="magnify" viewBox="0 0 150 74.999997" height="100" preserveAspectRatio="xMidYMid meet" version="1.2"><defs><clipPath id="8a3a95f880"><path d="M 86.59375 63.171875 L 95.25 63.171875 L 95.25 71.828125 L 86.59375 71.828125 Z M 86.59375 63.171875 "/></clipPath><clipPath id="4c79914868"><path d="M 90.921875 63.171875 C 88.53125 63.171875 86.59375 65.109375 86.59375 67.5 C 86.59375 69.890625 88.53125 71.828125 90.921875 71.828125 C 93.3125 71.828125 95.25 69.890625 95.25 67.5 C 95.25 65.109375 93.3125 63.171875 90.921875 63.171875 Z M 90.921875 63.171875 "/></clipPath><clipPath id="2d332cd3cd"><path d="M 86.59375 63.171875 L 95.242188 63.171875 L 95.242188 71.820312 L 86.59375 71.820312 Z M 86.59375 63.171875 "/></clipPath><clipPath id="a43204592e"><path d="M 90.917969 63.171875 C 88.53125 63.171875 86.59375 65.105469 86.59375 67.496094 C 86.59375 69.882812 88.53125 71.820312 90.917969 71.820312 C 93.304688 71.820312 95.242188 69.882812 95.242188 67.496094 C 95.242188 65.105469 93.304688 63.171875 90.917969 63.171875 Z M 90.917969 63.171875 "/></clipPath><clipPath id="a9569c7020"><path d="M 99.34375 63.171875 L 108 63.171875 L 108 71.828125 L 99.34375 71.828125 Z M 99.34375 63.171875 "/></clipPath><clipPath id="daaece0fff"><path d="M 103.671875 63.171875 C 101.28125 63.171875 99.34375 65.109375 99.34375 67.5 C 99.34375 69.890625 101.28125 71.828125 103.671875 71.828125 C 106.0625 71.828125 108 69.890625 108 67.5 C 108 65.109375 106.0625 63.171875 103.671875 63.171875 Z M 103.671875 63.171875 "/></clipPath><clipPath id="41d2e85ade"><path d="M 99.34375 63.171875 L 107.992188 63.171875 L 107.992188 71.820312 L 99.34375 71.820312 Z M 99.34375 63.171875 "/></clipPath><clipPath id="5832600d6b"><path d="M 103.667969 63.171875 C 101.277344 63.171875 99.34375 65.105469 99.34375 67.496094 C 99.34375 69.882812 101.277344 71.820312 103.667969 71.820312 C 106.054688 71.820312 107.992188 69.882812 107.992188 67.496094 C 107.992188 65.105469 106.054688 63.171875 103.667969 63.171875 Z M 103.667969 63.171875 "/></clipPath><clipPath id="8a3b8750ca"><path d="M 112.09375 63.171875 L 120.75 63.171875 L 120.75 71.828125 L 112.09375 71.828125 Z M 112.09375 63.171875 "/></clipPath><clipPath id="c4324bbb6a"><path d="M 116.421875 63.171875 C 114.03125 63.171875 112.09375 65.109375 112.09375 67.5 C 112.09375 69.890625 114.03125 71.828125 116.421875 71.828125 C 118.8125 71.828125 120.75 69.890625 120.75 67.5 C 120.75 65.109375 118.8125 63.171875 116.421875 63.171875 Z M 116.421875 63.171875 "/></clipPath><clipPath id="18f052700d"><path d="M 112.09375 63.171875 L 120.742188 63.171875 L 120.742188 71.820312 L 112.09375 71.820312 Z M 112.09375 63.171875 "/></clipPath><clipPath id="79a64a73c0"><path d="M 116.417969 63.171875 C 114.027344 63.171875 112.09375 65.105469 112.09375 67.496094 C 112.09375 69.882812 114.027344 71.820312 116.417969 71.820312 C 118.804688 71.820312 120.742188 69.882812 120.742188 67.496094 C 120.742188 65.105469 118.804688 63.171875 116.417969 63.171875 Z M 116.417969 63.171875 "/></clipPath><clipPath id="2d0ffb36b5"><path d="M 124.84375 63.171875 L 133.492188 63.171875 L 133.492188 71.820312 L 124.84375 71.820312 Z M 124.84375 63.171875 "/></clipPath><clipPath id="af500be2a9"><path d="M 129.167969 63.171875 C 126.777344 63.171875 124.84375 65.105469 124.84375 67.496094 C 124.84375 69.882812 126.777344 71.820312 129.167969 71.820312 C 131.554688 71.820312 133.492188 69.882812 133.492188 67.496094 C 133.492188 65.105469 131.554688 63.171875 129.167969 63.171875 Z M 129.167969 63.171875 "/></clipPath><clipPath id="efc82e11bb"><path d="M 137.589844 63.171875 L 146.238281 63.171875 L 146.238281 71.820312 L 137.589844 71.820312 Z M 137.589844 63.171875 "/></clipPath><clipPath id="0d1fc2a782"><path d="M 141.914062 63.171875 C 139.527344 63.171875 137.589844 65.105469 137.589844 67.496094 C 137.589844 69.882812 139.527344 71.820312 141.914062 71.820312 C 144.304688 71.820312 146.238281 69.882812 146.238281 67.496094 C 146.238281 65.105469 144.304688 63.171875 141.914062 63.171875 Z M 141.914062 63.171875 "/></clipPath><clipPath id="d79238b86a"><path d="M 5.117188 12.109375 L 13.773438 12.109375 L 13.773438 20.765625 L 5.117188 20.765625 Z M 5.117188 12.109375 "/></clipPath><clipPath id="bbe54ddb4d"><path d="M 9.445312 12.109375 C 7.054688 12.109375 5.117188 14.046875 5.117188 16.4375 C 5.117188 18.828125 7.054688 20.765625 9.445312 20.765625 C 11.835938 20.765625 13.773438 18.828125 13.773438 16.4375 C 13.773438 14.046875 11.835938 12.109375 9.445312 12.109375 Z M 9.445312 12.109375 "/></clipPath><clipPath id="ea89b16f41"><path d="M 5.117188 12.109375 L 13.765625 12.109375 L 13.765625 20.757812 L 5.117188 20.757812 Z M 5.117188 12.109375 "/></clipPath><clipPath id="9525a4c97e"><path d="M 9.441406 12.109375 C 7.054688 12.109375 5.117188 14.042969 5.117188 16.433594 C 5.117188 18.820312 7.054688 20.757812 9.441406 20.757812 C 11.828125 20.757812 13.765625 18.820312 13.765625 16.433594 C 13.765625 14.042969 11.828125 12.109375 9.441406 12.109375 Z M 9.441406 12.109375 "/></clipPath><clipPath id="1b7268ef36"><path d="M 17.867188 12.109375 L 26.523438 12.109375 L 26.523438 20.765625 L 17.867188 20.765625 Z M 17.867188 12.109375 "/></clipPath><clipPath id="d1a852a6d8"><path d="M 22.195312 12.109375 C 19.804688 12.109375 17.867188 14.046875 17.867188 16.4375 C 17.867188 18.828125 19.804688 20.765625 22.195312 20.765625 C 24.585938 20.765625 26.523438 18.828125 26.523438 16.4375 C 26.523438 14.046875 24.585938 12.109375 22.195312 12.109375 Z M 22.195312 12.109375 "/></clipPath><clipPath id="22e2a646c6"><path d="M 17.867188 12.109375 L 26.515625 12.109375 L 26.515625 20.757812 L 17.867188 20.757812 Z M 17.867188 12.109375 "/></clipPath><clipPath id="107337fec6"><path d="M 22.191406 12.109375 C 19.800781 12.109375 17.867188 14.042969 17.867188 16.433594 C 17.867188 18.820312 19.800781 20.757812 22.191406 20.757812 C 24.578125 20.757812 26.515625 18.820312 26.515625 16.433594 C 26.515625 14.042969 24.578125 12.109375 22.191406 12.109375 Z M 22.191406 12.109375 "/></clipPath><clipPath id="46030f0937"><path d="M 30.617188 12.109375 L 39.273438 12.109375 L 39.273438 20.765625 L 30.617188 20.765625 Z M 30.617188 12.109375 "/></clipPath><clipPath id="16ecf50401"><path d="M 34.945312 12.109375 C 32.554688 12.109375 30.617188 14.046875 30.617188 16.4375 C 30.617188 18.828125 32.554688 20.765625 34.945312 20.765625 C 37.335938 20.765625 39.273438 18.828125 39.273438 16.4375 C 39.273438 14.046875 37.335938 12.109375 34.945312 12.109375 Z M 34.945312 12.109375 "/></clipPath><clipPath id="5bb3ccef32"><path d="M 30.617188 12.109375 L 39.265625 12.109375 L 39.265625 20.757812 L 30.617188 20.757812 Z M 30.617188 12.109375 "/></clipPath><clipPath id="e3217a6bca"><path d="M 34.941406 12.109375 C 32.550781 12.109375 30.617188 14.042969 30.617188 16.433594 C 30.617188 18.820312 32.550781 20.757812 34.941406 20.757812 C 37.328125 20.757812 39.265625 18.820312 39.265625 16.433594 C 39.265625 14.042969 37.328125 12.109375 34.941406 12.109375 Z M 34.941406 12.109375 "/></clipPath><clipPath id="d503ee1bcd"><path d="M 43.367188 12.109375 L 52.015625 12.109375 L 52.015625 20.757812 L 43.367188 20.757812 Z M 43.367188 12.109375 "/></clipPath><clipPath id="ef6bbb0616"><path d="M 47.691406 12.109375 C 45.300781 12.109375 43.367188 14.042969 43.367188 16.433594 C 43.367188 18.820312 45.300781 20.757812 47.691406 20.757812 C 50.078125 20.757812 52.015625 18.820312 52.015625 16.433594 C 52.015625 14.042969 50.078125 12.109375 47.691406 12.109375 Z M 47.691406 12.109375 "/></clipPath><clipPath id="2f3c1e7160"><path d="M 56.113281 12.109375 L 64.761719 12.109375 L 64.761719 20.757812 L 56.113281 20.757812 Z M 56.113281 12.109375 "/></clipPath><clipPath id="79375249ed"><path d="M 60.4375 12.109375 C 58.050781 12.109375 56.113281 14.042969 56.113281 16.433594 C 56.113281 18.820312 58.050781 20.757812 60.4375 20.757812 C 62.828125 20.757812 64.761719 18.820312 64.761719 16.433594 C 64.761719 14.042969 62.828125 12.109375 60.4375 12.109375 Z M 60.4375 12.109375 "/></clipPath><clipPath id="74306aa4a6"><path d="M 86.59375 36.707031 L 95.25 36.707031 L 95.25 45.363281 L 86.59375 45.363281 Z M 86.59375 36.707031 "/></clipPath><clipPath id="772bd8e39e"><path d="M 90.921875 36.707031 C 88.53125 36.707031 86.59375 38.644531 86.59375 41.035156 C 86.59375 43.425781 88.53125 45.363281 90.921875 45.363281 C 93.3125 45.363281 95.25 43.425781 95.25 41.035156 C 95.25 38.644531 93.3125 36.707031 90.921875 36.707031 Z M 90.921875 36.707031 "/></clipPath><clipPath id="2e0517350c"><path d="M 86.59375 36.707031 L 95.242188 36.707031 L 95.242188 45.355469 L 86.59375 45.355469 Z M 86.59375 36.707031 "/></clipPath><clipPath id="3985f35b24"><path d="M 90.917969 36.707031 C 88.53125 36.707031 86.59375 38.640625 86.59375 41.03125 C 86.59375 43.417969 88.53125 45.355469 90.917969 45.355469 C 93.304688 45.355469 95.242188 43.417969 95.242188 41.03125 C 95.242188 38.640625 93.304688 36.707031 90.917969 36.707031 Z M 90.917969 36.707031 "/></clipPath><clipPath id="de7da51284"><path d="M 5.117188 36.707031 L 13.773438 36.707031 L 13.773438 45.363281 L 5.117188 45.363281 Z M 5.117188 36.707031 "/></clipPath><clipPath id="bd94d8ae3f"><path d="M 9.445312 36.707031 C 7.054688 36.707031 5.117188 38.644531 5.117188 41.035156 C 5.117188 43.425781 7.054688 45.363281 9.445312 45.363281 C 11.835938 45.363281 13.773438 43.425781 13.773438 41.035156 C 13.773438 38.644531 11.835938 36.707031 9.445312 36.707031 Z M 9.445312 36.707031 "/></clipPath><clipPath id="e59dded583"><path d="M 5.117188 36.707031 L 13.765625 36.707031 L 13.765625 45.355469 L 5.117188 45.355469 Z M 5.117188 36.707031 "/></clipPath><clipPath id="306dbe6267"><path d="M 9.441406 36.707031 C 7.054688 36.707031 5.117188 38.640625 5.117188 41.03125 C 5.117188 43.417969 7.054688 45.355469 9.441406 45.355469 C 11.828125 45.355469 13.765625 43.417969 13.765625 41.03125 C 13.765625 38.640625 11.828125 36.707031 9.441406 36.707031 Z M 9.441406 36.707031 "/></clipPath><clipPath id="2061e3a0e6"><path d="M 5.117188 63.171875 L 13.773438 63.171875 L 13.773438 71.828125 L 5.117188 71.828125 Z M 5.117188 63.171875 "/></clipPath><clipPath id="1498d8ca81"><path d="M 9.445312 63.171875 C 7.054688 63.171875 5.117188 65.109375 5.117188 67.5 C 5.117188 69.890625 7.054688 71.828125 9.445312 71.828125 C 11.835938 71.828125 13.773438 69.890625 13.773438 67.5 C 13.773438 65.109375 11.835938 63.171875 9.445312 63.171875 Z M 9.445312 63.171875 "/></clipPath><clipPath id="87e01ddbea"><path d="M 5.117188 63.171875 L 13.765625 63.171875 L 13.765625 71.820312 L 5.117188 71.820312 Z M 5.117188 63.171875 "/></clipPath><clipPath id="bea3ac2aee"><path d="M 9.441406 63.171875 C 7.054688 63.171875 5.117188 65.105469 5.117188 67.496094 C 5.117188 69.882812 7.054688 71.820312 9.441406 71.820312 C 11.828125 71.820312 13.765625 69.882812 13.765625 67.496094 C 13.765625 65.105469 11.828125 63.171875 9.441406 63.171875 Z M 9.441406 63.171875 "/></clipPath><clipPath id="a1a7e832cc"><path d="M 99.34375 36.707031 L 108 36.707031 L 108 45.363281 L 99.34375 45.363281 Z M 99.34375 36.707031 "/></clipPath><clipPath id="527006478a"><path d="M 103.671875 36.707031 C 101.28125 36.707031 99.34375 38.644531 99.34375 41.035156 C 99.34375 43.425781 101.28125 45.363281 103.671875 45.363281 C 106.0625 45.363281 108 43.425781 108 41.035156 C 108 38.644531 106.0625 36.707031 103.671875 36.707031 Z M 103.671875 36.707031 "/></clipPath><clipPath id="29420b46e6"><path d="M 99.34375 36.707031 L 107.992188 36.707031 L 107.992188 45.355469 L 99.34375 45.355469 Z M 99.34375 36.707031 "/></clipPath><clipPath id="fed00461d3"><path d="M 103.667969 36.707031 C 101.277344 36.707031 99.34375 38.640625 99.34375 41.03125 C 99.34375 43.417969 101.277344 45.355469 103.667969 45.355469 C 106.054688 45.355469 107.992188 43.417969 107.992188 41.03125 C 107.992188 38.640625 106.054688 36.707031 103.667969 36.707031 Z M 103.667969 36.707031 "/></clipPath><clipPath id="6f80a78c61"><path d="M 17.867188 36.707031 L 26.523438 36.707031 L 26.523438 45.363281 L 17.867188 45.363281 Z M 17.867188 36.707031 "/></clipPath><clipPath id="9bc8e83a19"><path d="M 22.195312 36.707031 C 19.804688 36.707031 17.867188 38.644531 17.867188 41.035156 C 17.867188 43.425781 19.804688 45.363281 22.195312 45.363281 C 24.585938 45.363281 26.523438 43.425781 26.523438 41.035156 C 26.523438 38.644531 24.585938 36.707031 22.195312 36.707031 Z M 22.195312 36.707031 "/></clipPath><clipPath id="76bd8c98d2"><path d="M 17.867188 36.707031 L 26.515625 36.707031 L 26.515625 45.355469 L 17.867188 45.355469 Z M 17.867188 36.707031 "/></clipPath><clipPath id="4779093d2f"><path d="M 22.191406 36.707031 C 19.800781 36.707031 17.867188 38.640625 17.867188 41.03125 C 17.867188 43.417969 19.800781 45.355469 22.191406 45.355469 C 24.578125 45.355469 26.515625 43.417969 26.515625 41.03125 C 26.515625 38.640625 24.578125 36.707031 22.191406 36.707031 Z M 22.191406 36.707031 "/></clipPath><clipPath id="21c7ea7ba9"><path d="M 17.867188 63.171875 L 26.523438 63.171875 L 26.523438 71.828125 L 17.867188 71.828125 Z M 17.867188 63.171875 "/></clipPath><clipPath id="9292155c75"><path d="M 22.195312 63.171875 C 19.804688 63.171875 17.867188 65.109375 17.867188 67.5 C 17.867188 69.890625 19.804688 71.828125 22.195312 71.828125 C 24.585938 71.828125 26.523438 69.890625 26.523438 67.5 C 26.523438 65.109375 24.585938 63.171875 22.195312 63.171875 Z M 22.195312 63.171875 "/></clipPath><clipPath id="491c81e7d0"><path d="M 17.867188 63.171875 L 26.515625 63.171875 L 26.515625 71.820312 L 17.867188 71.820312 Z M 17.867188 63.171875 "/></clipPath><clipPath id="9970b6c5a3"><path d="M 22.191406 63.171875 C 19.800781 63.171875 17.867188 65.105469 17.867188 67.496094 C 17.867188 69.882812 19.800781 71.820312 22.191406 71.820312 C 24.578125 71.820312 26.515625 69.882812 26.515625 67.496094 C 26.515625 65.105469 24.578125 63.171875 22.191406 63.171875 Z M 22.191406 63.171875 "/></clipPath><clipPath id="ed4cb72893"><path d="M 112.09375 36.707031 L 120.75 36.707031 L 120.75 45.363281 L 112.09375 45.363281 Z M 112.09375 36.707031 "/></clipPath><clipPath id="f5665e8388"><path d="M 116.421875 36.707031 C 114.03125 36.707031 112.09375 38.644531 112.09375 41.035156 C 112.09375 43.425781 114.03125 45.363281 116.421875 45.363281 C 118.8125 45.363281 120.75 43.425781 120.75 41.035156 C 120.75 38.644531 118.8125 36.707031 116.421875 36.707031 Z M 116.421875 36.707031 "/></clipPath><clipPath id="29fd5a6d11"><path d="M 112.09375 36.707031 L 120.742188 36.707031 L 120.742188 45.355469 L 112.09375 45.355469 Z M 112.09375 36.707031 "/></clipPath><clipPath id="ddbe8a83b3"><path d="M 116.417969 36.707031 C 114.027344 36.707031 112.09375 38.640625 112.09375 41.03125 C 112.09375 43.417969 114.027344 45.355469 116.417969 45.355469 C 118.804688 45.355469 120.742188 43.417969 120.742188 41.03125 C 120.742188 38.640625 118.804688 36.707031 116.417969 36.707031 Z M 116.417969 36.707031 "/></clipPath><clipPath id="862229223b"><path d="M 30.617188 36.707031 L 39.273438 36.707031 L 39.273438 45.363281 L 30.617188 45.363281 Z M 30.617188 36.707031 "/></clipPath><clipPath id="c1d08b358b"><path d="M 34.945312 36.707031 C 32.554688 36.707031 30.617188 38.644531 30.617188 41.035156 C 30.617188 43.425781 32.554688 45.363281 34.945312 45.363281 C 37.335938 45.363281 39.273438 43.425781 39.273438 41.035156 C 39.273438 38.644531 37.335938 36.707031 34.945312 36.707031 Z M 34.945312 36.707031 "/></clipPath><clipPath id="5d974ceb47"><path d="M 30.617188 36.707031 L 39.265625 36.707031 L 39.265625 45.355469 L 30.617188 45.355469 Z M 30.617188 36.707031 "/></clipPath><clipPath id="adf85e721e"><path d="M 34.941406 36.707031 C 32.550781 36.707031 30.617188 38.640625 30.617188 41.03125 C 30.617188 43.417969 32.550781 45.355469 34.941406 45.355469 C 37.328125 45.355469 39.265625 43.417969 39.265625 41.03125 C 39.265625 38.640625 37.328125 36.707031 34.941406 36.707031 Z M 34.941406 36.707031 "/></clipPath><clipPath id="d3babc17a8"><path d="M 30.617188 63.171875 L 39.273438 63.171875 L 39.273438 71.828125 L 30.617188 71.828125 Z M 30.617188 63.171875 "/></clipPath><clipPath id="cc6b5a8369"><path d="M 34.945312 63.171875 C 32.554688 63.171875 30.617188 65.109375 30.617188 67.5 C 30.617188 69.890625 32.554688 71.828125 34.945312 71.828125 C 37.335938 71.828125 39.273438 69.890625 39.273438 67.5 C 39.273438 65.109375 37.335938 63.171875 34.945312 63.171875 Z M 34.945312 63.171875 "/></clipPath><clipPath id="58b43f8894"><path d="M 30.617188 63.171875 L 39.265625 63.171875 L 39.265625 71.820312 L 30.617188 71.820312 Z M 30.617188 63.171875 "/></clipPath><clipPath id="2448fcdd5b"><path d="M 34.941406 63.171875 C 32.550781 63.171875 30.617188 65.105469 30.617188 67.496094 C 30.617188 69.882812 32.550781 71.820312 34.941406 71.820312 C 37.328125 71.820312 39.265625 69.882812 39.265625 67.496094 C 39.265625 65.105469 37.328125 63.171875 34.941406 63.171875 Z M 34.941406 63.171875 "/></clipPath><clipPath id="b6418a46ff"><path d="M 124.84375 36.707031 L 133.5 36.707031 L 133.5 45.363281 L 124.84375 45.363281 Z M 124.84375 36.707031 "/></clipPath><clipPath id="00084f8b0b"><path d="M 129.171875 36.707031 C 126.78125 36.707031 124.84375 38.644531 124.84375 41.035156 C 124.84375 43.425781 126.78125 45.363281 129.171875 45.363281 C 131.5625 45.363281 133.5 43.425781 133.5 41.035156 C 133.5 38.644531 131.5625 36.707031 129.171875 36.707031 Z M 129.171875 36.707031 "/></clipPath><clipPath id="0b2262a286"><path d="M 124.84375 36.707031 L 133.492188 36.707031 L 133.492188 45.355469 L 124.84375 45.355469 Z M 124.84375 36.707031 "/></clipPath><clipPath id="7cb1f9561f"><path d="M 129.167969 36.707031 C 126.777344 36.707031 124.84375 38.640625 124.84375 41.03125 C 124.84375 43.417969 126.777344 45.355469 129.167969 45.355469 C 131.554688 45.355469 133.492188 43.417969 133.492188 41.03125 C 133.492188 38.640625 131.554688 36.707031 129.167969 36.707031 Z M 129.167969 36.707031 "/></clipPath><clipPath id="41fecbb8ea"><path d="M 43.367188 36.707031 L 52.023438 36.707031 L 52.023438 45.363281 L 43.367188 45.363281 Z M 43.367188 36.707031 "/></clipPath><clipPath id="ceb69ddc19"><path d="M 47.695312 36.707031 C 45.304688 36.707031 43.367188 38.644531 43.367188 41.035156 C 43.367188 43.425781 45.304688 45.363281 47.695312 45.363281 C 50.085938 45.363281 52.023438 43.425781 52.023438 41.035156 C 52.023438 38.644531 50.085938 36.707031 47.695312 36.707031 Z M 47.695312 36.707031 "/></clipPath><clipPath id="58a8d9a729"><path d="M 43.367188 36.707031 L 52.015625 36.707031 L 52.015625 45.355469 L 43.367188 45.355469 Z M 43.367188 36.707031 "/></clipPath><clipPath id="f3e2c10cba"><path d="M 47.691406 36.707031 C 45.300781 36.707031 43.367188 38.640625 43.367188 41.03125 C 43.367188 43.417969 45.300781 45.355469 47.691406 45.355469 C 50.078125 45.355469 52.015625 43.417969 52.015625 41.03125 C 52.015625 38.640625 50.078125 36.707031 47.691406 36.707031 Z M 47.691406 36.707031 "/></clipPath><clipPath id="d6972410f6"><path d="M 43.367188 63.171875 L 52.023438 63.171875 L 52.023438 71.828125 L 43.367188 71.828125 Z M 43.367188 63.171875 "/></clipPath><clipPath id="ae34eb70aa"><path d="M 47.695312 63.171875 C 45.304688 63.171875 43.367188 65.109375 43.367188 67.5 C 43.367188 69.890625 45.304688 71.828125 47.695312 71.828125 C 50.085938 71.828125 52.023438 69.890625 52.023438 67.5 C 52.023438 65.109375 50.085938 63.171875 47.695312 63.171875 Z M 47.695312 63.171875 "/></clipPath><clipPath id="03ccbe72cb"><path d="M 43.367188 63.171875 L 52.015625 63.171875 L 52.015625 71.820312 L 43.367188 71.820312 Z M 43.367188 63.171875 "/></clipPath><clipPath id="244b59f75e"><path d="M 47.691406 63.171875 C 45.300781 63.171875 43.367188 65.105469 43.367188 67.496094 C 43.367188 69.882812 45.300781 71.820312 47.691406 71.820312 C 50.078125 71.820312 52.015625 69.882812 52.015625 67.496094 C 52.015625 65.105469 50.078125 63.171875 47.691406 63.171875 Z M 47.691406 63.171875 "/></clipPath><clipPath id="6023de986e"><path d="M 137.589844 36.707031 L 146.238281 36.707031 L 146.238281 45.355469 L 137.589844 45.355469 Z M 137.589844 36.707031 "/></clipPath><clipPath id="2ca1418637"><path d="M 141.914062 36.707031 C 139.527344 36.707031 137.589844 38.640625 137.589844 41.03125 C 137.589844 43.417969 139.527344 45.355469 141.914062 45.355469 C 144.304688 45.355469 146.238281 43.417969 146.238281 41.03125 C 146.238281 38.640625 144.304688 36.707031 141.914062 36.707031 Z M 141.914062 36.707031 "/></clipPath><clipPath id="14d1ebbcd6"><path d="M 56.113281 36.707031 L 64.761719 36.707031 L 64.761719 45.355469 L 56.113281 45.355469 Z M 56.113281 36.707031 "/></clipPath><clipPath id="2a2094f403"><path d="M 60.4375 36.707031 C 58.050781 36.707031 56.113281 38.640625 56.113281 41.03125 C 56.113281 43.417969 58.050781 45.355469 60.4375 45.355469 C 62.828125 45.355469 64.761719 43.417969 64.761719 41.03125 C 64.761719 38.640625 62.828125 36.707031 60.4375 36.707031 Z M 60.4375 36.707031 "/></clipPath><clipPath id="ca47ae4ef1"><path d="M 56.113281 63.171875 L 64.761719 63.171875 L 64.761719 71.820312 L 56.113281 71.820312 Z M 56.113281 63.171875 "/></clipPath><clipPath id="66a61e6111"><path d="M 60.4375 63.171875 C 58.050781 63.171875 56.113281 65.105469 56.113281 67.496094 C 56.113281 69.882812 58.050781 71.820312 60.4375 71.820312 C 62.828125 71.820312 64.761719 69.882812 64.761719 67.496094 C 64.761719 65.105469 62.828125 63.171875 60.4375 63.171875 Z M 60.4375 63.171875 "/></clipPath><clipPath id="f3e57920a2"><path d="M 86.59375 12.109375 L 95.25 12.109375 L 95.25 20.765625 L 86.59375 20.765625 Z M 86.59375 12.109375 "/></clipPath><clipPath id="19593e5eb9"><path d="M 90.921875 12.109375 C 88.53125 12.109375 86.59375 14.046875 86.59375 16.4375 C 86.59375 18.828125 88.53125 20.765625 90.921875 20.765625 C 93.3125 20.765625 95.25 18.828125 95.25 16.4375 C 95.25 14.046875 93.3125 12.109375 90.921875 12.109375 Z M 90.921875 12.109375 "/></clipPath><clipPath id="c7345061a8"><path d="M 86.59375 12.109375 L 95.242188 12.109375 L 95.242188 20.757812 L 86.59375 20.757812 Z M 86.59375 12.109375 "/></clipPath><clipPath id="88225ddf40"><path d="M 90.917969 12.109375 C 88.53125 12.109375 86.59375 14.042969 86.59375 16.433594 C 86.59375 18.820312 88.53125 20.757812 90.917969 20.757812 C 93.304688 20.757812 95.242188 18.820312 95.242188 16.433594 C 95.242188 14.042969 93.304688 12.109375 90.917969 12.109375 Z M 90.917969 12.109375 "/></clipPath><clipPath id="340bea865b"><path d="M 99.34375 12.109375 L 108 12.109375 L 108 20.765625 L 99.34375 20.765625 Z M 99.34375 12.109375 "/></clipPath><clipPath id="6734eae924"><path d="M 103.671875 12.109375 C 101.28125 12.109375 99.34375 14.046875 99.34375 16.4375 C 99.34375 18.828125 101.28125 20.765625 103.671875 20.765625 C 106.0625 20.765625 108 18.828125 108 16.4375 C 108 14.046875 106.0625 12.109375 103.671875 12.109375 Z M 103.671875 12.109375 "/></clipPath><clipPath id="e045bad802"><path d="M 99.34375 12.109375 L 107.992188 12.109375 L 107.992188 20.757812 L 99.34375 20.757812 Z M 99.34375 12.109375 "/></clipPath><clipPath id="199ca5ed5c"><path d="M 103.667969 12.109375 C 101.277344 12.109375 99.34375 14.042969 99.34375 16.433594 C 99.34375 18.820312 101.277344 20.757812 103.667969 20.757812 C 106.054688 20.757812 107.992188 18.820312 107.992188 16.433594 C 107.992188 14.042969 106.054688 12.109375 103.667969 12.109375 Z M 103.667969 12.109375 "/></clipPath><clipPath id="60083fbf02"><path d="M 112.09375 12.109375 L 120.75 12.109375 L 120.75 20.765625 L 112.09375 20.765625 Z M 112.09375 12.109375 "/></clipPath><clipPath id="2947bffaad"><path d="M 116.421875 12.109375 C 114.03125 12.109375 112.09375 14.046875 112.09375 16.4375 C 112.09375 18.828125 114.03125 20.765625 116.421875 20.765625 C 118.8125 20.765625 120.75 18.828125 120.75 16.4375 C 120.75 14.046875 118.8125 12.109375 116.421875 12.109375 Z M 116.421875 12.109375 "/></clipPath><clipPath id="0dce8a7a4a"><path d="M 112.09375 12.109375 L 120.742188 12.109375 L 120.742188 20.757812 L 112.09375 20.757812 Z M 112.09375 12.109375 "/></clipPath><clipPath id="8946aa5cbb"><path d="M 116.417969 12.109375 C 114.027344 12.109375 112.09375 14.042969 112.09375 16.433594 C 112.09375 18.820312 114.027344 20.757812 116.417969 20.757812 C 118.804688 20.757812 120.742188 18.820312 120.742188 16.433594 C 120.742188 14.042969 118.804688 12.109375 116.417969 12.109375 Z M 116.417969 12.109375 "/></clipPath><clipPath id="90d8d49601"><path d="M 124.84375 12.109375 L 133.5 12.109375 L 133.5 20.765625 L 124.84375 20.765625 Z M 124.84375 12.109375 "/></clipPath><clipPath id="f4cc0e1b8a"><path d="M 129.171875 12.109375 C 126.78125 12.109375 124.84375 14.046875 124.84375 16.4375 C 124.84375 18.828125 126.78125 20.765625 129.171875 20.765625 C 131.5625 20.765625 133.5 18.828125 133.5 16.4375 C 133.5 14.046875 131.5625 12.109375 129.171875 12.109375 Z M 129.171875 12.109375 "/></clipPath><clipPath id="f8a1c0ceac"><path d="M 124.84375 12.109375 L 133.492188 12.109375 L 133.492188 20.757812 L 124.84375 20.757812 Z M 124.84375 12.109375 "/></clipPath><clipPath id="08c3abcd11"><path d="M 129.167969 12.109375 C 126.777344 12.109375 124.84375 14.042969 124.84375 16.433594 C 124.84375 18.820312 126.777344 20.757812 129.167969 20.757812 C 131.554688 20.757812 133.492188 18.820312 133.492188 16.433594 C 133.492188 14.042969 131.554688 12.109375 129.167969 12.109375 Z M 129.167969 12.109375 "/></clipPath><clipPath id="5f93d94d2f"><path d="M 137.589844 12.109375 L 146.238281 12.109375 L 146.238281 20.757812 L 137.589844 20.757812 Z M 137.589844 12.109375 "/></clipPath><clipPath id="a229665b39"><path d="M 141.914062 12.109375 C 139.527344 12.109375 137.589844 14.042969 137.589844 16.433594 C 137.589844 18.820312 139.527344 20.757812 141.914062 20.757812 C 144.304688 20.757812 146.238281 18.820312 146.238281 16.433594 C 146.238281 14.042969 144.304688 12.109375 141.914062 12.109375 Z M 141.914062 12.109375 "/></clipPath></defs><g id="95406dff95"><g style="fill:#000000;fill-opacity:1;"><g transform="translate(5.117021, 6.376448)"><path style="stroke:none" d="M 3.09375 -2.578125 C 3.09375 -2.378906 3.046875 -2.191406 2.953125 -2.015625 C 2.859375 -1.847656 2.707031 -1.707031 2.5 -1.59375 C 2.300781 -1.488281 2.050781 -1.4375 1.75 -1.4375 L 1.125 -1.4375 L 1.125 0 L 0.375 0 L 0.375 -3.734375 L 1.75 -3.734375 C 2.039062 -3.734375 2.285156 -3.679688 2.484375 -3.578125 C 2.691406 -3.484375 2.84375 -3.347656 2.9375 -3.171875 C 3.039062 -3.003906 3.09375 -2.804688 3.09375 -2.578125 Z M 1.71875 -2.046875 C 1.925781 -2.046875 2.078125 -2.09375 2.171875 -2.1875 C 2.273438 -2.28125 2.328125 -2.410156 2.328125 -2.578125 C 2.328125 -2.941406 2.125 -3.125 1.71875 -3.125 L 1.125 -3.125 L 1.125 -2.046875 Z M 1.71875 -2.046875 "/></g></g><g style="fill:#000000;fill-opacity:1;"><g transform="translate(8.378279, 6.376448)"><path style="stroke:none" d="M 3.46875 -3.734375 L 3.46875 0 L 2.71875 0 L 2.71875 -1.59375 L 1.125 -1.59375 L 1.125 0 L 0.375 0 L 0.375 -3.734375 L 1.125 -3.734375 L 1.125 -2.203125 L 2.71875 -2.203125 L 2.71875 -3.734375 Z M 3.46875 -3.734375 "/></g></g><g style="fill:#000000;fill-opacity:1;"><g transform="translate(12.224203, 6.376448)"><path style="stroke:none" d="M 2.109375 0.03125 C 1.753906 0.03125 1.429688 -0.046875 1.140625 -0.203125 C 0.847656 -0.367188 0.613281 -0.597656 0.4375 -0.890625 C 0.269531 -1.179688 0.1875 -1.507812 0.1875 -1.875 C 0.1875 -2.238281 0.269531 -2.566406 0.4375 -2.859375 C 0.613281 -3.148438 0.847656 -3.378906 1.140625 -3.546875 C 1.429688 -3.710938 1.753906 -3.796875 2.109375 -3.796875 C 2.460938 -3.796875 2.785156 -3.710938 3.078125 -3.546875 C 3.367188 -3.378906 3.597656 -3.148438 3.765625 -2.859375 C 3.929688 -2.566406 4.015625 -2.238281 4.015625 -1.875 C 4.015625 -1.507812 3.929688 -1.179688 3.765625 -0.890625 C 3.597656 -0.597656 3.363281 -0.367188 3.0625 -0.203125 C 2.769531 -0.046875 2.453125 0.03125 2.109375 0.03125 Z M 2.109375 -0.625 C 2.328125 -0.625 2.519531 -0.675781 2.6875 -0.78125 C 2.863281 -0.882812 3 -1.03125 3.09375 -1.21875 C 3.195312 -1.40625 3.25 -1.625 3.25 -1.875 C 3.25 -2.125 3.195312 -2.34375 3.09375 -2.53125 C 3 -2.71875 2.863281 -2.863281 2.6875 -2.96875 C 2.519531 -3.070312 2.328125 -3.125 2.109375 -3.125 C 1.878906 -3.125 1.675781 -3.070312 1.5 -2.96875 C 1.332031 -2.863281 1.195312 -2.71875 1.09375 -2.53125 C 1 -2.34375 0.953125 -2.125 0.953125 -1.875 C 0.953125 -1.625 1 -1.40625 1.09375 -1.21875 C 1.195312 -1.03125 1.332031 -0.882812 1.5 -0.78125 C 1.675781 -0.675781 1.878906 -0.625 2.109375 -0.625 Z M 2.109375 -0.625 "/></g></g><g style="fill:#000000;fill-opacity:1;"><g transform="translate(16.434873, 6.376448)"><path style="stroke:none" d="M 1.65625 0.03125 C 1.394531 0.03125 1.160156 -0.0078125 0.953125 -0.09375 C 0.742188 -0.1875 0.578125 -0.316406 0.453125 -0.484375 C 0.335938 -0.648438 0.273438 -0.847656 0.265625 -1.078125 L 1.078125 -1.078125 C 1.085938 -0.921875 1.140625 -0.796875 1.234375 -0.703125 C 1.335938 -0.617188 1.472656 -0.578125 1.640625 -0.578125 C 1.816406 -0.578125 1.953125 -0.617188 2.046875 -0.703125 C 2.148438 -0.785156 2.203125 -0.894531 2.203125 -1.03125 C 2.203125 -1.144531 2.164062 -1.238281 2.09375 -1.3125 C 2.03125 -1.382812 1.945312 -1.4375 1.84375 -1.46875 C 1.75 -1.507812 1.613281 -1.554688 1.4375 -1.609375 C 1.1875 -1.679688 0.984375 -1.75 0.828125 -1.8125 C 0.679688 -1.882812 0.550781 -1.992188 0.4375 -2.140625 C 0.332031 -2.285156 0.28125 -2.472656 0.28125 -2.703125 C 0.28125 -2.921875 0.332031 -3.113281 0.4375 -3.28125 C 0.550781 -3.445312 0.707031 -3.570312 0.90625 -3.65625 C 1.113281 -3.75 1.347656 -3.796875 1.609375 -3.796875 C 1.992188 -3.796875 2.304688 -3.703125 2.546875 -3.515625 C 2.785156 -3.328125 2.914062 -3.066406 2.9375 -2.734375 L 2.109375 -2.734375 C 2.109375 -2.859375 2.054688 -2.960938 1.953125 -3.046875 C 1.847656 -3.128906 1.710938 -3.171875 1.546875 -3.171875 C 1.398438 -3.171875 1.28125 -3.132812 1.1875 -3.0625 C 1.101562 -2.988281 1.0625 -2.878906 1.0625 -2.734375 C 1.0625 -2.628906 1.09375 -2.546875 1.15625 -2.484375 C 1.226562 -2.421875 1.3125 -2.367188 1.40625 -2.328125 C 1.507812 -2.285156 1.648438 -2.238281 1.828125 -2.1875 C 2.066406 -2.113281 2.265625 -2.039062 2.421875 -1.96875 C 2.578125 -1.894531 2.707031 -1.785156 2.8125 -1.640625 C 2.925781 -1.503906 2.984375 -1.316406 2.984375 -1.078125 C 2.984375 -0.878906 2.929688 -0.691406 2.828125 -0.515625 C 2.722656 -0.347656 2.570312 -0.210938 2.375 -0.109375 C 2.175781 -0.015625 1.9375 0.03125 1.65625 0.03125 Z M 1.65625 0.03125 "/></g></g><g style="fill:#000000;fill-opacity:1;"><g transform="translate(19.701495, 6.376448)"><path style="stroke:none" d="M 3.46875 -3.734375 L 3.46875 0 L 2.71875 0 L 2.71875 -1.59375 L 1.125 -1.59375 L 1.125 0 L 0.375 0 L 0.375 -3.734375 L 1.125 -3.734375 L 1.125 -2.203125 L 2.71875 -2.203125 L 2.71875 -3.734375 Z M 3.46875 -3.734375 "/></g></g><g style="fill:#000000;fill-opacity:1;"><g transform="translate(23.547418, 6.376448)"><path style="stroke:none" d="M 2.109375 0.03125 C 1.753906 0.03125 1.429688 -0.046875 1.140625 -0.203125 C 0.847656 -0.367188 0.613281 -0.597656 0.4375 -0.890625 C 0.269531 -1.179688 0.1875 -1.507812 0.1875 -1.875 C 0.1875 -2.238281 0.269531 -2.566406 0.4375 -2.859375 C 0.613281 -3.148438 0.847656 -3.378906 1.140625 -3.546875 C 1.429688 -3.710938 1.753906 -3.796875 2.109375 -3.796875 C 2.460938 -3.796875 2.785156 -3.710938 3.078125 -3.546875 C 3.367188 -3.378906 3.597656 -3.148438 3.765625 -2.859375 C 3.929688 -2.566406 4.015625 -2.238281 4.015625 -1.875 C 4.015625 -1.507812 3.929688 -1.179688 3.765625 -0.890625 C 3.597656 -0.597656 3.363281 -0.367188 3.0625 -0.203125 C 2.769531 -0.046875 2.453125 0.03125 2.109375 0.03125 Z M 2.109375 -0.625 C 2.328125 -0.625 2.519531 -0.675781 2.6875 -0.78125 C 2.863281 -0.882812 3 -1.03125 3.09375 -1.21875 C 3.195312 -1.40625 3.25 -1.625 3.25 -1.875 C 3.25 -2.125 3.195312 -2.34375 3.09375 -2.53125 C 3 -2.71875 2.863281 -2.863281 2.6875 -2.96875 C 2.519531 -3.070312 2.328125 -3.125 2.109375 -3.125 C 1.878906 -3.125 1.675781 -3.070312 1.5 -2.96875 C 1.332031 -2.863281 1.195312 -2.71875 1.09375 -2.53125 C 1 -2.34375 0.953125 -2.125 0.953125 -1.875 C 0.953125 -1.625 1 -1.40625 1.09375 -1.21875 C 1.195312 -1.03125 1.332031 -0.882812 1.5 -0.78125 C 1.675781 -0.675781 1.878906 -0.625 2.109375 -0.625 Z M 2.109375 -0.625 "/></g></g><g style="fill:#000000;fill-opacity:1;"><g transform="translate(27.758089, 6.376448)"><path style="stroke:none" d="M 3.09375 -2.578125 C 3.09375 -2.378906 3.046875 -2.191406 2.953125 -2.015625 C 2.859375 -1.847656 2.707031 -1.707031 2.5 -1.59375 C 2.300781 -1.488281 2.050781 -1.4375 1.75 -1.4375 L 1.125 -1.4375 L 1.125 0 L 0.375 0 L 0.375 -3.734375 L 1.75 -3.734375 C 2.039062 -3.734375 2.285156 -3.679688 2.484375 -3.578125 C 2.691406 -3.484375 2.84375 -3.347656 2.9375 -3.171875 C 3.039062 -3.003906 3.09375 -2.804688 3.09375 -2.578125 Z M 1.71875 -2.046875 C 1.925781 -2.046875 2.078125 -2.09375 2.171875 -2.1875 C 2.273438 -2.28125 2.328125 -2.410156 2.328125 -2.578125 C 2.328125 -2.941406 2.125 -3.125 1.71875 -3.125 L 1.125 -3.125 L 1.125 -2.046875 Z M 1.71875 -2.046875 "/></g></g><g style="fill:#000000;fill-opacity:1;"><g transform="translate(5.117021, 30.730542)"><path style="stroke:none" d="M 3.46875 -3.734375 L 3.46875 0 L 2.71875 0 L 2.71875 -1.59375 L 1.125 -1.59375 L 1.125 0 L 0.375 0 L 0.375 -3.734375 L 1.125 -3.734375 L 1.125 -2.203125 L 2.71875 -2.203125 L 2.71875 -3.734375 Z M 3.46875 -3.734375 "/></g></g><g style="fill:#000000;fill-opacity:1;"><g transform="translate(8.962945, 30.730542)"><path style="stroke:none" d="M 2.921875 -3.734375 L 2.921875 -3.140625 L 1.921875 -3.140625 L 1.921875 0 L 1.171875 0 L 1.171875 -3.140625 L 0.171875 -3.140625 L 0.171875 -3.734375 Z M 2.921875 -3.734375 "/></g></g><g style="fill:#000000;fill-opacity:1;"><g transform="translate(12.057922, 30.730542)"><path style="stroke:none" d="M 4.453125 -3.734375 L 4.453125 0 L 3.703125 0 L 3.703125 -2.4375 L 2.703125 0 L 2.125 0 L 1.125 -2.4375 L 1.125 0 L 0.375 0 L 0.375 -3.734375 L 1.21875 -3.734375 L 2.40625 -0.953125 L 3.59375 -3.734375 Z M 4.453125 -3.734375 "/></g></g><g style="fill:#000000;fill-opacity:1;"><g transform="translate(16.880078, 30.730542)"><path style="stroke:none" d="M 1.125 -0.59375 L 2.359375 -0.59375 L 2.359375 0 L 0.375 0 L 0.375 -3.734375 L 1.125 -3.734375 Z M 1.125 -0.59375 "/></g></g><g style="fill:#000000;fill-opacity:1;"><g transform="translate(85.900666, 6.376448)"><path style="stroke:none" d="M 1.125 -3.734375 L 1.125 0 L 0.375 0 L 0.375 -3.734375 Z M 1.125 -3.734375 "/></g></g><g style="fill:#000000;fill-opacity:1;"><g transform="translate(87.391835, 6.376448)"><path style="stroke:none" d="M 1.125 -0.59375 L 2.359375 -0.59375 L 2.359375 0 L 0.375 0 L 0.375 -3.734375 L 1.125 -3.734375 Z M 1.125 -0.59375 "/></g></g><g style="fill:#000000;fill-opacity:1;"><g transform="translate(89.853869, 6.376448)"><path style="stroke:none" d="M 1.125 -0.59375 L 2.359375 -0.59375 L 2.359375 0 L 0.375 0 L 0.375 -3.734375 L 1.125 -3.734375 Z M 1.125 -0.59375 "/></g></g><g style="fill:#000000;fill-opacity:1;"><g transform="translate(92.315903, 6.376448)"><path style="stroke:none" d="M 1.109375 -3.734375 L 1.109375 -1.421875 C 1.109375 -1.171875 1.171875 -0.976562 1.296875 -0.84375 C 1.429688 -0.707031 1.617188 -0.640625 1.859375 -0.640625 C 2.109375 -0.640625 2.296875 -0.707031 2.421875 -0.84375 C 2.554688 -0.976562 2.625 -1.171875 2.625 -1.421875 L 2.625 -3.734375 L 3.375 -3.734375 L 3.375 -1.4375 C 3.375 -1.113281 3.304688 -0.84375 3.171875 -0.625 C 3.035156 -0.40625 2.851562 -0.238281 2.625 -0.125 C 2.394531 -0.0195312 2.140625 0.03125 1.859375 0.03125 C 1.578125 0.03125 1.320312 -0.0195312 1.09375 -0.125 C 0.863281 -0.238281 0.679688 -0.40625 0.546875 -0.625 C 0.421875 -0.84375 0.359375 -1.113281 0.359375 -1.4375 L 0.359375 -3.734375 Z M 1.109375 -3.734375 "/></g></g><g style="fill:#000000;fill-opacity:1;"><g transform="translate(96.054548, 6.376448)"><path style="stroke:none" d="M 1.65625 0.03125 C 1.394531 0.03125 1.160156 -0.0078125 0.953125 -0.09375 C 0.742188 -0.1875 0.578125 -0.316406 0.453125 -0.484375 C 0.335938 -0.648438 0.273438 -0.847656 0.265625 -1.078125 L 1.078125 -1.078125 C 1.085938 -0.921875 1.140625 -0.796875 1.234375 -0.703125 C 1.335938 -0.617188 1.472656 -0.578125 1.640625 -0.578125 C 1.816406 -0.578125 1.953125 -0.617188 2.046875 -0.703125 C 2.148438 -0.785156 2.203125 -0.894531 2.203125 -1.03125 C 2.203125 -1.144531 2.164062 -1.238281 2.09375 -1.3125 C 2.03125 -1.382812 1.945312 -1.4375 1.84375 -1.46875 C 1.75 -1.507812 1.613281 -1.554688 1.4375 -1.609375 C 1.1875 -1.679688 0.984375 -1.75 0.828125 -1.8125 C 0.679688 -1.882812 0.550781 -1.992188 0.4375 -2.140625 C 0.332031 -2.285156 0.28125 -2.472656 0.28125 -2.703125 C 0.28125 -2.921875 0.332031 -3.113281 0.4375 -3.28125 C 0.550781 -3.445312 0.707031 -3.570312 0.90625 -3.65625 C 1.113281 -3.75 1.347656 -3.796875 1.609375 -3.796875 C 1.992188 -3.796875 2.304688 -3.703125 2.546875 -3.515625 C 2.785156 -3.328125 2.914062 -3.066406 2.9375 -2.734375 L 2.109375 -2.734375 C 2.109375 -2.859375 2.054688 -2.960938 1.953125 -3.046875 C 1.847656 -3.128906 1.710938 -3.171875 1.546875 -3.171875 C 1.398438 -3.171875 1.28125 -3.132812 1.1875 -3.0625 C 1.101562 -2.988281 1.0625 -2.878906 1.0625 -2.734375 C 1.0625 -2.628906 1.09375 -2.546875 1.15625 -2.484375 C 1.226562 -2.421875 1.3125 -2.367188 1.40625 -2.328125 C 1.507812 -2.285156 1.648438 -2.238281 1.828125 -2.1875 C 2.066406 -2.113281 2.265625 -2.039062 2.421875 -1.96875 C 2.578125 -1.894531 2.707031 -1.785156 2.8125 -1.640625 C 2.925781 -1.503906 2.984375 -1.316406 2.984375 -1.078125 C 2.984375 -0.878906 2.929688 -0.691406 2.828125 -0.515625 C 2.722656 -0.347656 2.570312 -0.210938 2.375 -0.109375 C 2.175781 -0.015625 1.9375 0.03125 1.65625 0.03125 Z M 1.65625 0.03125 "/></g></g><g style="fill:#000000;fill-opacity:1;"><g transform="translate(99.32117, 6.376448)"><path style="stroke:none" d="M 2.921875 -3.734375 L 2.921875 -3.140625 L 1.921875 -3.140625 L 1.921875 0 L 1.171875 0 L 1.171875 -3.140625 L 0.171875 -3.140625 L 0.171875 -3.734375 Z M 2.921875 -3.734375 "/></g></g><g style="fill:#000000;fill-opacity:1;"><g transform="translate(102.416146, 6.376448)"><path style="stroke:none" d="M 2.296875 0 L 1.46875 -1.453125 L 1.125 -1.453125 L 1.125 0 L 0.375 0 L 0.375 -3.734375 L 1.78125 -3.734375 C 2.0625 -3.734375 2.300781 -3.679688 2.5 -3.578125 C 2.707031 -3.484375 2.863281 -3.347656 2.96875 -3.171875 C 3.070312 -3.003906 3.125 -2.8125 3.125 -2.59375 C 3.125 -2.34375 3.050781 -2.117188 2.90625 -1.921875 C 2.769531 -1.722656 2.554688 -1.585938 2.265625 -1.515625 L 3.171875 0 Z M 1.125 -2.015625 L 1.75 -2.015625 C 1.945312 -2.015625 2.097656 -2.0625 2.203125 -2.15625 C 2.304688 -2.257812 2.359375 -2.398438 2.359375 -2.578125 C 2.359375 -2.742188 2.304688 -2.875 2.203125 -2.96875 C 2.097656 -3.070312 1.945312 -3.125 1.75 -3.125 L 1.125 -3.125 Z M 1.125 -2.015625 "/></g></g><g style="fill:#000000;fill-opacity:1;"><g transform="translate(105.854414, 6.376448)"><path style="stroke:none" d="M 2.65625 -0.71875 L 1.171875 -0.71875 L 0.921875 0 L 0.140625 0 L 1.484375 -3.75 L 2.359375 -3.75 L 3.703125 0 L 2.90625 0 Z M 2.453125 -1.3125 L 1.921875 -2.875 L 1.375 -1.3125 Z M 2.453125 -1.3125 "/></g></g><g style="fill:#000000;fill-opacity:1;"><g transform="translate(109.694973, 6.376448)"><path style="stroke:none" d="M 2.921875 -3.734375 L 2.921875 -3.140625 L 1.921875 -3.140625 L 1.921875 0 L 1.171875 0 L 1.171875 -3.140625 L 0.171875 -3.140625 L 0.171875 -3.734375 Z M 2.921875 -3.734375 "/></g></g><g style="fill:#000000;fill-opacity:1;"><g transform="translate(112.78995, 6.376448)"><path style="stroke:none" d="M 1.125 -3.140625 L 1.125 -2.203125 L 2.375 -2.203125 L 2.375 -1.609375 L 1.125 -1.609375 L 1.125 -0.609375 L 2.546875 -0.609375 L 2.546875 0 L 0.375 0 L 0.375 -3.75 L 2.546875 -3.75 L 2.546875 -3.140625 Z M 1.125 -3.140625 "/></g></g><g style="fill:#000000;fill-opacity:1;"><g transform="translate(5.117021, 58.533102)"><path style="stroke:none" d="M 2.6875 -3.734375 L 2.6875 -3.140625 L 1.125 -3.140625 L 1.125 -2.171875 L 2.3125 -2.171875 L 2.3125 -1.578125 L 1.125 -1.578125 L 1.125 0 L 0.375 0 L 0.375 -3.734375 Z M 2.6875 -3.734375 "/></g></g><g style="fill:#000000;fill-opacity:1;"><g transform="translate(7.959894, 58.533102)"><path style="stroke:none" d="M 1.125 -3.734375 L 1.125 0 L 0.375 0 L 0.375 -3.734375 Z M 1.125 -3.734375 "/></g></g><g style="fill:#000000;fill-opacity:1;"><g transform="translate(9.451063, 58.533102)"><path style="stroke:none" d="M 2.96875 -2.609375 C 2.882812 -2.765625 2.765625 -2.882812 2.609375 -2.96875 C 2.460938 -3.050781 2.289062 -3.09375 2.09375 -3.09375 C 1.875 -3.09375 1.675781 -3.039062 1.5 -2.9375 C 1.332031 -2.84375 1.195312 -2.703125 1.09375 -2.515625 C 1 -2.328125 0.953125 -2.113281 0.953125 -1.875 C 0.953125 -1.625 1 -1.40625 1.09375 -1.21875 C 1.195312 -1.03125 1.335938 -0.882812 1.515625 -0.78125 C 1.691406 -0.6875 1.894531 -0.640625 2.125 -0.640625 C 2.414062 -0.640625 2.648438 -0.710938 2.828125 -0.859375 C 3.015625 -1.015625 3.132812 -1.226562 3.1875 -1.5 L 1.90625 -1.5 L 1.90625 -2.078125 L 3.921875 -2.078125 L 3.921875 -1.421875 C 3.878906 -1.160156 3.773438 -0.921875 3.609375 -0.703125 C 3.441406 -0.484375 3.226562 -0.304688 2.96875 -0.171875 C 2.707031 -0.0351562 2.414062 0.03125 2.09375 0.03125 C 1.738281 0.03125 1.414062 -0.046875 1.125 -0.203125 C 0.832031 -0.367188 0.601562 -0.597656 0.4375 -0.890625 C 0.269531 -1.179688 0.1875 -1.507812 0.1875 -1.875 C 0.1875 -2.238281 0.269531 -2.566406 0.4375 -2.859375 C 0.601562 -3.148438 0.832031 -3.378906 1.125 -3.546875 C 1.414062 -3.710938 1.738281 -3.796875 2.09375 -3.796875 C 2.519531 -3.796875 2.882812 -3.691406 3.1875 -3.484375 C 3.5 -3.273438 3.71875 -2.984375 3.84375 -2.609375 Z M 2.96875 -2.609375 "/></g></g><g style="fill:#000000;fill-opacity:1;"><g transform="translate(13.570546, 58.533102)"><path style="stroke:none" d="M 1.125 -3.734375 L 1.125 0 L 0.375 0 L 0.375 -3.734375 Z M 1.125 -3.734375 "/></g></g><g style="fill:#000000;fill-opacity:1;"><g transform="translate(15.061715, 58.533102)"><path style="stroke:none" d="M 4.453125 -3.734375 L 4.453125 0 L 3.703125 0 L 3.703125 -2.4375 L 2.703125 0 L 2.125 0 L 1.125 -2.4375 L 1.125 0 L 0.375 0 L 0.375 -3.734375 L 1.21875 -3.734375 L 2.40625 -0.953125 L 3.59375 -3.734375 Z M 4.453125 -3.734375 "/></g></g><g style="fill:#000000;fill-opacity:1;"><g transform="translate(19.883871, 58.533102)"><path style="stroke:none" d="M 2.65625 -0.71875 L 1.171875 -0.71875 L 0.921875 0 L 0.140625 0 L 1.484375 -3.75 L 2.359375 -3.75 L 3.703125 0 L 2.90625 0 Z M 2.453125 -1.3125 L 1.921875 -2.875 L 1.375 -1.3125 Z M 2.453125 -1.3125 "/></g></g><g style="fill:#000000;fill-opacity:1;"><g transform="translate(86.593539, 30.730542)"><path style="stroke:none" d="M 0.1875 -1.875 C 0.1875 -2.238281 0.269531 -2.566406 0.4375 -2.859375 C 0.601562 -3.148438 0.828125 -3.378906 1.109375 -3.546875 C 1.398438 -3.710938 1.722656 -3.796875 2.078125 -3.796875 C 2.503906 -3.796875 2.875 -3.6875 3.1875 -3.46875 C 3.5 -3.25 3.71875 -2.953125 3.84375 -2.578125 L 2.984375 -2.578125 C 2.890625 -2.753906 2.765625 -2.882812 2.609375 -2.96875 C 2.460938 -3.0625 2.285156 -3.109375 2.078125 -3.109375 C 1.859375 -3.109375 1.664062 -3.054688 1.5 -2.953125 C 1.332031 -2.859375 1.195312 -2.71875 1.09375 -2.53125 C 1 -2.34375 0.953125 -2.125 0.953125 -1.875 C 0.953125 -1.625 1 -1.40625 1.09375 -1.21875 C 1.195312 -1.03125 1.332031 -0.882812 1.5 -0.78125 C 1.664062 -0.6875 1.859375 -0.640625 2.078125 -0.640625 C 2.285156 -0.640625 2.460938 -0.679688 2.609375 -0.765625 C 2.765625 -0.859375 2.890625 -0.992188 2.984375 -1.171875 L 3.84375 -1.171875 C 3.71875 -0.796875 3.5 -0.5 3.1875 -0.28125 C 2.875 -0.0703125 2.503906 0.03125 2.078125 0.03125 C 1.722656 0.03125 1.398438 -0.046875 1.109375 -0.203125 C 0.828125 -0.367188 0.601562 -0.597656 0.4375 -0.890625 C 0.269531 -1.179688 0.1875 -1.507812 0.1875 -1.875 Z M 0.1875 -1.875 "/></g></g><g style="fill:#000000;fill-opacity:1;"><g transform="translate(90.713023, 30.730542)"><path style="stroke:none" d="M 1.65625 0.03125 C 1.394531 0.03125 1.160156 -0.0078125 0.953125 -0.09375 C 0.742188 -0.1875 0.578125 -0.316406 0.453125 -0.484375 C 0.335938 -0.648438 0.273438 -0.847656 0.265625 -1.078125 L 1.078125 -1.078125 C 1.085938 -0.921875 1.140625 -0.796875 1.234375 -0.703125 C 1.335938 -0.617188 1.472656 -0.578125 1.640625 -0.578125 C 1.816406 -0.578125 1.953125 -0.617188 2.046875 -0.703125 C 2.148438 -0.785156 2.203125 -0.894531 2.203125 -1.03125 C 2.203125 -1.144531 2.164062 -1.238281 2.09375 -1.3125 C 2.03125 -1.382812 1.945312 -1.4375 1.84375 -1.46875 C 1.75 -1.507812 1.613281 -1.554688 1.4375 -1.609375 C 1.1875 -1.679688 0.984375 -1.75 0.828125 -1.8125 C 0.679688 -1.882812 0.550781 -1.992188 0.4375 -2.140625 C 0.332031 -2.285156 0.28125 -2.472656 0.28125 -2.703125 C 0.28125 -2.921875 0.332031 -3.113281 0.4375 -3.28125 C 0.550781 -3.445312 0.707031 -3.570312 0.90625 -3.65625 C 1.113281 -3.75 1.347656 -3.796875 1.609375 -3.796875 C 1.992188 -3.796875 2.304688 -3.703125 2.546875 -3.515625 C 2.785156 -3.328125 2.914062 -3.066406 2.9375 -2.734375 L 2.109375 -2.734375 C 2.109375 -2.859375 2.054688 -2.960938 1.953125 -3.046875 C 1.847656 -3.128906 1.710938 -3.171875 1.546875 -3.171875 C 1.398438 -3.171875 1.28125 -3.132812 1.1875 -3.0625 C 1.101562 -2.988281 1.0625 -2.878906 1.0625 -2.734375 C 1.0625 -2.628906 1.09375 -2.546875 1.15625 -2.484375 C 1.226562 -2.421875 1.3125 -2.367188 1.40625 -2.328125 C 1.507812 -2.285156 1.648438 -2.238281 1.828125 -2.1875 C 2.066406 -2.113281 2.265625 -2.039062 2.421875 -1.96875 C 2.578125 -1.894531 2.707031 -1.785156 2.8125 -1.640625 C 2.925781 -1.503906 2.984375 -1.316406 2.984375 -1.078125 C 2.984375 -0.878906 2.929688 -0.691406 2.828125 -0.515625 C 2.722656 -0.347656 2.570312 -0.210938 2.375 -0.109375 C 2.175781 -0.015625 1.9375 0.03125 1.65625 0.03125 Z M 1.65625 0.03125 "/></g></g><g style="fill:#000000;fill-opacity:1;"><g transform="translate(93.979645, 30.730542)"><path style="stroke:none" d="M 1.65625 0.03125 C 1.394531 0.03125 1.160156 -0.0078125 0.953125 -0.09375 C 0.742188 -0.1875 0.578125 -0.316406 0.453125 -0.484375 C 0.335938 -0.648438 0.273438 -0.847656 0.265625 -1.078125 L 1.078125 -1.078125 C 1.085938 -0.921875 1.140625 -0.796875 1.234375 -0.703125 C 1.335938 -0.617188 1.472656 -0.578125 1.640625 -0.578125 C 1.816406 -0.578125 1.953125 -0.617188 2.046875 -0.703125 C 2.148438 -0.785156 2.203125 -0.894531 2.203125 -1.03125 C 2.203125 -1.144531 2.164062 -1.238281 2.09375 -1.3125 C 2.03125 -1.382812 1.945312 -1.4375 1.84375 -1.46875 C 1.75 -1.507812 1.613281 -1.554688 1.4375 -1.609375 C 1.1875 -1.679688 0.984375 -1.75 0.828125 -1.8125 C 0.679688 -1.882812 0.550781 -1.992188 0.4375 -2.140625 C 0.332031 -2.285156 0.28125 -2.472656 0.28125 -2.703125 C 0.28125 -2.921875 0.332031 -3.113281 0.4375 -3.28125 C 0.550781 -3.445312 0.707031 -3.570312 0.90625 -3.65625 C 1.113281 -3.75 1.347656 -3.796875 1.609375 -3.796875 C 1.992188 -3.796875 2.304688 -3.703125 2.546875 -3.515625 C 2.785156 -3.328125 2.914062 -3.066406 2.9375 -2.734375 L 2.109375 -2.734375 C 2.109375 -2.859375 2.054688 -2.960938 1.953125 -3.046875 C 1.847656 -3.128906 1.710938 -3.171875 1.546875 -3.171875 C 1.398438 -3.171875 1.28125 -3.132812 1.1875 -3.0625 C 1.101562 -2.988281 1.0625 -2.878906 1.0625 -2.734375 C 1.0625 -2.628906 1.09375 -2.546875 1.15625 -2.484375 C 1.226562 -2.421875 1.3125 -2.367188 1.40625 -2.328125 C 1.507812 -2.285156 1.648438 -2.238281 1.828125 -2.1875 C 2.066406 -2.113281 2.265625 -2.039062 2.421875 -1.96875 C 2.578125 -1.894531 2.707031 -1.785156 2.8125 -1.640625 C 2.925781 -1.503906 2.984375 -1.316406 2.984375 -1.078125 C 2.984375 -0.878906 2.929688 -0.691406 2.828125 -0.515625 C 2.722656 -0.347656 2.570312 -0.210938 2.375 -0.109375 C 2.175781 -0.015625 1.9375 0.03125 1.65625 0.03125 Z M 1.65625 0.03125 "/></g></g><g clip-rule="nonzero" clip-path="url(#8a3a95f880)"><g clip-rule="nonzero" clip-path="url(#4c79914868)"><path style=" stroke:none;fill-rule:nonzero;fill:#000000;fill-opacity:1;" d="M 86.59375 63.171875 L 95.25 63.171875 L 95.25 71.828125 L 86.59375 71.828125 Z M 86.59375 63.171875 "/></g></g><g clip-rule="nonzero" clip-path="url(#2d332cd3cd)"><g clip-rule="nonzero" clip-path="url(#a43204592e)"><path style="fill:none;stroke-width:2;stroke-linecap:butt;stroke-linejoin:miter;stroke:#000000;stroke-opacity:1;stroke-miterlimit:4;" d="M 5.765907 0.00137328 C 2.583615 0.00137328 0.000281162 2.579498 0.000281162 5.766999 C 0.000281162 8.949291 2.583615 11.532624 5.765907 11.532624 C 8.948199 11.532624 11.531532 8.949291 11.531532 5.766999 C 11.531532 2.579498 8.948199 0.00137328 5.765907 0.00137328 Z M 5.765907 0.00137328 " transform="matrix(0.75,0,0,0.75,86.593539,63.170845)"/></g></g><g clip-rule="nonzero" clip-path="url(#a9569c7020)"><g clip-rule="nonzero" clip-path="url(#daaece0fff)"><path style=" stroke:none;fill-rule:nonzero;fill:#000000;fill-opacity:1;" d="M 99.34375 63.171875 L 108 63.171875 L 108 71.828125 L 99.34375 71.828125 Z M 99.34375 63.171875 "/></g></g><g clip-rule="nonzero" clip-path="url(#41d2e85ade)"><g clip-rule="nonzero" clip-path="url(#5832600d6b)"><path style="fill:none;stroke-width:2;stroke-linecap:butt;stroke-linejoin:miter;stroke:#000000;stroke-opacity:1;stroke-miterlimit:4;" d="M 5.766526 0.00137328 C 2.579025 0.00137328 0.000900151 2.579498 0.000900151 5.766999 C 0.000900151 8.949291 2.579025 11.532624 5.766526 11.532624 C 8.948818 11.532624 11.532151 8.949291 11.532151 5.766999 C 11.532151 2.579498 8.948818 0.00137328 5.766526 0.00137328 Z M 5.766526 0.00137328 " transform="matrix(0.75,0,0,0.75,99.343075,63.170845)"/></g></g><g clip-rule="nonzero" clip-path="url(#8a3b8750ca)"><g clip-rule="nonzero" clip-path="url(#c4324bbb6a)"><path style=" stroke:none;fill-rule:nonzero;fill:#000000;fill-opacity:1;" d="M 112.09375 63.171875 L 120.75 63.171875 L 120.75 71.828125 L 112.09375 71.828125 Z M 112.09375 63.171875 "/></g></g><g clip-rule="nonzero" clip-path="url(#18f052700d)"><g clip-rule="nonzero" clip-path="url(#79a64a73c0)"><path style="fill:none;stroke-width:2;stroke-linecap:butt;stroke-linejoin:miter;stroke:#000000;stroke-opacity:1;stroke-miterlimit:4;" d="M 5.767151 0.00137328 C 2.579651 0.00137328 0.00152554 2.579498 0.00152554 5.766999 C 0.00152554 8.949291 2.579651 11.532624 5.767151 11.532624 C 8.949443 11.532624 11.532776 8.949291 11.532776 5.766999 C 11.532776 2.579498 8.949443 0.00137328 5.767151 0.00137328 Z M 5.767151 0.00137328 " transform="matrix(0.75,0,0,0.75,112.092606,63.170845)"/></g></g><g clip-rule="nonzero" clip-path="url(#2d0ffb36b5)"><g clip-rule="nonzero" clip-path="url(#af500be2a9)"><path style="fill:none;stroke-width:2;stroke-linecap:butt;stroke-linejoin:miter;stroke:#000000;stroke-opacity:1;stroke-miterlimit:4;" d="M 5.767757 0.00137328 C 2.580257 0.00137328 0.00213173 2.579498 0.00213173 5.766999 C 0.00213173 8.949291 2.580257 11.532624 5.767757 11.532624 C 8.950049 11.532624 11.533383 8.949291 11.533383 5.766999 C 11.533383 2.579498 8.950049 0.00137328 5.767757 0.00137328 Z M 5.767757 0.00137328 " transform="matrix(0.75,0,0,0.75,124.842151,63.170845)"/></g></g><g clip-rule="nonzero" clip-path="url(#efc82e11bb)"><g clip-rule="nonzero" clip-path="url(#0d1fc2a782)"><path style="fill:none;stroke-width:2;stroke-linecap:butt;stroke-linejoin:miter;stroke:#000000;stroke-opacity:1;stroke-miterlimit:4;" d="M 5.763155 0.00137328 C 2.580863 0.00137328 -0.00247042 2.579498 -0.00247042 5.766999 C -0.00247042 8.949291 2.580863 11.532624 5.763155 11.532624 C 8.950655 11.532624 11.528781 8.949291 11.528781 5.766999 C 11.528781 2.579498 8.950655 0.00137328 5.763155 0.00137328 Z M 5.763155 0.00137328 " transform="matrix(0.75,0,0,0.75,137.591697,63.170845)"/></g></g><g clip-rule="nonzero" clip-path="url(#d79238b86a)"><g clip-rule="nonzero" clip-path="url(#bbe54ddb4d)"><path style=" stroke:none;fill-rule:nonzero;fill:#000000;fill-opacity:1;" d="M 5.117188 12.109375 L 13.773438 12.109375 L 13.773438 20.765625 L 5.117188 20.765625 Z M 5.117188 12.109375 "/></g></g><g clip-rule="nonzero" clip-path="url(#ea89b16f41)"><g clip-rule="nonzero" clip-path="url(#9525a4c97e)"><path style="fill:none;stroke-width:2;stroke-linecap:butt;stroke-linejoin:miter;stroke:#000000;stroke-opacity:1;stroke-miterlimit:4;" d="M 5.765847 0.00259375 C 2.583555 0.00259375 0.000221704 2.580719 0.000221704 5.768219 C 0.000221704 8.950511 2.583555 11.533845 5.765847 11.533845 C 8.948139 11.533845 11.531473 8.950511 11.531473 5.768219 C 11.531473 2.580719 8.948139 0.00259375 5.765847 0.00259375 Z M 5.765847 0.00259375 " transform="matrix(0.75,0,0,0.75,5.117021,12.10743)"/></g></g><g clip-rule="nonzero" clip-path="url(#1b7268ef36)"><g clip-rule="nonzero" clip-path="url(#d1a852a6d8)"><path style=" stroke:none;fill-rule:nonzero;fill:#000000;fill-opacity:1;" d="M 17.867188 12.109375 L 26.523438 12.109375 L 26.523438 20.765625 L 17.867188 20.765625 Z M 17.867188 12.109375 "/></g></g><g clip-rule="nonzero" clip-path="url(#22e2a646c6)"><g clip-rule="nonzero" clip-path="url(#107337fec6)"><path style="fill:none;stroke-width:2;stroke-linecap:butt;stroke-linejoin:miter;stroke:#000000;stroke-opacity:1;stroke-miterlimit:4;" d="M 5.766462 0.00259375 C 2.578962 0.00259375 0.000836852 2.580719 0.000836852 5.768219 C 0.000836852 8.950511 2.578962 11.533845 5.766462 11.533845 C 8.948754 11.533845 11.532088 8.950511 11.532088 5.768219 C 11.532088 2.580719 8.948754 0.00259375 5.766462 0.00259375 Z M 5.766462 0.00259375 " transform="matrix(0.75,0,0,0.75,17.86656,12.10743)"/></g></g><g clip-rule="nonzero" clip-path="url(#46030f0937)"><g clip-rule="nonzero" clip-path="url(#16ecf50401)"><path style=" stroke:none;fill-rule:nonzero;fill:#000000;fill-opacity:1;" d="M 30.617188 12.109375 L 39.273438 12.109375 L 39.273438 20.765625 L 30.617188 20.765625 Z M 30.617188 12.109375 "/></g></g><g clip-rule="nonzero" clip-path="url(#5bb3ccef32)"><g clip-rule="nonzero" clip-path="url(#e3217a6bca)"><path style="fill:none;stroke-width:2;stroke-linecap:butt;stroke-linejoin:miter;stroke:#000000;stroke-opacity:1;stroke-miterlimit:4;" d="M 5.767077 0.00259375 C 2.579576 0.00259375 0.00145104 2.580719 0.00145104 5.768219 C 0.00145104 8.950511 2.579576 11.533845 5.767077 11.533845 C 8.949368 11.533845 11.532702 8.950511 11.532702 5.768219 C 11.532702 2.580719 8.949368 0.00259375 5.767077 0.00259375 Z M 5.767077 0.00259375 " transform="matrix(0.75,0,0,0.75,30.616099,12.10743)"/></g></g><g clip-rule="nonzero" clip-path="url(#d503ee1bcd)"><g clip-rule="nonzero" clip-path="url(#ef6bbb0616)"><path style="fill:none;stroke-width:2;stroke-linecap:butt;stroke-linejoin:miter;stroke:#000000;stroke-opacity:1;stroke-miterlimit:4;" d="M 5.767698 0.00259375 C 2.580198 0.00259375 0.00207259 2.580719 0.00207259 5.768219 C 0.00207259 8.950511 2.580198 11.533845 5.767698 11.533845 C 8.94999 11.533845 11.533324 8.950511 11.533324 5.768219 C 11.533324 2.580719 8.94999 0.00259375 5.767698 0.00259375 Z M 5.767698 0.00259375 " transform="matrix(0.75,0,0,0.75,43.365633,12.10743)"/></g></g><g clip-rule="nonzero" clip-path="url(#2f3c1e7160)"><g clip-rule="nonzero" clip-path="url(#79375249ed)"><path style="fill:none;stroke-width:2;stroke-linecap:butt;stroke-linejoin:miter;stroke:#000000;stroke-opacity:1;stroke-miterlimit:4;" d="M 5.763102 0.00259375 C 2.58081 0.00259375 -0.00252316 2.580719 -0.00252316 5.768219 C -0.00252316 8.950511 2.58081 11.533845 5.763102 11.533845 C 8.950603 11.533845 11.528728 8.950511 11.528728 5.768219 C 11.528728 2.580719 8.950603 0.00259375 5.763102 0.00259375 Z M 5.763102 0.00259375 " transform="matrix(0.75,0,0,0.75,56.115174,12.10743)"/></g></g><g clip-rule="nonzero" clip-path="url(#74306aa4a6)"><g clip-rule="nonzero" clip-path="url(#772bd8e39e)"><path style=" stroke:none;fill-rule:nonzero;fill:#000000;fill-opacity:1;" d="M 86.59375 36.707031 L 95.25 36.707031 L 95.25 45.363281 L 86.59375 45.363281 Z M 86.59375 36.707031 "/></g></g><g clip-rule="nonzero" clip-path="url(#2e0517350c)"><g clip-rule="nonzero" clip-path="url(#3985f35b24)"><path style="fill:none;stroke-width:2;stroke-linecap:butt;stroke-linejoin:miter;stroke:#000000;stroke-opacity:1;stroke-miterlimit:4;" d="M 5.765907 0.00111206 C 2.583615 0.00111206 0.000281162 2.579237 0.000281162 5.766738 C 0.000281162 8.949029 2.583615 11.532363 5.765907 11.532363 C 8.948199 11.532363 11.531532 8.949029 11.531532 5.766738 C 11.531532 2.579237 8.948199 0.00111206 5.765907 0.00111206 Z M 5.765907 0.00111206 " transform="matrix(0.75,0,0,0.75,86.593539,36.706197)"/></g></g><g clip-rule="nonzero" clip-path="url(#de7da51284)"><g clip-rule="nonzero" clip-path="url(#bd94d8ae3f)"><path style=" stroke:none;fill-rule:nonzero;fill:#000000;fill-opacity:1;" d="M 5.117188 36.707031 L 13.773438 36.707031 L 13.773438 45.363281 L 5.117188 45.363281 Z M 5.117188 36.707031 "/></g></g><g clip-rule="nonzero" clip-path="url(#e59dded583)"><g clip-rule="nonzero" clip-path="url(#306dbe6267)"><path style="fill:none;stroke-width:2;stroke-linecap:butt;stroke-linejoin:miter;stroke:#000000;stroke-opacity:1;stroke-miterlimit:4;" d="M 5.765847 0.00111206 C 2.583555 0.00111206 0.000221704 2.579237 0.000221704 5.766738 C 0.000221704 8.949029 2.583555 11.532363 5.765847 11.532363 C 8.948139 11.532363 11.531473 8.949029 11.531473 5.766738 C 11.531473 2.579237 8.948139 0.00111206 5.765847 0.00111206 Z M 5.765847 0.00111206 " transform="matrix(0.75,0,0,0.75,5.117021,36.706197)"/></g></g><g clip-rule="nonzero" clip-path="url(#2061e3a0e6)"><g clip-rule="nonzero" clip-path="url(#1498d8ca81)"><path style=" stroke:none;fill-rule:nonzero;fill:#000000;fill-opacity:1;" d="M 5.117188 63.171875 L 13.773438 63.171875 L 13.773438 71.828125 L 5.117188 71.828125 Z M 5.117188 63.171875 "/></g></g><g clip-rule="nonzero" clip-path="url(#87e01ddbea)"><g clip-rule="nonzero" clip-path="url(#bea3ac2aee)"><path style="fill:none;stroke-width:2;stroke-linecap:butt;stroke-linejoin:miter;stroke:#000000;stroke-opacity:1;stroke-miterlimit:4;" d="M 5.765847 0.00137328 C 2.583555 0.00137328 0.000221704 2.579498 0.000221704 5.766999 C 0.000221704 8.949291 2.583555 11.532624 5.765847 11.532624 C 8.948139 11.532624 11.531473 8.949291 11.531473 5.766999 C 11.531473 2.579498 8.948139 0.00137328 5.765847 0.00137328 Z M 5.765847 0.00137328 " transform="matrix(0.75,0,0,0.75,5.117021,63.170845)"/></g></g><g clip-rule="nonzero" clip-path="url(#a1a7e832cc)"><g clip-rule="nonzero" clip-path="url(#527006478a)"><path style=" stroke:none;fill-rule:nonzero;fill:#000000;fill-opacity:1;" d="M 99.34375 36.707031 L 108 36.707031 L 108 45.363281 L 99.34375 45.363281 Z M 99.34375 36.707031 "/></g></g><g clip-rule="nonzero" clip-path="url(#29420b46e6)"><g clip-rule="nonzero" clip-path="url(#fed00461d3)"><path style="fill:none;stroke-width:2;stroke-linecap:butt;stroke-linejoin:miter;stroke:#000000;stroke-opacity:1;stroke-miterlimit:4;" d="M 5.766526 0.00111206 C 2.579025 0.00111206 0.000900151 2.579237 0.000900151 5.766738 C 0.000900151 8.949029 2.579025 11.532363 5.766526 11.532363 C 8.948818 11.532363 11.532151 8.949029 11.532151 5.766738 C 11.532151 2.579237 8.948818 0.00111206 5.766526 0.00111206 Z M 5.766526 0.00111206 " transform="matrix(0.75,0,0,0.75,99.343075,36.706197)"/></g></g><g clip-rule="nonzero" clip-path="url(#6f80a78c61)"><g clip-rule="nonzero" clip-path="url(#9bc8e83a19)"><path style=" stroke:none;fill-rule:nonzero;fill:#000000;fill-opacity:1;" d="M 17.867188 36.707031 L 26.523438 36.707031 L 26.523438 45.363281 L 17.867188 45.363281 Z M 17.867188 36.707031 "/></g></g><g clip-rule="nonzero" clip-path="url(#76bd8c98d2)"><g clip-rule="nonzero" clip-path="url(#4779093d2f)"><path style="fill:none;stroke-width:2;stroke-linecap:butt;stroke-linejoin:miter;stroke:#000000;stroke-opacity:1;stroke-miterlimit:4;" d="M 5.766462 0.00111206 C 2.578962 0.00111206 0.000836852 2.579237 0.000836852 5.766738 C 0.000836852 8.949029 2.578962 11.532363 5.766462 11.532363 C 8.948754 11.532363 11.532088 8.949029 11.532088 5.766738 C 11.532088 2.579237 8.948754 0.00111206 5.766462 0.00111206 Z M 5.766462 0.00111206 " transform="matrix(0.75,0,0,0.75,17.86656,36.706197)"/></g></g><g clip-rule="nonzero" clip-path="url(#21c7ea7ba9)"><g clip-rule="nonzero" clip-path="url(#9292155c75)"><path style=" stroke:none;fill-rule:nonzero;fill:#000000;fill-opacity:1;" d="M 17.867188 63.171875 L 26.523438 63.171875 L 26.523438 71.828125 L 17.867188 71.828125 Z M 17.867188 63.171875 "/></g></g><g clip-rule="nonzero" clip-path="url(#491c81e7d0)"><g clip-rule="nonzero" clip-path="url(#9970b6c5a3)"><path style="fill:none;stroke-width:2;stroke-linecap:butt;stroke-linejoin:miter;stroke:#000000;stroke-opacity:1;stroke-miterlimit:4;" d="M 5.766462 0.00137328 C 2.578962 0.00137328 0.000836852 2.579498 0.000836852 5.766999 C 0.000836852 8.949291 2.578962 11.532624 5.766462 11.532624 C 8.948754 11.532624 11.532088 8.949291 11.532088 5.766999 C 11.532088 2.579498 8.948754 0.00137328 5.766462 0.00137328 Z M 5.766462 0.00137328 " transform="matrix(0.75,0,0,0.75,17.86656,63.170845)"/></g></g><g clip-rule="nonzero" clip-path="url(#ed4cb72893)"><g clip-rule="nonzero" clip-path="url(#f5665e8388)"><path style=" stroke:none;fill-rule:nonzero;fill:#000000;fill-opacity:1;" d="M 112.09375 36.707031 L 120.75 36.707031 L 120.75 45.363281 L 112.09375 45.363281 Z M 112.09375 36.707031 "/></g></g><g clip-rule="nonzero" clip-path="url(#29fd5a6d11)"><g clip-rule="nonzero" clip-path="url(#ddbe8a83b3)"><path style="fill:none;stroke-width:2;stroke-linecap:butt;stroke-linejoin:miter;stroke:#000000;stroke-opacity:1;stroke-miterlimit:4;" d="M 5.767151 0.00111206 C 2.579651 0.00111206 0.00152554 2.579237 0.00152554 5.766738 C 0.00152554 8.949029 2.579651 11.532363 5.767151 11.532363 C 8.949443 11.532363 11.532776 8.949029 11.532776 5.766738 C 11.532776 2.579237 8.949443 0.00111206 5.767151 0.00111206 Z M 5.767151 0.00111206 " transform="matrix(0.75,0,0,0.75,112.092606,36.706197)"/></g></g><g clip-rule="nonzero" clip-path="url(#862229223b)"><g clip-rule="nonzero" clip-path="url(#c1d08b358b)"><path style=" stroke:none;fill-rule:nonzero;fill:#000000;fill-opacity:1;" d="M 30.617188 36.707031 L 39.273438 36.707031 L 39.273438 45.363281 L 30.617188 45.363281 Z M 30.617188 36.707031 "/></g></g><g clip-rule="nonzero" clip-path="url(#5d974ceb47)"><g clip-rule="nonzero" clip-path="url(#adf85e721e)"><path style="fill:none;stroke-width:2;stroke-linecap:butt;stroke-linejoin:miter;stroke:#000000;stroke-opacity:1;stroke-miterlimit:4;" d="M 5.767082 0.00111206 C 2.579581 0.00111206 0.00145616 2.579237 0.00145616 5.766738 C 0.00145616 8.949029 2.579581 11.532363 5.767082 11.532363 C 8.949374 11.532363 11.532707 8.949029 11.532707 5.766738 C 11.532707 2.579237 8.949374 0.00111206 5.767082 0.00111206 Z M 5.767082 0.00111206 " transform="matrix(0.75,0,0,0.75,30.616095,36.706197)"/></g></g><g clip-rule="nonzero" clip-path="url(#d3babc17a8)"><g clip-rule="nonzero" clip-path="url(#cc6b5a8369)"><path style=" stroke:none;fill-rule:nonzero;fill:#000000;fill-opacity:1;" d="M 30.617188 63.171875 L 39.273438 63.171875 L 39.273438 71.828125 L 30.617188 71.828125 Z M 30.617188 63.171875 "/></g></g><g clip-rule="nonzero" clip-path="url(#58b43f8894)"><g clip-rule="nonzero" clip-path="url(#2448fcdd5b)"><path style="fill:none;stroke-width:2;stroke-linecap:butt;stroke-linejoin:miter;stroke:#000000;stroke-opacity:1;stroke-miterlimit:4;" d="M 5.767082 0.00137328 C 2.579581 0.00137328 0.00145616 2.579498 0.00145616 5.766999 C 0.00145616 8.949291 2.579581 11.532624 5.767082 11.532624 C 8.949374 11.532624 11.532707 8.949291 11.532707 5.766999 C 11.532707 2.579498 8.949374 0.00137328 5.767082 0.00137328 Z M 5.767082 0.00137328 " transform="matrix(0.75,0,0,0.75,30.616095,63.170845)"/></g></g><g clip-rule="nonzero" clip-path="url(#b6418a46ff)"><g clip-rule="nonzero" clip-path="url(#00084f8b0b)"><path style=" stroke:none;fill-rule:nonzero;fill:#000000;fill-opacity:1;" d="M 124.84375 36.707031 L 133.5 36.707031 L 133.5 45.363281 L 124.84375 45.363281 Z M 124.84375 36.707031 "/></g></g><g clip-rule="nonzero" clip-path="url(#0b2262a286)"><g clip-rule="nonzero" clip-path="url(#7cb1f9561f)"><path style="fill:none;stroke-width:2;stroke-linecap:butt;stroke-linejoin:miter;stroke:#000000;stroke-opacity:1;stroke-miterlimit:4;" d="M 5.767757 0.00111206 C 2.580257 0.00111206 0.00213173 2.579237 0.00213173 5.766738 C 0.00213173 8.949029 2.580257 11.532363 5.767757 11.532363 C 8.950049 11.532363 11.533383 8.949029 11.533383 5.766738 C 11.533383 2.579237 8.950049 0.00111206 5.767757 0.00111206 Z M 5.767757 0.00111206 " transform="matrix(0.75,0,0,0.75,124.842151,36.706197)"/></g></g><g clip-rule="nonzero" clip-path="url(#41fecbb8ea)"><g clip-rule="nonzero" clip-path="url(#ceb69ddc19)"><path style=" stroke:none;fill-rule:nonzero;fill:#000000;fill-opacity:1;" d="M 43.367188 36.707031 L 52.023438 36.707031 L 52.023438 45.363281 L 43.367188 45.363281 Z M 43.367188 36.707031 "/></g></g><g clip-rule="nonzero" clip-path="url(#58a8d9a729)"><g clip-rule="nonzero" clip-path="url(#f3e2c10cba)"><path style="fill:none;stroke-width:2;stroke-linecap:butt;stroke-linejoin:miter;stroke:#000000;stroke-opacity:1;stroke-miterlimit:4;" d="M 5.767698 0.00111206 C 2.580198 0.00111206 0.00207259 2.579237 0.00207259 5.766738 C 0.00207259 8.949029 2.580198 11.532363 5.767698 11.532363 C 8.94999 11.532363 11.533324 8.949029 11.533324 5.766738 C 11.533324 2.579237 8.94999 0.00111206 5.767698 0.00111206 Z M 5.767698 0.00111206 " transform="matrix(0.75,0,0,0.75,43.365633,36.706197)"/></g></g><g clip-rule="nonzero" clip-path="url(#d6972410f6)"><g clip-rule="nonzero" clip-path="url(#ae34eb70aa)"><path style=" stroke:none;fill-rule:nonzero;fill:#000000;fill-opacity:1;" d="M 43.367188 63.171875 L 52.023438 63.171875 L 52.023438 71.828125 L 43.367188 71.828125 Z M 43.367188 63.171875 "/></g></g><g clip-rule="nonzero" clip-path="url(#03ccbe72cb)"><g clip-rule="nonzero" clip-path="url(#244b59f75e)"><path style="fill:none;stroke-width:2;stroke-linecap:butt;stroke-linejoin:miter;stroke:#000000;stroke-opacity:1;stroke-miterlimit:4;" d="M 5.767698 0.00137328 C 2.580198 0.00137328 0.00207259 2.579498 0.00207259 5.766999 C 0.00207259 8.949291 2.580198 11.532624 5.767698 11.532624 C 8.94999 11.532624 11.533324 8.949291 11.533324 5.766999 C 11.533324 2.579498 8.94999 0.00137328 5.767698 0.00137328 Z M 5.767698 0.00137328 " transform="matrix(0.75,0,0,0.75,43.365633,63.170845)"/></g></g><g clip-rule="nonzero" clip-path="url(#6023de986e)"><g clip-rule="nonzero" clip-path="url(#2ca1418637)"><path style="fill:none;stroke-width:2;stroke-linecap:butt;stroke-linejoin:miter;stroke:#000000;stroke-opacity:1;stroke-miterlimit:4;" d="M 5.763155 0.00111206 C 2.580863 0.00111206 -0.00247042 2.579237 -0.00247042 5.766738 C -0.00247042 8.949029 2.580863 11.532363 5.763155 11.532363 C 8.950655 11.532363 11.528781 8.949029 11.528781 5.766738 C 11.528781 2.579237 8.950655 0.00111206 5.763155 0.00111206 Z M 5.763155 0.00111206 " transform="matrix(0.75,0,0,0.75,137.591697,36.706197)"/></g></g><g clip-rule="nonzero" clip-path="url(#14d1ebbcd6)"><g clip-rule="nonzero" clip-path="url(#2a2094f403)"><path style="fill:none;stroke-width:2;stroke-linecap:butt;stroke-linejoin:miter;stroke:#000000;stroke-opacity:1;stroke-miterlimit:4;" d="M 5.763106 0.00111206 C 2.580814 0.00111206 -0.00251996 2.579237 -0.00251996 5.766738 C -0.00251996 8.949029 2.580814 11.532363 5.763106 11.532363 C 8.950606 11.532363 11.528731 8.949029 11.528731 5.766738 C 11.528731 2.579237 8.950606 0.00111206 5.763106 0.00111206 Z M 5.763106 0.00111206 " transform="matrix(0.75,0,0,0.75,56.115171,36.706197)"/></g></g><g clip-rule="nonzero" clip-path="url(#ca47ae4ef1)"><g clip-rule="nonzero" clip-path="url(#66a61e6111)"><path style="fill:none;stroke-width:2;stroke-linecap:butt;stroke-linejoin:miter;stroke:#000000;stroke-opacity:1;stroke-miterlimit:4;" d="M 5.763106 0.00137328 C 2.580814 0.00137328 -0.00251996 2.579498 -0.00251996 5.766999 C -0.00251996 8.949291 2.580814 11.532624 5.763106 11.532624 C 8.950606 11.532624 11.528731 8.949291 11.528731 5.766999 C 11.528731 2.579498 8.950606 0.00137328 5.763106 0.00137328 Z M 5.763106 0.00137328 " transform="matrix(0.75,0,0,0.75,56.115171,63.170845)"/></g></g><g clip-rule="nonzero" clip-path="url(#f3e57920a2)"><g clip-rule="nonzero" clip-path="url(#19593e5eb9)"><path style=" stroke:none;fill-rule:nonzero;fill:#000000;fill-opacity:1;" d="M 86.59375 12.109375 L 95.25 12.109375 L 95.25 20.765625 L 86.59375 20.765625 Z M 86.59375 12.109375 "/></g></g><g clip-rule="nonzero" clip-path="url(#c7345061a8)"><g clip-rule="nonzero" clip-path="url(#88225ddf40)"><path style="fill:none;stroke-width:2;stroke-linecap:butt;stroke-linejoin:miter;stroke:#000000;stroke-opacity:1;stroke-miterlimit:4;" d="M 5.765907 0.00259375 C 2.583615 0.00259375 0.000281162 2.580719 0.000281162 5.768219 C 0.000281162 8.950511 2.583615 11.533845 5.765907 11.533845 C 8.948199 11.533845 11.531532 8.950511 11.531532 5.768219 C 11.531532 2.580719 8.948199 0.00259375 5.765907 0.00259375 Z M 5.765907 0.00259375 " transform="matrix(0.75,0,0,0.75,86.593539,12.10743)"/></g></g><g clip-rule="nonzero" clip-path="url(#340bea865b)"><g clip-rule="nonzero" clip-path="url(#6734eae924)"><path style=" stroke:none;fill-rule:nonzero;fill:#000000;fill-opacity:1;" d="M 99.34375 12.109375 L 108 12.109375 L 108 20.765625 L 99.34375 20.765625 Z M 99.34375 12.109375 "/></g></g><g clip-rule="nonzero" clip-path="url(#e045bad802)"><g clip-rule="nonzero" clip-path="url(#199ca5ed5c)"><path style="fill:none;stroke-width:2;stroke-linecap:butt;stroke-linejoin:miter;stroke:#000000;stroke-opacity:1;stroke-miterlimit:4;" d="M 5.766526 0.00259375 C 2.579025 0.00259375 0.000900151 2.580719 0.000900151 5.768219 C 0.000900151 8.950511 2.579025 11.533845 5.766526 11.533845 C 8.948818 11.533845 11.532151 8.950511 11.532151 5.768219 C 11.532151 2.580719 8.948818 0.00259375 5.766526 0.00259375 Z M 5.766526 0.00259375 " transform="matrix(0.75,0,0,0.75,99.343075,12.10743)"/></g></g><g clip-rule="nonzero" clip-path="url(#60083fbf02)"><g clip-rule="nonzero" clip-path="url(#2947bffaad)"><path style=" stroke:none;fill-rule:nonzero;fill:#000000;fill-opacity:1;" d="M 112.09375 12.109375 L 120.75 12.109375 L 120.75 20.765625 L 112.09375 20.765625 Z M 112.09375 12.109375 "/></g></g><g clip-rule="nonzero" clip-path="url(#0dce8a7a4a)"><g clip-rule="nonzero" clip-path="url(#8946aa5cbb)"><path style="fill:none;stroke-width:2;stroke-linecap:butt;stroke-linejoin:miter;stroke:#000000;stroke-opacity:1;stroke-miterlimit:4;" d="M 5.767151 0.00259375 C 2.579651 0.00259375 0.00152554 2.580719 0.00152554 5.768219 C 0.00152554 8.950511 2.579651 11.533845 5.767151 11.533845 C 8.949443 11.533845 11.532776 8.950511 11.532776 5.768219 C 11.532776 2.580719 8.949443 0.00259375 5.767151 0.00259375 Z M 5.767151 0.00259375 " transform="matrix(0.75,0,0,0.75,112.092606,12.10743)"/></g></g><g clip-rule="nonzero" clip-path="url(#90d8d49601)"><g clip-rule="nonzero" clip-path="url(#f4cc0e1b8a)"><path style=" stroke:none;fill-rule:nonzero;fill:#000000;fill-opacity:1;" d="M 124.84375 12.109375 L 133.5 12.109375 L 133.5 20.765625 L 124.84375 20.765625 Z M 124.84375 12.109375 "/></g></g><g clip-rule="nonzero" clip-path="url(#f8a1c0ceac)"><g clip-rule="nonzero" clip-path="url(#08c3abcd11)"><path style="fill:none;stroke-width:2;stroke-linecap:butt;stroke-linejoin:miter;stroke:#000000;stroke-opacity:1;stroke-miterlimit:4;" d="M 5.767757 0.00259375 C 2.580257 0.00259375 0.00213173 2.580719 0.00213173 5.768219 C 0.00213173 8.950511 2.580257 11.533845 5.767757 11.533845 C 8.950049 11.533845 11.533383 8.950511 11.533383 5.768219 C 11.533383 2.580719 8.950049 0.00259375 5.767757 0.00259375 Z M 5.767757 0.00259375 " transform="matrix(0.75,0,0,0.75,124.842151,12.10743)"/></g></g><g clip-rule="nonzero" clip-path="url(#5f93d94d2f)"><g clip-rule="nonzero" clip-path="url(#a229665b39)"><path style="fill:none;stroke-width:2;stroke-linecap:butt;stroke-linejoin:miter;stroke:#000000;stroke-opacity:1;stroke-miterlimit:4;" d="M 5.763155 0.00259375 C 2.580863 0.00259375 -0.00247042 2.580719 -0.00247042 5.768219 C -0.00247042 8.950511 2.580863 11.533845 5.763155 11.533845 C 8.950655 11.533845 11.528781 8.950511 11.528781 5.768219 C 11.528781 2.580719 8.950655 0.00259375 5.763155 0.00259375 Z M 5.763155 0.00259375 " transform="matrix(0.75,0,0,0.75,137.591697,12.10743)"/></g></g><g style="fill:#000000;fill-opacity:1;"><g transform="translate(85.912385, 58.295356)"><path style="stroke:none" d="M 2.546875 -3.734375 L 2.546875 -1.109375 C 2.546875 -0.742188 2.441406 -0.460938 2.234375 -0.265625 C 2.023438 -0.0664062 1.742188 0.03125 1.390625 0.03125 C 1.035156 0.03125 0.742188 -0.0664062 0.515625 -0.265625 C 0.296875 -0.472656 0.1875 -0.765625 0.1875 -1.140625 L 0.9375 -1.140625 C 0.945312 -0.984375 0.988281 -0.859375 1.0625 -0.765625 C 1.132812 -0.671875 1.238281 -0.625 1.375 -0.625 C 1.507812 -0.625 1.613281 -0.664062 1.6875 -0.75 C 1.757812 -0.84375 1.796875 -0.960938 1.796875 -1.109375 L 1.796875 -3.734375 Z M 2.546875 -3.734375 "/></g></g><g style="fill:#000000;fill-opacity:1;"><g transform="translate(88.965005, 58.295356)"><path style="stroke:none" d="M 3.15625 0.65625 L 2.59375 -0.015625 C 2.4375 0.015625 2.273438 0.03125 2.109375 0.03125 C 1.753906 0.03125 1.429688 -0.046875 1.140625 -0.203125 C 0.847656 -0.367188 0.613281 -0.597656 0.4375 -0.890625 C 0.269531 -1.179688 0.1875 -1.507812 0.1875 -1.875 C 0.1875 -2.238281 0.269531 -2.566406 0.4375 -2.859375 C 0.613281 -3.148438 0.847656 -3.378906 1.140625 -3.546875 C 1.429688 -3.710938 1.753906 -3.796875 2.109375 -3.796875 C 2.460938 -3.796875 2.785156 -3.710938 3.078125 -3.546875 C 3.367188 -3.378906 3.597656 -3.148438 3.765625 -2.859375 C 3.929688 -2.566406 4.015625 -2.238281 4.015625 -1.875 C 4.015625 -1.539062 3.941406 -1.238281 3.796875 -0.96875 C 3.660156 -0.695312 3.472656 -0.476562 3.234375 -0.3125 L 4.09375 0.65625 Z M 0.953125 -1.875 C 0.953125 -1.625 1 -1.40625 1.09375 -1.21875 C 1.195312 -1.03125 1.332031 -0.882812 1.5 -0.78125 C 1.675781 -0.675781 1.878906 -0.625 2.109375 -0.625 C 2.328125 -0.625 2.519531 -0.675781 2.6875 -0.78125 C 2.863281 -0.882812 3 -1.03125 3.09375 -1.21875 C 3.195312 -1.40625 3.25 -1.625 3.25 -1.875 C 3.25 -2.125 3.195312 -2.34375 3.09375 -2.53125 C 3 -2.71875 2.863281 -2.863281 2.6875 -2.96875 C 2.519531 -3.070312 2.328125 -3.125 2.109375 -3.125 C 1.878906 -3.125 1.675781 -3.070312 1.5 -2.96875 C 1.332031 -2.863281 1.195312 -2.71875 1.09375 -2.53125 C 1 -2.34375 0.953125 -2.125 0.953125 -1.875 Z M 0.953125 -1.875 "/></g></g><g style="fill:#000000;fill-opacity:1;"><g transform="translate(93.17976, 58.295356)"><path style="stroke:none" d="M 1.109375 -3.734375 L 1.109375 -1.421875 C 1.109375 -1.171875 1.171875 -0.976562 1.296875 -0.84375 C 1.429688 -0.707031 1.617188 -0.640625 1.859375 -0.640625 C 2.109375 -0.640625 2.296875 -0.707031 2.421875 -0.84375 C 2.554688 -0.976562 2.625 -1.171875 2.625 -1.421875 L 2.625 -3.734375 L 3.375 -3.734375 L 3.375 -1.4375 C 3.375 -1.113281 3.304688 -0.84375 3.171875 -0.625 C 3.035156 -0.40625 2.851562 -0.238281 2.625 -0.125 C 2.394531 -0.0195312 2.140625 0.03125 1.859375 0.03125 C 1.578125 0.03125 1.320312 -0.0195312 1.09375 -0.125 C 0.863281 -0.238281 0.679688 -0.40625 0.546875 -0.625 C 0.421875 -0.84375 0.359375 -1.113281 0.359375 -1.4375 L 0.359375 -3.734375 Z M 1.109375 -3.734375 "/></g></g><g style="fill:#000000;fill-opacity:1;"><g transform="translate(96.912525, 58.295356)"><path style="stroke:none" d="M 1.125 -3.140625 L 1.125 -2.203125 L 2.375 -2.203125 L 2.375 -1.609375 L 1.125 -1.609375 L 1.125 -0.609375 L 2.546875 -0.609375 L 2.546875 0 L 0.375 0 L 0.375 -3.75 L 2.546875 -3.75 L 2.546875 -3.140625 Z M 1.125 -3.140625 "/></g></g><g style="fill:#000000;fill-opacity:1;"><g transform="translate(99.761635, 58.295356)"><path style="stroke:none" d="M 2.296875 0 L 1.46875 -1.453125 L 1.125 -1.453125 L 1.125 0 L 0.375 0 L 0.375 -3.734375 L 1.78125 -3.734375 C 2.0625 -3.734375 2.300781 -3.679688 2.5 -3.578125 C 2.707031 -3.484375 2.863281 -3.347656 2.96875 -3.171875 C 3.070312 -3.003906 3.125 -2.8125 3.125 -2.59375 C 3.125 -2.34375 3.050781 -2.117188 2.90625 -1.921875 C 2.769531 -1.722656 2.554688 -1.585938 2.265625 -1.515625 L 3.171875 0 Z M 1.125 -2.015625 L 1.75 -2.015625 C 1.945312 -2.015625 2.097656 -2.0625 2.203125 -2.15625 C 2.304688 -2.257812 2.359375 -2.398438 2.359375 -2.578125 C 2.359375 -2.742188 2.304688 -2.875 2.203125 -2.96875 C 2.097656 -3.070312 1.945312 -3.125 1.75 -3.125 L 1.125 -3.125 Z M 1.125 -2.015625 "/></g></g><g style="fill:#000000;fill-opacity:1;"><g transform="translate(103.194496, 58.295356)"><path style="stroke:none" d="M 3.34375 -3.734375 L 2.078125 -1.296875 L 2.078125 0 L 1.328125 0 L 1.328125 -1.296875 L 0.0625 -3.734375 L 0.90625 -3.734375 L 1.703125 -2.03125 L 2.515625 -3.734375 Z M 3.34375 -3.734375 "/></g></g></g></svg>