<svg xmlns="http://www.w3.org/2000/svg" xmlns:xlink="http://www.w3.org/1999/xlink" width="450" zoomAndPan="magnify" viewBox="0 0 337.5 89.999999" height="120" preserveAspectRatio="xMidYMid meet" version="1.2"><defs/><g id="9a6bf5296c"><path style=" stroke:none;fill-rule:nonzero;fill:#006eff;fill-opacity:1;" d="M 62.070312 16.25 L 274.914062 16.25 C 278.726562 16.25 282.382812 17.761719 285.078125 20.460938 C 287.773438 23.15625 289.289062 26.8125 289.289062 30.625 L 289.289062 59.375 C 289.289062 63.1875 287.773438 66.84375 285.078125 69.539062 C 282.382812 72.238281 278.726562 73.75 274.914062 73.75 L 62.070312 73.75 C 54.132812 73.75 47.695312 67.316406 47.695312 59.375 L 47.695312 30.625 C 47.695312 22.683594 54.132812 16.25 62.070312 16.25 Z M 62.070312 16.25 "/><g style="fill:#ffffff;fill-opacity:1;"><g transform="translate(68.760207, 56.593676)"><path style="stroke:none" d="M 28.734375 0 L 23.78125 0 L 18.375 -17.3125 L 12.796875 0 L 7.875 0 L 0.3125 -24.09375 L 5.125 -24.09375 L 10.59375 -6.265625 L 16.34375 -24.09375 L 20.609375 -24.09375 L 26.21875 -6.15625 L 31.859375 -24.09375 L 36.265625 -24.09375 Z M 28.734375 0 "/></g></g><g style="fill:#ffffff;fill-opacity:1;"><g transform="translate(105.341243, 56.593676)"><path style="stroke:none" d="M 18.921875 -9.1875 C 18.921875 -9.09375 18.890625 -8.671875 18.828125 -7.921875 L 5.296875 -7.921875 C 5.503906 -6.566406 6.09375 -5.5 7.0625 -4.71875 C 8.039062 -3.9375 9.265625 -3.546875 10.734375 -3.546875 C 12.585938 -3.546875 14.125 -4.1875 15.34375 -5.46875 L 17.71875 -2.75 C 16.039062 -0.757812 13.664062 0.234375 10.59375 0.234375 C 8.664062 0.234375 6.957031 -0.171875 5.46875 -0.984375 C 3.976562 -1.796875 2.828125 -2.914062 2.015625 -4.34375 C 1.203125 -5.78125 0.796875 -7.40625 0.796875 -9.21875 C 0.796875 -11.03125 1.191406 -12.648438 1.984375 -14.078125 C 2.773438 -15.515625 3.867188 -16.632812 5.265625 -17.4375 C 6.660156 -18.25 8.21875 -18.65625 9.9375 -18.65625 C 11.632812 -18.65625 13.164062 -18.265625 14.53125 -17.484375 C 15.894531 -16.703125 16.96875 -15.597656 17.75 -14.171875 C 18.53125 -12.753906 18.921875 -11.09375 18.921875 -9.1875 Z M 9.984375 -15.109375 C 8.722656 -15.109375 7.660156 -14.707031 6.796875 -13.90625 C 5.929688 -13.101562 5.410156 -12.035156 5.234375 -10.703125 L 14.734375 -10.703125 C 14.546875 -12.003906 14.019531 -13.0625 13.15625 -13.875 C 12.300781 -14.695312 11.242188 -15.109375 9.984375 -15.109375 Z M 9.984375 -15.109375 "/></g></g><g style="fill:#ffffff;fill-opacity:1;"><g transform="translate(125.059899, 56.593676)"><path style="stroke:none" d="M 12.28125 -18.65625 C 13.914062 -18.65625 15.390625 -18.265625 16.703125 -17.484375 C 18.023438 -16.703125 19.0625 -15.59375 19.8125 -14.15625 C 20.570312 -12.726562 20.953125 -11.082031 20.953125 -9.21875 C 20.953125 -7.34375 20.570312 -5.6875 19.8125 -4.25 C 19.0625 -2.8125 18.023438 -1.703125 16.703125 -0.921875 C 15.390625 -0.148438 13.914062 0.234375 12.28125 0.234375 C 11.019531 0.234375 9.894531 -0.00390625 8.90625 -0.484375 C 7.925781 -0.960938 7.113281 -1.660156 6.46875 -2.578125 L 6.46875 0 L 2.203125 0 L 2.203125 -25.53125 L 6.671875 -25.53125 L 6.671875 -16 C 7.316406 -16.875 8.117188 -17.535156 9.078125 -17.984375 C 10.046875 -18.429688 11.113281 -18.65625 12.28125 -18.65625 Z M 11.5625 -3.609375 C 12.976562 -3.609375 14.148438 -4.117188 15.078125 -5.140625 C 16.015625 -6.160156 16.484375 -7.519531 16.484375 -9.21875 C 16.484375 -10.914062 16.015625 -12.269531 15.078125 -13.28125 C 14.148438 -14.289062 12.976562 -14.796875 11.5625 -14.796875 C 10.113281 -14.796875 8.925781 -14.289062 8 -13.28125 C 7.070312 -12.269531 6.609375 -10.914062 6.609375 -9.21875 C 6.609375 -7.519531 7.070312 -6.160156 8 -5.140625 C 8.925781 -4.117188 10.113281 -3.609375 11.5625 -3.609375 Z M 11.5625 -3.609375 "/></g></g><g style="fill:#ffffff;fill-opacity:1;"><g transform="translate(146.843335, 56.593676)"><path style="stroke:none" d=""/></g></g><g style="fill:#ffffff;fill-opacity:1;"><g transform="translate(153.657108, 56.593676)"><path style="stroke:none" d="M 12.421875 -24.09375 C 14.898438 -24.09375 17.082031 -23.59375 18.96875 -22.59375 C 20.863281 -21.59375 22.335938 -20.179688 23.390625 -18.359375 C 24.453125 -16.535156 24.984375 -14.429688 24.984375 -12.046875 C 24.984375 -9.660156 24.453125 -7.554688 23.390625 -5.734375 C 22.335938 -3.910156 20.863281 -2.5 18.96875 -1.5 C 17.082031 -0.5 14.898438 0 12.421875 0 L 2.3125 0 L 2.3125 -24.09375 Z M 12.1875 -4.03125 C 13.8125 -4.03125 15.238281 -4.351562 16.46875 -5 C 17.695312 -5.65625 18.640625 -6.59375 19.296875 -7.8125 C 19.960938 -9.03125 20.296875 -10.441406 20.296875 -12.046875 C 20.296875 -13.648438 19.960938 -15.054688 19.296875 -16.265625 C 18.640625 -17.484375 17.695312 -18.425781 16.46875 -19.09375 C 15.238281 -19.757812 13.8125 -20.09375 12.1875 -20.09375 L 6.921875 -20.09375 L 6.921875 -4.03125 Z M 12.1875 -4.03125 "/></g></g><g style="fill:#ffffff;fill-opacity:1;"><g transform="translate(179.501284, 56.593676)"><path style="stroke:none" d="M 18.921875 -9.1875 C 18.921875 -9.09375 18.890625 -8.671875 18.828125 -7.921875 L 5.296875 -7.921875 C 5.503906 -6.566406 6.09375 -5.5 7.0625 -4.71875 C 8.039062 -3.9375 9.265625 -3.546875 10.734375 -3.546875 C 12.585938 -3.546875 14.125 -4.1875 15.34375 -5.46875 L 17.71875 -2.75 C 16.039062 -0.757812 13.664062 0.234375 10.59375 0.234375 C 8.664062 0.234375 6.957031 -0.171875 5.46875 -0.984375 C 3.976562 -1.796875 2.828125 -2.914062 2.015625 -4.34375 C 1.203125 -5.78125 0.796875 -7.40625 0.796875 -9.21875 C 0.796875 -11.03125 1.191406 -12.648438 1.984375 -14.078125 C 2.773438 -15.515625 3.867188 -16.632812 5.265625 -17.4375 C 6.660156 -18.25 8.21875 -18.65625 9.9375 -18.65625 C 11.632812 -18.65625 13.164062 -18.265625 14.53125 -17.484375 C 15.894531 -16.703125 16.96875 -15.597656 17.75 -14.171875 C 18.53125 -12.753906 18.921875 -11.09375 18.921875 -9.1875 Z M 9.984375 -15.109375 C 8.722656 -15.109375 7.660156 -14.707031 6.796875 -13.90625 C 5.929688 -13.101562 5.410156 -12.035156 5.234375 -10.703125 L 14.734375 -10.703125 C 14.546875 -12.003906 14.019531 -13.0625 13.15625 -13.875 C 12.300781 -14.695312 11.242188 -15.109375 9.984375 -15.109375 Z M 9.984375 -15.109375 "/></g></g><g style="fill:#ffffff;fill-opacity:1;"><g transform="translate(199.21994, 56.593676)"><path style="stroke:none" d="M 7.8125 0.234375 C 6.382812 0.234375 4.988281 0.0390625 3.625 -0.34375 C 2.257812 -0.726562 1.164062 -1.222656 0.34375 -1.828125 L 1.859375 -5.203125 C 2.640625 -4.648438 3.578125 -4.203125 4.671875 -3.859375 C 5.773438 -3.515625 6.890625 -3.34375 8.015625 -3.34375 C 10.398438 -3.34375 11.59375 -4.003906 11.59375 -5.328125 C 11.59375 -5.953125 11.28125 -6.390625 10.65625 -6.640625 C 10.039062 -6.890625 9.054688 -7.128906 7.703125 -7.359375 C 6.285156 -7.585938 5.117188 -7.859375 4.203125 -8.171875 C 3.285156 -8.484375 2.492188 -9.007812 1.828125 -9.75 C 1.160156 -10.5 0.828125 -11.539062 0.828125 -12.875 C 0.828125 -14 1.132812 -14.992188 1.75 -15.859375 C 2.375 -16.734375 3.269531 -17.414062 4.4375 -17.90625 C 5.601562 -18.40625 7.003906 -18.65625 8.640625 -18.65625 C 9.847656 -18.65625 11.054688 -18.507812 12.265625 -18.21875 C 13.472656 -17.9375 14.46875 -17.53125 15.25 -17 L 13.734375 -13.65625 C 12.191406 -14.625 10.492188 -15.109375 8.640625 -15.109375 C 7.441406 -15.109375 6.550781 -14.914062 5.96875 -14.53125 C 5.382812 -14.15625 5.09375 -13.660156 5.09375 -13.046875 C 5.09375 -12.378906 5.40625 -11.910156 6.03125 -11.640625 C 6.664062 -11.378906 7.679688 -11.125 9.078125 -10.875 C 10.503906 -10.625 11.664062 -10.347656 12.5625 -10.046875 C 13.457031 -9.742188 14.226562 -9.222656 14.875 -8.484375 C 15.53125 -7.753906 15.859375 -6.738281 15.859375 -5.4375 C 15.859375 -3.738281 15.144531 -2.367188 13.71875 -1.328125 C 12.300781 -0.285156 10.332031 0.234375 7.8125 0.234375 Z M 7.8125 0.234375 "/></g></g><g style="fill:#ffffff;fill-opacity:1;"><g transform="translate(215.56612, 56.593676)"><path style="stroke:none" d="M 4.4375 -21.328125 C 3.613281 -21.328125 2.929688 -21.582031 2.390625 -22.09375 C 1.847656 -22.613281 1.578125 -23.253906 1.578125 -24.015625 C 1.578125 -24.773438 1.847656 -25.410156 2.390625 -25.921875 C 2.929688 -26.441406 3.613281 -26.703125 4.4375 -26.703125 C 5.257812 -26.703125 5.9375 -26.453125 6.46875 -25.953125 C 7 -25.460938 7.265625 -24.84375 7.265625 -24.09375 C 7.265625 -23.28125 7 -22.613281 6.46875 -22.09375 C 5.9375 -21.582031 5.257812 -21.328125 4.4375 -21.328125 Z M 6.671875 -18.40625 L 6.671875 0 L 2.203125 0 L 2.203125 -18.40625 Z M 6.671875 -18.40625 "/></g></g><g style="fill:#ffffff;fill-opacity:1;"><g transform="translate(224.479095, 56.593676)"><path style="stroke:none" d="M 19.859375 -2.890625 C 19.859375 3.648438 16.664062 6.921875 10.28125 6.921875 C 8.59375 6.921875 7 6.695312 5.5 6.25 C 4.007812 5.800781 2.773438 5.148438 1.796875 4.296875 L 3.609375 0.921875 C 4.390625 1.585938 5.347656 2.117188 6.484375 2.515625 C 7.617188 2.921875 8.769531 3.125 9.9375 3.125 C 11.820312 3.125 13.195312 2.679688 14.0625 1.796875 C 14.9375 0.921875 15.375 -0.429688 15.375 -2.265625 L 15.375 -3.546875 C 14.738281 -2.671875 13.914062 -2.003906 12.90625 -1.546875 C 11.894531 -1.085938 10.769531 -0.859375 9.53125 -0.859375 C 7.925781 -0.859375 6.457031 -1.226562 5.125 -1.96875 C 3.789062 -2.71875 2.734375 -3.769531 1.953125 -5.125 C 1.179688 -6.476562 0.796875 -8.023438 0.796875 -9.765625 C 0.796875 -11.515625 1.179688 -13.054688 1.953125 -14.390625 C 2.734375 -15.734375 3.789062 -16.78125 5.125 -17.53125 C 6.457031 -18.28125 7.925781 -18.65625 9.53125 -18.65625 C 10.84375 -18.65625 12.019531 -18.398438 13.0625 -17.890625 C 14.101562 -17.390625 14.957031 -16.65625 15.625 -15.6875 L 15.625 -18.40625 L 19.859375 -18.40625 Z M 10.390625 -4.71875 C 11.859375 -4.71875 13.066406 -5.1875 14.015625 -6.125 C 14.972656 -7.0625 15.453125 -8.273438 15.453125 -9.765625 C 15.453125 -11.265625 14.972656 -12.476562 14.015625 -13.40625 C 13.066406 -14.332031 11.859375 -14.796875 10.390625 -14.796875 C 8.921875 -14.796875 7.707031 -14.332031 6.75 -13.40625 C 5.800781 -12.476562 5.328125 -11.265625 5.328125 -9.765625 C 5.328125 -8.273438 5.800781 -7.0625 6.75 -6.125 C 7.707031 -5.1875 8.921875 -4.71875 10.390625 -4.71875 Z M 10.390625 -4.71875 "/></g></g><g style="fill:#ffffff;fill-opacity:1;"><g transform="translate(246.572237, 56.593676)"><path style="stroke:none" d="M 12.390625 -18.65625 C 14.566406 -18.65625 16.3125 -17.976562 17.625 -16.625 C 18.945312 -15.269531 19.609375 -13.257812 19.609375 -10.59375 L 19.609375 0 L 15.171875 0 L 15.171875 -9.875 C 15.171875 -11.457031 14.832031 -12.640625 14.15625 -13.421875 C 13.476562 -14.203125 12.5 -14.59375 11.21875 -14.59375 C 9.789062 -14.59375 8.660156 -14.132812 7.828125 -13.21875 C 6.992188 -12.300781 6.578125 -10.976562 6.578125 -9.25 L 6.578125 0 L 2.140625 0 L 2.140625 -18.40625 L 6.359375 -18.40625 L 6.359375 -15.890625 C 7.023438 -16.765625 7.878906 -17.441406 8.921875 -17.921875 C 9.972656 -18.410156 11.128906 -18.65625 12.390625 -18.65625 Z M 12.390625 -18.65625 "/></g></g></g></svg>