<svg xmlns="http://www.w3.org/2000/svg" xmlns:xlink="http://www.w3.org/1999/xlink" width="200" zoomAndPan="magnify" viewBox="0 0 150 149.999998" height="200" preserveAspectRatio="xMidYMid meet" version="1.2"><defs/><g id="a4725486d0"><path style=" stroke:none;fill-rule:nonzero;fill:#006eff;fill-opacity:1;" d="M 11.144531 67.949219 C 10.5625 67.726562 10.003906 67.453125 9.472656 67.128906 C 8.941406 66.800781 8.445312 66.429688 7.980469 66.007812 C 7.519531 65.589844 7.101562 65.128906 6.726562 64.632812 C 6.351562 64.132812 6.027344 63.605469 5.753906 63.042969 C 5.476562 62.484375 5.257812 61.90625 5.089844 61.304688 C 4.925781 60.703125 4.816406 60.089844 4.769531 59.46875 C 4.71875 58.847656 4.726562 58.226562 4.792969 57.605469 C 4.859375 56.984375 4.984375 56.378906 5.164062 55.78125 C 5.664062 54.6875 6.191406 53.601562 6.742188 52.535156 C 7.296875 51.464844 7.875 50.410156 8.476562 49.367188 C 9.078125 48.324219 9.707031 47.296875 10.359375 46.285156 C 11.015625 45.277344 11.691406 44.28125 12.390625 43.300781 C 13.09375 42.324219 13.816406 41.363281 14.5625 40.417969 C 15.3125 39.472656 16.082031 38.546875 16.871094 37.640625 C 17.664062 36.734375 18.476562 35.847656 19.3125 34.980469 C 20.148438 34.113281 21 33.265625 21.878906 32.441406 C 22.753906 31.613281 23.648438 30.808594 24.5625 30.027344 C 25.476562 29.242188 26.410156 28.480469 27.359375 27.746094 C 28.3125 27.007812 29.28125 26.292969 30.265625 25.601562 C 31.25 24.910156 32.253906 24.242188 33.269531 23.597656 C 34.289062 22.957031 35.320312 22.335938 36.367188 21.746094 C 37.414062 21.152344 38.476562 20.582031 39.550781 20.042969 C 40.628906 19.5 41.714844 18.984375 42.8125 18.496094 C 43.914062 18.003906 45.023438 17.542969 46.148438 17.105469 C 47.269531 16.671875 48.402344 16.261719 49.542969 15.878906 C 50.683594 15.5 51.835938 15.144531 52.996094 14.820312 C 54.152344 14.496094 55.320312 14.195312 56.492188 13.925781 C 57.664062 13.65625 58.84375 13.417969 60.03125 13.203125 C 61.214844 12.992188 62.402344 12.808594 63.597656 12.652344 C 64.792969 12.496094 65.988281 12.371094 67.1875 12.273438 C 68.386719 12.175781 69.589844 12.105469 70.792969 12.066406 C 71.996094 12.027344 73.199219 12.019531 74.402344 12.035156 C 75.605469 12.054688 76.808594 12.101562 78.011719 12.179688 C 79.210938 12.253906 80.410156 12.359375 81.609375 12.496094 C 82.804688 12.628906 83.996094 12.792969 85.183594 12.984375 C 86.375 13.175781 87.554688 13.398438 88.734375 13.648438 C 89.910156 13.894531 91.082031 14.171875 92.246094 14.476562 C 93.410156 14.785156 94.566406 15.117188 95.714844 15.480469 C 96.863281 15.839844 98.003906 16.230469 99.132812 16.644531 C 100.261719 17.0625 101.382812 17.503906 102.488281 17.976562 C 103.597656 18.445312 104.695312 18.941406 105.777344 19.464844 C 106.863281 19.988281 107.933594 20.539062 108.992188 21.113281 C 110.050781 21.6875 111.09375 22.285156 112.121094 22.914062 C 113.148438 23.539062 114.164062 24.1875 115.160156 24.859375 C 116.15625 25.535156 117.140625 26.234375 118.101562 26.953125 C 119.066406 27.675781 120.011719 28.417969 120.941406 29.1875 C 121.867188 29.953125 122.777344 30.742188 123.667969 31.554688 C 124.554688 32.363281 125.425781 33.195312 126.277344 34.050781 C 127.125 34.902344 127.953125 35.773438 128.761719 36.667969 C 129.570312 37.558594 130.355469 38.472656 131.117188 39.402344 C 131.882812 40.332031 132.621094 41.28125 133.339844 42.25 C 134.058594 43.214844 134.753906 44.199219 135.421875 45.199219 C 136.09375 46.199219 136.738281 47.214844 137.359375 48.246094 C 137.980469 49.277344 138.578125 50.320312 139.148438 51.382812 C 139.71875 52.441406 140.265625 53.515625 140.785156 54.601562 C 141.300781 55.6875 141.796875 56.785156 142.261719 57.894531 C 142.726562 59.003906 143.167969 60.125 143.578125 61.253906 C 143.992188 62.386719 144.375 63.527344 144.734375 64.675781 C 145.089844 65.828125 145.417969 66.984375 145.71875 68.148438 C 146.019531 69.316406 146.292969 70.488281 146.539062 71.664062 C 146.785156 72.84375 147 74.027344 147.1875 75.21875 C 147.375 76.40625 147.535156 77.601562 147.664062 78.796875 C 147.792969 79.992188 147.894531 81.191406 147.964844 82.394531 C 148.039062 83.597656 148.082031 84.796875 148.097656 86.003906 C 148.109375 87.207031 148.09375 88.410156 148.050781 89.613281 C 148.007812 90.816406 147.933594 92.015625 147.832031 93.214844 C 147.730469 94.417969 147.601562 95.613281 147.441406 96.804688 C 147.28125 98 147.09375 99.1875 146.875 100.371094 C 146.65625 101.554688 146.414062 102.734375 146.140625 103.90625 C 145.863281 105.078125 145.5625 106.242188 145.234375 107.402344 C 144.902344 108.558594 144.546875 109.707031 144.160156 110.847656 C 143.773438 111.988281 143.359375 113.121094 142.921875 114.238281 C 142.617188 114.785156 142.265625 115.296875 141.867188 115.777344 C 141.46875 116.253906 141.027344 116.691406 140.542969 117.085938 C 140.0625 117.484375 139.546875 117.832031 139 118.128906 C 138.453125 118.429688 137.882812 118.671875 137.289062 118.863281 C 136.695312 119.054688 136.085938 119.1875 135.46875 119.265625 C 134.851562 119.34375 134.230469 119.359375 133.605469 119.320312 C 132.984375 119.28125 132.371094 119.183594 131.765625 119.027344 C 131.164062 118.871094 130.578125 118.660156 130.015625 118.394531 L 112.660156 108.757812 C 112 108.503906 111.371094 108.183594 110.777344 107.796875 C 110.183594 107.40625 109.640625 106.960938 109.140625 106.453125 C 108.644531 105.949219 108.207031 105.398438 107.828125 104.796875 C 107.449219 104.199219 107.136719 103.566406 106.894531 102.902344 C 106.648438 102.234375 106.480469 101.550781 106.382812 100.847656 C 106.285156 100.144531 106.265625 99.441406 106.316406 98.734375 C 106.371094 98.027344 106.5 97.332031 106.703125 96.652344 C 106.90625 95.976562 107.179688 95.324219 107.519531 94.703125 C 107.746094 93.707031 107.929688 92.703125 108.070312 91.691406 C 108.210938 90.679688 108.304688 89.664062 108.359375 88.644531 C 108.410156 87.625 108.414062 86.601562 108.378906 85.582031 C 108.339844 84.5625 108.257812 83.542969 108.132812 82.53125 C 108.003906 81.515625 107.835938 80.511719 107.621094 79.511719 C 107.40625 78.511719 107.148438 77.527344 106.851562 76.550781 C 106.550781 75.574219 106.207031 74.613281 105.824219 73.664062 C 105.441406 72.71875 105.015625 71.789062 104.550781 70.878906 C 104.085938 69.972656 103.582031 69.082031 103.039062 68.21875 C 102.496094 67.351562 101.917969 66.511719 101.304688 65.695312 C 100.6875 64.882812 100.039062 64.09375 99.355469 63.335938 C 98.667969 62.578125 97.953125 61.851562 97.207031 61.152344 C 96.457031 60.457031 95.683594 59.796875 94.878906 59.167969 C 94.070312 58.539062 93.242188 57.945312 92.382812 57.390625 C 91.527344 56.835938 90.648438 56.316406 89.746094 55.835938 C 88.84375 55.359375 87.921875 54.917969 86.980469 54.519531 C 86.042969 54.121094 85.085938 53.761719 84.113281 53.449219 C 83.144531 53.132812 82.160156 52.859375 81.164062 52.628906 C 80.167969 52.398438 79.164062 52.210938 78.152344 52.070312 C 77.140625 51.929688 76.125 51.828125 75.105469 51.777344 C 74.085938 51.722656 73.066406 51.710938 72.046875 51.746094 C 71.023438 51.78125 70.007812 51.863281 68.992188 51.984375 C 67.980469 52.109375 66.972656 52.277344 65.972656 52.488281 C 64.972656 52.699219 63.984375 52.953125 63.007812 53.25 C 62.03125 53.550781 61.070312 53.886719 60.121094 54.269531 C 59.171875 54.652344 58.246094 55.074219 57.332031 55.535156 C 56.421875 56 55.535156 56.5 54.667969 57.039062 C 53.800781 57.578125 52.957031 58.15625 52.140625 58.769531 C 51.324219 59.382812 50.535156 60.03125 49.773438 60.714844 C 49.015625 61.394531 48.285156 62.109375 47.585938 62.855469 C 46.890625 63.601562 46.226562 64.375 45.59375 65.179688 C 44.964844 65.984375 44.371094 66.8125 43.8125 67.667969 C 43.601562 68.34375 43.324219 68.992188 42.976562 69.609375 C 42.628906 70.230469 42.21875 70.800781 41.75 71.332031 C 41.277344 71.863281 40.753906 72.335938 40.183594 72.753906 C 39.609375 73.175781 39 73.527344 38.351562 73.8125 C 37.703125 74.101562 37.03125 74.316406 36.339844 74.460938 C 35.644531 74.605469 34.941406 74.671875 34.234375 74.667969 C 33.523438 74.660156 32.824219 74.578125 32.132812 74.421875 C 31.441406 74.265625 30.773438 74.035156 30.132812 73.734375 Z M 11.144531 67.949219 "/><g style="fill:#ffffff;fill-opacity:1;"><g transform="translate(29.936377, 63.523082)"><path style="stroke:none" d="M 13.375 -14.34375 L 11.0625 -11.875 L -0.09375 -17.21875 L 5.953125 -6.390625 L 3.671875 -3.9375 L -11.875 -11.359375 L -9.640625 -13.765625 L 1.8125 -8.21875 L -4.421875 -19.359375 L -2.4375 -21.484375 L 9.125 -15.953125 L 2.796875 -27.109375 L 4.859375 -29.328125 Z M 13.375 -14.34375 "/></g></g><g style="fill:#ffffff;fill-opacity:1;"><g transform="translate(46.643931, 46.753292)"><path style="stroke:none" d="M 12.125 -5.71875 L 1.421875 -0.671875 L -5.59375 -15.53125 L 4.84375 -20.453125 L 5.984375 -18.046875 L -1.625 -14.46875 L 0.125 -10.75 L 6.859375 -13.921875 L 7.96875 -11.5625 L 1.234375 -8.390625 L 3.109375 -4.4375 L 10.984375 -8.140625 Z M 12.125 -5.71875 "/></g></g><g style="fill:#ffffff;fill-opacity:1;"><g transform="translate(58.614095, 40.668377)"><path style="stroke:none" d="M 6.3125 -17.390625 C 7.976562 -17.597656 9.492188 -17.445312 10.859375 -16.9375 C 12.234375 -16.4375 13.351562 -15.613281 14.21875 -14.46875 C 15.09375 -13.332031 15.640625 -11.957031 15.859375 -10.34375 C 16.066406 -8.726562 15.890625 -7.253906 15.328125 -5.921875 C 14.773438 -4.597656 13.898438 -3.515625 12.703125 -2.671875 C 11.515625 -1.828125 10.085938 -1.300781 8.421875 -1.09375 L 1.5625 -0.203125 L -0.546875 -16.5 Z M 7.890625 -3.796875 C 8.992188 -3.941406 9.929688 -4.285156 10.703125 -4.828125 C 11.472656 -5.378906 12.03125 -6.097656 12.375 -6.984375 C 12.726562 -7.867188 12.835938 -8.851562 12.703125 -9.9375 C 12.554688 -11.019531 12.203125 -11.941406 11.640625 -12.703125 C 11.085938 -13.460938 10.367188 -14.015625 9.484375 -14.359375 C 8.597656 -14.710938 7.601562 -14.816406 6.5 -14.671875 L 2.9375 -14.21875 L 4.328125 -3.34375 Z M 7.890625 -3.796875 "/></g></g><g style="fill:#ffffff;fill-opacity:1;"><g transform="translate(75.881254, 39.144838)"><path style="stroke:none" d=""/></g></g><g style="fill:#ffffff;fill-opacity:1;"><g transform="translate(80.430484, 38.831965)"><path style="stroke:none" d="M 13.296875 -12.875 C 14.890625 -12.332031 16.1875 -11.535156 17.1875 -10.484375 C 18.195312 -9.429688 18.84375 -8.195312 19.125 -6.78125 C 19.414062 -5.375 19.300781 -3.898438 18.78125 -2.359375 C 18.257812 -0.816406 17.457031 0.425781 16.375 1.375 C 15.300781 2.332031 14.039062 2.925781 12.59375 3.15625 C 11.15625 3.394531 9.640625 3.242188 8.046875 2.703125 L 1.5 0.5 L 6.75 -15.078125 Z M 8.75 0.046875 C 9.8125 0.398438 10.8125 0.5 11.75 0.34375 C 12.6875 0.1875 13.5 -0.207031 14.1875 -0.84375 C 14.882812 -1.488281 15.410156 -2.332031 15.765625 -3.375 C 16.109375 -4.40625 16.195312 -5.390625 16.03125 -6.328125 C 15.863281 -7.265625 15.457031 -8.078125 14.8125 -8.765625 C 14.164062 -9.460938 13.3125 -9.988281 12.25 -10.34375 L 8.84375 -11.5 L 5.34375 -1.109375 Z M 8.75 0.046875 "/></g></g><g style="fill:#ffffff;fill-opacity:1;"><g transform="translate(96.340507, 44.344964)"><path style="stroke:none" d="M 10.765625 7.984375 L 1.265625 0.9375 L 11.046875 -12.265625 L 20.3125 -5.40625 L 18.71875 -3.265625 L 11.96875 -8.265625 L 9.53125 -4.96875 L 15.5 -0.546875 L 13.9375 1.5625 L 7.96875 -2.859375 L 5.375 0.65625 L 12.359375 5.84375 Z M 10.765625 7.984375 "/></g></g><g style="fill:#ffffff;fill-opacity:1;"><g transform="translate(107.282242, 52.419574)"><path style="stroke:none" d="M 3.828125 5.375 C 3.097656 4.425781 2.53125 3.390625 2.125 2.265625 C 1.71875 1.140625 1.539062 0.132812 1.59375 -0.75 L 4.21875 -1.421875 C 4.195312 -0.578125 4.335938 0.304688 4.640625 1.234375 C 4.953125 2.171875 5.398438 3.007812 5.984375 3.75 C 6.660156 4.632812 7.304688 5.171875 7.921875 5.359375 C 8.546875 5.554688 9.101562 5.46875 9.59375 5.09375 C 9.96875 4.800781 10.164062 4.445312 10.1875 4.03125 C 10.21875 3.613281 10.160156 3.171875 10.015625 2.703125 C 9.867188 2.242188 9.617188 1.609375 9.265625 0.796875 C 8.773438 -0.316406 8.421875 -1.257812 8.203125 -2.03125 C 7.984375 -2.800781 7.960938 -3.585938 8.140625 -4.390625 C 8.328125 -5.203125 8.847656 -5.941406 9.703125 -6.609375 C 10.429688 -7.179688 11.238281 -7.507812 12.125 -7.59375 C 13.007812 -7.675781 13.921875 -7.472656 14.859375 -6.984375 C 15.796875 -6.503906 16.6875 -5.71875 17.53125 -4.625 C 18.132812 -3.84375 18.617188 -3.003906 18.984375 -2.109375 C 19.347656 -1.222656 19.554688 -0.363281 19.609375 0.46875 L 17.015625 1.21875 C 16.941406 0.414062 16.757812 -0.34375 16.46875 -1.0625 C 16.1875 -1.789062 15.832031 -2.429688 15.40625 -2.984375 C 14.726562 -3.859375 14.070312 -4.382812 13.4375 -4.5625 C 12.800781 -4.738281 12.238281 -4.632812 11.75 -4.25 C 11.382812 -3.96875 11.179688 -3.613281 11.140625 -3.1875 C 11.109375 -2.769531 11.175781 -2.316406 11.34375 -1.828125 C 11.507812 -1.347656 11.765625 -0.710938 12.109375 0.078125 C 12.617188 1.210938 12.976562 2.15625 13.1875 2.90625 C 13.394531 3.664062 13.410156 4.445312 13.234375 5.25 C 13.066406 6.0625 12.5625 6.796875 11.71875 7.453125 C 10.988281 8.015625 10.179688 8.332031 9.296875 8.40625 C 8.410156 8.476562 7.488281 8.265625 6.53125 7.765625 C 5.582031 7.273438 4.679688 6.476562 3.828125 5.375 Z M 3.828125 5.375 "/></g></g><g style="fill:#ffffff;fill-opacity:1;"><g transform="translate(115.142005, 63.129008)"><path style="stroke:none" d="M 16.875 -2.875 L 2.109375 4.328125 L 0.734375 1.5 L 15.5 -5.703125 Z M 16.875 -2.875 "/></g></g><g style="fill:#ffffff;fill-opacity:1;"><g transform="translate(118.444732, 68.496356)"><path style="stroke:none" d="M 11.5625 13 L 5.140625 14.4375 C 4.304688 13.789062 3.585938 12.976562 2.984375 12 C 2.390625 11.019531 1.96875 9.984375 1.71875 8.890625 C 1.363281 7.328125 1.398438 5.832031 1.828125 4.40625 C 2.265625 2.988281 3.03125 1.785156 4.125 0.796875 C 5.226562 -0.191406 6.566406 -0.863281 8.140625 -1.21875 C 9.734375 -1.582031 11.234375 -1.546875 12.640625 -1.109375 C 14.054688 -0.671875 15.265625 0.0976562 16.265625 1.203125 C 17.265625 2.304688 17.941406 3.648438 18.296875 5.234375 C 18.585938 6.535156 18.625 7.765625 18.40625 8.921875 C 18.1875 10.078125 17.71875 11.117188 17 12.046875 L 14.640625 10.5 C 15.609375 9.125 15.910156 7.625 15.546875 6 C 15.304688 4.957031 14.863281 4.078125 14.21875 3.359375 C 13.570312 2.648438 12.78125 2.164062 11.84375 1.90625 C 10.914062 1.644531 9.914062 1.632812 8.84375 1.875 C 7.789062 2.113281 6.898438 2.546875 6.171875 3.171875 C 5.441406 3.804688 4.925781 4.582031 4.625 5.5 C 4.332031 6.425781 4.304688 7.410156 4.546875 8.453125 C 4.804688 9.609375 5.316406 10.550781 6.078125 11.28125 L 10.9375 10.1875 Z M 11.5625 13 "/></g></g><g style="fill:#ffffff;fill-opacity:1;"><g transform="translate(122.086459, 83.726518)"><path style="stroke:none" d="M -1.734375 15.59375 L -1.453125 13.03125 L 10.21875 5.9375 L -0.53125 4.734375 L -0.1875 1.65625 L 16.15625 3.46875 L 15.875 6.03125 L 4.21875 13.140625 L 14.953125 14.328125 L 14.609375 17.40625 Z M -1.734375 15.59375 "/></g></g></g></svg>